<svg width="12" height="15" viewBox="0 0 12 15" fill="none" xmlns="http://www.w3.org/2000/svg">
<path d="M2.70701 4.68965L2.27811 4.45059L1.16014 3.83184C0.930449 3.70527 0.785137 3.52949 0.724199 3.30449C0.667949 3.07949 0.686699 2.86152 0.780449 2.65059C0.878887 2.43965 1.04529 2.29434 1.27967 2.21465H1.2867L1.29373 2.20762H1.30076C1.31951 2.20293 1.32889 2.20059 1.32889 2.20059L2.70701 4.68965ZM2.70701 4.68965L2.65076 4.20449C2.6367 4.07793 2.62967 3.95605 2.62967 3.83887V2.84043V2.77012L2.59451 2.71387C2.47264 2.49824 2.29451 2.34121 2.06014 2.24277C1.82576 2.14434 1.58436 2.13027 1.33592 2.20059H1.32889L2.70701 4.68965ZM3.38904 0.75918H3.13592V1.0123V3.83887C3.13592 4.34512 3.26014 4.80918 3.50857 5.23105C3.7617 5.64824 4.09686 5.9834 4.51404 6.23652C4.93592 6.48496 5.40232 6.60918 5.91326 6.60918C6.4242 6.60918 6.88826 6.48496 7.30545 6.23652C7.72732 5.9834 8.06248 5.64824 8.31092 5.23105C8.56404 4.80918 8.69061 4.34512 8.69061 3.83887V1.0123V0.75918H8.43045H3.38904ZM2.98826 5.32246L2.95311 5.25215L2.88279 5.20996L0.977324 4.1623C0.742949 4.03105 0.571856 3.85527 0.464043 3.63496C0.356231 3.41465 0.309356 3.18496 0.323418 2.9459C0.342168 2.70215 0.421856 2.48184 0.562481 2.28496C0.707793 2.08809 0.909356 1.94746 1.16717 1.86309C1.17654 1.8584 1.19764 1.85137 1.23045 1.84199H1.23748C1.59373 1.74355 1.93826 1.77402 2.27107 1.9334L2.62967 2.10215V1.70137V0.358399C2.62967 0.288086 2.66482 0.25293 2.73514 0.25293H9.08436C9.15936 0.25293 9.19686 0.288086 9.19686 0.358399V1.70137V2.10215L9.55545 1.92637C9.88357 1.77168 10.2258 1.74355 10.582 1.84199H10.589C10.6219 1.85137 10.6429 1.8584 10.6523 1.86309C10.9101 1.94746 11.1094 2.08809 11.25 2.28496C11.3953 2.48184 11.4773 2.70215 11.4961 2.9459C11.5148 3.18496 11.4703 3.41465 11.3625 3.63496C11.2547 3.85527 11.0812 4.03105 10.8422 4.1623L8.94373 5.20996L8.87342 5.24512L8.84529 5.31543C8.62967 5.7373 8.33436 6.09824 7.95936 6.39824C7.58904 6.69824 7.16717 6.90449 6.69373 7.01699L6.50389 7.06621V7.27012V7.86074C6.50389 8.32949 6.6867 8.71855 7.05232 9.02793L8.02264 9.83652L8.09295 9.8998H8.18436H9.52732C9.66795 9.8998 9.78748 9.93965 9.88592 10.0193C9.98904 10.099 10.0547 10.1975 10.0828 10.3146L10.8984 13.9076C10.8984 13.9076 10.8984 13.91 10.8984 13.9146C10.889 13.924 10.8797 13.9287 10.8703 13.9287H0.794512C0.780449 13.9287 0.771074 13.924 0.766387 13.9146C0.766387 13.9146 0.764043 13.9146 0.759356 13.9146C0.759356 13.91 0.759356 13.9076 0.759356 13.9076L1.58201 10.3146C1.60545 10.1975 1.66639 10.099 1.76482 10.0193C1.86795 9.93965 1.98982 9.8998 2.13045 9.8998H3.63514H3.72654L3.79686 9.83652L4.76717 9.02793C5.13279 8.72793 5.31561 8.33887 5.31561 7.86074V7.26309V7.06621L5.12576 7.01699C4.65701 6.90449 4.23514 6.69824 3.86014 6.39824C3.48982 6.09824 3.1992 5.73965 2.98826 5.32246ZM9.23201 2.6998L9.19686 2.76309V2.8334V3.83887C9.19686 3.96074 9.18982 4.08027 9.17576 4.19746L9.11951 4.68965L9.54842 4.45059L10.6594 3.83184C10.889 3.70527 11.032 3.52949 11.0883 3.30449C11.1492 3.07949 11.1304 2.86152 11.032 2.65059C10.9383 2.43965 10.7742 2.29434 10.5398 2.21465H10.5328L10.5258 2.20762H10.5187H10.5047L10.4906 2.20059H10.4836L10.4203 2.44668L10.4836 2.20059C10.2398 2.13027 10.0008 2.14434 9.76639 2.24277C9.5367 2.33652 9.35857 2.48887 9.23201 2.6998ZM7.29139 10.8771H4.36639C4.2117 10.8771 4.07811 10.9334 3.96561 11.0459C3.85779 11.1584 3.80389 11.2943 3.80389 11.4537V12.3678C3.80389 12.5225 3.85545 12.6561 3.95857 12.7686C4.06639 12.8857 4.20232 12.9443 4.36639 12.9443H7.29139C7.45076 12.9443 7.58436 12.8881 7.69217 12.7756C7.79998 12.6631 7.85389 12.5271 7.85389 12.3678V11.4537C7.85389 11.299 7.79998 11.1654 7.69217 11.0529C7.58904 10.9357 7.45545 10.8771 7.29139 10.8771ZM2.75623 5.43496L0.843731 4.37324C0.281231 4.05449 0.0257619 3.57168 0.0773244 2.9248C0.128887 2.26387 0.466387 1.82793 1.08982 1.61699C1.10857 1.6123 1.1367 1.60527 1.1742 1.5959C1.20232 1.58652 1.23279 1.57949 1.26561 1.5748L1.41326 1.53965V1.54668C1.74607 1.4998 2.06717 1.55137 2.37654 1.70137V0.358399C2.37654 0.119336 2.49607 -0.00019499 2.73514 -0.00019499H9.08436C9.32811 -0.00019499 9.44998 0.119336 9.44998 0.358399V1.70137C9.83436 1.51855 10.2328 1.4834 10.6453 1.5959H10.6523C10.6804 1.60527 10.7039 1.6123 10.7226 1.61699L10.9828 1.6873L10.9687 1.71543C11.4422 1.9498 11.7 2.35293 11.7422 2.9248C11.7937 3.58105 11.5336 4.06621 10.9617 4.38027L10.9054 4.41543L9.07029 5.42793C8.57811 6.39824 7.80701 7.0123 6.75701 7.27012V7.86074C6.75701 8.25449 6.90936 8.57793 7.21404 8.83105L8.18436 9.64668H9.52732C9.96795 9.64668 10.2351 9.85059 10.3289 10.2584L11.1304 13.7811V13.7881L11.1445 13.8514C11.1445 13.8467 11.1422 13.842 11.1375 13.8373L11.1445 13.8584V13.8654C11.1492 13.8748 11.1515 13.8818 11.1515 13.8865C11.1515 13.8818 11.1492 13.8748 11.1445 13.8654L11.1515 13.8795V13.9006C11.1515 13.9053 11.1515 13.91 11.1515 13.9146V13.9709L11.1234 14.0201C11.114 14.0436 11.1023 14.0623 11.0883 14.0764C11.032 14.1467 10.9594 14.1818 10.8703 14.1818H0.794512C0.700762 14.1818 0.625762 14.1467 0.569512 14.0764C0.546074 14.0482 0.529668 14.0154 0.520293 13.9779L0.506231 13.9428V13.9006C0.510918 13.8865 0.513262 13.8725 0.513262 13.8584L0.520293 13.8443L1.33592 10.2654V10.2584L1.34295 10.2162L1.37811 10.0615H1.39217C1.51404 9.78496 1.76014 9.64668 2.13045 9.64668H3.63514L4.61248 8.83105C4.91248 8.57793 5.06248 8.25449 5.06248 7.86074V7.26309C4.01717 7.00996 3.24842 6.40059 2.75623 5.43496ZM1.77889 10.5748L1.07576 13.6756H10.582L9.82967 10.3709C9.79686 10.2256 9.69607 10.1529 9.52732 10.1529H8.00154L7.86092 10.0334L6.88357 9.21777C6.4617 8.86152 6.25076 8.40918 6.25076 7.86074V6.86934L6.48279 6.81309C6.29998 6.8459 6.11014 6.8623 5.91326 6.8623C5.71639 6.8623 5.52654 6.8459 5.34373 6.81309L5.56873 6.86934V7.86074C5.56873 8.41855 5.35545 8.87324 4.92889 9.2248L3.95857 10.0334L3.81795 10.1529H2.13045C1.95701 10.1529 1.85623 10.2232 1.82811 10.3639L1.78592 10.5748H1.77889ZM3.38904 1.0123V3.83887C3.38904 4.53262 3.63514 5.12559 4.12732 5.61777C4.61951 6.10996 5.21482 6.35605 5.91326 6.35605C6.60701 6.35605 7.20232 6.10996 7.6992 5.61777C8.1867 5.12559 8.43045 4.53262 8.43045 3.83887V1.0123H3.38904ZM7.29139 10.624C7.83514 10.624 8.10701 10.9006 8.10701 11.4537V12.3678C8.10701 12.5975 8.02967 12.792 7.87498 12.9514C7.71561 13.1201 7.52107 13.2045 7.29139 13.2045H4.36639C3.82264 13.2045 3.55076 12.9256 3.55076 12.3678V11.4537C3.55076 10.9006 3.82264 10.624 4.36639 10.624H7.29139ZM7.29139 11.1303H4.36639C4.16014 11.1303 4.05701 11.2381 4.05701 11.4537V12.3678C4.05701 12.5834 4.16014 12.6912 4.36639 12.6912H7.29139C7.37576 12.6912 7.44842 12.6607 7.50936 12.5998C7.57029 12.5389 7.60076 12.4615 7.60076 12.3678V11.4537C7.60076 11.2381 7.49764 11.1303 7.29139 11.1303ZM9.44998 2.8334V3.83887C9.44998 3.97012 9.44295 4.09902 9.42889 4.22559L10.4062 3.68418L10.4976 3.63496L10.5258 3.6209L10.4976 3.63496C10.5117 3.62559 10.5304 3.61621 10.5539 3.60684C10.5492 3.60684 10.5445 3.60918 10.5398 3.61387L10.5539 3.60684C10.7883 3.4709 10.8937 3.26699 10.8703 2.99512C10.8469 2.72324 10.7133 2.54512 10.4695 2.46074L10.4203 2.44668L10.4695 2.46074L10.4133 2.43965C9.99139 2.32715 9.67029 2.4584 9.44998 2.8334ZM2.06014 4.04277L1.21639 2.52402C1.05701 2.62246 0.967949 2.77949 0.949199 2.99512C0.925762 3.27168 1.03592 3.47793 1.27967 3.61387L1.29373 3.6209L2.06014 4.04277ZM2.37654 3.57168V2.84043C2.21717 2.56387 2.00154 2.41855 1.72967 2.40449L2.37654 3.57168ZM8.69061 5.05527L8.8242 4.98496H8.83123L8.90857 4.30996C8.87107 4.57246 8.79842 4.8209 8.69061 5.05527ZM2.70701 2.41855C2.74451 2.47012 2.77967 2.52637 2.81248 2.5873L2.88279 2.70684V2.50293L2.70701 2.41855ZM9.01404 2.57324C9.04686 2.51699 9.07967 2.46543 9.11248 2.41855L8.94373 2.4959V2.69277L9.01404 2.57324ZM7.26326 6.55293C7.72732 6.33262 8.10701 6.00449 8.40232 5.56855C8.2992 5.70918 8.18201 5.84512 8.05076 5.97637C7.8117 6.21543 7.5492 6.40762 7.26326 6.55293ZM4.55623 6.55293C4.27498 6.40762 4.01248 6.21543 3.76873 5.97637C3.64217 5.84512 3.52732 5.71152 3.4242 5.57559C3.71951 6.00684 4.09686 6.33262 4.55623 6.55293ZM3.00232 4.70371C2.96482 4.57715 2.9367 4.44824 2.91795 4.31699L2.95311 4.6123L3.00232 4.70371ZM11.1445 13.8654C11.1445 13.8607 11.1445 13.8561 11.1445 13.8514V13.8584V13.8654Z" fill="#712382"/>
</svg>
