<svg width="12" height="15" viewBox="0 0 12 15" fill="none" xmlns="http://www.w3.org/2000/svg">
<path d="M2.70689 4.68965L2.27798 4.45059L1.16001 3.83184C0.930327 3.70527 0.785015 3.52949 0.724077 3.30449C0.667827 3.07949 0.686577 2.86152 0.780327 2.65059C0.878765 2.43965 1.04517 2.29434 1.27955 2.21465H1.28658L1.29361 2.20762H1.30064C1.31939 2.20293 1.32876 2.20059 1.32876 2.20059L2.70689 4.68965ZM2.70689 4.68965L2.65064 4.20449C2.63658 4.07793 2.62955 3.95605 2.62955 3.83887V2.84043V2.77012L2.59439 2.71387C2.47251 2.49824 2.29439 2.34121 2.06001 2.24277C1.82564 2.14434 1.58423 2.13027 1.3358 2.20059H1.32876L2.70689 4.68965ZM3.38892 0.75918H3.1358V1.0123V3.83887C3.1358 4.34512 3.26001 4.80918 3.50845 5.23105C3.76158 5.64824 4.09673 5.9834 4.51392 6.23652C4.9358 6.48496 5.4022 6.60918 5.91314 6.60918C6.42408 6.60918 6.88814 6.48496 7.30533 6.23652C7.7272 5.9834 8.06236 5.64824 8.3108 5.23105C8.56392 4.80918 8.69048 4.34512 8.69048 3.83887V1.0123V0.75918H8.43033H3.38892ZM2.98814 5.32246L2.95298 5.25215L2.88267 5.20996L0.977202 4.1623C0.742827 4.03105 0.571734 3.85527 0.463921 3.63496C0.356109 3.41465 0.309234 3.18496 0.323296 2.9459C0.342046 2.70215 0.421734 2.48184 0.562359 2.28496C0.707671 2.08809 0.909234 1.94746 1.16705 1.86309C1.17642 1.8584 1.19751 1.85137 1.23033 1.84199H1.23736C1.59361 1.74355 1.93814 1.77402 2.27095 1.9334L2.62955 2.10215V1.70137V0.358399C2.62955 0.288086 2.6647 0.25293 2.73501 0.25293H9.08423C9.15923 0.25293 9.19673 0.288086 9.19673 0.358399V1.70137V2.10215L9.55533 1.92637C9.88345 1.77168 10.2256 1.74355 10.5819 1.84199H10.5889C10.6217 1.85137 10.6428 1.8584 10.6522 1.86309C10.91 1.94746 11.1092 2.08809 11.2499 2.28496C11.3952 2.48184 11.4772 2.70215 11.496 2.9459C11.5147 3.18496 11.4702 3.41465 11.3624 3.63496C11.2545 3.85527 11.0811 4.03105 10.842 4.1623L8.94361 5.20996L8.8733 5.24512L8.84517 5.31543C8.62955 5.7373 8.33423 6.09824 7.95923 6.39824C7.58892 6.69824 7.16705 6.90449 6.69361 7.01699L6.50376 7.06621V7.27012V7.86074C6.50376 8.32949 6.68658 8.71855 7.0522 9.02793L8.02251 9.83652L8.09283 9.8998H8.18423H9.5272C9.66783 9.8998 9.78736 9.93965 9.8858 10.0193C9.98892 10.099 10.0545 10.1975 10.0827 10.3146L10.8983 13.9076C10.8983 13.9076 10.8983 13.91 10.8983 13.9146C10.8889 13.924 10.8795 13.9287 10.8702 13.9287H0.79439C0.780327 13.9287 0.770952 13.924 0.766265 13.9146C0.766265 13.9146 0.763921 13.9146 0.759234 13.9146C0.759234 13.91 0.759234 13.9076 0.759234 13.9076L1.58189 10.3146C1.60533 10.1975 1.66626 10.099 1.7647 10.0193C1.86783 9.93965 1.9897 9.8998 2.13033 9.8998H3.63501H3.72642L3.79673 9.83652L4.76705 9.02793C5.13267 8.72793 5.31548 8.33887 5.31548 7.86074V7.26309V7.06621L5.12564 7.01699C4.65689 6.90449 4.23501 6.69824 3.86001 6.39824C3.4897 6.09824 3.19908 5.73965 2.98814 5.32246ZM9.23189 2.6998L9.19673 2.76309V2.8334V3.83887C9.19673 3.96074 9.1897 4.08027 9.17564 4.19746L9.11939 4.68965L9.5483 4.45059L10.6592 3.83184C10.8889 3.70527 11.0319 3.52949 11.0881 3.30449C11.1491 3.07949 11.1303 2.86152 11.0319 2.65059C10.9381 2.43965 10.7741 2.29434 10.5397 2.21465H10.5327L10.5256 2.20762H10.5186H10.5045L10.4905 2.20059H10.4835L10.4202 2.44668L10.4835 2.20059C10.2397 2.13027 10.0006 2.14434 9.76626 2.24277C9.53658 2.33652 9.35845 2.48887 9.23189 2.6998ZM7.29126 10.8771H4.36626C4.21158 10.8771 4.07798 10.9334 3.96548 11.0459C3.85767 11.1584 3.80376 11.2943 3.80376 11.4537V12.3678C3.80376 12.5225 3.85533 12.6561 3.95845 12.7686C4.06626 12.8857 4.2022 12.9443 4.36626 12.9443H7.29126C7.45064 12.9443 7.58423 12.8881 7.69205 12.7756C7.79986 12.6631 7.85376 12.5271 7.85376 12.3678V11.4537C7.85376 11.299 7.79986 11.1654 7.69205 11.0529C7.58892 10.9357 7.45533 10.8771 7.29126 10.8771ZM2.75611 5.43496L0.843609 4.37324C0.281109 4.05449 0.0256398 3.57168 0.0772023 2.9248C0.128765 2.26387 0.466265 1.82793 1.0897 1.61699C1.10845 1.6123 1.13658 1.60527 1.17408 1.5959C1.2022 1.58652 1.23267 1.57949 1.26548 1.5748L1.41314 1.53965V1.54668C1.74595 1.4998 2.06705 1.55137 2.37642 1.70137V0.358399C2.37642 0.119336 2.49595 -0.00019499 2.73501 -0.00019499H9.08423C9.32798 -0.00019499 9.44986 0.119336 9.44986 0.358399V1.70137C9.83423 1.51855 10.2327 1.4834 10.6452 1.5959H10.6522C10.6803 1.60527 10.7038 1.6123 10.7225 1.61699L10.9827 1.6873L10.9686 1.71543C11.442 1.9498 11.6999 2.35293 11.742 2.9248C11.7936 3.58105 11.5335 4.06621 10.9616 4.38027L10.9053 4.41543L9.07017 5.42793C8.57798 6.39824 7.80689 7.0123 6.75689 7.27012V7.86074C6.75689 8.25449 6.90923 8.57793 7.21392 8.83105L8.18423 9.64668H9.5272C9.96783 9.64668 10.235 9.85059 10.3288 10.2584L11.1303 13.7811V13.7881L11.1444 13.8514C11.1444 13.8467 11.142 13.842 11.1374 13.8373L11.1444 13.8584V13.8654C11.1491 13.8748 11.1514 13.8818 11.1514 13.8865C11.1514 13.8818 11.1491 13.8748 11.1444 13.8654L11.1514 13.8795V13.9006C11.1514 13.9053 11.1514 13.91 11.1514 13.9146V13.9709L11.1233 14.0201C11.1139 14.0436 11.1022 14.0623 11.0881 14.0764C11.0319 14.1467 10.9592 14.1818 10.8702 14.1818H0.79439C0.70064 14.1818 0.62564 14.1467 0.56939 14.0764C0.545952 14.0482 0.529546 14.0154 0.520171 13.9779L0.506109 13.9428V13.9006C0.510796 13.8865 0.51314 13.8725 0.51314 13.8584L0.520171 13.8443L1.3358 10.2654V10.2584L1.34283 10.2162L1.37798 10.0615H1.39205C1.51392 9.78496 1.76001 9.64668 2.13033 9.64668H3.63501L4.61236 8.83105C4.91236 8.57793 5.06236 8.25449 5.06236 7.86074V7.26309C4.01705 7.00996 3.2483 6.40059 2.75611 5.43496ZM1.77876 10.5748L1.07564 13.6756H10.5819L9.82955 10.3709C9.79673 10.2256 9.69595 10.1529 9.5272 10.1529H8.00142L7.8608 10.0334L6.88345 9.21777C6.46158 8.86152 6.25064 8.40918 6.25064 7.86074V6.86934L6.48267 6.81309C6.29986 6.8459 6.11001 6.8623 5.91314 6.8623C5.71626 6.8623 5.52642 6.8459 5.34361 6.81309L5.56861 6.86934V7.86074C5.56861 8.41855 5.35533 8.87324 4.92876 9.2248L3.95845 10.0334L3.81783 10.1529H2.13033C1.95689 10.1529 1.85611 10.2232 1.82798 10.3639L1.7858 10.5748H1.77876ZM3.38892 1.0123V3.83887C3.38892 4.53262 3.63501 5.12559 4.1272 5.61777C4.61939 6.10996 5.2147 6.35605 5.91314 6.35605C6.60689 6.35605 7.2022 6.10996 7.69908 5.61777C8.18658 5.12559 8.43033 4.53262 8.43033 3.83887V1.0123H3.38892ZM7.29126 10.624C7.83501 10.624 8.10689 10.9006 8.10689 11.4537V12.3678C8.10689 12.5975 8.02955 12.792 7.87486 12.9514C7.71548 13.1201 7.52095 13.2045 7.29126 13.2045H4.36626C3.82251 13.2045 3.55064 12.9256 3.55064 12.3678V11.4537C3.55064 10.9006 3.82251 10.624 4.36626 10.624H7.29126ZM7.29126 11.1303H4.36626C4.16001 11.1303 4.05689 11.2381 4.05689 11.4537V12.3678C4.05689 12.5834 4.16001 12.6912 4.36626 12.6912H7.29126C7.37564 12.6912 7.4483 12.6607 7.50923 12.5998C7.57017 12.5389 7.60064 12.4615 7.60064 12.3678V11.4537C7.60064 11.2381 7.49751 11.1303 7.29126 11.1303ZM9.44986 2.8334V3.83887C9.44986 3.97012 9.44283 4.09902 9.42876 4.22559L10.4061 3.68418L10.4975 3.63496L10.5256 3.6209L10.4975 3.63496C10.5116 3.62559 10.5303 3.61621 10.5538 3.60684C10.5491 3.60684 10.5444 3.60918 10.5397 3.61387L10.5538 3.60684C10.7881 3.4709 10.8936 3.26699 10.8702 2.99512C10.8467 2.72324 10.7131 2.54512 10.4694 2.46074L10.4202 2.44668L10.4694 2.46074L10.4131 2.43965C9.99126 2.32715 9.67017 2.4584 9.44986 2.8334ZM2.06001 4.04277L1.21626 2.52402C1.05689 2.62246 0.967827 2.77949 0.949077 2.99512C0.92564 3.27168 1.0358 3.47793 1.27955 3.61387L1.29361 3.6209L2.06001 4.04277ZM2.37642 3.57168V2.84043C2.21705 2.56387 2.00142 2.41855 1.72955 2.40449L2.37642 3.57168ZM8.69048 5.05527L8.82408 4.98496H8.83111L8.90845 4.30996C8.87095 4.57246 8.7983 4.8209 8.69048 5.05527ZM2.70689 2.41855C2.74439 2.47012 2.77955 2.52637 2.81236 2.5873L2.88267 2.70684V2.50293L2.70689 2.41855ZM9.01392 2.57324C9.04673 2.51699 9.07955 2.46543 9.11236 2.41855L8.94361 2.4959V2.69277L9.01392 2.57324ZM7.26314 6.55293C7.7272 6.33262 8.10689 6.00449 8.4022 5.56855C8.29908 5.70918 8.18189 5.84512 8.05064 5.97637C7.81158 6.21543 7.54908 6.40762 7.26314 6.55293ZM4.55611 6.55293C4.27486 6.40762 4.01236 6.21543 3.76861 5.97637C3.64205 5.84512 3.5272 5.71152 3.42408 5.57559C3.71939 6.00684 4.09673 6.33262 4.55611 6.55293ZM3.0022 4.70371C2.9647 4.57715 2.93658 4.44824 2.91783 4.31699L2.95298 4.6123L3.0022 4.70371ZM11.1444 13.8654C11.1444 13.8607 11.1444 13.8561 11.1444 13.8514V13.8584V13.8654Z" fill="#06AB5C"/>
</svg>
