<svg width="36" height="36" viewBox="0 0 36 36" fill="none" xmlns="http://www.w3.org/2000/svg">
<g clip-path="url(#clip0_627_2321)">
<path d="M30.3938 36H3.43969C3.375 35.9784 3.31125 35.9475 3.24469 35.9363C2.03625 35.7244 1.10531 35.0925 0.51375 34.0238C0.2775 33.5963 0.167812 33.0975 0 32.6316C0 25.9406 0 19.2506 0 12.5597C0.0215625 12.4941 0.0496875 12.4303 0.0646875 12.3628C0.406875 10.7606 1.37531 9.74438 2.94563 9.29719C3.15375 9.23813 3.37125 9.21188 3.60844 9.16594C3.45094 8.73282 3.30094 8.32875 3.1575 7.92282C2.66344 6.52313 3.255 5.19188 4.64344 4.68094C8.70844 3.18657 12.7772 1.70438 16.8506 0.233441C18.1809 -0.247496 19.5094 0.386254 20.0147 1.70813C20.2772 2.39438 20.5322 3.08532 20.7619 3.78375C20.8491 4.04813 20.9625 4.14188 21.2512 4.14C23.3916 4.12594 25.5319 4.12407 27.6722 4.13719C29.0344 4.14563 30.09 5.20782 30.1106 6.56719C30.1219 7.3275 30.1134 8.08688 30.1134 8.84719C30.1134 8.95782 30.1134 9.06844 30.1134 9.1725C32.445 9.43782 33.8325 10.9866 33.8334 13.2741C33.8334 14.4197 33.8334 15.5663 33.8334 16.7119C33.8334 16.8947 33.8334 17.0784 33.8334 17.2538C33.9159 17.2828 33.9581 17.3016 34.0031 17.3128C35.2116 17.625 35.9353 18.54 35.9381 19.7775C35.9428 21.6253 35.9456 23.4722 35.9362 25.32C35.9306 26.4572 35.2012 27.3909 34.1091 27.6984C34.0228 27.7228 33.9356 27.7463 33.8334 27.7744C33.8334 27.9188 33.8334 28.0463 33.8334 28.1738C33.8334 29.5181 33.8475 30.8634 33.8269 32.2078C33.8025 33.8784 32.6906 35.3344 31.0997 35.8172C30.8672 35.8875 30.6291 35.9391 30.3938 35.9991V36ZM31.7278 27.7828C30.3731 27.7828 29.0747 27.7978 27.7762 27.78C24.9619 27.7416 22.6416 25.4231 22.6031 22.6294C22.5619 19.6575 24.8869 17.2819 27.8662 17.2584C29.0241 17.2491 30.1828 17.2566 31.3406 17.2566C31.4634 17.2566 31.5872 17.2566 31.7269 17.2566C31.7269 15.8353 31.7316 14.4675 31.725 13.0997C31.7203 12.0375 30.9759 11.2931 29.9072 11.2922C21.2503 11.2894 12.5934 11.2894 3.93656 11.2922C2.84531 11.2922 2.10563 12.0338 2.10469 13.1203C2.10188 19.4241 2.10281 25.7288 2.10469 32.0325C2.10469 33.1378 2.84906 33.8869 3.9525 33.8869C12.5972 33.8888 21.2428 33.8897 29.8875 33.8869C30.9712 33.8869 31.7203 33.1369 31.7241 32.0569C31.7297 30.735 31.725 29.4131 31.725 28.0922C31.725 28.0013 31.725 27.9113 31.725 27.7819L31.7278 27.7828ZM18.6394 4.09875C18.4519 3.57188 18.2728 3.05532 18.0844 2.5425C17.9494 2.17594 17.8181 2.11782 17.4384 2.25563C13.4447 3.70782 9.45094 5.16094 5.45813 6.615C5.085 6.75094 5.02125 6.88688 5.15344 7.25532C5.34656 7.79344 5.56687 8.32313 5.7375 8.86782C5.82094 9.13407 5.955 9.19125 6.21375 9.19032C9.255 9.18188 12.2962 9.18469 15.3366 9.18469C15.4594 9.18469 15.5822 9.18469 15.6909 9.18469C15.7078 9.12 15.7125 9.10875 15.7125 9.0975C15.7163 8.24438 15.7106 7.39032 15.7256 6.53719C15.7453 5.40282 16.53 4.43813 17.6381 4.20094C17.9522 4.13344 18.2803 4.13344 18.6375 4.09875H18.6394ZM30.5344 19.3613C29.6925 19.3613 28.8506 19.3584 28.0078 19.3631C27.7978 19.3641 27.585 19.3659 27.3787 19.4016C25.7147 19.6922 24.5794 21.1378 24.7163 22.7813C24.8531 24.4191 26.2144 25.665 27.9038 25.6753C29.7047 25.6866 31.5056 25.6791 33.3075 25.6772C33.7238 25.6772 33.8316 25.5713 33.8316 25.1644C33.8334 23.3991 33.8334 21.6328 33.8316 19.8675C33.8316 19.455 33.7331 19.3631 33.3047 19.3622C32.3803 19.3603 31.4569 19.3622 30.5325 19.3622L30.5344 19.3613ZM17.8303 9.16125H28.0078C28.0078 8.36813 28.0078 7.59844 28.0078 6.82875C28.0078 6.3075 27.9394 6.23719 27.4266 6.23719C24.4228 6.23719 21.42 6.23719 18.4163 6.23719C18.3459 6.23719 18.2756 6.23719 18.2062 6.23907C17.9672 6.24844 17.8341 6.37688 17.8331 6.61219C17.8284 7.45219 17.8312 8.29219 17.8312 9.16032L17.8303 9.16125Z" fill="#9B9F9D"/>
<path d="M27.8551 23.5719C27.2898 23.5644 26.8136 23.0807 26.8154 22.5144C26.8173 21.9285 27.3057 21.456 27.8964 21.47C28.4682 21.4841 28.9304 21.9669 28.9182 22.5378C28.9061 23.1041 28.4176 23.5794 27.8551 23.571V23.5719Z" fill="#9B9F9D"/>
</g>
<defs>
<clipPath id="clip0_627_2321">
<rect width="36" height="36" fill="white"/>
</clipPath>
</defs>
</svg>
