<svg width="40" height="40" viewBox="0 0 40 40" fill="none" xmlns="http://www.w3.org/2000/svg">
<path fill-rule="evenodd" clip-rule="evenodd" d="M30.2832 18.75C27.5232 18.75 25.2832 20.99 25.2832 23.75C25.2832 26.51 27.5232 28.75 30.2832 28.75C33.0432 28.75 35.2832 26.51 35.2832 23.75C35.2832 20.99 33.0432 18.75 30.2832 18.75ZM30.2832 21.25C31.6632 21.25 32.7832 22.37 32.7832 23.75C32.7832 25.13 31.6632 26.25 30.2832 26.25C28.9032 26.25 27.7832 25.13 27.7832 23.75C27.7832 22.37 28.9032 21.25 30.2832 21.25Z" fill="#9B9F9D"/>
<path fill-rule="evenodd" clip-rule="evenodd" d="M25.5449 37.9167C28.0782 37.9167 32.4999 37.9167 35.0332 37.895C35.9682 37.895 36.8549 37.4317 37.3966 36.655C37.9382 35.8783 38.0649 34.8867 37.7382 33.9983C36.6499 30.9467 33.7216 28.75 30.2832 28.75C26.8499 28.75 23.9232 30.94 22.8066 33.9917C22.4766 34.8867 22.6049 35.8867 23.1516 36.6683C23.6966 37.4517 24.5916 37.9167 25.5449 37.9167ZM25.5449 35.4167C25.4082 35.4167 25.2799 35.35 25.2016 35.2383C25.1232 35.1267 25.1049 34.9833 25.1516 34.855C25.1532 34.855 25.1532 34.8533 25.1532 34.8533C25.9199 32.7583 27.9266 31.25 30.2832 31.25C32.6366 31.25 34.6399 32.7533 35.3882 34.85C35.3899 34.855 35.3899 34.86 35.3916 34.8633C35.4366 34.985 35.4199 35.12 35.3449 35.225C35.2716 35.3317 35.1516 35.395 35.0216 35.395C35.0182 35.395 35.0149 35.395 35.0116 35.395C32.4832 35.4167 28.0716 35.4167 25.5449 35.4167Z" fill="#9B9F9D"/>
<path fill-rule="evenodd" clip-rule="evenodd" d="M34.5833 14.9997V10.833C34.5833 7.38134 31.7849 4.58301 28.3333 4.58301H8.33325C4.88159 4.58301 2.08325 7.38134 2.08325 10.833V30.833C2.08325 34.2847 4.88159 37.083 8.33325 37.083H18.3333C19.0233 37.083 19.5833 36.523 19.5833 35.833C19.5833 35.143 19.0233 34.583 18.3333 34.583C18.3333 34.583 12.6966 34.583 8.33325 34.583C6.26159 34.583 4.58325 32.9047 4.58325 30.833V10.833C4.58325 8.76134 6.26159 7.08301 8.33325 7.08301H28.3333C30.4049 7.08301 32.0833 8.76134 32.0833 10.833V14.9997C32.0833 15.6897 32.6433 16.2497 33.3333 16.2497C34.0233 16.2497 34.5833 15.6897 34.5833 14.9997Z" fill="#9B9F9D"/>
<path fill-rule="evenodd" clip-rule="evenodd" d="M10 3.33301V8.33301C10 9.02301 10.56 9.58301 11.25 9.58301C11.94 9.58301 12.5 9.02301 12.5 8.33301V3.33301C12.5 2.64301 11.94 2.08301 11.25 2.08301C10.56 2.08301 10 2.64301 10 3.33301Z" fill="#9B9F9D"/>
<path fill-rule="evenodd" clip-rule="evenodd" d="M24.1665 3.33301V8.33301C24.1665 9.02301 24.7265 9.58301 25.4165 9.58301C26.1065 9.58301 26.6665 9.02301 26.6665 8.33301V3.33301C26.6665 2.64301 26.1065 2.08301 25.4165 2.08301C24.7265 2.08301 24.1665 2.64301 24.1665 3.33301Z" fill="#9B9F9D"/>
<path fill-rule="evenodd" clip-rule="evenodd" d="M10 17.916H15.1667C15.8567 17.916 16.4167 17.356 16.4167 16.666C16.4167 15.976 15.8567 15.416 15.1667 15.416H10C9.31 15.416 8.75 15.976 8.75 16.666C8.75 17.356 9.31 17.916 10 17.916Z" fill="#9B9F9D"/>
<path fill-rule="evenodd" clip-rule="evenodd" d="M10 24.583H18.3333C19.0233 24.583 19.5833 24.023 19.5833 23.333C19.5833 22.643 19.0233 22.083 18.3333 22.083H10C9.31 22.083 8.75 22.643 8.75 23.333C8.75 24.023 9.31 24.583 10 24.583Z" fill="#9B9F9D"/>
</svg>
