<svg width="37" height="37" viewBox="0 0 37 37" fill="none" xmlns="http://www.w3.org/2000/svg">
<mask id="mask0_627_1677" style="mask-type:luminance" maskUnits="userSpaceOnUse" x="0" y="0" width="37" height="37">
<path d="M36.0415 0H0V36.1433H36.0415V0Z" fill="white"/>
</mask>
<g mask="url(#mask0_627_1677)">
<g opacity="0.5">
<path d="M36.1031 18.1025C36.1031 28.0497 27.9706 36.2051 18.0515 36.2051C8.07076 36.1433 0.0615234 28.0497 0.0615234 18.1025C0.0615234 8.15541 8.19396 0 18.1131 0C28.0322 0.0617834 36.1031 8.15541 36.1031 18.1025ZM32.5297 18.1025C32.5297 10.1943 26.0607 3.64522 18.1131 3.58344C10.2271 3.52165 3.63486 10.0707 3.63486 18.0407C3.63486 25.949 10.1039 32.4981 18.0515 32.5598C25.9375 32.6216 32.4681 26.0726 32.5297 18.1025Z" fill="#434343"/>
<path d="M19.838 20.7589C19.838 22.2417 19.838 23.7245 19.838 25.2691C19.838 26.5666 18.9139 27.308 17.6201 27.0608C16.8808 26.9373 16.3263 26.3812 16.2646 25.578C16.2646 25.4545 16.2646 25.3927 16.2646 25.2691C16.2646 22.2417 16.2646 19.2761 16.2646 16.2488C16.2646 14.8895 17.4352 14.0863 18.729 14.5188C19.4683 14.766 19.838 15.322 19.8996 16.187C19.838 17.7316 19.838 19.2761 19.838 20.7589Z" fill="#434343"/>
<path d="M19.838 10.8122C19.838 11.8008 19.0371 12.604 18.0513 12.6657C17.0656 12.6657 16.2646 11.8625 16.2646 10.874C16.2646 9.88548 17.0656 9.08229 18.0513 9.02051C19.0371 9.02051 19.838 9.82371 19.838 10.8122Z" fill="#434343"/>
</g>
</g>
</svg>
