<svg width="28" height="32" viewBox="0 0 28 32" fill="none" xmlns="http://www.w3.org/2000/svg">
<mask id="mask0_627_1700" style="mask-type:luminance" maskUnits="userSpaceOnUse" x="0" y="0" width="28" height="32">
<path d="M27.7623 0H0V31.3907H27.7623V0Z" fill="white"/>
</mask>
<g mask="url(#mask0_627_1700)">
<g opacity="0.5">
<path d="M10.0611 15.5079C5.8999 13.328 4.78197 8.84364 5.96202 5.54263C7.20418 2.11705 10.4337 -0.0628547 14.2844 0.0617117C17.7625 0.186278 20.93 2.6776 21.8616 6.10317C22.7932 9.52875 21.4269 13.5149 17.5762 15.5702C17.7625 15.6325 17.8867 15.6948 18.0109 15.7571C23.3522 17.6256 26.5197 21.238 27.4513 26.7189C27.6377 27.84 27.5755 28.9611 27.6376 30.1445C27.6376 30.8919 27.0166 31.3902 26.3334 31.4524C26.2091 31.4524 26.0849 31.4524 25.9607 31.4524C17.8246 31.4524 9.7506 31.4524 1.61447 31.4524C0.434422 31.4524 -0.0624714 30.9542 -0.124579 29.7708C-0.186687 27.2795 0.185975 24.8504 1.36602 22.6082C3.16715 19.1826 5.96202 16.8782 9.6885 15.6948C9.87482 15.6325 9.93691 15.5702 10.0611 15.5079ZM24.967 28.6497C24.7807 24.6636 23.1038 21.4871 19.6878 19.4318C15.7751 17.1273 11.738 17.1273 7.88735 19.5564C4.53353 21.6117 2.91868 24.7881 2.79446 28.6497H24.967ZM19.3773 8.22082C19.3773 5.23122 16.893 2.80217 13.7876 2.80217C10.7443 2.80217 8.25998 5.29349 8.25998 8.28309C8.25998 11.2727 10.7443 13.7017 13.7876 13.7017C16.893 13.6395 19.3773 11.2104 19.3773 8.22082Z" fill="#434343"/>
</g>
</g>
</svg>
