<svg width="126" height="157" viewBox="0 0 126 157" fill="none" xmlns="http://www.w3.org/2000/svg">
<path d="M125.811 144.422C125.811 145.98 125.504 147.524 124.907 148.964C124.311 150.405 123.437 151.713 122.334 152.816C121.232 153.918 119.923 154.792 118.483 155.389C117.043 155.986 115.499 156.293 113.941 156.293H11.8701C10.3112 156.293 8.76765 155.986 7.32746 155.389C5.88727 154.792 4.57869 153.918 3.47645 152.816C2.37421 151.713 1.49987 150.405 0.903387 148.964C0.3069 147.524 -7.73857e-05 145.98 1.4633e-08 144.422V11.8701C1.4633e-08 8.72196 1.25059 5.70275 3.47667 3.47667C5.70275 1.2506 8.72196 0 11.8701 0H113.941C117.089 0 120.108 1.2506 122.334 3.47667C124.56 5.70275 125.811 8.72196 125.811 11.8701V144.422Z" fill="#06AB5C"/>
<path d="M13.2236 14.4199V10.1335H14.9147C15.2398 10.1335 15.5168 10.1956 15.7456 10.3198C15.9745 10.4426 16.1489 10.6135 16.2689 10.8326C16.3903 11.0502 16.451 11.3014 16.451 11.586C16.451 11.8707 16.3896 12.1218 16.2668 12.3395C16.144 12.5572 15.9661 12.7267 15.7331 12.8481C15.5015 12.9695 15.221 13.0302 14.8917 13.0302H13.8138V12.3039H14.7452C14.9196 12.3039 15.0633 12.2739 15.1764 12.2139C15.2908 12.1525 15.3759 12.0681 15.4317 11.9607C15.4889 11.8519 15.5175 11.727 15.5175 11.586C15.5175 11.4437 15.4889 11.3195 15.4317 11.2135C15.3759 11.1061 15.2908 11.023 15.1764 10.9644C15.0619 10.9044 14.9168 10.8744 14.741 10.8744H14.1299V14.4199H13.2236ZM17.0229 14.4199V11.2051H17.8873V11.766H17.9208C17.9794 11.5665 18.0777 11.4158 18.2159 11.314C18.354 11.2107 18.5131 11.1591 18.6931 11.1591C18.7377 11.1591 18.7859 11.1619 18.8375 11.1675C18.8891 11.173 18.9345 11.1807 18.9735 11.1905V11.9816C18.9317 11.9691 18.8738 11.9579 18.7998 11.9481C18.7259 11.9384 18.6582 11.9335 18.5968 11.9335C18.4656 11.9335 18.3484 11.9621 18.2452 12.0193C18.1433 12.0751 18.0624 12.1532 18.0024 12.2537C17.9438 12.3542 17.9145 12.47 17.9145 12.6011V14.4199H17.0229ZM20.7374 14.4827C20.4123 14.4827 20.1311 14.4136 19.8939 14.2755C19.6581 14.136 19.476 13.942 19.3476 13.6937C19.2193 13.4439 19.1551 13.1544 19.1551 12.8251C19.1551 12.493 19.2193 12.2028 19.3476 11.9544C19.476 11.7046 19.6581 11.5107 19.8939 11.3726C20.1311 11.233 20.4123 11.1633 20.7374 11.1633C21.0625 11.1633 21.3429 11.233 21.5787 11.3726C21.8159 11.5107 21.9987 11.7046 22.1271 11.9544C22.2555 12.2028 22.3197 12.493 22.3197 12.8251C22.3197 13.1544 22.2555 13.4439 22.1271 13.6937C21.9987 13.942 21.8159 14.136 21.5787 14.2755C21.3429 14.4136 21.0625 14.4827 20.7374 14.4827ZM20.7416 13.792C20.8895 13.792 21.0129 13.7502 21.112 13.6665C21.2111 13.5813 21.2857 13.4655 21.336 13.319C21.3876 13.1725 21.4134 13.0058 21.4134 12.8188C21.4134 12.6318 21.3876 12.4651 21.336 12.3186C21.2857 12.1721 21.2111 12.0563 21.112 11.9712C21.0129 11.886 20.8895 11.8435 20.7416 11.8435C20.5923 11.8435 20.4667 11.886 20.3648 11.9712C20.2644 12.0563 20.1883 12.1721 20.1367 12.3186C20.0865 12.4651 20.0613 12.6318 20.0613 12.8188C20.0613 13.0058 20.0865 13.1725 20.1367 13.319C20.1883 13.4655 20.2644 13.5813 20.3648 13.6665C20.4667 13.7502 20.5923 13.792 20.7416 13.792ZM24.6282 11.2051V11.8749H22.6441V11.2051H24.6282ZM23.0982 14.4199V10.9728C23.0982 10.7398 23.1436 10.5465 23.2343 10.3931C23.3264 10.2396 23.452 10.1245 23.611 10.0477C23.7701 9.97097 23.9508 9.9326 24.1531 9.9326C24.2898 9.9326 24.4147 9.94307 24.5277 9.964C24.6422 9.98493 24.7273 10.0038 24.7831 10.0205L24.624 10.6903C24.5891 10.6791 24.5459 10.6686 24.4942 10.6589C24.444 10.6491 24.3924 10.6442 24.3394 10.6442C24.2082 10.6442 24.1168 10.6749 24.0652 10.7363C24.0136 10.7963 23.9877 10.8807 23.9877 10.9895V14.4199H23.0982ZM25.1729 14.4199V11.2051H26.0645V14.4199H25.1729ZM25.6208 10.7907C25.4882 10.7907 25.3745 10.7468 25.2796 10.6589C25.1861 10.5696 25.1394 10.4628 25.1394 10.3386C25.1394 10.2158 25.1861 10.1105 25.2796 10.0226C25.3745 9.9333 25.4882 9.88865 25.6208 9.88865C25.7533 9.88865 25.8664 9.9333 25.9598 10.0226C26.0547 10.1105 26.1022 10.2158 26.1022 10.3386C26.1022 10.4628 26.0547 10.5696 25.9598 10.6589C25.8664 10.7468 25.7533 10.7907 25.6208 10.7907ZM27.6703 10.1335V14.4199H26.7787V10.1335H27.6703ZM29.8496 14.4827C29.5189 14.4827 29.2343 14.4157 28.9957 14.2818C28.7585 14.1464 28.5757 13.9553 28.4473 13.7083C28.319 13.4599 28.2548 13.1662 28.2548 12.8272C28.2548 12.4965 28.319 12.2063 28.4473 11.9565C28.5757 11.7067 28.7564 11.5121 28.9894 11.3726C29.2238 11.233 29.4987 11.1633 29.814 11.1633C30.0261 11.1633 30.2236 11.1975 30.4064 11.2658C30.5905 11.3328 30.751 11.434 30.8877 11.5693C31.0259 11.7046 31.1333 11.8749 31.2101 12.08C31.2868 12.2837 31.3252 12.5223 31.3252 12.7958V13.0407H28.6106V12.4881H30.4859C30.4859 12.3597 30.458 12.246 30.4022 12.147C30.3464 12.0479 30.2689 11.9705 30.1698 11.9146C30.0722 11.8574 29.9585 11.8288 29.8287 11.8288C29.6934 11.8288 29.5734 11.8602 29.4687 11.923C29.3655 11.9844 29.2845 12.0674 29.2259 12.1721C29.1673 12.2753 29.1373 12.3904 29.1359 12.5174V13.0427C29.1359 13.2018 29.1652 13.3393 29.2238 13.4551C29.2838 13.5709 29.3682 13.6602 29.4771 13.723C29.5859 13.7858 29.715 13.8171 29.8643 13.8171C29.9633 13.8171 30.054 13.8032 30.1364 13.7753C30.2187 13.7474 30.2891 13.7055 30.3478 13.6497C30.4064 13.5939 30.451 13.5255 30.4817 13.4446L31.3063 13.499C31.2645 13.6972 31.1787 13.8702 31.0489 14.0181C30.9205 14.1646 30.7545 14.279 30.5508 14.3613C30.3484 14.4422 30.1147 14.4827 29.8496 14.4827Z" fill="white"/>
<path d="M49.097 39.3184V33.746H51.1866C51.6147 33.746 51.9738 33.8204 52.2641 33.9692C52.5561 34.1179 52.7765 34.3265 52.9252 34.595C53.0758 34.8616 53.1511 35.1727 53.1511 35.5282C53.1511 35.8855 53.0749 36.1957 52.9225 36.4587C52.7719 36.7199 52.5497 36.9222 52.2559 37.0655C51.962 37.207 51.6011 37.2777 51.173 37.2777H49.6847V36.4397H51.0369C51.2873 36.4397 51.4922 36.4052 51.6519 36.3363C51.8115 36.2656 51.9294 36.1631 52.0056 36.0288C52.0836 35.8928 52.1226 35.7259 52.1226 35.5282C52.1226 35.3305 52.0836 35.1618 52.0056 35.0221C51.9276 34.8806 51.8088 34.7736 51.6491 34.7011C51.4895 34.6267 51.2836 34.5895 51.0315 34.5895H50.1064V39.3184H49.097ZM51.9756 36.7934L53.3551 39.3184H52.2287L50.8737 36.7934H51.9756ZM55.7998 39.4C55.3917 39.4 55.038 39.3102 54.7387 39.1306C54.4394 38.951 54.2072 38.6998 54.0421 38.3769C53.8789 38.0541 53.7973 37.6768 53.7973 37.2451C53.7973 36.8134 53.8789 36.4352 54.0421 36.1105C54.2072 35.7858 54.4394 35.5336 54.7387 35.3541C55.038 35.1745 55.3917 35.0847 55.7998 35.0847C56.2079 35.0847 56.5616 35.1745 56.8609 35.3541C57.1602 35.5336 57.3915 35.7858 57.5548 36.1105C57.7198 36.4352 57.8024 36.8134 57.8024 37.2451C57.8024 37.6768 57.7198 38.0541 57.5548 38.3769C57.3915 38.6998 57.1602 38.951 56.8609 39.1306C56.5616 39.3102 56.2079 39.4 55.7998 39.4ZM55.8052 38.6109C56.0265 38.6109 56.2116 38.5502 56.3603 38.4286C56.509 38.3053 56.6197 38.1402 56.6922 37.9334C56.7666 37.7267 56.8038 37.4963 56.8038 37.2423C56.8038 36.9866 56.7666 36.7553 56.6922 36.5485C56.6197 36.3399 56.509 36.174 56.3603 36.0506C56.2116 35.9273 56.0265 35.8656 55.8052 35.8656C55.5785 35.8656 55.3899 35.9273 55.2393 36.0506C55.0906 36.174 54.979 36.3399 54.9046 36.5485C54.8321 36.7553 54.7958 36.9866 54.7958 37.2423C54.7958 37.4963 54.8321 37.7267 54.9046 37.9334C54.979 38.1402 55.0906 38.3053 55.2393 38.4286C55.3899 38.5502 55.5785 38.6109 55.8052 38.6109ZM58.6819 39.3184V33.746H59.6668V35.8302H59.7076C59.7584 35.7286 59.8301 35.6207 59.9226 35.5064C60.0151 35.3903 60.1403 35.2915 60.2981 35.2099C60.4559 35.1264 60.6572 35.0847 60.9021 35.0847C61.225 35.0847 61.5161 35.1672 61.7755 35.3323C62.0367 35.4956 62.2435 35.7377 62.3958 36.0588C62.55 36.378 62.6271 36.7698 62.6271 37.2342C62.6271 37.6931 62.5518 38.0831 62.4013 38.4042C62.2507 38.7252 62.0458 38.9701 61.7864 39.1388C61.527 39.3075 61.2331 39.3918 60.9048 39.3918C60.6654 39.3918 60.4668 39.3519 60.3089 39.2721C60.1511 39.1923 60.0242 39.0962 59.928 38.9837C59.8337 38.8694 59.7602 38.7615 59.7076 38.6599H59.6505V39.3184H58.6819ZM59.6478 37.2287C59.6478 37.499 59.6859 37.7357 59.7621 37.9389C59.8401 38.142 59.9516 38.3008 60.0967 38.415C60.2436 38.5275 60.4214 38.5837 60.63 38.5837C60.8477 38.5837 61.03 38.5257 61.1769 38.4096C61.3238 38.2917 61.4345 38.1312 61.5088 37.928C61.585 37.723 61.6231 37.4899 61.6231 37.2287C61.6231 36.9694 61.5859 36.739 61.5116 36.5376C61.4372 36.3363 61.3265 36.1785 61.1796 36.0642C61.0327 35.9499 60.8495 35.8928 60.63 35.8928C60.4196 35.8928 60.2409 35.9481 60.094 36.0588C59.9471 36.1694 59.8355 36.3245 59.7593 36.524C59.685 36.7236 59.6478 36.9585 59.6478 37.2287ZM65.3146 39.4C64.8956 39.4 64.5338 39.3129 64.229 39.1388C63.9261 38.9628 63.693 38.7143 63.5298 38.3933C63.3665 38.0704 63.2849 37.6904 63.2849 37.2532C63.2849 36.8233 63.3665 36.446 63.5298 36.1214C63.6948 35.7948 63.9252 35.5409 64.2209 35.3595C64.5165 35.1763 64.8639 35.0847 65.2629 35.0847C65.5205 35.0847 65.7636 35.1264 65.9921 35.2099C66.2225 35.2915 66.4257 35.4185 66.6016 35.5908C66.7794 35.7631 66.919 35.9826 67.0206 36.2492C67.1222 36.5141 67.173 36.8297 67.173 37.1961V37.4981H63.7474V36.8342H66.2289C66.227 36.6456 66.1862 36.4778 66.1064 36.3309C66.0266 36.1821 65.915 36.0651 65.7717 35.9799C65.6303 35.8946 65.4652 35.852 65.2766 35.852C65.0752 35.852 64.8984 35.901 64.746 35.9989C64.5936 36.0951 64.4748 36.222 64.3896 36.3798C64.3061 36.5358 64.2635 36.7072 64.2617 36.8941V37.4736C64.2617 37.7167 64.3061 37.9253 64.395 38.0994C64.4839 38.2717 64.6081 38.4042 64.7678 38.4967C64.9274 38.5874 65.1142 38.6327 65.3282 38.6327C65.4715 38.6327 65.6012 38.6128 65.7173 38.5728C65.8334 38.5311 65.9341 38.4704 66.0193 38.3905C66.1046 38.3107 66.169 38.2119 66.2125 38.094L67.1322 38.1974C67.0741 38.4404 66.9635 38.6527 66.8002 38.834C66.6388 39.0136 66.432 39.1533 66.1799 39.2531C65.9277 39.351 65.6393 39.4 65.3146 39.4ZM68.0063 39.3184V35.1391H68.9613V35.8357H69.0048C69.081 35.5944 69.2116 35.4085 69.3966 35.2779C69.5834 35.1455 69.7966 35.0793 70.036 35.0793C70.0904 35.0793 70.1512 35.082 70.2183 35.0874C70.2872 35.0911 70.3444 35.0974 70.3897 35.1065V36.0125C70.348 35.998 70.2818 35.9853 70.1911 35.9744C70.1022 35.9617 70.0161 35.9554 69.9326 35.9554C69.753 35.9554 69.5916 35.9944 69.4483 36.0724C69.3068 36.1486 69.1953 36.2547 69.1136 36.3907C69.032 36.5268 68.9912 36.6837 68.9912 36.8614V39.3184H68.0063ZM73.3555 35.1391V35.901H70.9529V35.1391H73.3555ZM71.5461 34.1378H72.531V38.0613C72.531 38.1937 72.551 38.2953 72.5909 38.3661C72.6326 38.435 72.687 38.4821 72.7541 38.5075C72.8213 38.5329 72.8956 38.5456 72.9773 38.5456C73.0389 38.5456 73.0952 38.5411 73.146 38.532C73.1986 38.523 73.2385 38.5148 73.2657 38.5075L73.4316 39.2775C73.379 39.2957 73.3038 39.3156 73.2058 39.3374C73.1097 39.3592 72.9918 39.3719 72.8521 39.3755C72.6054 39.3828 72.3832 39.3456 72.1855 39.2639C71.9878 39.1805 71.8309 39.0517 71.7148 38.8776C71.6005 38.7034 71.5443 38.4858 71.5461 38.2246V34.1378ZM76.8388 39.3184H75.7614L77.7231 33.746H78.9693L80.9337 39.3184H79.8563L78.368 34.8888H78.3244L76.8388 39.3184ZM76.8742 37.1335H79.8127V37.9443H76.8742V37.1335ZM82.6091 33.746V39.3184H81.6241V33.746H82.6091ZM84.6069 33.746V39.3184H83.6219V33.746H84.6069ZM87.4699 39.4C87.0509 39.4 86.689 39.3129 86.3843 39.1388C86.0814 38.9628 85.8483 38.7143 85.685 38.3933C85.5218 38.0704 85.4401 37.6904 85.4401 37.2532C85.4401 36.8233 85.5218 36.446 85.685 36.1214C85.8501 35.7948 86.0805 35.5409 86.3761 35.3595C86.6718 35.1763 87.0191 35.0847 87.4182 35.0847C87.6758 35.0847 87.9188 35.1264 88.1474 35.2099C88.3778 35.2915 88.5809 35.4185 88.7569 35.5908C88.9346 35.7631 89.0743 35.9826 89.1759 36.2492C89.2775 36.5141 89.3282 36.8297 89.3282 37.1961V37.4981H85.9027V36.8342H88.3841C88.3823 36.6456 88.3415 36.4778 88.2617 36.3309C88.1819 36.1821 88.0703 36.0651 87.927 35.9799C87.7855 35.8946 87.6205 35.852 87.4318 35.852C87.2305 35.852 87.0536 35.901 86.9012 35.9989C86.7489 36.0951 86.6301 36.222 86.5448 36.3798C86.4614 36.5358 86.4187 36.7072 86.4169 36.8941V37.4736C86.4169 37.7167 86.4614 37.9253 86.5503 38.0994C86.6391 38.2717 86.7634 38.4042 86.923 38.4967C87.0826 38.5874 87.2695 38.6327 87.4835 38.6327C87.6268 38.6327 87.7565 38.6128 87.8726 38.5728C87.9887 38.5311 88.0894 38.4704 88.1746 38.3905C88.2599 38.3107 88.3243 38.2119 88.3678 38.094L89.2874 38.1974C89.2294 38.4404 89.1187 38.6527 88.9555 38.834C88.7941 39.0136 88.5873 39.1533 88.3351 39.2531C88.083 39.351 87.7946 39.4 87.4699 39.4ZM90.8771 35.1391L91.7206 36.6818L92.5776 35.1391H93.6197L92.36 37.2287L93.6415 39.3184H92.6048L91.7206 37.8137L90.8444 39.3184H89.7996L91.073 37.2287L89.8323 35.1391H90.8771Z" fill="white"/>
<path d="M51.3656 46.9229L52.4182 48.4405L54.1864 48.9709L53.0665 50.4414L53.1084 52.285L51.3656 51.6768L49.6234 52.285L49.6652 50.4414L48.5454 48.9721L50.3135 48.4417L51.3656 46.9229Z" fill="#DDF3E4"/>
<path d="M59.9411 46.9229L60.9925 48.4405L62.7571 48.9709L61.642 50.4414L61.6821 52.285L59.9411 51.6768L58.1983 52.285L58.2389 50.4414L57.1191 48.9721L58.8873 48.4417L59.9411 46.9229Z" fill="#DDF3E4"/>
<path d="M68.5136 46.9229L69.5651 48.4405L71.3332 48.9709L70.2164 50.4414L70.2565 52.285L68.5136 51.6768L66.7709 52.285L66.8127 50.4414L65.6929 48.9721L67.461 48.4417L68.5136 46.9229Z" fill="#DDF3E4"/>
<path d="M77.0876 46.9229L78.1396 48.4405L79.9078 48.9709L78.7903 50.4414L78.8304 52.285L77.0876 51.6768L75.3448 52.285L75.3884 50.4414L74.2686 48.9721L76.0367 48.4417L77.0876 46.9229Z" fill="#DDF3E4"/>
<path d="M85.6644 46.9229L86.7123 48.4405L88.4805 48.9709L87.3636 50.4414L87.4037 52.285L85.6644 51.6768L83.9199 52.285L83.9611 50.4414L82.8413 48.9721L84.6094 48.4417L85.6644 46.9229Z" fill="#C1C6DE"/>
<path d="M39.5911 44.438C39.591 47.1864 38.7759 49.8731 37.2488 52.1583C35.7218 54.4435 33.5514 56.2245 31.0121 57.2762C28.4728 58.3279 25.6787 58.603 22.9831 58.0667C20.2875 57.5304 17.8114 56.2067 15.8681 54.2632C13.9247 52.3197 12.6013 49.8435 12.0652 47.1479C11.5292 44.4522 11.8045 41.6581 12.8564 39.1189C13.9083 36.5798 15.6895 34.4095 17.9748 32.8827C20.2601 31.3558 22.9469 30.5409 25.6953 30.541C27.5202 30.5411 29.3272 30.9006 31.0132 31.599C32.6992 32.2975 34.231 33.3211 35.5214 34.6116C36.8117 35.902 37.8353 37.434 38.5335 39.12C39.2318 40.806 39.5912 42.6131 39.5911 44.438Z" fill="url(#paint0_linear_745_2468)"/>
<path d="M20.6447 42.537C20.6447 42.537 19.9752 42.2836 19.8621 42.4551C19.6942 42.8497 19.6586 43.288 19.7607 43.7046C19.8725 44.1589 20.1118 44.572 20.4503 44.8951C20.7186 44.9977 21.0059 45.0409 21.2925 45.0218C21.1327 44.1799 20.9163 43.3498 20.6447 42.537Z" fill="#FA9884"/>
<path d="M30.8537 42.537C30.8537 42.537 31.5273 42.2836 31.6399 42.4551C31.8053 42.8504 31.8396 43.2883 31.7378 43.7046C31.6266 44.1587 31.3882 44.5717 31.0505 44.8951C30.7816 44.9976 30.4937 45.0408 30.2065 45.0218C30.3671 44.1801 30.5833 43.35 30.8537 42.537Z" fill="#FA9884"/>
<path d="M28.8955 50.7823C28.6161 50.5854 28.3888 50.3234 28.2334 50.0189C28.0781 49.7144 27.9992 49.3766 28.0038 49.0348C28.0333 48.0685 28.1318 47.1056 28.2985 46.1533H23.0925C23.259 47.1055 23.3565 48.0685 23.3842 49.0348C23.3888 49.3768 23.3098 49.7147 23.1541 50.0193C22.9984 50.3238 22.7706 50.5857 22.4907 50.7823L25.6946 55.8203L28.8955 50.7823Z" fill="#FFC2AB"/>
<path d="M28.0141 48.3837C28.0831 47.4631 28.2964 46.1553 28.2964 46.1553H23.0928C23.0928 46.1553 23.2932 47.3694 23.3657 48.28C24.2721 49.081 25.244 49.6049 25.7497 49.6049C26.6051 49.4209 27.3905 48.9974 28.0141 48.3837Z" fill="#FA9884"/>
<path d="M25.696 58.3334C29.2303 58.3352 32.631 56.983 35.1991 54.5549C35.1991 54.5549 35.1956 54.5454 35.1915 54.5425C34.8207 54.3244 31.4542 52.3188 29.7815 51.3687C29.4715 51.1962 29.1759 50.9991 28.8975 50.7793L25.6966 55.8173L22.4927 50.7793C22.2144 50.9994 21.9188 51.1965 21.6086 51.3687C19.9365 52.3188 16.5689 54.3238 16.197 54.5425C16.1945 54.5471 16.1912 54.5512 16.1875 54.5549C18.7581 56.9825 22.1602 58.3345 25.696 58.3334Z" fill="#DDF3E4"/>
<path d="M28.1295 49.7773L26.0425 53.7144L25.6948 55.8208L26.8736 53.9708L29.0189 54.638C29.0189 54.638 29.4374 51.2526 29.4598 51.1783C29.4902 51.0824 29.4902 50.9795 29.4598 50.8836C29.4144 50.8046 28.3482 49.7797 28.3482 49.7797H28.1301L28.1295 49.7773Z" fill="white"/>
<path d="M23.2598 49.7773L25.3468 53.7144L25.6963 55.8208L24.5223 53.9708L22.3734 54.638C22.3734 54.638 21.955 51.2526 21.9326 51.1783C21.8994 51.0829 21.8994 50.979 21.9326 50.8836C21.9785 50.8046 23.0441 49.7797 23.0441 49.7797H23.2604L23.2598 49.7773Z" fill="white"/>
<path d="M25.7493 34.1406C30.2469 34.1406 31.0862 38.2451 31.0697 39.8611C30.9701 41.7575 30.6375 43.6345 30.0795 45.4496C29.4901 47.6268 26.7312 48.6812 25.7493 48.6812C24.7674 48.6812 22.0079 47.6268 21.4215 45.4496C20.8604 43.6351 20.5268 41.7579 20.4284 39.8611C20.4137 38.2451 21.25 34.1406 25.7493 34.1406Z" fill="#FFC2AB"/>
<path d="M32.5526 38.9227C32.3358 38.6817 32.1926 38.3837 32.14 38.0639C31.9998 37.4794 31.7319 36.9332 31.3556 36.4644C31.4912 36.3506 31.5978 36.2061 31.6664 36.0429C31.7351 35.8798 31.7639 35.7026 31.7505 35.5261C31.7408 35.4616 31.7086 35.4025 31.6597 35.3594C31.6107 35.3163 31.5481 35.2918 31.4829 35.2903C31.4764 35.2899 31.4699 35.2899 31.4634 35.2903C30.8173 35.1972 30.2116 34.9199 29.7189 34.4917C28.623 33.5211 27.2193 32.9692 25.7559 32.9334C23.9235 32.842 22.677 33.4049 21.942 34.6502C21.6006 34.5911 21.2491 34.6385 20.9356 34.7862C20.6221 34.9338 20.3617 35.1745 20.1898 35.4754C19.7923 36.2752 19.4933 37.1202 19.2992 37.992C19.1662 38.4333 18.9068 38.8259 18.5531 39.1213C18.5129 39.1598 18.4857 39.2099 18.4751 39.2646C18.4645 39.3192 18.4712 39.3758 18.4941 39.4266C18.5659 39.5649 18.6717 39.6826 18.8017 39.7685C18.9317 39.8544 19.0814 39.9057 19.2368 39.9175C19.2892 40.4739 19.3836 41.0256 19.5191 41.5678C19.6127 41.8514 19.7652 42.112 19.9665 42.3326C20.1678 42.5532 20.4134 42.7288 20.6872 42.8479C20.7138 42.8592 20.7427 42.864 20.7715 42.8619C20.8003 42.8597 20.8282 42.8507 20.8528 42.8356C20.8779 42.8208 20.899 42.8004 20.9146 42.7759C20.9302 42.7514 20.9397 42.7236 20.9424 42.6947C20.9844 42.334 21.0568 41.9776 21.1587 41.6291C21.326 41.4165 21.4598 41.1796 21.5554 40.9266C21.5683 40.959 21.5701 40.9666 21.5725 40.9713C21.5897 41.0032 21.6152 41.0299 21.6463 41.0485C21.6774 41.067 21.713 41.0768 21.7493 41.0768C21.9479 41.0768 22.1554 40.692 22.2951 40.3696C22.408 40.073 22.4808 39.7625 22.5114 39.4466C22.537 39.2238 22.5797 39.0033 22.6392 38.7871C22.7064 38.5549 22.8066 38.4164 22.9045 38.4164C22.9446 38.4164 23.0377 38.437 23.1886 38.5832C23.2085 38.6016 23.2321 38.6157 23.2577 38.6245C23.2834 38.6333 23.3106 38.6367 23.3377 38.6345C23.3647 38.6314 23.3908 38.6224 23.4141 38.6083C23.4374 38.5942 23.4574 38.5751 23.4726 38.5525C23.5398 38.4185 23.6395 38.3034 23.7625 38.2177C23.8855 38.1319 24.0279 38.0783 24.1769 38.0616C24.5648 38.0616 25.051 38.4258 25.7093 39.2026C26.2233 39.8116 26.9269 40.2303 27.7073 40.3914C27.7549 40.396 27.8027 40.3849 27.8433 40.3598C27.884 40.3347 27.9153 40.2969 27.9325 40.2523C27.9726 40.1397 27.9248 40.0166 27.8146 39.7808C28.4145 40.143 29.0668 40.4102 29.7483 40.5729C29.7812 40.573 29.8136 40.5648 29.8425 40.5491C29.8714 40.5335 29.896 40.5109 29.914 40.4833C29.9549 40.4045 29.9721 40.3154 29.9635 40.227C29.9747 40.2346 29.9829 40.2435 29.9941 40.2505C30.1312 41.0894 30.3251 41.9181 30.5746 42.7306C30.5859 42.7688 30.6092 42.8022 30.6411 42.8259C30.673 42.8496 30.7117 42.8623 30.7515 42.8621C30.765 42.8628 30.7785 42.8612 30.7915 42.8574C31.0108 42.8057 31.2156 42.7049 31.3904 42.5627C31.4046 42.5501 31.4174 42.5361 31.4287 42.5208C31.8845 41.6318 32.0847 40.6336 32.0068 39.6376C32.2909 39.5898 32.6098 39.4189 32.6693 39.2144C32.6847 39.1597 32.6816 39.1015 32.6605 39.0487C32.6394 38.996 32.6015 38.9517 32.5526 38.9227Z" fill="#242736"/>
<path d="M28.6334 72.1277V73.4814H28.2876V71.2311H28.6217V71.5827H28.651C28.7037 71.4684 28.7838 71.3766 28.8913 71.3073C28.9987 71.2369 29.1374 71.2018 29.3073 71.2018C29.4597 71.2018 29.593 71.233 29.7073 71.2956C29.8216 71.3571 29.9105 71.4508 29.974 71.5768C30.0374 71.7019 30.0692 71.8601 30.0692 72.0515V73.4814H29.7234V72.075C29.7234 71.8982 29.6775 71.7605 29.5857 71.6618C29.4939 71.5622 29.3679 71.5124 29.2077 71.5124C29.0973 71.5124 28.9987 71.5363 28.9118 71.5842C28.8258 71.632 28.7579 71.7019 28.7081 71.7937C28.6583 71.8855 28.6334 71.9968 28.6334 72.1277ZM31.6152 73.5283C31.412 73.5283 31.2338 73.48 31.0805 73.3833C30.9281 73.2866 30.8089 73.1513 30.723 72.9775C30.638 72.8036 30.5955 72.6004 30.5955 72.368C30.5955 72.1336 30.638 71.929 30.723 71.7541C30.8089 71.5793 30.9281 71.4435 31.0805 71.3468C31.2338 71.2501 31.412 71.2018 31.6152 71.2018C31.8184 71.2018 31.9961 71.2501 32.1485 71.3468C32.3018 71.4435 32.421 71.5793 32.506 71.7541C32.5919 71.929 32.6349 72.1336 32.6349 72.368C32.6349 72.6004 32.5919 72.8036 32.506 72.9775C32.421 73.1513 32.3018 73.2866 32.1485 73.3833C31.9961 73.48 31.8184 73.5283 31.6152 73.5283ZM31.6152 73.2177C31.7695 73.2177 31.8965 73.1782 31.9961 73.0991C32.0957 73.0199 32.1695 72.9159 32.2174 72.787C32.2652 72.6581 32.2891 72.5184 32.2891 72.368C32.2891 72.2176 32.2652 72.0774 32.2174 71.9475C32.1695 71.8176 32.0957 71.7126 31.9961 71.6325C31.8965 71.5524 31.7695 71.5124 31.6152 71.5124C31.4609 71.5124 31.3339 71.5524 31.2343 71.6325C31.1347 71.7126 31.0609 71.8176 31.0131 71.9475C30.9652 72.0774 30.9413 72.2176 30.9413 72.368C30.9413 72.5184 30.9652 72.6581 31.0131 72.787C31.0609 72.9159 31.1347 73.0199 31.2343 73.0991C31.3339 73.1782 31.4609 73.2177 31.6152 73.2177ZM33.1627 73.4814V71.2311H33.4967V71.571H33.5202C33.5612 71.4596 33.6354 71.3693 33.7429 71.2999C33.8503 71.2306 33.9714 71.1959 34.1062 71.1959C34.1316 71.1959 34.1633 71.1964 34.2014 71.1974C34.2395 71.1984 34.2683 71.1998 34.2879 71.2018V71.5534C34.2761 71.5505 34.2493 71.5461 34.2073 71.5402C34.1663 71.5334 34.1228 71.53 34.0769 71.53C33.9675 71.53 33.8698 71.5529 33.7839 71.5988C33.6989 71.6438 33.6315 71.7063 33.5817 71.7864C33.5329 71.8655 33.5084 71.9558 33.5084 72.0574V73.4814H33.1627ZM35.5727 73.5283C35.3559 73.5283 35.1689 73.4805 35.0116 73.3848C34.8553 73.2881 34.7347 73.1533 34.6497 72.9804C34.5657 72.8065 34.5237 72.6044 34.5237 72.3738C34.5237 72.1433 34.5657 71.9402 34.6497 71.7644C34.7347 71.5876 34.8529 71.4499 35.0043 71.3512C35.1567 71.2516 35.3344 71.2018 35.5376 71.2018C35.6548 71.2018 35.7705 71.2213 35.8848 71.2604C35.9991 71.2995 36.1031 71.3629 36.1969 71.4508C36.2906 71.5378 36.3653 71.653 36.421 71.7966C36.4767 71.9402 36.5045 72.117 36.5045 72.327V72.4735H34.7699V72.1746H36.1529C36.1529 72.0476 36.1275 71.9343 36.0767 71.8347C36.0269 71.7351 35.9556 71.6564 35.8628 71.5988C35.771 71.5412 35.6626 71.5124 35.5376 71.5124C35.3999 71.5124 35.2807 71.5466 35.1801 71.6149C35.0805 71.6823 35.0038 71.7702 34.9501 71.8787C34.8964 71.9871 34.8695 72.1033 34.8695 72.2273V72.4266C34.8695 72.5965 34.8988 72.7406 34.9574 72.8588C35.017 72.976 35.0995 73.0654 35.205 73.1269C35.3105 73.1875 35.4331 73.2177 35.5727 73.2177C35.6636 73.2177 35.7456 73.205 35.8189 73.1796C35.8931 73.1533 35.9571 73.1142 36.0108 73.0624C36.0645 73.0097 36.106 72.9443 36.1353 72.8661L36.4694 72.9599C36.4342 73.0732 36.3751 73.1728 36.2921 73.2588C36.2091 73.3437 36.1065 73.4101 35.9844 73.458C35.8623 73.5049 35.7251 73.5283 35.5727 73.5283ZM37.0305 74.3253V71.2311H37.3645V71.5886H37.4056C37.4309 71.5495 37.4661 71.4997 37.511 71.4391C37.5569 71.3776 37.6224 71.3229 37.7074 71.275C37.7933 71.2262 37.9095 71.2018 38.056 71.2018C38.2455 71.2018 38.4125 71.2492 38.5571 71.3439C38.7017 71.4386 38.8145 71.5729 38.8955 71.7468C38.9766 71.9207 39.0171 72.1258 39.0171 72.3621C39.0171 72.6004 38.9766 72.807 38.8955 72.9819C38.8145 73.1557 38.7021 73.2905 38.5586 73.3862C38.415 73.481 38.2494 73.5283 38.0619 73.5283C37.9174 73.5283 37.8016 73.5044 37.7147 73.4565C37.6278 73.4077 37.5609 73.3525 37.514 73.291C37.4671 73.2285 37.4309 73.1767 37.4056 73.1357H37.3763V74.3253H37.0305ZM37.3704 72.3563C37.3704 72.5262 37.3953 72.6761 37.4451 72.806C37.4949 72.935 37.5677 73.0361 37.6634 73.1093C37.7591 73.1816 37.8763 73.2177 38.015 73.2177C38.1596 73.2177 38.2802 73.1796 38.3769 73.1035C38.4746 73.0263 38.5478 72.9228 38.5967 72.7929C38.6465 72.662 38.6714 72.5164 38.6714 72.3563C38.6714 72.198 38.647 72.0554 38.5981 71.9285C38.5503 71.8005 38.4775 71.6994 38.3798 71.6252C38.2831 71.55 38.1615 71.5124 38.015 71.5124C37.8744 71.5124 37.7562 71.548 37.6605 71.6193C37.5648 71.6897 37.4925 71.7883 37.4436 71.9153C37.3948 72.0413 37.3704 72.1883 37.3704 72.3563ZM39.8903 70.481V73.4814H39.5446V70.481H39.8903ZM40.7463 74.3253C40.6877 74.3253 40.6354 74.3204 40.5895 74.3107C40.5436 74.3019 40.5119 74.2931 40.4943 74.2843L40.5822 73.9796C40.6662 74.0011 40.7404 74.0089 40.8049 74.003C40.8694 73.9972 40.9265 73.9683 40.9763 73.9166C41.0271 73.8658 41.0735 73.7833 41.1155 73.669L41.18 73.4932L40.3478 71.2311H40.7229L41.344 73.0243H41.3675L41.9887 71.2311H42.3637L41.4085 73.8096C41.3655 73.9259 41.3123 74.0221 41.2488 74.0982C41.1853 74.1754 41.1116 74.2325 41.0276 74.2697C40.9446 74.3068 40.8508 74.3253 40.7463 74.3253ZM44.5489 74.2726C44.25 74.2726 43.9858 74.2316 43.7563 74.1495C43.5268 74.0685 43.3339 73.9488 43.1776 73.7906C43.0213 73.6323 42.9031 73.4385 42.823 73.2089C42.743 72.9794 42.7029 72.7167 42.7029 72.4207C42.7029 72.1346 42.7434 71.8787 42.8245 71.653C42.9066 71.4274 43.0252 71.236 43.1805 71.0787C43.3368 70.9205 43.5263 70.7999 43.749 70.7168C43.9726 70.6338 44.2256 70.5923 44.5079 70.5923C44.7823 70.5923 45.0226 70.6372 45.2287 70.7271C45.4358 70.816 45.6086 70.9366 45.7473 71.089C45.887 71.2404 45.9915 71.4108 46.0609 71.6003C46.1312 71.7898 46.1663 71.9851 46.1663 72.1863C46.1663 72.3279 46.1595 72.4715 46.1458 72.6171C46.1322 72.7626 46.1033 72.8964 46.0594 73.0185C46.0154 73.1396 45.9476 73.2373 45.8558 73.3115C45.7649 73.3857 45.6418 73.4228 45.4866 73.4228C45.4182 73.4228 45.343 73.4121 45.2609 73.3906C45.1789 73.3691 45.1061 73.3335 45.0426 73.2837C44.9791 73.2338 44.9415 73.1669 44.9298 73.0829H44.9122C44.8888 73.1396 44.8527 73.1933 44.8038 73.2441C44.756 73.2949 44.693 73.3354 44.6148 73.3657C44.5377 73.396 44.4434 73.4092 44.3321 73.4053C44.2051 73.4004 44.0933 73.3721 43.9966 73.3203C43.8999 73.2675 43.8188 73.1962 43.7534 73.1064C43.6889 73.0156 43.6401 72.9106 43.6069 72.7914C43.5746 72.6713 43.5585 72.5418 43.5585 72.4031C43.5585 72.2713 43.578 72.1507 43.6171 72.0413C43.6562 71.9319 43.7104 71.8362 43.7797 71.7541C43.8501 71.6721 43.9321 71.6066 44.0259 71.5578C44.1206 71.508 44.2227 71.4772 44.3321 71.4655C44.4297 71.4557 44.5186 71.4601 44.5987 71.4787C44.6788 71.4963 44.7447 71.5231 44.7965 71.5593C44.8483 71.5944 44.881 71.6335 44.8947 71.6765H44.9122V71.5124H45.2228V72.8368C45.2228 72.9189 45.2458 72.9911 45.2917 73.0536C45.3376 73.1162 45.4045 73.1474 45.4924 73.1474C45.592 73.1474 45.6682 73.1132 45.721 73.0449C45.7747 72.9765 45.8113 72.871 45.8308 72.7284C45.8514 72.5858 45.8616 72.4031 45.8616 72.1805C45.8616 72.0496 45.8435 71.9207 45.8074 71.7937C45.7722 71.6657 45.7185 71.5461 45.6462 71.4347C45.5749 71.3234 45.4846 71.2252 45.3752 71.1403C45.2658 71.0553 45.1374 70.9889 44.9899 70.941C44.8434 70.8922 44.6769 70.8677 44.4903 70.8677C44.2608 70.8677 44.0552 70.9034 43.8735 70.9747C43.6928 71.045 43.539 71.1481 43.412 71.2838C43.286 71.4186 43.1898 71.5827 43.1234 71.7761C43.0579 71.9685 43.0252 72.1873 43.0252 72.4325C43.0252 72.6815 43.0579 72.9027 43.1234 73.0961C43.1898 73.2895 43.2875 73.4526 43.4164 73.5855C43.5463 73.7183 43.707 73.8189 43.8984 73.8873C44.0898 73.9566 44.3106 73.9913 44.5606 73.9913C44.6681 73.9913 44.774 73.981 44.8785 73.9605C44.9831 73.94 45.0754 73.9175 45.1554 73.8931C45.2355 73.8687 45.2932 73.8506 45.3283 73.8389L45.4104 74.1085C45.3498 74.1339 45.2707 74.1593 45.173 74.1847C45.0763 74.2101 44.9728 74.2311 44.8624 74.2477C44.753 74.2643 44.6485 74.2726 44.5489 74.2726ZM44.379 73.1064C44.5098 73.1064 44.6158 73.08 44.6969 73.0273C44.7779 72.9745 44.837 72.8949 44.8741 72.7885C44.9113 72.682 44.9298 72.5477 44.9298 72.3856C44.9298 72.2215 44.9093 72.0935 44.8683 72.0017C44.8273 71.9099 44.7667 71.8454 44.6866 71.8083C44.6065 71.7712 44.5079 71.7527 44.3907 71.7527C44.2793 71.7527 44.1841 71.782 44.105 71.8406C44.0268 71.8982 43.9668 71.9753 43.9248 72.072C43.8838 72.1678 43.8632 72.2723 43.8632 72.3856C43.8632 72.5106 43.8798 72.6283 43.9131 72.7387C43.9463 72.848 44.0005 72.9369 44.0757 73.0053C44.1509 73.0727 44.252 73.1064 44.379 73.1064ZM47.5981 73.5283C47.3871 73.5283 47.2055 73.4785 47.0531 73.3789C46.9007 73.2793 46.7835 73.142 46.7015 72.9672C46.6194 72.7924 46.5784 72.5926 46.5784 72.368C46.5784 72.1394 46.6204 71.9377 46.7044 71.7629C46.7894 71.5871 46.9076 71.4499 47.0589 71.3512C47.2113 71.2516 47.3891 71.2018 47.5922 71.2018C47.7505 71.2018 47.8931 71.2311 48.02 71.2897C48.147 71.3483 48.251 71.4303 48.3321 71.5358C48.4132 71.6413 48.4635 71.7644 48.483 71.905H48.1372C48.1109 71.8025 48.0523 71.7116 47.9614 71.6325C47.8716 71.5524 47.7505 71.5124 47.5981 71.5124C47.4633 71.5124 47.3451 71.5475 47.2435 71.6179C47.1429 71.6872 47.0643 71.7854 47.0077 71.9123C46.952 72.0383 46.9242 72.1863 46.9242 72.3563C46.9242 72.5301 46.9515 72.6815 47.0062 72.8104C47.0619 72.9394 47.14 73.0395 47.2406 73.1108C47.3422 73.1821 47.4614 73.2177 47.5981 73.2177C47.688 73.2177 47.7695 73.2021 47.8428 73.1708C47.916 73.1396 47.978 73.0947 48.0288 73.0361C48.0796 72.9775 48.1158 72.9071 48.1372 72.8251H48.483C48.4635 72.9579 48.4151 73.0776 48.338 73.184C48.2618 73.2895 48.1607 73.3735 48.0347 73.436C47.9097 73.4976 47.7641 73.5283 47.5981 73.5283ZM49.6507 73.5342C49.5081 73.5342 49.3786 73.5073 49.2624 73.4536C49.1462 73.3989 49.0539 73.3203 48.9855 73.2177C48.9171 73.1142 48.883 72.9892 48.883 72.8427C48.883 72.7137 48.9084 72.6092 48.9591 72.5291C49.0099 72.4481 49.0778 72.3846 49.1628 72.3387C49.2478 72.2928 49.3415 72.2586 49.4441 72.2361C49.5476 72.2127 49.6516 72.1941 49.7562 72.1805C49.8929 72.1629 50.0037 72.1497 50.0887 72.1409C50.1747 72.1311 50.2372 72.115 50.2763 72.0926C50.3163 72.0701 50.3363 72.031 50.3363 71.9753V71.9636C50.3363 71.8191 50.2968 71.7067 50.2176 71.6267C50.1395 71.5466 50.0208 71.5065 49.8616 71.5065C49.6966 71.5065 49.5672 71.5427 49.4734 71.6149C49.3796 71.6872 49.3137 71.7644 49.2756 71.8464L48.9474 71.7292C49.006 71.5925 49.0842 71.486 49.1818 71.4098C49.2805 71.3327 49.3879 71.2789 49.5042 71.2487C49.6214 71.2174 49.7366 71.2018 49.8499 71.2018C49.9222 71.2018 50.0052 71.2106 50.099 71.2282C50.1937 71.2448 50.285 71.2794 50.3729 71.3322C50.4618 71.3849 50.5356 71.4645 50.5942 71.571C50.6528 71.6774 50.6821 71.82 50.6821 71.9988V73.4814H50.3363V73.1767H50.3187C50.2953 73.2255 50.2562 73.2778 50.2015 73.3335C50.1468 73.3891 50.0741 73.4365 49.9832 73.4756C49.8924 73.5147 49.7815 73.5342 49.6507 73.5342ZM49.7034 73.2236C49.8401 73.2236 49.9554 73.1967 50.0492 73.143C50.1439 73.0893 50.2152 73.0199 50.2631 72.935C50.3119 72.85 50.3363 72.7606 50.3363 72.6669V72.3504C50.3217 72.368 50.2894 72.3841 50.2396 72.3988C50.1908 72.4124 50.1341 72.4246 50.0697 72.4354C50.0062 72.4451 49.9442 72.4539 49.8836 72.4618C49.824 72.4686 49.7757 72.4744 49.7386 72.4793C49.6487 72.4911 49.5647 72.5101 49.4866 72.5365C49.4094 72.5619 49.3469 72.6004 49.299 72.6522C49.2522 72.703 49.2287 72.7723 49.2287 72.8603C49.2287 72.9804 49.2732 73.0712 49.362 73.1328C49.4519 73.1933 49.5657 73.2236 49.7034 73.2236ZM51.6589 72.1277V73.4814H51.3132V71.2311H51.6472V71.5827H51.6765C51.7292 71.4684 51.8093 71.3766 51.9168 71.3073C52.0242 71.2369 52.1629 71.2018 52.3329 71.2018C52.4852 71.2018 52.6185 71.233 52.7328 71.2956C52.8471 71.3571 52.936 71.4508 52.9995 71.5768C53.063 71.7019 53.0947 71.8601 53.0947 72.0515V73.4814H52.7489V72.075C52.7489 71.8982 52.703 71.7605 52.6112 71.6618C52.5194 71.5622 52.3934 71.5124 52.2332 71.5124C52.1229 71.5124 52.0242 71.5363 51.9373 71.5842C51.8513 71.632 51.7835 71.7019 51.7336 71.7937C51.6838 71.8855 51.6589 71.9968 51.6589 72.1277ZM55.4861 71.2311L54.6539 73.4814H54.3023L53.4701 71.2311H53.8452L54.4664 73.0243H54.4898L55.111 71.2311H55.4861ZM56.5362 73.5342C56.3936 73.5342 56.2641 73.5073 56.1479 73.4536C56.0317 73.3989 55.9394 73.3203 55.871 73.2177C55.8026 73.1142 55.7685 72.9892 55.7685 72.8427C55.7685 72.7137 55.7939 72.6092 55.8446 72.5291C55.8954 72.4481 55.9633 72.3846 56.0483 72.3387C56.1333 72.2928 56.227 72.2586 56.3296 72.2361C56.4331 72.2127 56.5371 72.1941 56.6416 72.1805C56.7784 72.1629 56.8892 72.1497 56.9742 72.1409C57.0602 72.1311 57.1227 72.115 57.1617 72.0926C57.2018 72.0701 57.2218 72.031 57.2218 71.9753V71.9636C57.2218 71.8191 57.1823 71.7067 57.1031 71.6267C57.025 71.5466 56.9063 71.5065 56.7471 71.5065C56.5821 71.5065 56.4526 71.5427 56.3589 71.6149C56.2651 71.6872 56.1992 71.7644 56.1611 71.8464L55.8329 71.7292C55.8915 71.5925 55.9697 71.486 56.0673 71.4098C56.166 71.3327 56.2734 71.2789 56.3897 71.2487C56.5069 71.2174 56.6221 71.2018 56.7354 71.2018C56.8077 71.2018 56.8907 71.2106 56.9845 71.2282C57.0792 71.2448 57.1705 71.2794 57.2584 71.3322C57.3473 71.3849 57.4211 71.4645 57.4797 71.571C57.5383 71.6774 57.5676 71.82 57.5676 71.9988V73.4814H57.2218V73.1767H57.2042C57.1808 73.2255 57.1417 73.2778 57.087 73.3335C57.0323 73.3891 56.9596 73.4365 56.8687 73.4756C56.7779 73.5147 56.667 73.5342 56.5362 73.5342ZM56.5889 73.2236C56.7256 73.2236 56.8409 73.1967 56.9347 73.143C57.0294 73.0893 57.1007 73.0199 57.1486 72.935C57.1974 72.85 57.2218 72.7606 57.2218 72.6669V72.3504C57.2072 72.368 57.1749 72.3841 57.1251 72.3988C57.0763 72.4124 57.0196 72.4246 56.9552 72.4354C56.8917 72.4451 56.8297 72.4539 56.7691 72.4618C56.7095 72.4686 56.6612 72.4744 56.6241 72.4793C56.5342 72.4911 56.4502 72.5101 56.3721 72.5365C56.2949 72.5619 56.2324 72.6004 56.1845 72.6522C56.1377 72.703 56.1142 72.7723 56.1142 72.8603C56.1142 72.9804 56.1587 73.0712 56.2475 73.1328C56.3374 73.1933 56.4512 73.2236 56.5889 73.2236ZM59.7927 71.7351L59.4821 71.823C59.4625 71.7712 59.4337 71.7209 59.3956 71.6721C59.3585 71.6223 59.3077 71.5812 59.2433 71.549C59.1788 71.5168 59.0963 71.5007 58.9957 71.5007C58.8579 71.5007 58.7432 71.5324 58.6514 71.5959C58.5605 71.6584 58.5151 71.738 58.5151 71.8347C58.5151 71.9207 58.5464 71.9885 58.6089 72.0383C58.6714 72.0882 58.7691 72.1297 58.9019 72.1629L59.2359 72.2449C59.4371 72.2938 59.5871 72.3685 59.6857 72.4691C59.7844 72.5687 59.8337 72.6971 59.8337 72.8544C59.8337 72.9833 59.7966 73.0986 59.7223 73.2002C59.6491 73.3017 59.5465 73.3818 59.4147 73.4404C59.2828 73.499 59.1295 73.5283 58.9546 73.5283C58.7251 73.5283 58.5351 73.4785 58.3847 73.3789C58.2343 73.2793 58.1391 73.1337 58.099 72.9423L58.4272 72.8603C58.4585 72.9814 58.5176 73.0722 58.6045 73.1328C58.6924 73.1933 58.8072 73.2236 58.9488 73.2236C59.1099 73.2236 59.2379 73.1894 59.3326 73.121C59.4283 73.0517 59.4762 72.9687 59.4762 72.872C59.4762 72.7938 59.4489 72.7284 59.3942 72.6757C59.3395 72.6219 59.2555 72.5819 59.1422 72.5555L58.7671 72.4676C58.561 72.4188 58.4096 72.3431 58.3129 72.2405C58.2172 72.137 58.1694 72.0076 58.1694 71.8523C58.1694 71.7253 58.205 71.613 58.2763 71.5153C58.3486 71.4176 58.4467 71.341 58.5708 71.2853C58.6958 71.2296 58.8374 71.2018 58.9957 71.2018C59.2183 71.2018 59.3932 71.2506 59.5202 71.3483C59.6481 71.446 59.7389 71.5749 59.7927 71.7351ZM60.6061 73.5049C60.5339 73.5049 60.4718 73.479 60.4201 73.4272C60.3683 73.3755 60.3424 73.3134 60.3424 73.2412C60.3424 73.1689 60.3683 73.1069 60.4201 73.0551C60.4718 73.0033 60.5339 72.9775 60.6061 72.9775C60.6784 72.9775 60.7404 73.0033 60.7922 73.0551C60.844 73.1069 60.8699 73.1689 60.8699 73.2412C60.8699 73.289 60.8576 73.333 60.8332 73.373C60.8098 73.4131 60.778 73.4453 60.738 73.4697C60.6989 73.4932 60.655 73.5049 60.6061 73.5049ZM62.4045 73.5283C62.1936 73.5283 62.0119 73.4785 61.8595 73.3789C61.7071 73.2793 61.5899 73.142 61.5079 72.9672C61.4259 72.7924 61.3848 72.5926 61.3848 72.368C61.3848 72.1394 61.4268 71.9377 61.5108 71.7629C61.5958 71.5871 61.714 71.4499 61.8654 71.3512C62.0177 71.2516 62.1955 71.2018 62.3987 71.2018C62.5569 71.2018 62.6995 71.2311 62.8265 71.2897C62.9534 71.3483 63.0575 71.4303 63.1385 71.5358C63.2196 71.6413 63.2699 71.7644 63.2894 71.905H62.9437C62.9173 71.8025 62.8587 71.7116 62.7679 71.6325C62.678 71.5524 62.5569 71.5124 62.4045 71.5124C62.2697 71.5124 62.1516 71.5475 62.05 71.6179C61.9494 71.6872 61.8707 71.7854 61.8141 71.9123C61.7584 72.0383 61.7306 72.1863 61.7306 72.3563C61.7306 72.5301 61.7579 72.6815 61.8126 72.8104C61.8683 72.9394 61.9464 73.0395 62.047 73.1108C62.1486 73.1821 62.2678 73.2177 62.4045 73.2177C62.4944 73.2177 62.5759 73.2021 62.6492 73.1708C62.7224 73.1396 62.7845 73.0947 62.8353 73.0361C62.886 72.9775 62.9222 72.9071 62.9437 72.8251H63.2894C63.2699 72.9579 63.2215 73.0776 63.1444 73.184C63.0682 73.2895 62.9671 73.3735 62.8411 73.436C62.7161 73.4976 62.5706 73.5283 62.4045 73.5283ZM64.7091 73.5283C64.5059 73.5283 64.3277 73.48 64.1743 73.3833C64.022 73.2866 63.9028 73.1513 63.8169 72.9775C63.7319 72.8036 63.6894 72.6004 63.6894 72.368C63.6894 72.1336 63.7319 71.929 63.8169 71.7541C63.9028 71.5793 64.022 71.4435 64.1743 71.3468C64.3277 71.2501 64.5059 71.2018 64.7091 71.2018C64.9122 71.2018 65.09 71.2501 65.2424 71.3468C65.3957 71.4435 65.5149 71.5793 65.5999 71.7541C65.6858 71.929 65.7288 72.1336 65.7288 72.368C65.7288 72.6004 65.6858 72.8036 65.5999 72.9775C65.5149 73.1513 65.3957 73.2866 65.2424 73.3833C65.09 73.48 64.9122 73.5283 64.7091 73.5283ZM64.7091 73.2177C64.8634 73.2177 64.9904 73.1782 65.09 73.0991C65.1896 73.0199 65.2634 72.9159 65.3112 72.787C65.3591 72.6581 65.383 72.5184 65.383 72.368C65.383 72.2176 65.3591 72.0774 65.3112 71.9475C65.2634 71.8176 65.1896 71.7126 65.09 71.6325C64.9904 71.5524 64.8634 71.5124 64.7091 71.5124C64.5548 71.5124 64.4278 71.5524 64.3282 71.6325C64.2285 71.7126 64.1548 71.8176 64.1069 71.9475C64.0591 72.0774 64.0352 72.2176 64.0352 72.368C64.0352 72.5184 64.0591 72.6581 64.1069 72.787C64.1548 72.9159 64.2285 73.0199 64.3282 73.0991C64.4278 73.1782 64.5548 73.2177 64.7091 73.2177ZM66.2566 73.4814V71.2311H66.5906V71.5827H66.6199C66.6668 71.4626 66.7425 71.3693 66.847 71.3029C66.9515 71.2355 67.077 71.2018 67.2235 71.2018C67.372 71.2018 67.4955 71.2355 67.5942 71.3029C67.6938 71.3693 67.7715 71.4626 67.8271 71.5827H67.8506C67.9082 71.4665 67.9946 71.3742 68.1099 71.3058C68.2252 71.2365 68.3634 71.2018 68.5245 71.2018C68.7257 71.2018 68.8903 71.2648 69.0182 71.3908C69.1462 71.5158 69.2102 71.7107 69.2102 71.9753V73.4814H68.8644V71.9753C68.8644 71.8093 68.819 71.6906 68.7282 71.6193C68.6373 71.548 68.5304 71.5124 68.4073 71.5124C68.2491 71.5124 68.1265 71.5602 68.0396 71.656C67.9526 71.7507 67.9092 71.8708 67.9092 72.0164V73.4814H67.5576V71.9402C67.5576 71.8122 67.5161 71.7092 67.433 71.6311C67.35 71.5519 67.2431 71.5124 67.1122 71.5124C67.0223 71.5124 66.9383 71.5363 66.8602 71.5842C66.783 71.632 66.7205 71.6984 66.6727 71.7834C66.6258 71.8674 66.6023 71.9646 66.6023 72.075V73.4814H66.2566Z" fill="white"/>
<path d="M29.1667 83.5624V81.6285H29.4949V83.5624H29.1667ZM28.3638 82.7596V82.4314H30.2977V82.7596H28.3638ZM31.98 84.1309C31.7593 84.1309 31.5713 84.0708 31.416 83.9507C31.2607 83.8295 31.142 83.6542 31.0599 83.4247C30.9779 83.1942 30.9369 82.9158 30.9369 82.5896C30.9369 82.2653 30.9779 81.9884 31.0599 81.7589C31.143 81.5284 31.2621 81.3526 31.4174 81.2315C31.5737 81.1094 31.7612 81.0483 31.98 81.0483C32.1988 81.0483 32.3858 81.1094 32.5411 81.2315C32.6974 81.3526 32.8166 81.5284 32.8986 81.7589C32.9816 81.9884 33.0231 82.2653 33.0231 82.5896C33.0231 82.9158 32.9821 83.1942 32.9001 83.4247C32.818 83.6542 32.6994 83.8295 32.5441 83.9507C32.3888 84.0708 32.2007 84.1309 31.98 84.1309ZM31.98 83.8085C32.1988 83.8085 32.3687 83.7031 32.4899 83.4921C32.611 83.2811 32.6715 82.9803 32.6715 82.5896C32.6715 82.3298 32.6437 82.1086 32.588 81.9259C32.5333 81.7433 32.4542 81.6041 32.3507 81.5084C32.2481 81.4127 32.1246 81.3648 31.98 81.3648C31.7632 81.3648 31.5937 81.4718 31.4716 81.6857C31.3495 81.8986 31.2885 82.1999 31.2885 82.5896C31.2885 82.8494 31.3158 83.0702 31.3705 83.2518C31.4252 83.4335 31.5039 83.5717 31.6064 83.6664C31.7099 83.7612 31.8345 83.8085 31.98 83.8085ZM34.6347 81.0894V84.0898H34.2714V81.4703H34.2538L33.5213 81.9567V81.5875L34.2714 81.0894H34.6347ZM36.658 84.0898V83.8261L37.6484 82.742C37.7646 82.615 37.8603 82.5046 37.9355 82.4109C38.0108 82.3161 38.0664 82.2272 38.1026 82.1442C38.1397 82.0602 38.1582 81.9723 38.1582 81.8805C38.1582 81.775 38.1328 81.6837 38.0821 81.6065C38.0322 81.5294 37.9639 81.4698 37.8769 81.4278C37.79 81.3858 37.6923 81.3648 37.5839 81.3648C37.4687 81.3648 37.3681 81.3887 37.2821 81.4366C37.1971 81.4835 37.1312 81.5494 37.0843 81.6344C37.0384 81.7193 37.0155 81.819 37.0155 81.9333H36.6697C36.6697 81.7574 36.7103 81.6031 36.7913 81.4703C36.8724 81.3375 36.9828 81.2339 37.1224 81.1597C37.2631 81.0855 37.4208 81.0483 37.5956 81.0483C37.7715 81.0483 37.9272 81.0855 38.063 81.1597C38.1988 81.2339 38.3052 81.334 38.3824 81.46C38.4596 81.586 38.4981 81.7262 38.4981 81.8805C38.4981 81.9909 38.4781 82.0988 38.4381 82.2043C38.399 82.3088 38.3306 82.4255 38.233 82.5544C38.1363 82.6824 38.002 82.8387 37.8301 83.0233L37.1561 83.7441V83.7675H38.5509V84.0898H36.658ZM40.1698 84.1309C39.9764 84.1309 39.804 84.0977 39.6526 84.0312C39.5022 83.9648 39.3826 83.8725 39.2937 83.7543C39.2058 83.6352 39.1579 83.497 39.1501 83.3397H39.5193C39.5271 83.4364 39.5603 83.5199 39.6189 83.5903C39.6775 83.6596 39.7542 83.7133 39.8489 83.7514C39.9437 83.7895 40.0487 83.8085 40.1639 83.8085C40.2929 83.8085 40.4071 83.7861 40.5068 83.7412C40.6064 83.6962 40.6845 83.6337 40.7412 83.5536C40.7978 83.4735 40.8261 83.3807 40.8261 83.2753C40.8261 83.1649 40.7988 83.0677 40.7441 82.9837C40.6894 82.8987 40.6093 82.8323 40.5038 82.7845C40.3983 82.7366 40.2694 82.7127 40.117 82.7127H39.8768V82.3904H40.117C40.2362 82.3904 40.3407 82.3689 40.4306 82.3259C40.5214 82.2829 40.5922 82.2224 40.643 82.1442C40.6948 82.0661 40.7207 81.9743 40.7207 81.8688C40.7207 81.7672 40.6982 81.6788 40.6533 81.6036C40.6083 81.5284 40.5448 81.4698 40.4628 81.4278C40.3817 81.3858 40.286 81.3648 40.1756 81.3648C40.0721 81.3648 39.9744 81.3838 39.8826 81.4219C39.7918 81.4591 39.7176 81.5133 39.6599 81.5846C39.6023 81.6549 39.5711 81.7399 39.5662 81.8395H39.2146C39.2204 81.6822 39.2678 81.5445 39.3567 81.4263C39.4456 81.3072 39.5618 81.2144 39.7054 81.148C39.8499 81.0816 40.0086 81.0483 40.1815 81.0483C40.3671 81.0483 40.5263 81.0859 40.6591 81.1612C40.792 81.2354 40.894 81.3335 40.9653 81.4556C41.0366 81.5777 41.0723 81.7096 41.0723 81.8512C41.0723 82.0202 41.0278 82.1642 40.939 82.2834C40.851 82.4026 40.7314 82.4851 40.58 82.531V82.5544C40.7695 82.5857 40.9175 82.6663 41.0239 82.7962C41.1304 82.9251 41.1836 83.0848 41.1836 83.2753C41.1836 83.4384 41.1392 83.5849 41.0503 83.7148C40.9624 83.8437 40.8423 83.9453 40.6899 84.0195C40.5375 84.0938 40.3642 84.1309 40.1698 84.1309ZM41.7125 83.4745V83.1756L43.0311 81.0894H43.2479V81.5523H43.1014L42.1052 83.1288V83.1522H43.8808V83.4745H41.7125ZM43.1248 84.0898V83.3837V83.2445V81.0894H43.4706V84.0898H43.1248ZM46.5279 84.1309C46.356 84.1309 46.2011 84.0967 46.0634 84.0283C45.9257 83.9599 45.8153 83.8662 45.7323 83.747C45.6493 83.6279 45.6039 83.4921 45.5961 83.3397H45.9477C45.9614 83.4755 46.0229 83.5878 46.1323 83.6767C46.2427 83.7646 46.3745 83.8085 46.5279 83.8085C46.6509 83.8085 46.7603 83.7797 46.856 83.7221C46.9527 83.6645 47.0284 83.5854 47.0831 83.4848C47.1388 83.3832 47.1666 83.2684 47.1666 83.1405C47.1666 83.0096 47.1378 82.8929 47.0802 82.7903C47.0235 82.6868 46.9454 82.6052 46.8458 82.5457C46.7461 82.4861 46.6324 82.4558 46.5044 82.4548C46.4126 82.4538 46.3183 82.468 46.2217 82.4973C46.125 82.5256 46.0454 82.5623 45.9828 82.6072L45.6429 82.5662L45.8246 81.0894H47.3835V81.4117H46.1294L46.0239 82.2966H46.0414C46.103 82.2478 46.1801 82.2072 46.2729 82.175C46.3657 82.1428 46.4624 82.1266 46.563 82.1266C46.7466 82.1266 46.9102 82.1706 47.0538 82.2585C47.1984 82.3454 47.3117 82.4646 47.3937 82.616C47.4767 82.7674 47.5182 82.9402 47.5182 83.1346C47.5182 83.3261 47.4753 83.497 47.3893 83.6474C47.3043 83.7968 47.1871 83.915 47.0377 84.0019C46.8883 84.0879 46.7183 84.1309 46.5279 84.1309ZM49.0965 84.1309C48.9734 84.1289 48.8504 84.1055 48.7273 84.0605C48.6042 84.0156 48.4919 83.9399 48.3903 83.8335C48.2888 83.726 48.2072 83.581 48.1457 83.3983C48.0841 83.2147 48.0534 82.9842 48.0534 82.7068C48.0534 82.4411 48.0783 82.2058 48.1281 82.0006C48.1779 81.7946 48.2502 81.6212 48.3449 81.4805C48.4397 81.3389 48.5539 81.2315 48.6877 81.1582C48.8225 81.085 48.9744 81.0483 49.1434 81.0483C49.3114 81.0483 49.4608 81.082 49.5917 81.1494C49.7236 81.2159 49.831 81.3086 49.914 81.4278C49.997 81.547 50.0508 81.6842 50.0752 81.8395H49.7177C49.6845 81.7047 49.62 81.5929 49.5243 81.504C49.4286 81.4151 49.3016 81.3707 49.1434 81.3707C48.9109 81.3707 48.7278 81.4718 48.594 81.6739C48.4611 81.8761 48.3942 82.1598 48.3933 82.5251H48.4167C48.4714 82.4421 48.5364 82.3713 48.6116 82.3127C48.6877 82.2531 48.7717 82.2072 48.8636 82.175C48.9554 82.1428 49.0525 82.1266 49.1551 82.1266C49.327 82.1266 49.4843 82.1696 49.6269 82.2556C49.7695 82.3405 49.8837 82.4582 49.9697 82.6087C50.0556 82.7581 50.0986 82.9295 50.0986 83.1229C50.0986 83.3085 50.0571 83.4784 49.9741 83.6327C49.8911 83.7861 49.7743 83.9082 49.6239 83.999C49.4745 84.0889 49.2987 84.1328 49.0965 84.1309ZM49.0965 83.8085C49.2196 83.8085 49.3299 83.7778 49.4276 83.7162C49.5263 83.6547 49.6039 83.5722 49.6606 83.4687C49.7182 83.3651 49.747 83.2499 49.747 83.1229C49.747 82.9988 49.7192 82.886 49.6635 82.7845C49.6088 82.6819 49.5331 82.6003 49.4364 82.5398C49.3407 82.4792 49.2313 82.449 49.1082 82.449C49.0154 82.449 48.929 82.4675 48.8489 82.5046C48.7688 82.5408 48.6985 82.5906 48.6379 82.6541C48.5783 82.7176 48.5315 82.7903 48.4973 82.8724C48.4631 82.9534 48.446 83.0389 48.446 83.1288C48.446 83.2479 48.4738 83.3593 48.5295 83.4628C48.5862 83.5663 48.6633 83.6498 48.761 83.7133C48.8596 83.7768 48.9715 83.8085 49.0965 83.8085ZM50.7685 84.0898L52.1105 81.4351V81.4117H50.5634V81.0894H52.4856V81.4293L51.1494 84.0898H50.7685ZM55.1707 84.1309C54.95 84.1309 54.762 84.0708 54.6067 83.9507C54.4514 83.8295 54.3327 83.6542 54.2506 83.4247C54.1686 83.1942 54.1276 82.9158 54.1276 82.5896C54.1276 82.2653 54.1686 81.9884 54.2506 81.7589C54.3337 81.5284 54.4528 81.3526 54.6081 81.2315C54.7644 81.1094 54.9519 81.0483 55.1707 81.0483C55.3895 81.0483 55.5765 81.1094 55.7318 81.2315C55.8881 81.3526 56.0073 81.5284 56.0893 81.7589C56.1723 81.9884 56.2138 82.2653 56.2138 82.5896C56.2138 82.9158 56.1728 83.1942 56.0908 83.4247C56.0087 83.6542 55.8901 83.8295 55.7348 83.9507C55.5795 84.0708 55.3914 84.1309 55.1707 84.1309ZM55.1707 83.8085C55.3895 83.8085 55.5594 83.7031 55.6806 83.4921C55.8017 83.2811 55.8622 82.9803 55.8622 82.5896C55.8622 82.3298 55.8344 82.1086 55.7787 81.9259C55.724 81.7433 55.6449 81.6041 55.5414 81.5084C55.4388 81.4127 55.3153 81.3648 55.1707 81.3648C54.9539 81.3648 54.7844 81.4718 54.6623 81.6857C54.5402 81.8986 54.4792 82.1999 54.4792 82.5896C54.4792 82.8494 54.5065 83.0702 54.5612 83.2518C54.6159 83.4335 54.6946 83.5717 54.7971 83.6664C54.9006 83.7612 55.0252 83.8085 55.1707 83.8085ZM57.7492 84.1309C57.5285 84.1309 57.3405 84.0708 57.1852 83.9507C57.0299 83.8295 56.9112 83.6542 56.8292 83.4247C56.7471 83.1942 56.7061 82.9158 56.7061 82.5896C56.7061 82.2653 56.7471 81.9884 56.8292 81.7589C56.9122 81.5284 57.0314 81.3526 57.1867 81.2315C57.3429 81.1094 57.5305 81.0483 57.7492 81.0483C57.968 81.0483 58.1551 81.1094 58.3104 81.2315C58.4666 81.3526 58.5858 81.5284 58.6678 81.7589C58.7509 81.9884 58.7924 82.2653 58.7924 82.5896C58.7924 82.9158 58.7514 83.1942 58.6693 83.4247C58.5873 83.6542 58.4686 83.8295 58.3133 83.9507C58.158 84.0708 57.97 84.1309 57.7492 84.1309ZM57.7492 83.8085C57.968 83.8085 58.138 83.7031 58.2591 83.4921C58.3802 83.2811 58.4408 82.9803 58.4408 82.5896C58.4408 82.3298 58.4129 82.1086 58.3572 81.9259C58.3026 81.7433 58.2234 81.6041 58.1199 81.5084C58.0174 81.4127 57.8938 81.3648 57.7492 81.3648C57.5324 81.3648 57.3629 81.4718 57.2409 81.6857C57.1188 81.8986 57.0577 82.1999 57.0577 82.5896C57.0577 82.8494 57.0851 83.0702 57.1398 83.2518C57.1945 83.4335 57.2731 83.5717 57.3756 83.6664C57.4792 83.7612 57.6037 83.8085 57.7492 83.8085ZM60.3278 84.1309C60.107 84.1309 59.919 84.0708 59.7637 83.9507C59.6084 83.8295 59.4898 83.6542 59.4077 83.4247C59.3257 83.1942 59.2846 82.9158 59.2846 82.5896C59.2846 82.2653 59.3257 81.9884 59.4077 81.7589C59.4907 81.5284 59.6099 81.3526 59.7652 81.2315C59.9215 81.1094 60.109 81.0483 60.3278 81.0483C60.5466 81.0483 60.7336 81.1094 60.8889 81.2315C61.0452 81.3526 61.1643 81.5284 61.2464 81.7589C61.3294 81.9884 61.3709 82.2653 61.3709 82.5896C61.3709 82.9158 61.3299 83.1942 61.2478 83.4247C61.1658 83.6542 61.0471 83.8295 60.8918 83.9507C60.7365 84.0708 60.5485 84.1309 60.3278 84.1309ZM60.3278 83.8085C60.5466 83.8085 60.7165 83.7031 60.8376 83.4921C60.9587 83.2811 61.0193 82.9803 61.0193 82.5896C61.0193 82.3298 60.9915 82.1086 60.9358 81.9259C60.8811 81.7433 60.802 81.6041 60.6984 81.5084C60.5959 81.4127 60.4723 81.3648 60.3278 81.3648C60.1109 81.3648 59.9415 81.4718 59.8194 81.6857C59.6973 81.8986 59.6363 82.1999 59.6363 82.5896C59.6363 82.8494 59.6636 83.0702 59.7183 83.2518C59.773 83.4335 59.8516 83.5717 59.9542 83.6664C60.0577 83.7612 60.1822 83.8085 60.3278 83.8085Z" fill="white"/>
<path d="M28.3345 91.6978H28.7682L29.7879 94.1884H29.823L30.8427 91.6978H31.2764V94.6982H30.9365V92.4186H30.9072L29.9696 94.6982H29.6414L28.7037 92.4186H28.6744V94.6982H28.3345V91.6978ZM32.6202 94.751C32.4776 94.751 32.3482 94.7241 32.232 94.6704C32.1158 94.6157 32.0235 94.5371 31.9551 94.4345C31.8867 94.331 31.8525 94.206 31.8525 94.0595C31.8525 93.9305 31.8779 93.826 31.9287 93.7459C31.9795 93.6649 32.0474 93.6014 32.1324 93.5555C32.2174 93.5096 32.3111 93.4754 32.4137 93.4529C32.5172 93.4295 32.6212 93.4109 32.7257 93.3973C32.8625 93.3797 32.9733 93.3665 33.0583 93.3577C33.1443 93.3479 33.2068 93.3318 33.2458 93.3093C33.2859 93.2869 33.3059 93.2478 33.3059 93.1921V93.1804C33.3059 93.0359 33.2663 92.9235 33.1872 92.8435C33.1091 92.7634 32.9904 92.7233 32.8312 92.7233C32.6662 92.7233 32.5367 92.7595 32.443 92.8317C32.3492 92.904 32.2833 92.9812 32.2452 93.0632L31.917 92.946C31.9756 92.8093 32.0537 92.7028 32.1514 92.6266C32.2501 92.5495 32.3575 92.4957 32.4737 92.4655C32.5909 92.4342 32.7062 92.4186 32.8195 92.4186C32.8918 92.4186 32.9748 92.4274 33.0686 92.445C33.1633 92.4616 33.2546 92.4962 33.3425 92.549C33.4314 92.6017 33.5052 92.6813 33.5638 92.7878C33.6224 92.8942 33.6517 93.0368 33.6517 93.2156V94.6982H33.3059V94.3935H33.2883C33.2649 94.4423 33.2258 94.4946 33.1711 94.5503C33.1164 94.6059 33.0437 94.6533 32.9528 94.6924C32.862 94.7315 32.7511 94.751 32.6202 94.751ZM32.673 94.4404C32.8097 94.4404 32.925 94.4135 33.0187 94.3598C33.1135 94.3061 33.1848 94.2367 33.2326 94.1518C33.2815 94.0668 33.3059 93.9774 33.3059 93.8837V93.5672C33.2913 93.5848 33.259 93.6009 33.2092 93.6156C33.1604 93.6292 33.1037 93.6414 33.0393 93.6522C32.9758 93.6619 32.9137 93.6707 32.8532 93.6785C32.7936 93.6854 32.7453 93.6912 32.7082 93.6961C32.6183 93.7079 32.5343 93.7269 32.4562 93.7533C32.379 93.7787 32.3165 93.8172 32.2686 93.869C32.2217 93.9198 32.1983 93.9891 32.1983 94.077C32.1983 94.1972 32.2427 94.288 32.3316 94.3496C32.4215 94.4101 32.5353 94.4404 32.673 94.4404ZM34.2827 94.6982V92.4479H34.6285V94.6982H34.2827ZM34.4586 92.0728C34.3912 92.0728 34.333 92.0499 34.2842 92.004C34.2363 91.9581 34.2124 91.9029 34.2124 91.8384C34.2124 91.7739 34.2363 91.7188 34.2842 91.6729C34.333 91.627 34.3912 91.604 34.4586 91.604C34.5259 91.604 34.5836 91.627 34.6314 91.6729C34.6803 91.7188 34.7047 91.7739 34.7047 91.8384C34.7047 91.9029 34.6803 91.9581 34.6314 92.004C34.5836 92.0499 34.5259 92.0728 34.4586 92.0728ZM35.6075 93.3445V94.6982H35.2618V92.4479H35.5958V92.7995H35.6251C35.6779 92.6852 35.758 92.5934 35.8654 92.5241C35.9728 92.4537 36.1115 92.4186 36.2815 92.4186C36.4338 92.4186 36.5672 92.4498 36.6814 92.5123C36.7957 92.5739 36.8846 92.6676 36.9481 92.7936C37.0116 92.9187 37.0433 93.0769 37.0433 93.2683V94.6982H36.6976V93.2918C36.6976 93.115 36.6516 92.9773 36.5598 92.8786C36.468 92.779 36.342 92.7292 36.1818 92.7292C36.0715 92.7292 35.9728 92.7531 35.8859 92.801C35.8 92.8488 35.7321 92.9187 35.6823 93.0105C35.6324 93.1023 35.6075 93.2136 35.6075 93.3445ZM40.5232 92.4479C40.5057 92.2994 40.4344 92.1842 40.3093 92.1021C40.1843 92.0201 40.031 91.9791 39.8493 91.9791C39.7165 91.9791 39.6002 92.0005 39.5006 92.0435C39.402 92.0865 39.3248 92.1456 39.2691 92.2208C39.2144 92.296 39.1871 92.3815 39.1871 92.4772C39.1871 92.5573 39.2061 92.6261 39.2442 92.6838C39.2833 92.7404 39.3331 92.7878 39.3937 92.8259C39.4542 92.863 39.5177 92.8938 39.5841 92.9182C39.6505 92.9416 39.7116 92.9607 39.7673 92.9753L40.072 93.0574C40.1501 93.0779 40.2371 93.1062 40.3328 93.1423C40.4295 93.1785 40.5218 93.2278 40.6097 93.2903C40.6986 93.3518 40.7718 93.431 40.8294 93.5276C40.8871 93.6243 40.9159 93.743 40.9159 93.8837C40.9159 94.0458 40.8734 94.1923 40.7884 94.3232C40.7044 94.4541 40.5814 94.5581 40.4192 94.6352C40.2581 94.7124 40.0622 94.751 39.8317 94.751C39.6168 94.751 39.4308 94.7163 39.2735 94.647C39.1173 94.5776 38.9942 94.4809 38.9043 94.3569C38.8154 94.2328 38.7651 94.0888 38.7534 93.9247H39.1285C39.1383 94.038 39.1763 94.1317 39.2428 94.206C39.3102 94.2792 39.3951 94.3339 39.4977 94.3701C39.6012 94.4052 39.7126 94.4228 39.8317 94.4228C39.9704 94.4228 40.0949 94.4003 40.2053 94.3554C40.3157 94.3095 40.4031 94.246 40.4676 94.165C40.532 94.0829 40.5643 93.9872 40.5643 93.8778C40.5643 93.7782 40.5364 93.6971 40.4807 93.6346C40.4251 93.5721 40.3518 93.5213 40.261 93.4822C40.1702 93.4432 40.072 93.409 39.9665 93.3797L39.5973 93.2742C39.3629 93.2068 39.1773 93.1106 39.0406 92.9856C38.9038 92.8605 38.8355 92.6969 38.8355 92.4948C38.8355 92.3268 38.8809 92.1803 38.9717 92.0552C39.0635 91.9292 39.1866 91.8316 39.3409 91.7622C39.4962 91.6919 39.6696 91.6567 39.861 91.6567C40.0544 91.6567 40.2263 91.6914 40.3767 91.7608C40.5271 91.8291 40.6463 91.9229 40.7342 92.0421C40.8231 92.1612 40.87 92.2965 40.8749 92.4479H40.5232ZM42.4451 92.4479V92.7409H41.2789V92.4479H42.4451ZM41.6187 91.9087H41.9645V94.0536C41.9645 94.1513 41.9787 94.2245 42.007 94.2734C42.0363 94.3212 42.0734 94.3535 42.1183 94.3701C42.1642 94.3857 42.2126 94.3935 42.2634 94.3935C42.3015 94.3935 42.3327 94.3916 42.3571 94.3876C42.3816 94.3828 42.4011 94.3789 42.4157 94.3759L42.4861 94.6865C42.4626 94.6953 42.4299 94.7041 42.3879 94.7129C42.3459 94.7227 42.2927 94.7275 42.2282 94.7275C42.1305 94.7275 42.0348 94.7065 41.9411 94.6645C41.8483 94.6225 41.7711 94.5586 41.7096 94.4726C41.649 94.3867 41.6187 94.2783 41.6187 94.1474V91.9087ZM42.9652 94.6982V92.4479H43.2992V92.7878H43.3226C43.3637 92.6764 43.4379 92.5861 43.5453 92.5167C43.6528 92.4474 43.7739 92.4127 43.9087 92.4127C43.9341 92.4127 43.9658 92.4132 44.0039 92.4142C44.042 92.4152 44.0708 92.4166 44.0903 92.4186V92.7702C44.0786 92.7673 44.0518 92.7629 44.0098 92.757C43.9687 92.7502 43.9253 92.7468 43.8794 92.7468C43.77 92.7468 43.6723 92.7697 43.5863 92.8156C43.5014 92.8605 43.434 92.9231 43.3842 93.0031C43.3353 93.0823 43.3109 93.1726 43.3109 93.2742V94.6982H42.9652ZM45.3752 94.7451C45.1584 94.7451 44.9713 94.6973 44.8141 94.6015C44.6578 94.5049 44.5372 94.3701 44.4522 94.1972C44.3682 94.0233 44.3262 93.8211 44.3262 93.5906C44.3262 93.3601 44.3682 93.157 44.4522 92.9812C44.5372 92.8044 44.6554 92.6667 44.8068 92.568C44.9591 92.4684 45.1369 92.4186 45.34 92.4186C45.4572 92.4186 45.573 92.4381 45.6873 92.4772C45.8015 92.5163 45.9056 92.5797 45.9993 92.6676C46.0931 92.7546 46.1678 92.8698 46.2235 93.0134C46.2792 93.157 46.307 93.3338 46.307 93.5438V93.6903H44.5723V93.3914H45.9554C45.9554 93.2644 45.93 93.1511 45.8792 93.0515C45.8294 92.9519 45.7581 92.8732 45.6653 92.8156C45.5735 92.758 45.4651 92.7292 45.34 92.7292C45.2023 92.7292 45.0832 92.7634 44.9826 92.8317C44.8829 92.8991 44.8063 92.987 44.7525 93.0954C44.6988 93.2039 44.672 93.3201 44.672 93.4441V93.6434C44.672 93.8133 44.7013 93.9574 44.7599 94.0756C44.8195 94.1928 44.902 94.2822 45.0075 94.3437C45.113 94.4043 45.2355 94.4345 45.3752 94.4345C45.466 94.4345 45.5481 94.4218 45.6213 94.3964C45.6956 94.3701 45.7595 94.331 45.8133 94.2792C45.867 94.2265 45.9085 94.161 45.9378 94.0829L46.2718 94.1767C46.2367 94.29 46.1776 94.3896 46.0946 94.4756C46.0115 94.5605 45.909 94.6269 45.7869 94.6748C45.6648 94.7217 45.5276 94.7451 45.3752 94.7451ZM47.7765 94.7451C47.5596 94.7451 47.3726 94.6973 47.2153 94.6015C47.0591 94.5049 46.9384 94.3701 46.8535 94.1972C46.7695 94.0233 46.7275 93.8211 46.7275 93.5906C46.7275 93.3601 46.7695 93.157 46.8535 92.9812C46.9384 92.8044 47.0566 92.6667 47.208 92.568C47.3604 92.4684 47.5381 92.4186 47.7413 92.4186C47.8585 92.4186 47.9742 92.4381 48.0885 92.4772C48.2028 92.5163 48.3068 92.5797 48.4006 92.6676C48.4944 92.7546 48.5691 92.8698 48.6247 93.0134C48.6804 93.157 48.7083 93.3338 48.7083 93.5438V93.6903H46.9736V93.3914H48.3566C48.3566 93.2644 48.3312 93.1511 48.2805 93.0515C48.2306 92.9519 48.1593 92.8732 48.0665 92.8156C47.9747 92.758 47.8663 92.7292 47.7413 92.7292C47.6036 92.7292 47.4844 92.7634 47.3838 92.8317C47.2842 92.8991 47.2075 92.987 47.1538 93.0954C47.1001 93.2039 47.0732 93.3201 47.0732 93.4441V93.6434C47.0732 93.8133 47.1025 93.9574 47.1611 94.0756C47.2207 94.1928 47.3032 94.2822 47.4087 94.3437C47.5142 94.4043 47.6368 94.4345 47.7765 94.4345C47.8673 94.4345 47.9493 94.4218 48.0226 94.3964C48.0968 94.3701 48.1608 94.331 48.2145 94.2792C48.2682 94.2265 48.3098 94.161 48.3391 94.0829L48.6731 94.1767C48.6379 94.29 48.5788 94.3896 48.4958 94.4756C48.4128 94.5605 48.3102 94.6269 48.1882 94.6748C48.0661 94.7217 47.9288 94.7451 47.7765 94.7451ZM50.2129 92.4479V92.7409H49.0467V92.4479H50.2129ZM49.3866 91.9087H49.7323V94.0536C49.7323 94.1513 49.7465 94.2245 49.7748 94.2734C49.8041 94.3212 49.8412 94.3535 49.8862 94.3701C49.9321 94.3857 49.9804 94.3935 50.0312 94.3935C50.0693 94.3935 50.1006 94.3916 50.125 94.3876C50.1494 94.3828 50.1689 94.3789 50.1836 94.3759L50.2539 94.6865C50.2305 94.6953 50.1977 94.7041 50.1558 94.7129C50.1138 94.7227 50.0605 94.7275 49.9961 94.7275C49.8984 94.7275 49.8027 94.7065 49.7089 94.6645C49.6161 94.6225 49.539 94.5586 49.4774 94.4726C49.4169 94.3867 49.3866 94.2783 49.3866 94.1474V91.9087ZM51.2487 94.288L51.2253 94.4462C51.2087 94.5576 51.1833 94.6768 51.1491 94.8037C51.1159 94.9307 51.0812 95.0503 51.0451 95.1627C51.0089 95.275 50.9791 95.3644 50.9557 95.4308H50.692C50.7047 95.3683 50.7213 95.2857 50.7418 95.1832C50.7623 95.0806 50.7828 94.9659 50.8033 94.8389C50.8248 94.7129 50.8424 94.584 50.8561 94.4521L50.8736 94.288H51.2487ZM55.4758 91.6978V94.6982H55.1242L53.4892 92.3424H53.4599V94.6982H53.0965V91.6978H53.4481L55.089 94.0595H55.1183V91.6978H55.4758ZM57.0702 94.7451C56.867 94.7451 56.6888 94.6968 56.5354 94.6001C56.3831 94.5034 56.2639 94.3681 56.1779 94.1943C56.093 94.0204 56.0505 93.8172 56.0505 93.5848C56.0505 93.3504 56.093 93.1457 56.1779 92.9709C56.2639 92.7961 56.3831 92.6603 56.5354 92.5636C56.6888 92.4669 56.867 92.4186 57.0702 92.4186C57.2733 92.4186 57.4511 92.4669 57.6035 92.5636C57.7568 92.6603 57.876 92.7961 57.9609 92.9709C58.0469 93.1457 58.0899 93.3504 58.0899 93.5848C58.0899 93.8172 58.0469 94.0204 57.9609 94.1943C57.876 94.3681 57.7568 94.5034 57.6035 94.6001C57.4511 94.6968 57.2733 94.7451 57.0702 94.7451ZM57.0702 94.4345C57.2245 94.4345 57.3515 94.395 57.4511 94.3159C57.5507 94.2367 57.6245 94.1327 57.6723 94.0038C57.7202 93.8749 57.7441 93.7352 57.7441 93.5848C57.7441 93.4344 57.7202 93.2942 57.6723 93.1643C57.6245 93.0344 57.5507 92.9294 57.4511 92.8493C57.3515 92.7692 57.2245 92.7292 57.0702 92.7292C56.9159 92.7292 56.7889 92.7692 56.6893 92.8493C56.5896 92.9294 56.5159 93.0344 56.468 93.1643C56.4202 93.2942 56.3962 93.4344 56.3962 93.5848C56.3962 93.7352 56.4202 93.8749 56.468 94.0038C56.5159 94.1327 56.5896 94.2367 56.6893 94.3159C56.7889 94.395 56.9159 94.4345 57.0702 94.4345ZM58.6177 94.6982V92.4479H58.9517V92.7878H58.9751C59.0162 92.6764 59.0904 92.5861 59.1978 92.5167C59.3053 92.4474 59.4264 92.4127 59.5612 92.4127C59.5866 92.4127 59.6183 92.4132 59.6564 92.4142C59.6945 92.4152 59.7233 92.4166 59.7428 92.4186V92.7702C59.7311 92.7673 59.7043 92.7629 59.6623 92.757C59.6212 92.7502 59.5778 92.7468 59.5319 92.7468C59.4225 92.7468 59.3248 92.7697 59.2389 92.8156C59.1539 92.8605 59.0865 92.9231 59.0367 93.0031C58.9878 93.0823 58.9634 93.1726 58.9634 93.2742V94.6982H58.6177ZM61.2724 92.4479V92.7409H60.1062V92.4479H61.2724ZM60.4461 91.9087H60.7918V94.0536C60.7918 94.1513 60.806 94.2245 60.8343 94.2734C60.8636 94.3212 60.9007 94.3535 60.9457 94.3701C60.9916 94.3857 61.0399 94.3935 61.0907 94.3935C61.1288 94.3935 61.1601 94.3916 61.1845 94.3876C61.2089 94.3828 61.2284 94.3789 61.2431 94.3759L61.3134 94.6865C61.29 94.6953 61.2572 94.7041 61.2152 94.7129C61.1732 94.7227 61.12 94.7275 61.0556 94.7275C60.9579 94.7275 60.8622 94.7065 60.7684 94.6645C60.6756 94.6225 60.5984 94.5586 60.5369 94.4726C60.4764 94.3867 60.4461 94.2783 60.4461 94.1474V91.9087ZM62.1866 93.3445V94.6982H61.8408V91.6978H62.1866V92.7995H62.2159C62.2686 92.6833 62.3478 92.591 62.4532 92.5226C62.5597 92.4533 62.7013 92.4186 62.8781 92.4186C63.0315 92.4186 63.1658 92.4493 63.281 92.5109C63.3963 92.5714 63.4856 92.6647 63.5491 92.7907C63.6136 92.9157 63.6458 93.0749 63.6458 93.2683V94.6982H63.3001V93.2918C63.3001 93.113 63.2537 92.9748 63.1609 92.8772C63.0691 92.7785 62.9416 92.7292 62.7785 92.7292C62.6652 92.7292 62.5636 92.7531 62.4737 92.801C62.3849 92.8488 62.3145 92.9187 62.2628 93.0105C62.212 93.1023 62.1866 93.2136 62.1866 93.3445ZM65.4856 94.6982V91.6978H66.4994C66.7348 91.6978 66.9272 91.7403 67.0767 91.8252C67.2271 91.9092 67.3384 92.023 67.4107 92.1666C67.483 92.3102 67.5191 92.4703 67.5191 92.6471C67.5191 92.8239 67.483 92.9846 67.4107 93.1291C67.3394 93.2737 67.229 93.389 67.0796 93.4749C66.9301 93.5599 66.7387 93.6024 66.5053 93.6024H65.7786V93.28H66.4936C66.6547 93.28 66.7841 93.2522 66.8818 93.1965C66.9795 93.1409 67.0503 93.0657 67.0942 92.9709C67.1392 92.8752 67.1616 92.7673 67.1616 92.6471C67.1616 92.527 67.1392 92.4196 67.0942 92.3248C67.0503 92.2301 66.979 92.1558 66.8803 92.1021C66.7817 92.0474 66.6508 92.0201 66.4877 92.0201H65.8489V94.6982H65.4856ZM68.7197 94.751C68.5771 94.751 68.4477 94.7241 68.3315 94.6704C68.2153 94.6157 68.123 94.5371 68.0546 94.4345C67.9862 94.331 67.952 94.206 67.952 94.0595C67.952 93.9305 67.9774 93.826 68.0282 93.7459C68.079 93.6649 68.1469 93.6014 68.2319 93.5555C68.3168 93.5096 68.4106 93.4754 68.5132 93.4529C68.6167 93.4295 68.7207 93.4109 68.8252 93.3973C68.962 93.3797 69.0728 93.3665 69.1578 93.3577C69.2437 93.3479 69.3063 93.3318 69.3453 93.3093C69.3854 93.2869 69.4054 93.2478 69.4054 93.1921V93.1804C69.4054 93.0359 69.3658 92.9235 69.2867 92.8435C69.2086 92.7634 69.0899 92.7233 68.9307 92.7233C68.7656 92.7233 68.6362 92.7595 68.5425 92.8317C68.4487 92.904 68.3828 92.9812 68.3447 93.0632L68.0165 92.946C68.0751 92.8093 68.1532 92.7028 68.2509 92.6266C68.3496 92.5495 68.457 92.4957 68.5732 92.4655C68.6904 92.4342 68.8057 92.4186 68.919 92.4186C68.9913 92.4186 69.0743 92.4274 69.1681 92.445C69.2628 92.4616 69.3541 92.4962 69.442 92.549C69.5309 92.6017 69.6046 92.6813 69.6632 92.7878C69.7218 92.8942 69.7512 93.0368 69.7512 93.2156V94.6982H69.4054V94.3935H69.3878C69.3644 94.4423 69.3253 94.4946 69.2706 94.5503C69.2159 94.6059 69.1431 94.6533 69.0523 94.6924C68.9615 94.7315 68.8506 94.751 68.7197 94.751ZM68.7725 94.4404C68.9092 94.4404 69.0245 94.4135 69.1182 94.3598C69.213 94.3061 69.2843 94.2367 69.3321 94.1518C69.381 94.0668 69.4054 93.9774 69.4054 93.8837V93.5672C69.3907 93.5848 69.3585 93.6009 69.3087 93.6156C69.2599 93.6292 69.2032 93.6414 69.1387 93.6522C69.0753 93.6619 69.0132 93.6707 68.9527 93.6785C68.8931 93.6854 68.8448 93.6912 68.8076 93.6961C68.7178 93.7079 68.6338 93.7269 68.5556 93.7533C68.4785 93.7787 68.416 93.8172 68.3681 93.869C68.3212 93.9198 68.2978 93.9891 68.2978 94.077C68.2978 94.1972 68.3422 94.288 68.4311 94.3496C68.521 94.4101 68.6348 94.4404 68.7725 94.4404ZM70.3822 94.6982V92.4479H70.7163V92.7878H70.7397C70.7807 92.6764 70.855 92.5861 70.9624 92.5167C71.0698 92.4474 71.191 92.4127 71.3257 92.4127C71.3511 92.4127 71.3829 92.4132 71.421 92.4142C71.4591 92.4152 71.4879 92.4166 71.5074 92.4186V92.7702C71.4957 92.7673 71.4688 92.7629 71.4268 92.757C71.3858 92.7502 71.3423 92.7468 71.2964 92.7468C71.187 92.7468 71.0894 92.7697 71.0034 92.8156C70.9185 92.8605 70.8511 92.9231 70.8012 93.0031C70.7524 93.0823 70.728 93.1726 70.728 93.2742V94.6982H70.3822ZM72.2396 93.8778L72.2337 93.45H72.304L73.2886 92.4479H73.7164L72.6674 93.5086H72.6381L72.2396 93.8778ZM71.9173 94.6982V91.6978H72.263V94.6982H71.9173ZM73.3472 94.6982L72.4681 93.5848L72.7143 93.3445L73.7867 94.6982H73.3472ZM76.3707 91.6978V94.6982H76.0074V92.0787H75.9898L75.2573 92.5651V92.1959L76.0074 91.6978H76.3707ZM77.2337 94.6982V94.4345L78.2241 93.3504C78.3403 93.2234 78.436 93.113 78.5112 93.0193C78.5864 92.9245 78.6421 92.8356 78.6782 92.7526C78.7153 92.6686 78.7339 92.5807 78.7339 92.4889C78.7339 92.3834 78.7085 92.2921 78.6577 92.2149C78.6079 92.1378 78.5395 92.0782 78.4526 92.0362C78.3657 91.9942 78.268 91.9732 78.1596 91.9732C78.0443 91.9732 77.9437 91.9971 77.8578 92.045C77.7728 92.0919 77.7069 92.1578 77.66 92.2428C77.6141 92.3277 77.5911 92.4274 77.5911 92.5416H77.2454C77.2454 92.3658 77.2859 92.2115 77.367 92.0787C77.4481 91.9459 77.5584 91.8423 77.6981 91.7681C77.8387 91.6939 77.9965 91.6567 78.1713 91.6567C78.3471 91.6567 78.5029 91.6939 78.6387 91.7681C78.7744 91.8423 78.8809 91.9424 78.9581 92.0684C79.0352 92.1944 79.0738 92.3346 79.0738 92.4889C79.0738 92.5993 79.0538 92.7072 79.0137 92.8127C78.9747 92.9172 78.9063 93.0339 78.8086 93.1628C78.7119 93.2908 78.5776 93.4471 78.4057 93.6317L77.7318 94.3525V94.3759H79.1265V94.6982H77.2337ZM80.7455 94.7393C80.5521 94.7393 80.3797 94.7061 80.2283 94.6396C80.0779 94.5732 79.9582 94.4809 79.8693 94.3627C79.7814 94.2436 79.7336 94.1054 79.7258 93.9481H80.095C80.1028 94.0448 80.136 94.1283 80.1946 94.1987C80.2532 94.268 80.3299 94.3217 80.4246 94.3598C80.5193 94.3979 80.6243 94.4169 80.7396 94.4169C80.8685 94.4169 80.9828 94.3945 81.0824 94.3496C81.182 94.3046 81.2602 94.2421 81.3168 94.162C81.3735 94.0819 81.4018 93.9891 81.4018 93.8837C81.4018 93.7733 81.3745 93.6761 81.3198 93.5921C81.2651 93.5071 81.185 93.4407 81.0795 93.3929C80.974 93.345 80.8451 93.3211 80.6927 93.3211H80.4524V92.9988H80.6927C80.8119 92.9988 80.9164 92.9773 81.0062 92.9343C81.0971 92.8913 81.1679 92.8308 81.2187 92.7526C81.2704 92.6745 81.2963 92.5827 81.2963 92.4772C81.2963 92.3756 81.2739 92.2872 81.2289 92.212C81.184 92.1368 81.1205 92.0782 81.0385 92.0362C80.9574 91.9942 80.8617 91.9732 80.7513 91.9732C80.6478 91.9732 80.5501 91.9922 80.4583 92.0303C80.3675 92.0675 80.2932 92.1217 80.2356 92.193C80.178 92.2633 80.1467 92.3483 80.1418 92.4479H79.7902C79.7961 92.2906 79.8435 92.1529 79.9323 92.0347C80.0212 91.9156 80.1374 91.8228 80.281 91.7564C80.4256 91.69 80.5843 91.6567 80.7572 91.6567C80.9428 91.6567 81.102 91.6943 81.2348 91.7696C81.3676 91.8438 81.4697 91.9419 81.541 92.064C81.6123 92.1861 81.6479 92.318 81.6479 92.4596C81.6479 92.6286 81.6035 92.7726 81.5146 92.8918C81.4267 93.011 81.3071 93.0935 81.1557 93.1394V93.1628C81.3452 93.1941 81.4931 93.2747 81.5996 93.4046C81.7061 93.5335 81.7593 93.6932 81.7593 93.8837C81.7593 94.0468 81.7148 94.1933 81.626 94.3232C81.5381 94.4521 81.4179 94.5537 81.2656 94.6279C81.1132 94.7021 80.9398 94.7393 80.7455 94.7393ZM82.7874 94.288L82.764 94.4462C82.7474 94.5576 82.722 94.6768 82.6878 94.8037C82.6546 94.9307 82.6199 95.0503 82.5838 95.1627C82.5476 95.275 82.5178 95.3644 82.4944 95.4308H82.2307C82.2434 95.3683 82.26 95.2857 82.2805 95.1832C82.301 95.0806 82.3215 94.9659 82.342 94.8389C82.3635 94.7129 82.3811 94.584 82.3948 94.4521L82.4123 94.288H82.7874ZM85.6373 91.6978V94.6982H85.274V92.0787H85.2564L84.5239 92.5651V92.1959L85.274 91.6978H85.6373ZM86.5003 94.6982V94.4345L87.4907 93.3504C87.6069 93.2234 87.7026 93.113 87.7778 93.0193C87.853 92.9245 87.9087 92.8356 87.9448 92.7526C87.982 92.6686 88.0005 92.5807 88.0005 92.4889C88.0005 92.3834 87.9751 92.2921 87.9243 92.2149C87.8745 92.1378 87.8061 92.0782 87.7192 92.0362C87.6323 91.9942 87.5346 91.9732 87.4262 91.9732C87.311 91.9732 87.2103 91.9971 87.1244 92.045C87.0394 92.0919 86.9735 92.1578 86.9266 92.2428C86.8807 92.3277 86.8578 92.4274 86.8578 92.5416H86.512C86.512 92.3658 86.5525 92.2115 86.6336 92.0787C86.7147 91.9459 86.825 91.8423 86.9647 91.7681C87.1054 91.6939 87.2631 91.6567 87.4379 91.6567C87.6137 91.6567 87.7695 91.6939 87.9053 91.7681C88.041 91.8423 88.1475 91.9424 88.2247 92.0684C88.3018 92.1944 88.3404 92.3346 88.3404 92.4889C88.3404 92.5993 88.3204 92.7072 88.2803 92.8127C88.2413 92.9172 88.1729 93.0339 88.0752 93.1628C87.9785 93.2908 87.8442 93.4471 87.6723 93.6317L86.9984 94.3525V94.3759H88.3932V94.6982H86.5003ZM89.051 94.6982V91.6978H90.8501V92.0201H89.4143V93.0339H90.7153V93.3562H89.4143V94.6982H89.051ZM95.1644 93.198C95.1644 93.5145 95.1072 93.7879 94.993 94.0184C94.8787 94.249 94.7219 94.4267 94.5227 94.5517C94.3234 94.6768 94.0958 94.7393 93.8399 94.7393C93.584 94.7393 93.3565 94.6768 93.1572 94.5517C92.958 94.4267 92.8012 94.249 92.6869 94.0184C92.5726 93.7879 92.5155 93.5145 92.5155 93.198C92.5155 92.8815 92.5726 92.6081 92.6869 92.3776C92.8012 92.1471 92.958 91.9693 93.1572 91.8443C93.3565 91.7193 93.584 91.6567 93.8399 91.6567C94.0958 91.6567 94.3234 91.7193 94.5227 91.8443C94.7219 91.9693 94.8787 92.1471 94.993 92.3776C95.1072 92.6081 95.1644 92.8815 95.1644 93.198ZM94.8128 93.198C94.8128 92.9382 94.7693 92.7189 94.6824 92.5402C94.5964 92.3614 94.4797 92.2262 94.3322 92.1344C94.1857 92.0425 94.0216 91.9966 93.8399 91.9966C93.6583 91.9966 93.4937 92.0425 93.3462 92.1344C93.1997 92.2262 93.083 92.3614 92.9961 92.5402C92.9101 92.7189 92.8671 92.9382 92.8671 93.198C92.8671 93.4578 92.9101 93.6771 92.9961 93.8558C93.083 94.0346 93.1997 94.1698 93.3462 94.2616C93.4937 94.3535 93.6583 94.3994 93.8399 94.3994C94.0216 94.3994 94.1857 94.3535 94.3322 94.2616C94.4797 94.1698 94.5964 94.0346 94.6824 93.8558C94.7693 93.6771 94.8128 93.4578 94.8128 93.198ZM95.7284 94.6982V92.4479H96.0625V92.7878H96.0859C96.1269 92.6764 96.2012 92.5861 96.3086 92.5167C96.416 92.4474 96.5372 92.4127 96.6719 92.4127C96.6973 92.4127 96.7291 92.4132 96.7672 92.4142C96.8053 92.4152 96.8341 92.4166 96.8536 92.4186V92.7702C96.8419 92.7673 96.815 92.7629 96.773 92.757C96.732 92.7502 96.6885 92.7468 96.6426 92.7468C96.5332 92.7468 96.4356 92.7697 96.3496 92.8156C96.2646 92.8605 96.1973 92.9231 96.1474 93.0031C96.0986 93.0823 96.0742 93.1726 96.0742 93.2742V94.6982H95.7284ZM98.1092 94.7451C97.8982 94.7451 97.7165 94.6953 97.5642 94.5957C97.4118 94.4961 97.2946 94.3588 97.2125 94.184C97.1305 94.0092 97.0895 93.8094 97.0895 93.5848C97.0895 93.3562 97.1315 93.1545 97.2155 92.9797C97.3005 92.8039 97.4186 92.6667 97.57 92.568C97.7224 92.4684 97.9002 92.4186 98.1033 92.4186C98.2615 92.4186 98.4041 92.4479 98.5311 92.5065C98.6581 92.5651 98.7621 92.6471 98.8432 92.7526C98.9242 92.8581 98.9745 92.9812 98.9941 93.1218H98.6483C98.622 93.0193 98.5633 92.9284 98.4725 92.8493C98.3827 92.7692 98.2615 92.7292 98.1092 92.7292C97.9744 92.7292 97.8562 92.7643 97.7546 92.8347C97.654 92.904 97.5754 93.0022 97.5187 93.1291C97.4631 93.2551 97.4352 93.4031 97.4352 93.5731C97.4352 93.7469 97.4626 93.8983 97.5173 94.0272C97.573 94.1562 97.6511 94.2563 97.7517 94.3276C97.8533 94.3989 97.9724 94.4345 98.1092 94.4345C98.199 94.4345 98.2806 94.4189 98.3538 94.3876C98.4271 94.3564 98.4891 94.3115 98.5399 94.2529C98.5907 94.1943 98.6268 94.1239 98.6483 94.0419H98.9941C98.9745 94.1747 98.9262 94.2944 98.849 94.4008C98.7729 94.5063 98.6718 94.5903 98.5458 94.6528C98.4207 94.7144 98.2752 94.7451 98.1092 94.7451ZM99.8453 93.3445V94.6982H99.4995V91.6978H99.8453V92.7995H99.8746C99.9273 92.6833 100.006 92.591 100.112 92.5226C100.218 92.4533 100.36 92.4186 100.537 92.4186C100.69 92.4186 100.824 92.4493 100.94 92.5109C101.055 92.5714 101.144 92.6647 101.208 92.7907C101.272 92.9157 101.305 93.0749 101.305 93.2683V94.6982H100.959V93.2918C100.959 93.113 100.912 92.9748 100.82 92.8772C100.728 92.7785 100.6 92.7292 100.437 92.7292C100.324 92.7292 100.222 92.7531 100.132 92.801C100.044 92.8488 99.9732 92.9187 99.9215 93.0105C99.8707 93.1023 99.8453 93.2136 99.8453 93.3445ZM101.937 94.6982V92.4479H102.283V94.6982H101.937ZM102.113 92.0728C102.045 92.0728 101.987 92.0499 101.939 92.004C101.891 91.9581 101.867 91.9029 101.867 91.8384C101.867 91.7739 101.891 91.7188 101.939 91.6729C101.987 91.627 102.045 91.604 102.113 91.604C102.18 91.604 102.238 91.627 102.286 91.6729C102.335 91.7188 102.359 91.7739 102.359 91.8384C102.359 91.9029 102.335 91.9581 102.286 92.004C102.238 92.0499 102.18 92.0728 102.113 92.0728ZM103.766 94.7451C103.578 94.7451 103.413 94.6978 103.269 94.603C103.126 94.5073 103.013 94.3725 102.932 94.1987C102.851 94.0238 102.811 93.8172 102.811 93.5789C102.811 93.3426 102.851 93.1374 102.932 92.9636C103.013 92.7897 103.126 92.6554 103.271 92.5607C103.415 92.466 103.582 92.4186 103.772 92.4186C103.918 92.4186 104.034 92.443 104.119 92.4918C104.205 92.5397 104.27 92.5944 104.315 92.6559C104.361 92.7165 104.397 92.7663 104.422 92.8054H104.451V91.6978H104.797V94.6982H104.463V94.3525H104.422C104.397 94.3935 104.361 94.4453 104.314 94.5078C104.267 94.5693 104.2 94.6245 104.113 94.6733C104.026 94.7212 103.91 94.7451 103.766 94.7451ZM103.813 94.4345C103.951 94.4345 104.069 94.3984 104.164 94.3261C104.26 94.2529 104.333 94.1518 104.383 94.0228C104.432 93.8929 104.457 93.743 104.457 93.5731C104.457 93.4051 104.433 93.2581 104.384 93.1321C104.335 93.0051 104.263 92.9065 104.167 92.8361C104.072 92.7648 103.953 92.7292 103.813 92.7292C103.666 92.7292 103.544 92.7668 103.446 92.842C103.35 92.9162 103.277 93.0173 103.228 93.1453C103.18 93.2722 103.156 93.4148 103.156 93.5731C103.156 93.7332 103.181 93.8788 103.23 94.0097C103.279 94.1396 103.353 94.2431 103.449 94.3203C103.547 94.3964 103.668 94.4345 103.813 94.4345Z" fill="white"/>
<path d="M28.3345 100.003V97.0025H29.3835C29.5925 97.0025 29.7649 97.0386 29.9007 97.1109C30.0365 97.1822 30.1376 97.2784 30.204 97.3995C30.2704 97.5196 30.3036 97.6529 30.3036 97.7995C30.3036 97.9284 30.2806 98.0348 30.2347 98.1188C30.1898 98.2028 30.1302 98.2693 30.056 98.3181C29.9827 98.3669 29.9031 98.4031 29.8172 98.4265V98.4558C29.909 98.4617 30.0013 98.4939 30.0941 98.5525C30.1869 98.6111 30.2645 98.6951 30.327 98.8045C30.3895 98.9139 30.4208 99.0477 30.4208 99.2059C30.4208 99.3563 30.3866 99.4916 30.3182 99.6118C30.2499 99.7319 30.1419 99.8271 29.9945 99.8974C29.847 99.9678 29.6551 100.003 29.4187 100.003H28.3345ZM28.6979 99.6806H29.4187C29.656 99.6806 29.8245 99.6347 29.9241 99.5429C30.0247 99.4501 30.075 99.3378 30.075 99.2059C30.075 99.1043 30.0492 99.0106 29.9974 98.9246C29.9456 98.8377 29.8719 98.7684 29.7762 98.7166C29.6804 98.6638 29.5671 98.6375 29.4363 98.6375H28.6979V99.6806ZM28.6979 98.321H29.3718C29.4812 98.321 29.5798 98.2995 29.6678 98.2566C29.7566 98.2136 29.827 98.153 29.8787 98.0749C29.9315 97.9968 29.9578 97.9049 29.9578 97.7995C29.9578 97.6676 29.9119 97.5558 29.8201 97.464C29.7283 97.3712 29.5828 97.3248 29.3835 97.3248H28.6979V98.321ZM32.3891 99.0829V97.7526H32.7349V100.003H32.3891V99.622H32.3657C32.3129 99.7363 32.2309 99.8335 32.1196 99.9136C32.0082 99.9927 31.8676 100.032 31.6976 100.032C31.557 100.032 31.4319 100.001 31.3226 99.9399C31.2132 99.8774 31.1272 99.7837 31.0647 99.6586C31.0022 99.5326 30.9709 99.3739 30.9709 99.1825V97.7526H31.3167V99.159C31.3167 99.3231 31.3626 99.454 31.4544 99.5517C31.5472 99.6494 31.6654 99.6982 31.809 99.6982C31.8949 99.6982 31.9823 99.6762 32.0712 99.6323C32.1611 99.5883 32.2363 99.5209 32.2968 99.4301C32.3584 99.3392 32.3891 99.2235 32.3891 99.0829ZM33.3682 100.003V97.7526H33.7139V100.003H33.3682ZM33.544 97.3775C33.4766 97.3775 33.4185 97.3546 33.3696 97.3087C33.3218 97.2627 33.2978 97.2076 33.2978 97.1431C33.2978 97.0786 33.3218 97.0235 33.3696 96.9775C33.4185 96.9316 33.4766 96.9087 33.544 96.9087C33.6114 96.9087 33.669 96.9316 33.7169 96.9775C33.7657 97.0235 33.7901 97.0786 33.7901 97.1431C33.7901 97.2076 33.7657 97.2627 33.7169 97.3087C33.669 97.3546 33.6114 97.3775 33.544 97.3775ZM34.693 97.0025V100.003H34.3472V97.0025H34.693ZM36.176 100.05C35.9885 100.05 35.8229 100.002 35.6793 99.9077C35.5357 99.812 35.4234 99.6772 35.3424 99.5033C35.2613 99.3285 35.2208 99.1219 35.2208 98.8836C35.2208 98.6472 35.2613 98.4421 35.3424 98.2683C35.4234 98.0944 35.5362 97.9601 35.6808 97.8654C35.8253 97.7706 35.9924 97.7233 36.1818 97.7233C36.3284 97.7233 36.4441 97.7477 36.5291 97.7965C36.615 97.8444 36.6805 97.8991 36.7254 97.9606C36.7713 98.0212 36.8069 98.071 36.8323 98.1101H36.8616V97.0025H37.2074V100.003H36.8734V99.6572H36.8323C36.8069 99.6982 36.7708 99.75 36.7239 99.8125C36.677 99.874 36.6101 99.9292 36.5232 99.978C36.4363 100.026 36.3205 100.05 36.176 100.05ZM36.2229 99.7392C36.3616 99.7392 36.4788 99.7031 36.5745 99.6308C36.6702 99.5575 36.743 99.4565 36.7928 99.3275C36.8426 99.1976 36.8675 99.0477 36.8675 98.8778C36.8675 98.7098 36.8431 98.5628 36.7943 98.4368C36.7454 98.3098 36.6731 98.2111 36.5774 98.1408C36.4817 98.0695 36.3635 98.0339 36.2229 98.0339C36.0764 98.0339 35.9543 98.0715 35.8566 98.1467C35.7599 98.2209 35.6871 98.322 35.6383 98.4499C35.5904 98.5769 35.5665 98.7195 35.5665 98.8778C35.5665 99.0379 35.5909 99.1835 35.6398 99.3143C35.6896 99.4442 35.7628 99.5478 35.8595 99.6249C35.9572 99.7011 36.0783 99.7392 36.2229 99.7392ZM37.8887 100.003V97.7526H38.2344V100.003H37.8887ZM38.0645 97.3775C37.9971 97.3775 37.939 97.3546 37.8901 97.3087C37.8423 97.2627 37.8183 97.2076 37.8183 97.1431C37.8183 97.0786 37.8423 97.0235 37.8901 96.9775C37.939 96.9316 37.9971 96.9087 38.0645 96.9087C38.1319 96.9087 38.1895 96.9316 38.2374 96.9775C38.2862 97.0235 38.3106 97.0786 38.3106 97.1431C38.3106 97.2076 38.2862 97.2627 38.2374 97.3087C38.1895 97.3546 38.1319 97.3775 38.0645 97.3775ZM39.2135 98.6492V100.003H38.8677V97.7526H39.2017V98.1042H39.231C39.2838 97.9899 39.3639 97.8981 39.4713 97.8288C39.5788 97.7584 39.7174 97.7233 39.8874 97.7233C40.0398 97.7233 40.1731 97.7545 40.2874 97.817C40.4016 97.8786 40.4905 97.9723 40.554 98.0983C40.6175 98.2233 40.6492 98.3816 40.6492 98.573V100.003H40.3035V98.5965C40.3035 98.4197 40.2576 98.282 40.1658 98.1833C40.0739 98.0837 39.9479 98.0339 39.7878 98.0339C39.6774 98.0339 39.5787 98.0578 39.4918 98.1057C39.4059 98.1535 39.338 98.2233 39.2882 98.3152C39.2384 98.407 39.2135 98.5183 39.2135 98.6492ZM42.1894 100.894C42.0224 100.894 41.8788 100.872 41.7587 100.829C41.6385 100.787 41.5384 100.732 41.4583 100.662C41.3792 100.594 41.3162 100.521 41.2693 100.442L41.5448 100.249C41.576 100.29 41.6156 100.337 41.6634 100.39C41.7113 100.443 41.7767 100.49 41.8598 100.529C41.9438 100.569 42.0536 100.589 42.1894 100.589C42.3711 100.589 42.521 100.545 42.6392 100.457C42.7574 100.369 42.8164 100.231 42.8164 100.044V99.5868H42.7871C42.7618 99.6279 42.7256 99.6787 42.6787 99.7392C42.6328 99.7988 42.5664 99.852 42.4795 99.8989C42.3935 99.9448 42.2773 99.9678 42.1308 99.9678C41.9491 99.9678 41.786 99.9248 41.6415 99.8388C41.4979 99.7529 41.3841 99.6279 41.3001 99.4638C41.2171 99.2997 41.1756 99.1004 41.1756 98.866C41.1756 98.6355 41.2161 98.4348 41.2972 98.2639C41.3782 98.092 41.491 97.9591 41.6356 97.8654C41.7802 97.7706 41.9472 97.7233 42.1367 97.7233C42.2832 97.7233 42.3994 97.7477 42.4853 97.7965C42.5723 97.8444 42.6387 97.8991 42.6846 97.9606C42.7315 98.0212 42.7676 98.071 42.793 98.1101H42.8282V97.7526H43.1622V100.067C43.1622 100.261 43.1183 100.418 43.0303 100.539C42.9434 100.661 42.8262 100.751 42.6787 100.807C42.5322 100.865 42.3691 100.894 42.1894 100.894ZM42.1777 99.6572C42.3164 99.6572 42.4336 99.6254 42.5293 99.5619C42.625 99.4985 42.6978 99.4071 42.7476 99.288C42.7974 99.1688 42.8223 99.0262 42.8223 98.8602C42.8223 98.698 42.7979 98.5549 42.7491 98.4309C42.7002 98.3069 42.6279 98.2097 42.5322 98.1394C42.4365 98.069 42.3183 98.0339 42.1777 98.0339C42.0312 98.0339 41.9091 98.071 41.8114 98.1452C41.7147 98.2194 41.6419 98.3191 41.5931 98.4441C41.5452 98.5691 41.5213 98.7078 41.5213 98.8602C41.5213 99.0164 41.5457 99.1547 41.5946 99.2748C41.6444 99.3939 41.7176 99.4877 41.8143 99.5561C41.912 99.6235 42.0331 99.6572 42.1777 99.6572ZM44.0471 100.026C43.9748 100.026 43.9128 100 43.861 99.9487C43.8093 99.897 43.7834 99.8349 43.7834 99.7627C43.7834 99.6904 43.8093 99.6284 43.861 99.5766C43.9128 99.5248 43.9748 99.4989 44.0471 99.4989C44.1194 99.4989 44.1814 99.5248 44.2332 99.5766C44.2849 99.6284 44.3108 99.6904 44.3108 99.7627C44.3108 99.8105 44.2986 99.8545 44.2742 99.8945C44.2508 99.9346 44.219 99.9668 44.179 99.9912C44.1399 100.015 44.0959 100.026 44.0471 100.026Z" fill="white"/>
<path d="M17.4451 93.4404C16.9342 93.4399 16.4384 93.6127 16.0386 93.9307C15.6387 94.2487 15.3587 94.693 15.2443 95.1909C15.1299 95.6887 15.1879 96.2107 15.4088 96.6713C15.6297 97.1319 16.0004 97.5039 16.4603 97.7264L17.4451 99.4285L18.4282 97.7264C18.8879 97.504 19.2585 97.1321 19.4795 96.6717C19.7004 96.2113 19.7585 95.6895 19.6443 95.1917C19.5302 94.6939 19.2504 94.2497 18.8509 93.9315C18.4514 93.6134 17.9558 93.4403 17.4451 93.4404ZM17.4451 96.4362C17.2989 96.4364 17.1559 96.3931 17.0343 96.3119C16.9126 96.2308 16.8178 96.1153 16.7618 95.9803C16.7058 95.8452 16.6911 95.6965 16.7196 95.5531C16.7481 95.4097 16.8185 95.278 16.9219 95.1746C17.0253 95.0712 17.1571 95.0008 17.3005 94.9723C17.4439 94.9438 17.5925 94.9584 17.7276 95.0145C17.8627 95.0705 17.9781 95.1653 18.0593 95.2869C18.1405 95.4085 18.1837 95.5515 18.1836 95.6978C18.1833 95.8935 18.1054 96.0812 17.9669 96.2196C17.8285 96.358 17.6409 96.4359 17.4451 96.4362Z" stroke="#DDF3E4" stroke-width="0.442035" stroke-miterlimit="10" stroke-linecap="round" stroke-linejoin="round"/>
<path d="M19.4267 81.499H15.4619V87.4871H19.4267V81.499Z" stroke="#DDF3E4" stroke-width="0.442035" stroke-miterlimit="10" stroke-linecap="round" stroke-linejoin="round"/>
<path d="M16.9399 86.3096H17.949" stroke="#DDF3E4" stroke-width="0.442035" stroke-miterlimit="10" stroke-linecap="round" stroke-linejoin="round"/>
<path d="M19.8849 71.0801H14.9995V74.5038H19.8849V71.0801Z" stroke="#DDF3E4" stroke-width="0.442035" stroke-miterlimit="10" stroke-linecap="round" stroke-linejoin="round"/>
<path d="M14.9995 71.0801L17.4431 72.7893L19.8855 71.0801" stroke="#DDF3E4" stroke-width="0.442035" stroke-miterlimit="10" stroke-linecap="round" stroke-linejoin="round"/>
<path d="M103.166 129.531C104.679 129.531 106.131 128.93 107.201 127.86C108.271 126.789 108.872 125.338 108.872 123.825C108.872 122.312 108.271 120.86 107.201 119.79C106.131 118.72 104.679 118.119 103.166 118.119H22.6438C21.1305 118.119 19.6792 118.72 18.6092 119.79C17.5391 120.86 16.938 122.312 16.938 123.825C16.938 125.338 17.5391 126.789 18.6092 127.86C19.6792 128.93 21.1305 129.531 22.6438 129.531H103.166Z" fill="url(#paint1_linear_745_2468)"/>
<path d="M55.1549 124.934V121.076H57.6263V121.662H55.8538V122.709H57.4568V123.295H55.8538V124.934H55.1549ZM59.2825 124.99C59 124.99 58.7551 124.928 58.5479 124.804C58.3407 124.679 58.1799 124.505 58.0657 124.282C57.9526 124.058 57.8961 123.797 57.8961 123.498C57.8961 123.199 57.9526 122.938 58.0657 122.713C58.1799 122.488 58.3407 122.313 58.5479 122.189C58.7551 122.065 59 122.003 59.2825 122.003C59.5651 122.003 59.8099 122.065 60.0171 122.189C60.2243 122.313 60.3845 122.488 60.4975 122.713C60.6118 122.938 60.6689 123.199 60.6689 123.498C60.6689 123.797 60.6118 124.058 60.4975 124.282C60.3845 124.505 60.2243 124.679 60.0171 124.804C59.8099 124.928 59.5651 124.99 59.2825 124.99ZM59.2863 124.444C59.4395 124.444 59.5676 124.402 59.6705 124.318C59.7735 124.232 59.8501 124.118 59.9004 123.975C59.9518 123.832 59.9776 123.672 59.9776 123.496C59.9776 123.319 59.9518 123.159 59.9004 123.016C59.8501 122.872 59.7735 122.757 59.6705 122.671C59.5676 122.586 59.4395 122.543 59.2863 122.543C59.1293 122.543 58.9987 122.586 58.8945 122.671C58.7915 122.757 58.7143 122.872 58.6628 123.016C58.6125 123.159 58.5874 123.319 58.5874 123.496C58.5874 123.672 58.6125 123.832 58.6628 123.975C58.7143 124.118 58.7915 124.232 58.8945 124.318C58.9987 124.402 59.1293 124.444 59.2863 124.444ZM61.9295 121.076V124.934H61.2476V121.076H61.9295ZM63.3126 121.076V124.934H62.6307V121.076H63.3126ZM65.2759 124.99C64.9933 124.99 64.7484 124.928 64.5412 124.804C64.334 124.679 64.1733 124.505 64.059 124.282C63.946 124.058 63.8895 123.797 63.8895 123.498C63.8895 123.199 63.946 122.938 64.059 122.713C64.1733 122.488 64.334 122.313 64.5412 122.189C64.7484 122.065 64.9933 122.003 65.2759 122.003C65.5584 122.003 65.8033 122.065 66.0105 122.189C66.2177 122.313 66.3778 122.488 66.4908 122.713C66.6051 122.938 66.6623 123.199 66.6623 123.498C66.6623 123.797 66.6051 124.058 66.4908 124.282C66.3778 124.505 66.2177 124.679 66.0105 124.804C65.8033 124.928 65.5584 124.99 65.2759 124.99ZM65.2796 124.444C65.4328 124.444 65.5609 124.402 65.6639 124.318C65.7669 124.232 65.8435 124.118 65.8937 123.975C65.9452 123.832 65.9709 123.672 65.9709 123.496C65.9709 123.319 65.9452 123.159 65.8937 123.016C65.8435 122.872 65.7669 122.757 65.6639 122.671C65.5609 122.586 65.4328 122.543 65.2796 122.543C65.1227 122.543 64.9921 122.586 64.8878 122.671C64.7849 122.757 64.7076 122.872 64.6561 123.016C64.6059 123.159 64.5808 123.319 64.5808 123.496C64.5808 123.672 64.6059 123.832 64.6561 123.975C64.7076 124.118 64.7849 124.232 64.8878 124.318C64.9921 124.402 65.1227 124.444 65.2796 124.444ZM67.7553 124.934L66.9377 122.04H67.6328L68.1414 124.075H68.1678L68.6877 122.04H69.3752L69.8951 124.063H69.9234L70.4244 122.04H71.1214L70.302 124.934H69.5918L69.0493 122.978H69.0098L68.4673 124.934H67.7553Z" fill="white"/>
<path d="M103.166 143.75C104.679 143.75 106.13 143.149 107.2 142.079C108.27 141.009 108.871 139.558 108.871 138.044C108.871 136.531 108.27 135.08 107.2 134.01C106.13 132.94 104.679 132.339 103.166 132.339H22.6435C21.1303 132.339 19.6791 132.94 18.6091 134.01C17.5391 135.08 16.938 136.531 16.938 138.044C16.938 139.558 17.5391 141.009 18.6091 142.079C19.6791 143.149 21.1303 143.75 22.6435 143.75H103.166Z" fill="white"/>
<path d="M51.8029 135.295H52.6581L53.8033 138.09H53.8485L54.9938 135.295H55.849V139.152H55.1784V136.502H55.1426L54.0765 139.141H53.5754L52.5092 136.496H52.4735V139.152H51.8029V135.295ZM57.8607 139.209C57.5707 139.209 57.3201 139.149 57.1092 139.028C56.8994 138.906 56.7381 138.734 56.6251 138.512C56.512 138.288 56.4555 138.025 56.4555 137.723C56.4555 137.425 56.512 137.164 56.6251 136.939C56.7393 136.713 56.8988 136.537 57.1035 136.412C57.3082 136.285 57.5487 136.221 57.825 136.221C58.0033 136.221 58.1716 136.25 58.3298 136.308C58.4893 136.365 58.6299 136.452 58.7517 136.572C58.8748 136.691 58.9715 136.843 59.0418 137.028C59.1121 137.211 59.1473 137.429 59.1473 137.683V137.892H56.7758V137.433H58.4937C58.4924 137.302 58.4641 137.186 58.4089 137.084C58.3536 136.981 58.2764 136.9 58.1772 136.841C58.0793 136.782 57.965 136.753 57.8344 136.753C57.695 136.753 57.5725 136.786 57.4671 136.854C57.3616 136.921 57.2793 137.009 57.2203 137.118C57.1625 137.226 57.133 137.345 57.1318 137.474V137.875C57.1318 138.043 57.1625 138.188 57.2241 138.308C57.2856 138.428 57.3716 138.519 57.4821 138.583C57.5926 138.646 57.722 138.678 57.8702 138.678C57.9694 138.678 58.0592 138.664 58.1395 138.636C58.2199 138.607 58.2896 138.565 58.3486 138.51C58.4076 138.455 58.4522 138.386 58.4824 138.305L59.119 138.376C59.0789 138.545 59.0023 138.691 58.8892 138.817C58.7775 138.941 58.6343 139.038 58.4598 139.107C58.2852 139.175 58.0855 139.209 57.8607 139.209ZM62.0109 137.024L61.3893 137.092C61.3718 137.029 61.341 136.97 61.297 136.915C61.2543 136.859 61.1966 136.815 61.1237 136.781C61.0509 136.747 60.9617 136.73 60.8563 136.73C60.7144 136.73 60.5951 136.761 60.4984 136.822C60.4029 136.884 60.3558 136.964 60.3571 137.061C60.3558 137.146 60.3866 137.214 60.4494 137.267C60.5134 137.32 60.6189 137.363 60.7658 137.397L61.2594 137.502C61.5331 137.561 61.7366 137.655 61.8697 137.783C62.004 137.911 62.0718 138.079 62.0731 138.286C62.0718 138.468 62.0185 138.629 61.913 138.768C61.8088 138.906 61.6637 139.014 61.4779 139.092C61.292 139.17 61.0785 139.209 60.8374 139.209C60.4833 139.209 60.1982 139.135 59.9822 138.987C59.7662 138.837 59.6375 138.629 59.5961 138.363L60.261 138.299C60.2912 138.43 60.3552 138.528 60.4531 138.595C60.5511 138.661 60.6786 138.695 60.8355 138.695C60.9975 138.695 61.1275 138.661 61.2255 138.595C61.3247 138.528 61.3743 138.446 61.3743 138.348C61.3743 138.265 61.3422 138.197 61.2782 138.143C61.2154 138.089 61.1175 138.047 60.9843 138.018L60.4908 137.915C60.2133 137.857 60.008 137.76 59.8749 137.623C59.7417 137.485 59.6758 137.31 59.6771 137.099C59.6758 136.921 59.7242 136.766 59.8221 136.636C59.9213 136.504 60.0588 136.402 60.2346 136.331C60.4117 136.258 60.6158 136.221 60.8468 136.221C61.1859 136.221 61.4527 136.294 61.6474 136.438C61.8433 136.582 61.9645 136.778 62.0109 137.024ZM64.9222 137.024L64.3005 137.092C64.283 137.029 64.2522 136.97 64.2082 136.915C64.1655 136.859 64.1078 136.815 64.0349 136.781C63.9621 136.747 63.873 136.73 63.7675 136.73C63.6256 136.73 63.5063 136.761 63.4096 136.822C63.3141 136.884 63.267 136.964 63.2683 137.061C63.267 137.146 63.2978 137.214 63.3606 137.267C63.4246 137.32 63.5301 137.363 63.677 137.397L64.1706 137.502C64.4443 137.561 64.6478 137.655 64.7809 137.783C64.9152 137.911 64.9831 138.079 64.9843 138.286C64.9831 138.468 64.9297 138.629 64.8242 138.768C64.72 138.906 64.5749 139.014 64.3891 139.092C64.2032 139.17 63.9897 139.209 63.7486 139.209C63.3945 139.209 63.1094 139.135 62.8934 138.987C62.6774 138.837 62.5487 138.629 62.5073 138.363L63.1722 138.299C63.2024 138.43 63.2664 138.528 63.3644 138.595C63.4623 138.661 63.5898 138.695 63.7467 138.695C63.9087 138.695 64.0387 138.661 64.1367 138.595C64.2359 138.528 64.2855 138.446 64.2855 138.348C64.2855 138.265 64.2535 138.197 64.1894 138.143C64.1266 138.089 64.0287 138.047 63.8956 138.018L63.402 137.915C63.1245 137.857 62.9192 137.76 62.7861 137.623C62.653 137.485 62.587 137.31 62.5883 137.099C62.587 136.921 62.6354 136.766 62.7333 136.636C62.8325 136.504 62.97 136.402 63.1459 136.331C63.3229 136.258 63.527 136.221 63.758 136.221C64.0971 136.221 64.364 136.294 64.5586 136.438C64.7545 136.582 64.8757 136.778 64.9222 137.024ZM66.3792 139.211C66.1958 139.211 66.0307 139.178 65.8838 139.113C65.7381 139.046 65.6226 138.948 65.5372 138.819C65.453 138.69 65.411 138.53 65.411 138.34C65.411 138.177 65.4411 138.042 65.5014 137.935C65.5617 137.829 65.6439 137.743 65.7481 137.679C65.8524 137.615 65.9698 137.567 66.1004 137.534C66.2322 137.5 66.3685 137.476 66.5091 137.461C66.6787 137.443 66.8162 137.428 66.9217 137.414C67.0272 137.399 67.1038 137.376 67.1515 137.346C67.2005 137.315 67.2249 137.266 67.2249 137.201V137.19C67.2249 137.048 67.1829 136.938 67.0987 136.86C67.0146 136.782 66.8934 136.743 66.7352 136.743C66.5682 136.743 66.4357 136.78 66.3377 136.852C66.241 136.925 66.1757 137.011 66.1418 137.11L65.5052 137.02C65.5554 136.844 65.6383 136.697 65.7538 136.579C65.8693 136.46 66.0106 136.371 66.1776 136.312C66.3446 136.251 66.5292 136.221 66.7314 136.221C66.8708 136.221 67.0096 136.238 67.1477 136.27C67.2858 136.303 67.4121 136.357 67.5263 136.432C67.6406 136.506 67.7323 136.608 67.8013 136.736C67.8717 136.864 67.9068 137.024 67.9068 137.216V139.152H67.2513V138.755H67.2287C67.1873 138.835 67.1289 138.911 67.0535 138.981C66.9794 139.05 66.8859 139.106 66.7729 139.149C66.6611 139.19 66.5299 139.211 66.3792 139.211ZM66.5562 138.71C66.6931 138.71 66.8118 138.683 66.9123 138.629C67.0127 138.573 67.0899 138.501 67.1439 138.41C67.1992 138.32 67.2268 138.221 67.2268 138.114V137.773C67.2055 137.791 67.1691 137.807 67.1176 137.822C67.0673 137.838 67.0108 137.851 66.948 137.862C66.8853 137.873 66.8231 137.883 66.7616 137.892C66.7 137.901 66.6467 137.908 66.6014 137.915C66.4997 137.929 66.4087 137.951 66.3283 137.983C66.2479 138.014 66.1845 138.058 66.1381 138.114C66.0916 138.17 66.0684 138.241 66.0684 138.329C66.0684 138.455 66.1142 138.55 66.2059 138.614C66.2975 138.678 66.4143 138.71 66.5562 138.71ZM69.8508 140.298C69.6059 140.298 69.3956 140.264 69.2197 140.198C69.0439 140.132 68.9027 140.045 68.7959 139.934C68.6892 139.824 68.6151 139.701 68.5737 139.567L69.1877 139.418C69.2154 139.474 69.2555 139.53 69.3083 139.586C69.361 139.642 69.432 139.689 69.5211 139.725C69.6116 139.763 69.7252 139.781 69.8621 139.781C70.0555 139.781 70.2156 139.734 70.3424 139.64C70.4693 139.547 70.5327 139.394 70.5327 139.181V138.632H70.4988C70.4636 138.703 70.4121 138.775 70.3443 138.849C70.2777 138.923 70.1892 138.985 70.0787 139.036C69.9694 139.086 69.8319 139.111 69.6662 139.111C69.4439 139.111 69.2424 139.059 69.0615 138.955C68.8819 138.849 68.7388 138.692 68.632 138.484C68.5266 138.274 68.4738 138.011 68.4738 137.696C68.4738 137.379 68.5266 137.11 68.632 136.892C68.7388 136.672 68.8826 136.506 69.0634 136.393C69.2442 136.278 69.4458 136.221 69.6681 136.221C69.8376 136.221 69.977 136.25 70.0862 136.308C70.1967 136.365 70.2847 136.433 70.35 136.513C70.4153 136.592 70.4649 136.667 70.4988 136.737H70.5364V136.259H71.2089V139.199C71.2089 139.447 71.1499 139.652 71.0318 139.814C70.9138 139.976 70.7524 140.097 70.5477 140.177C70.343 140.257 70.1107 140.298 69.8508 140.298ZM69.8564 138.576C70.0008 138.576 70.1239 138.541 70.2256 138.47C70.3273 138.4 70.4046 138.299 70.4573 138.167C70.5101 138.035 70.5364 137.877 70.5364 137.692C70.5364 137.51 70.5101 137.351 70.4573 137.214C70.4058 137.077 70.3292 136.971 70.2275 136.896C70.1271 136.819 70.0034 136.781 69.8564 136.781C69.7045 136.781 69.5776 136.82 69.4759 136.899C69.3742 136.979 69.2976 137.087 69.2461 137.225C69.1946 137.362 69.1689 137.518 69.1689 137.692C69.1689 137.87 69.1946 138.025 69.2461 138.158C69.2989 138.29 69.3761 138.393 69.4778 138.467C69.5808 138.54 69.707 138.576 69.8564 138.576ZM73.1886 139.209C72.8986 139.209 72.648 139.149 72.4371 139.028C72.2273 138.906 72.066 138.734 71.953 138.512C71.8399 138.288 71.7834 138.025 71.7834 137.723C71.7834 137.425 71.8399 137.164 71.953 136.939C72.0672 136.713 72.2267 136.537 72.4314 136.412C72.6361 136.285 72.8766 136.221 73.1529 136.221C73.3312 136.221 73.4994 136.25 73.6577 136.308C73.8172 136.365 73.9578 136.452 74.0796 136.572C74.2027 136.691 74.2994 136.843 74.3697 137.028C74.44 137.211 74.4752 137.429 74.4752 137.683V137.892H72.1036V137.433H73.8216C73.8203 137.302 73.792 137.186 73.7368 137.084C73.6815 136.981 73.6043 136.9 73.5051 136.841C73.4071 136.782 73.2929 136.753 73.1623 136.753C73.0229 136.753 72.9004 136.786 72.795 136.854C72.6895 136.921 72.6072 137.009 72.5482 137.118C72.4904 137.226 72.4609 137.345 72.4597 137.474V137.875C72.4597 138.043 72.4904 138.188 72.552 138.308C72.6135 138.428 72.6995 138.519 72.81 138.583C72.9205 138.646 73.0499 138.678 73.1981 138.678C73.2973 138.678 73.3871 138.664 73.4674 138.636C73.5478 138.607 73.6175 138.565 73.6765 138.51C73.7355 138.455 73.7801 138.386 73.8103 138.305L74.4469 138.376C74.4067 138.545 74.3301 138.691 74.2171 138.817C74.1054 138.941 73.9622 139.038 73.7876 139.107C73.6131 139.175 73.4134 139.209 73.1886 139.209Z" fill="black"/>
<path d="M115.957 9.07358C115.957 9.25692 115.903 9.43614 115.801 9.58858C115.699 9.74103 115.554 9.85986 115.385 9.93005C115.216 10.0002 115.029 10.0186 114.849 9.9829C114.67 9.94718 114.504 9.85894 114.375 9.72934C114.245 9.59974 114.157 9.43461 114.121 9.25481C114.085 9.07501 114.103 8.88862 114.173 8.7192C114.244 8.54979 114.362 8.40496 114.515 8.30302C114.667 8.20107 114.846 8.1466 115.03 8.14648C115.275 8.14648 115.511 8.24414 115.685 8.41799C115.859 8.59184 115.957 8.82764 115.957 9.07358Z" fill="#DDF3E4"/>
<path d="M115.957 12.4603C115.957 12.6436 115.903 12.8229 115.801 12.9753C115.699 13.1277 115.554 13.2466 115.385 13.3168C115.216 13.3869 115.029 13.4053 114.849 13.3696C114.67 13.3339 114.504 13.2457 114.375 13.1161C114.245 12.9865 114.157 12.8213 114.121 12.6415C114.085 12.4617 114.103 12.2753 114.173 12.1059C114.244 11.9365 114.362 11.7917 114.515 11.6897C114.667 11.5878 114.846 11.5333 115.03 11.5332C115.275 11.5332 115.511 11.6309 115.685 11.8047C115.859 11.9786 115.957 12.2144 115.957 12.4603Z" fill="#DDF3E4"/>
<path d="M115.957 15.8451C115.957 16.0284 115.903 16.2076 115.801 16.3601C115.699 16.5125 115.554 16.6313 115.385 16.7015C115.216 16.7717 115.029 16.7901 114.849 16.7544C114.67 16.7187 114.504 16.6304 114.375 16.5008C114.245 16.3712 114.157 16.2061 114.121 16.0263C114.085 15.8465 114.103 15.6601 114.173 15.4907C114.244 15.3213 114.362 15.1764 114.515 15.0745C114.667 14.9726 114.846 14.9181 115.03 14.918C115.275 14.918 115.511 15.0156 115.685 15.1895C115.859 15.3633 115.957 15.5991 115.957 15.8451Z" fill="#DDF3E4"/>
<defs>
<linearGradient id="paint0_linear_745_2468" x1="21.1367" y1="70.1179" x2="25.6947" y2="26.0664" gradientUnits="userSpaceOnUse">
<stop stop-color="#F23457"/>
<stop offset="1" stop-color="#F6955C"/>
</linearGradient>
<linearGradient id="paint1_linear_745_2468" x1="16.938" y1="123.825" x2="108.872" y2="123.825" gradientUnits="userSpaceOnUse">
<stop/>
<stop offset="0.491"/>
<stop offset="1"/>
</linearGradient>
</defs>
</svg>
