<svg width="211" height="82" viewBox="0 0 211 82" fill="none" xmlns="http://www.w3.org/2000/svg">
<path d="M21.3159 78.189C20.5315 78.189 19.8223 78.0547 19.1883 77.786C18.5651 77.5174 18.0708 77.1306 17.7055 76.6255C17.3401 76.1205 17.1521 75.5241 17.1413 74.8364H19.559C19.5913 75.2985 19.7525 75.6638 20.0426 75.9325C20.3435 76.2011 20.7518 76.3354 21.2676 76.3354C21.7941 76.3354 22.2078 76.2119 22.5087 75.9647C22.8095 75.7068 22.96 75.3737 22.96 74.9654C22.96 74.6323 22.8579 74.3583 22.6537 74.1434C22.4496 73.9285 22.1917 73.7619 21.8801 73.6437C21.5792 73.5148 21.1601 73.3751 20.6228 73.2246C19.8922 73.0097 19.2958 72.8002 18.8337 72.596C18.3824 72.3811 17.9902 72.0641 17.6571 71.6451C17.3348 71.2153 17.1736 70.6457 17.1736 69.9366C17.1736 69.2703 17.3401 68.6901 17.6732 68.1958C18.0063 67.7015 18.4738 67.3254 19.0755 67.0675C19.6772 66.7989 20.365 66.6646 21.1386 66.6646C22.2991 66.6646 23.2393 66.9493 23.9593 67.5188C24.69 68.0776 25.0929 68.862 25.1681 69.8721H22.686C22.6645 69.4852 22.4979 69.1683 22.1863 68.9211C21.8854 68.6632 21.4825 68.5343 20.9774 68.5343C20.5369 68.5343 20.1823 68.6471 19.9136 68.8728C19.6558 69.0984 19.5268 69.4261 19.5268 69.856C19.5268 70.1568 19.6235 70.4093 19.8169 70.6135C20.0211 70.8069 20.2682 70.9681 20.5584 71.0971C20.8592 71.2153 21.2783 71.3549 21.8156 71.5161C22.5463 71.731 23.1426 71.9459 23.6047 72.1608C24.0667 72.3758 24.4643 72.6981 24.7974 73.1279C25.1305 73.5577 25.2971 74.1219 25.2971 74.8203C25.2971 75.4221 25.1413 75.9808 24.8297 76.4966C24.518 77.0124 24.0614 77.4261 23.4596 77.7377C22.8579 78.0386 22.1433 78.189 21.3159 78.189ZM41.8241 78.189C40.7711 78.189 39.804 77.9419 38.9229 77.4476C38.0418 76.9533 37.3433 76.2709 36.8275 75.4006C36.3118 74.5195 36.0539 73.5255 36.0539 72.4187C36.0539 71.3227 36.3118 70.3395 36.8275 69.4691C37.3433 68.588 38.0418 67.9003 38.9229 67.406C39.804 66.9117 40.7711 66.6646 41.8241 66.6646C42.8879 66.6646 43.855 66.9117 44.7254 67.406C45.6065 67.9003 46.2996 68.588 46.8046 69.4691C47.3204 70.3395 47.5783 71.3227 47.5783 72.4187C47.5783 73.5255 47.3204 74.5195 46.8046 75.4006C46.2996 76.2709 45.6065 76.9533 44.7254 77.4476C43.8443 77.9419 42.8772 78.189 41.8241 78.189ZM41.8241 76.1742C42.5011 76.1742 43.0975 76.0238 43.6132 75.7229C44.129 75.4113 44.532 74.9708 44.8221 74.4013C45.1122 73.8318 45.2573 73.1709 45.2573 72.4187C45.2573 71.6666 45.1122 71.0111 44.8221 70.4523C44.532 69.8828 44.129 69.4476 43.6132 69.1468C43.0975 68.8459 42.5011 68.6955 41.8241 68.6955C41.1472 68.6955 40.5454 68.8459 40.0189 69.1468C39.5031 69.4476 39.1002 69.8828 38.8101 70.4523C38.5199 71.0111 38.3749 71.6666 38.3749 72.4187C38.3749 73.1709 38.5199 73.8318 38.8101 74.4013C39.1002 74.9708 39.5031 75.4113 40.0189 75.7229C40.5454 76.0238 41.1472 76.1742 41.8241 76.1742ZM65.5524 66.8258V68.6471H60.8621V71.5322H64.4564V73.3213H60.8621V78.0762H58.6055V66.8258H65.5524ZM84.1571 66.8258V68.6471H81.1591V78.0762H78.9026V68.6471H75.9046V66.8258H84.1571ZM110.19 66.8258L107.047 78.0762H104.388L102.276 70.0655L100.068 78.0762L97.4246 78.0923L94.3944 66.8258H96.8121L98.7947 75.5618L101.083 66.8258H103.598L105.758 75.5134L107.756 66.8258H110.19ZM127.911 75.9325H123.43L122.688 78.0762H120.319L124.365 66.8097H126.992L131.037 78.0762H128.652L127.911 75.9325ZM127.298 74.1272L125.67 69.4208L124.042 74.1272H127.298ZM147.701 78.0762L145.218 73.6921H144.155V78.0762H141.898V66.8258H146.121C146.991 66.8258 147.733 66.9816 148.345 67.2932C148.958 67.5941 149.414 68.0078 149.715 68.5343C150.027 69.0501 150.183 69.6303 150.183 70.275C150.183 71.0165 149.968 71.688 149.538 72.2898C149.108 72.8808 148.469 73.2891 147.62 73.5148L150.312 78.0762H147.701ZM144.155 71.9997H146.04C146.653 71.9997 147.11 71.8546 147.41 71.5645C147.711 71.2636 147.862 70.8499 147.862 70.3234C147.862 69.8076 147.711 69.41 147.41 69.1307C147.11 68.8405 146.653 68.6955 146.04 68.6955H144.155V71.9997ZM163.829 68.6471V71.4678H167.616V73.2569H163.829V76.2387H168.1V78.0762H161.572V66.8097H168.1V68.6471H163.829Z" fill="#06AB5C"/>
<path fill-rule="evenodd" clip-rule="evenodd" d="M53.0776 24.2714L26.7871 39.924C26.7871 39.924 25.6182 30.1114 32.0059 25.1784C37.2943 21.0934 49.7379 14.2536 49.7379 14.2536" fill="#2B2B2B"/>
<path fill-rule="evenodd" clip-rule="evenodd" d="M6.17383 40.5364C6.81295 42.7556 7.71431 44.9338 8.89007 47.0245C9.40241 47.9368 9.95468 48.8117 10.5434 49.6454L0.0796531 55.8747C0.0796531 55.8747 -1.06485 46.1014 5.32283 41.1737C5.58855 40.9684 5.87338 40.7542 6.17383 40.5364Z" fill="#06AB5C"/>
<path fill-rule="evenodd" clip-rule="evenodd" d="M67.3692 23.0502C69.3386 35.1463 62.8502 49.9882 51.914 56.4799C37.8413 64.832 19.8193 59.8686 11.6949 45.4016C3.57048 30.9345 8.39858 12.4093 22.4713 4.0554C36.544 -4.29667 54.566 0.666725 62.6904 15.1338C62.8189 15.3623 63.9443 17.3584 63.993 17.8208L52.5549 24.5624C52.3534 24.1179 51.6257 22.2754 51.3843 21.8451C46.8619 13.7929 36.4519 10.1275 28.621 14.7749C20.7884 19.4241 17.407 30.9202 21.9294 38.9724C26.4519 47.0227 38.0619 50.8756 45.8945 46.2264C48.4388 44.716 53.1193 41.1113 55.193 35.639C58.0499 28.1011 60.7974 25.7747 67.3692 23.0502Z" fill="#2B2B2B"/>
<path d="M120.166 8.64029V47.2316C120.166 50.7131 117.154 53.518 113.861 53.518C110.475 53.518 107.653 50.7131 107.653 47.2316V45.3944C106.899 48.3921 101.913 53.6161 93.7275 53.6161C83.3783 53.6161 70.959 45.3944 70.959 27.7922C70.959 10.5757 83.4721 2.06468 93.7275 2.06468C100.407 2.06468 105.77 5.74081 107.653 10.2864V8.64208C107.653 5.25697 110.475 2.3557 113.861 2.3557C117.154 2.35392 120.166 5.25518 120.166 8.64029ZM108.217 27.7904C108.217 16.8602 101.254 12.8949 95.9852 12.8949C89.7764 12.8949 83.2845 17.9243 83.2845 27.7904C83.2845 37.7529 89.7764 42.686 95.9852 42.686C101.254 42.686 108.217 38.7206 108.217 27.7904Z" fill="#2B2B2B"/>
<path d="M158.808 9.12413C159.372 9.99362 160.314 11.3487 160.314 13.3805C160.314 16.4764 158.243 18.1207 155.515 18.1207C153.728 18.1207 151.941 17.4441 150.341 15.4123C148.459 13.1877 146.296 12.1236 143.566 12.1236C139.897 12.1236 137.733 13.9608 137.733 16.6692C137.733 18.2171 138.297 20.2471 142.625 21.5058L148.365 23.2466C155.892 25.3748 162.194 29.0491 162.194 37.6583C162.194 48.2975 152.597 53.4233 142.813 53.4233C134.344 53.4233 129.264 49.7472 126.63 46.4603C126.159 45.7836 124.091 43.3644 124.091 40.3667C124.091 38.2386 125.407 35.5319 128.794 35.5319C131.335 35.5319 132.745 37.1762 133.874 38.6278C136.602 42.1093 139.612 43.077 142.811 43.077C147.42 43.077 149.961 41.0452 149.961 38.3368C149.961 36.6924 148.926 34.5642 144.41 33.2109L139.047 31.5665C129.544 28.8581 125.593 23.6358 125.593 16.7692C125.593 7.09771 134.249 2.06825 143.188 2.06825C149.588 2.06289 155.703 4.67493 158.808 9.12413Z" fill="#2B2B2B"/>
<path d="M211 8.06004C211 9.22055 210.623 10.1882 210.246 10.9613L185.88 67.3494C184.562 70.4453 182.304 71.7986 179.953 71.7986C176.753 71.7986 174.496 69.1866 174.496 66.0925C174.496 64.932 174.873 63.9643 175.154 63.1912L180.517 50.6167L163.018 10.9613C162.735 10.1882 162.358 9.22055 162.358 8.06004C162.358 4.96417 164.805 2.35392 168.004 2.35392C170.355 2.35392 172.613 3.70725 173.931 6.80312L186.538 36.787L199.428 6.80312C200.746 3.70725 202.91 2.35392 205.262 2.35392C208.553 2.35392 211 4.96595 211 8.06004Z" fill="#2B2B2B"/>
</svg>
