<svg width="126" height="157" viewBox="0 0 126 157" fill="none" xmlns="http://www.w3.org/2000/svg">
<path d="M125.811 144.422C125.811 145.98 125.504 147.524 124.907 148.964C124.311 150.405 123.437 151.713 122.334 152.816C121.232 153.918 119.923 154.792 118.483 155.389C117.043 155.986 115.499 156.293 113.941 156.293H11.8701C10.3112 156.293 8.76765 155.986 7.32746 155.389C5.88727 154.792 4.57869 153.918 3.47645 152.816C2.37421 151.713 1.49987 150.405 0.903387 148.964C0.3069 147.524 -7.73857e-05 145.98 1.4633e-08 144.422V11.8701C1.4633e-08 8.72196 1.25059 5.70275 3.47667 3.47667C5.70275 1.2506 8.72196 0 11.8701 0H113.941C117.089 0 120.108 1.2506 122.334 3.47667C124.56 5.70275 125.811 8.72196 125.811 11.8701V144.422Z" fill="black"/>
<path d="M13.2239 14.4199V10.1335H14.915C15.2401 10.1335 15.5171 10.1956 15.7459 10.3198C15.9747 10.4426 16.1491 10.6135 16.2691 10.8326C16.3905 11.0502 16.4512 11.3014 16.4512 11.586C16.4512 11.8707 16.3898 12.1218 16.267 12.3395C16.1443 12.5572 15.9664 12.7267 15.7333 12.8481C15.5017 12.9695 15.2213 13.0302 14.892 13.0302H13.8141V12.3039H14.7455C14.9199 12.3039 15.0636 12.2739 15.1766 12.2139C15.291 12.1525 15.3761 12.0681 15.4319 11.9607C15.4892 11.8519 15.5178 11.727 15.5178 11.586C15.5178 11.4437 15.4892 11.3195 15.4319 11.2135C15.3761 11.1061 15.291 11.023 15.1766 10.9644C15.0622 10.9044 14.9171 10.8744 14.7413 10.8744H14.1301V14.4199H13.2239ZM17.0231 14.4199V11.2051H17.8875V11.766H17.921C17.9796 11.5665 18.078 11.4158 18.2161 11.314C18.3543 11.2107 18.5133 11.1591 18.6933 11.1591C18.738 11.1591 18.7861 11.1619 18.8377 11.1675C18.8894 11.173 18.9347 11.1807 18.9738 11.1905V11.9816C18.9319 11.9691 18.874 11.9579 18.8001 11.9481C18.7261 11.9384 18.6584 11.9335 18.597 11.9335C18.4659 11.9335 18.3487 11.9621 18.2454 12.0193C18.1436 12.0751 18.0626 12.1532 18.0026 12.2537C17.944 12.3542 17.9147 12.47 17.9147 12.6011V14.4199H17.0231ZM20.7376 14.4827C20.4125 14.4827 20.1314 14.4136 19.8942 14.2755C19.6583 14.136 19.4763 13.942 19.3479 13.6937C19.2195 13.4439 19.1553 13.1544 19.1553 12.8251C19.1553 12.493 19.2195 12.2028 19.3479 11.9544C19.4763 11.7046 19.6583 11.5107 19.8942 11.3726C20.1314 11.233 20.4125 11.1633 20.7376 11.1633C21.0627 11.1633 21.3432 11.233 21.579 11.3726C21.8162 11.5107 21.999 11.7046 22.1273 11.9544C22.2557 12.2028 22.3199 12.493 22.3199 12.8251C22.3199 13.1544 22.2557 13.4439 22.1273 13.6937C21.999 13.942 21.8162 14.136 21.579 14.2755C21.3432 14.4136 21.0627 14.4827 20.7376 14.4827ZM20.7418 13.792C20.8897 13.792 21.0132 13.7502 21.1123 13.6665C21.2113 13.5813 21.286 13.4655 21.3362 13.319C21.3878 13.1725 21.4136 13.0058 21.4136 12.8188C21.4136 12.6318 21.3878 12.4651 21.3362 12.3186C21.286 12.1721 21.2113 12.0563 21.1123 11.9712C21.0132 11.886 20.8897 11.8435 20.7418 11.8435C20.5925 11.8435 20.4669 11.886 20.3651 11.9712C20.2646 12.0563 20.1886 12.1721 20.1369 12.3186C20.0867 12.4651 20.0616 12.6318 20.0616 12.8188C20.0616 13.0058 20.0867 13.1725 20.1369 13.319C20.1886 13.4655 20.2646 13.5813 20.3651 13.6665C20.4669 13.7502 20.5925 13.792 20.7418 13.792ZM24.6284 11.2051V11.8749H22.6443V11.2051H24.6284ZM23.0985 14.4199V10.9728C23.0985 10.7398 23.1438 10.5465 23.2345 10.3931C23.3266 10.2396 23.4522 10.1245 23.6113 10.0477C23.7703 9.97097 23.951 9.9326 24.1533 9.9326C24.2901 9.9326 24.415 9.94307 24.528 9.964C24.6424 9.98493 24.7275 10.0038 24.7833 10.0205L24.6243 10.6903C24.5894 10.6791 24.5461 10.6686 24.4945 10.6589C24.4443 10.6491 24.3926 10.6442 24.3396 10.6442C24.2085 10.6442 24.1171 10.6749 24.0654 10.7363C24.0138 10.7963 23.988 10.8807 23.988 10.9895V14.4199H23.0985ZM25.1731 14.4199V11.2051H26.0647V14.4199H25.1731ZM25.621 10.7907C25.4885 10.7907 25.3748 10.7468 25.2799 10.6589C25.1864 10.5696 25.1396 10.4628 25.1396 10.3386C25.1396 10.2158 25.1864 10.1105 25.2799 10.0226C25.3748 9.9333 25.4885 9.88865 25.621 9.88865C25.7536 9.88865 25.8666 9.9333 25.9601 10.0226C26.055 10.1105 26.1024 10.2158 26.1024 10.3386C26.1024 10.4628 26.055 10.5696 25.9601 10.6589C25.8666 10.7468 25.7536 10.7907 25.621 10.7907ZM27.6706 10.1335V14.4199H26.779V10.1335H27.6706ZM29.8499 14.4827C29.5192 14.4827 29.2345 14.4157 28.9959 14.2818C28.7587 14.1464 28.576 13.9553 28.4476 13.7083C28.3192 13.4599 28.255 13.1662 28.255 12.8272C28.255 12.4965 28.3192 12.2063 28.4476 11.9565C28.576 11.7067 28.7566 11.5121 28.9897 11.3726C29.2241 11.233 29.4989 11.1633 29.8143 11.1633C30.0264 11.1633 30.2238 11.1975 30.4066 11.2658C30.5908 11.3328 30.7512 11.434 30.888 11.5693C31.0261 11.7046 31.1336 11.8749 31.2103 12.08C31.287 12.2837 31.3254 12.5223 31.3254 12.7958V13.0407H28.6108V12.4881H30.4861C30.4861 12.3597 30.4582 12.246 30.4024 12.147C30.3466 12.0479 30.2692 11.9705 30.1701 11.9146C30.0724 11.8574 29.9587 11.8288 29.8289 11.8288C29.6936 11.8288 29.5736 11.8602 29.4689 11.923C29.3657 11.9844 29.2848 12.0674 29.2262 12.1721C29.1676 12.2753 29.1376 12.3904 29.1362 12.5174V13.0427C29.1362 13.2018 29.1655 13.3393 29.2241 13.4551C29.2841 13.5709 29.3685 13.6602 29.4773 13.723C29.5862 13.7858 29.7152 13.8171 29.8645 13.8171C29.9636 13.8171 30.0543 13.8032 30.1366 13.7753C30.2189 13.7474 30.2894 13.7055 30.348 13.6497C30.4066 13.5939 30.4512 13.5255 30.4819 13.4446L31.3066 13.499C31.2647 13.6972 31.1789 13.8702 31.0491 14.0181C30.9208 14.1646 30.7547 14.279 30.551 14.3613C30.3487 14.4422 30.115 14.4827 29.8499 14.4827Z" fill="white"/>
<path d="M49.0972 39.3184V33.746H51.1868C51.6149 33.746 51.9741 33.8204 52.2643 33.9692C52.5563 34.1179 52.7767 34.3265 52.9255 34.595C53.076 34.8616 53.1513 35.1727 53.1513 35.5282C53.1513 35.8855 53.0751 36.1957 52.9227 36.4587C52.7722 36.7199 52.55 36.9222 52.2561 37.0655C51.9623 37.207 51.6013 37.2777 51.1732 37.2777H49.6849V36.4397H51.0372C51.2875 36.4397 51.4925 36.4052 51.6521 36.3363C51.8117 36.2656 51.9296 36.1631 52.0058 36.0288C52.0838 35.8928 52.1228 35.7259 52.1228 35.5282C52.1228 35.3305 52.0838 35.1618 52.0058 35.0221C51.9278 34.8806 51.809 34.7736 51.6494 34.7011C51.4898 34.6267 51.2839 34.5895 51.0317 34.5895H50.1067V39.3184H49.0972ZM51.9759 36.7934L53.3554 39.3184H52.2289L50.8739 36.7934H51.9759ZM55.8001 39.4C55.3919 39.4 55.0382 39.3102 54.7389 39.1306C54.4396 38.951 54.2074 38.6998 54.0424 38.3769C53.8791 38.0541 53.7975 37.6768 53.7975 37.2451C53.7975 36.8134 53.8791 36.4352 54.0424 36.1105C54.2074 35.7858 54.4396 35.5336 54.7389 35.3541C55.0382 35.1745 55.3919 35.0847 55.8001 35.0847C56.2082 35.0847 56.5619 35.1745 56.8612 35.3541C57.1605 35.5336 57.3918 35.7858 57.555 36.1105C57.7201 36.4352 57.8026 36.8134 57.8026 37.2451C57.8026 37.6768 57.7201 38.0541 57.555 38.3769C57.3918 38.6998 57.1605 38.951 56.8612 39.1306C56.5619 39.3102 56.2082 39.4 55.8001 39.4ZM55.8055 38.6109C56.0268 38.6109 56.2118 38.5502 56.3605 38.4286C56.5093 38.3053 56.6199 38.1402 56.6925 37.9334C56.7669 37.7267 56.804 37.4963 56.804 37.2423C56.804 36.9866 56.7669 36.7553 56.6925 36.5485C56.6199 36.3399 56.5093 36.174 56.3605 36.0506C56.2118 35.9273 56.0268 35.8656 55.8055 35.8656C55.5788 35.8656 55.3901 35.9273 55.2396 36.0506C55.0908 36.174 54.9793 36.3399 54.9049 36.5485C54.8323 36.7553 54.7961 36.9866 54.7961 37.2423C54.7961 37.4963 54.8323 37.7267 54.9049 37.9334C54.9793 38.1402 55.0908 38.3053 55.2396 38.4286C55.3901 38.5502 55.5788 38.6109 55.8055 38.6109ZM58.6821 39.3184V33.746H59.6671V35.8302H59.7079C59.7587 35.7286 59.8303 35.6207 59.9228 35.5064C60.0153 35.3903 60.1405 35.2915 60.2983 35.2099C60.4561 35.1264 60.6575 35.0847 60.9023 35.0847C61.2252 35.0847 61.5163 35.1672 61.7757 35.3323C62.0369 35.4956 62.2437 35.7377 62.3961 36.0588C62.5503 36.378 62.6274 36.7698 62.6274 37.2342C62.6274 37.6931 62.5521 38.0831 62.4015 38.4042C62.251 38.7252 62.046 38.9701 61.7866 39.1388C61.5272 39.3075 61.2334 39.3918 60.9051 39.3918C60.6656 39.3918 60.467 39.3519 60.3092 39.2721C60.1514 39.1923 60.0244 39.0962 59.9283 38.9837C59.8339 38.8694 59.7605 38.7615 59.7079 38.6599H59.6507V39.3184H58.6821ZM59.648 37.2287C59.648 37.499 59.6861 37.7357 59.7623 37.9389C59.8403 38.142 59.9519 38.3008 60.097 38.415C60.2439 38.5275 60.4217 38.5837 60.6303 38.5837C60.8479 38.5837 61.0302 38.5257 61.1771 38.4096C61.3241 38.2917 61.4347 38.1312 61.5091 37.928C61.5853 37.723 61.6234 37.4899 61.6234 37.2287C61.6234 36.9694 61.5862 36.739 61.5118 36.5376C61.4374 36.3363 61.3268 36.1785 61.1799 36.0642C61.0329 35.9499 60.8497 35.8928 60.6303 35.8928C60.4198 35.8928 60.2412 35.9481 60.0942 36.0588C59.9473 36.1694 59.8358 36.3245 59.7596 36.524C59.6852 36.7236 59.648 36.9585 59.648 37.2287ZM65.3149 39.4C64.8959 39.4 64.534 39.3129 64.2293 39.1388C63.9263 38.9628 63.6933 38.7143 63.53 38.3933C63.3668 38.0704 63.2851 37.6904 63.2851 37.2532C63.2851 36.8233 63.3668 36.446 63.53 36.1214C63.6951 35.7948 63.9254 35.5409 64.2211 35.3595C64.5168 35.1763 64.8641 35.0847 65.2632 35.0847C65.5208 35.0847 65.7638 35.1264 65.9924 35.2099C66.2227 35.2915 66.4259 35.4185 66.6019 35.5908C66.7796 35.7631 66.9193 35.9826 67.0209 36.2492C67.1224 36.5141 67.1732 36.8297 67.1732 37.1961V37.4981H63.7477V36.8342H66.2291C66.2273 36.6456 66.1865 36.4778 66.1067 36.3309C66.0268 36.1821 65.9153 36.0651 65.772 35.9799C65.6305 35.8946 65.4654 35.852 65.2768 35.852C65.0755 35.852 64.8986 35.901 64.7462 35.9989C64.5939 36.0951 64.4751 36.222 64.3898 36.3798C64.3064 36.5358 64.2637 36.7072 64.2619 36.8941V37.4736C64.2619 37.7167 64.3064 37.9253 64.3952 38.0994C64.4841 38.2717 64.6084 38.4042 64.768 38.4967C64.9276 38.5874 65.1145 38.6327 65.3285 38.6327C65.4718 38.6327 65.6015 38.6128 65.7176 38.5728C65.8337 38.5311 65.9343 38.4704 66.0196 38.3905C66.1048 38.3107 66.1692 38.2119 66.2128 38.094L67.1324 38.1974C67.0744 38.4404 66.9637 38.6527 66.8005 38.834C66.639 39.0136 66.4323 39.1533 66.1801 39.2531C65.928 39.351 65.6396 39.4 65.3149 39.4ZM68.0065 39.3184V35.1391H68.9615V35.8357H69.005C69.0812 35.5944 69.2118 35.4085 69.3969 35.2779C69.5837 35.1455 69.7968 35.0793 70.0363 35.0793C70.0907 35.0793 70.1514 35.082 70.2186 35.0874C70.2875 35.0911 70.3446 35.0974 70.39 35.1065V36.0125C70.3482 35.998 70.282 35.9853 70.1913 35.9744C70.1025 35.9617 70.0163 35.9554 69.9329 35.9554C69.7533 35.9554 69.5918 35.9944 69.4485 36.0724C69.3071 36.1486 69.1955 36.2547 69.1139 36.3907C69.0323 36.5268 68.9914 36.6837 68.9914 36.8614V39.3184H68.0065ZM73.3557 35.1391V35.901H70.9532V35.1391H73.3557ZM71.5463 34.1378H72.5313V38.0613C72.5313 38.1937 72.5512 38.2953 72.5911 38.3661C72.6329 38.435 72.6873 38.4821 72.7544 38.5075C72.8215 38.5329 72.8959 38.5456 72.9775 38.5456C73.0392 38.5456 73.0954 38.5411 73.1462 38.532C73.1988 38.523 73.2387 38.5148 73.2659 38.5075L73.4319 39.2775C73.3793 39.2957 73.304 39.3156 73.2061 39.3374C73.1099 39.3592 72.992 39.3719 72.8523 39.3755C72.6057 39.3828 72.3834 39.3456 72.1857 39.2639C71.988 39.1805 71.8311 39.0517 71.715 38.8776C71.6007 38.7034 71.5445 38.4858 71.5463 38.2246V34.1378ZM76.8391 39.3184H75.7616L77.7234 33.746H78.9695L80.934 39.3184H79.8565L78.3682 34.8888H78.3247L76.8391 39.3184ZM76.8744 37.1335H79.813V37.9443H76.8744V37.1335ZM82.6093 33.746V39.3184H81.6244V33.746H82.6093ZM84.6071 33.746V39.3184H83.6222V33.746H84.6071ZM87.4701 39.4C87.0511 39.4 86.6893 39.3129 86.3845 39.1388C86.0816 38.9628 85.8485 38.7143 85.6853 38.3933C85.522 38.0704 85.4404 37.6904 85.4404 37.2532C85.4404 36.8233 85.522 36.446 85.6853 36.1214C85.8503 35.7948 86.0807 35.5409 86.3764 35.3595C86.672 35.1763 87.0194 35.0847 87.4184 35.0847C87.676 35.0847 87.9191 35.1264 88.1476 35.2099C88.378 35.2915 88.5812 35.4185 88.7571 35.5908C88.9349 35.7631 89.0745 35.9826 89.1761 36.2492C89.2777 36.5141 89.3285 36.8297 89.3285 37.1961V37.4981H85.9029V36.8342H88.3844C88.3825 36.6456 88.3417 36.4778 88.2619 36.3309C88.1821 36.1821 88.0705 36.0651 87.9272 35.9799C87.7858 35.8946 87.6207 35.852 87.4321 35.852C87.2307 35.852 87.0539 35.901 86.9015 35.9989C86.7491 36.0951 86.6303 36.222 86.5451 36.3798C86.4616 36.5358 86.419 36.7072 86.4172 36.8941V37.4736C86.4172 37.7167 86.4616 37.9253 86.5505 38.0994C86.6394 38.2717 86.7636 38.4042 86.9233 38.4967C87.0829 38.5874 87.2697 38.6327 87.4838 38.6327C87.627 38.6327 87.7567 38.6128 87.8728 38.5728C87.9889 38.5311 88.0896 38.4704 88.1748 38.3905C88.2601 38.3107 88.3245 38.2119 88.368 38.094L89.2877 38.1974C89.2296 38.4404 89.119 38.6527 88.9557 38.834C88.7943 39.0136 88.5875 39.1533 88.3354 39.2531C88.0832 39.351 87.7948 39.4 87.4701 39.4ZM90.8773 35.1391L91.7208 36.6818L92.5779 35.1391H93.62L92.3602 37.2287L93.6417 39.3184H92.6051L91.7208 37.8137L90.8447 39.3184H89.7999L91.0732 37.2287L89.8325 35.1391H90.8773Z" fill="white"/>
<path d="M51.3653 46.9229L52.418 48.4405L54.1861 48.9709L53.0663 50.4414L53.1081 52.285L51.3653 51.6768L49.6231 52.285L49.665 50.4414L48.5452 48.9721L50.3133 48.4417L51.3653 46.9229Z" fill="#3ED778"/>
<path d="M59.9408 46.9229L60.9923 48.4405L62.7569 48.9709L61.6418 50.4414L61.6819 52.285L59.9408 51.6768L58.198 52.285L58.2387 50.4414L57.1189 48.9721L58.887 48.4417L59.9408 46.9229Z" fill="#3ED778"/>
<path d="M68.5134 46.9229L69.5649 48.4405L71.333 48.9709L70.2161 50.4414L70.2562 52.285L68.5134 51.6768L66.7706 52.285L66.8125 50.4414L65.6926 48.9721L67.4608 48.4417L68.5134 46.9229Z" fill="#3ED778"/>
<path d="M77.0873 46.9229L78.1394 48.4405L79.9075 48.9709L78.79 50.4414L78.8301 52.285L77.0873 51.6768L75.3445 52.285L75.3881 50.4414L74.2683 48.9721L76.0364 48.4417L77.0873 46.9229Z" fill="#3ED778"/>
<path d="M85.6639 46.9229L86.7119 48.4405L88.48 48.9709L87.3631 50.4414L87.4032 52.285L85.6639 51.6768L83.9194 52.285L83.9607 50.4414L82.8408 48.9721L84.609 48.4417L85.6639 46.9229Z" fill="#C1C6DE"/>
<path d="M39.5911 44.438C39.591 47.1864 38.7759 49.8731 37.2488 52.1583C35.7218 54.4435 33.5514 56.2245 31.0121 57.2762C28.4728 58.3279 25.6787 58.603 22.9831 58.0667C20.2875 57.5304 17.8114 56.2067 15.8681 54.2632C13.9247 52.3197 12.6013 49.8435 12.0652 47.1479C11.5292 44.4522 11.8045 41.6581 12.8564 39.1189C13.9083 36.5798 15.6895 34.4095 17.9748 32.8827C20.2601 31.3558 22.9469 30.5409 25.6953 30.541C27.5202 30.5411 29.3272 30.9006 31.0132 31.599C32.6992 32.2975 34.231 33.3211 35.5214 34.6116C36.8117 35.902 37.8353 37.434 38.5335 39.12C39.2318 40.806 39.5912 42.6131 39.5911 44.438Z" fill="url(#paint0_linear_656_2528)"/>
<path d="M20.6447 42.537C20.6447 42.537 19.9752 42.2836 19.8621 42.4551C19.6942 42.8497 19.6586 43.288 19.7607 43.7046C19.8725 44.1589 20.1118 44.572 20.4503 44.8951C20.7186 44.9977 21.0059 45.0409 21.2925 45.0218C21.1327 44.1799 20.9163 43.3498 20.6447 42.537Z" fill="#FA9884"/>
<path d="M30.8537 42.537C30.8537 42.537 31.5273 42.2836 31.6399 42.4551C31.8053 42.8504 31.8396 43.2883 31.7378 43.7046C31.6266 44.1587 31.3882 44.5717 31.0505 44.8951C30.7816 44.9976 30.4937 45.0408 30.2065 45.0218C30.3671 44.1801 30.5833 43.35 30.8537 42.537Z" fill="#FA9884"/>
<path d="M28.8958 50.7823C28.6163 50.5854 28.3891 50.3234 28.2337 50.0189C28.0783 49.7144 27.9995 49.3766 28.004 49.0348C28.0336 48.0685 28.132 47.1056 28.2987 46.1533H23.0927C23.2592 47.1055 23.3567 48.0685 23.3845 49.0348C23.389 49.3768 23.31 49.7147 23.1543 50.0193C22.9986 50.3238 22.7709 50.5857 22.491 50.7823L25.6948 55.8203L28.8958 50.7823Z" fill="#FFC2AB"/>
<path d="M28.0144 48.3837C28.0833 47.4631 28.2967 46.1553 28.2967 46.1553H23.093C23.093 46.1553 23.2934 47.3694 23.3659 48.28C24.2724 49.081 25.2442 49.6049 25.7499 49.6049C26.6053 49.4209 27.3907 48.9974 28.0144 48.3837Z" fill="#FA9884"/>
<path d="M25.696 58.3334C29.2303 58.3352 32.631 56.983 35.1991 54.5549C35.1991 54.5549 35.1956 54.5454 35.1915 54.5425C34.8207 54.3244 31.4542 52.3188 29.7815 51.3687C29.4715 51.1962 29.1759 50.9991 28.8975 50.7793L25.6966 55.8173L22.4927 50.7793C22.2144 50.9994 21.9188 51.1965 21.6086 51.3687C19.9365 52.3188 16.5689 54.3238 16.197 54.5425C16.1945 54.5471 16.1912 54.5512 16.1875 54.5549C18.7581 56.9825 22.1602 58.3345 25.696 58.3334Z" fill="#3ED778"/>
<path d="M28.1293 49.7773L26.0423 53.7144L25.6946 55.8208L26.8733 53.9708L29.0187 54.638C29.0187 54.638 29.4371 51.2526 29.4595 51.1783C29.49 51.0824 29.49 50.9795 29.4595 50.8836C29.4142 50.8046 28.3479 49.7797 28.3479 49.7797H28.1299L28.1293 49.7773Z" fill="white"/>
<path d="M23.2596 49.7773L25.3466 53.7144L25.6961 55.8208L24.5221 53.9708L22.3732 54.638C22.3732 54.638 21.9547 51.2526 21.9323 51.1783C21.8992 51.0829 21.8992 50.979 21.9323 50.8836C21.9783 50.8046 23.0439 49.7797 23.0439 49.7797H23.2602L23.2596 49.7773Z" fill="white"/>
<path d="M25.7493 34.1406C30.2469 34.1406 31.0862 38.2451 31.0697 39.8611C30.9701 41.7575 30.6375 43.6345 30.0795 45.4496C29.4901 47.6268 26.7312 48.6812 25.7493 48.6812C24.7674 48.6812 22.0079 47.6268 21.4215 45.4496C20.8604 43.6351 20.5268 41.7579 20.4284 39.8611C20.4137 38.2451 21.25 34.1406 25.7493 34.1406Z" fill="#FFC2AB"/>
<path d="M32.5524 38.9227C32.3356 38.6817 32.1924 38.3837 32.1398 38.0639C31.9995 37.4794 31.7316 36.9332 31.3553 36.4644C31.4909 36.3506 31.5975 36.2061 31.6662 36.0429C31.7348 35.8798 31.7636 35.7026 31.7502 35.5261C31.7405 35.4616 31.7084 35.4025 31.6594 35.3594C31.6105 35.3163 31.5479 35.2918 31.4826 35.2903C31.4762 35.2899 31.4697 35.2899 31.4632 35.2903C30.817 35.1972 30.2114 34.9199 29.7186 34.4917C28.6228 33.5211 27.2191 32.9692 25.7557 32.9334C23.9233 32.842 22.6767 33.4049 21.9418 34.6502C21.6003 34.5911 21.2489 34.6385 20.9354 34.7862C20.6218 34.9338 20.3614 35.1745 20.1895 35.4754C19.792 36.2752 19.493 37.1202 19.299 37.992C19.166 38.4333 18.9066 38.8259 18.5528 39.1213C18.5127 39.1598 18.4854 39.2099 18.4749 39.2646C18.4643 39.3192 18.4709 39.3758 18.4939 39.4266C18.5656 39.5649 18.6715 39.6826 18.8015 39.7685C18.9314 39.8544 19.0812 39.9057 19.2365 39.9175C19.2889 40.4739 19.3833 41.0256 19.5188 41.5678C19.6125 41.8514 19.765 42.112 19.9663 42.3326C20.1676 42.5532 20.4131 42.7288 20.687 42.8479C20.7136 42.8592 20.7425 42.864 20.7713 42.8619C20.8001 42.8597 20.828 42.8507 20.8526 42.8356C20.8776 42.8208 20.8988 42.8004 20.9144 42.7759C20.9299 42.7514 20.9394 42.7236 20.9422 42.6947C20.9842 42.334 21.0565 41.9776 21.1585 41.6291C21.3257 41.4165 21.4595 41.1796 21.5551 40.9266C21.5681 40.959 21.5699 40.9666 21.5722 40.9713C21.5894 41.0032 21.615 41.0299 21.6461 41.0485C21.6772 41.067 21.7128 41.0768 21.749 41.0768C21.9477 41.0768 22.1551 40.692 22.2948 40.3696C22.4078 40.073 22.4805 39.7625 22.5111 39.4466C22.5367 39.2238 22.5795 39.0033 22.639 38.7871C22.7062 38.5549 22.8064 38.4164 22.9042 38.4164C22.9443 38.4164 23.0374 38.437 23.1883 38.5832C23.2082 38.6016 23.2318 38.6157 23.2575 38.6245C23.2832 38.6333 23.3104 38.6367 23.3374 38.6345C23.3645 38.6314 23.3906 38.6224 23.4139 38.6083C23.4372 38.5942 23.4571 38.5751 23.4724 38.5525C23.5396 38.4185 23.6392 38.3034 23.7622 38.2177C23.8852 38.1319 24.0277 38.0783 24.1767 38.0616C24.5645 38.0616 25.0507 38.4258 25.7091 39.2026C26.223 39.8116 26.9267 40.2303 27.7071 40.3914C27.7546 40.396 27.8024 40.3849 27.8431 40.3598C27.8837 40.3347 27.9151 40.2969 27.9322 40.2523C27.9723 40.1397 27.9246 40.0166 27.8143 39.7808C28.4142 40.143 29.0665 40.4102 29.7481 40.5729C29.781 40.573 29.8134 40.5648 29.8423 40.5491C29.8712 40.5335 29.8958 40.5109 29.9137 40.4833C29.9547 40.4045 29.9719 40.3154 29.9632 40.227C29.9744 40.2346 29.9827 40.2435 29.9939 40.2505C30.1309 41.0894 30.3249 41.9181 30.5744 42.7306C30.5856 42.7688 30.609 42.8022 30.6409 42.8259C30.6728 42.8496 30.7115 42.8623 30.7512 42.8621C30.7647 42.8628 30.7783 42.8612 30.7913 42.8574C31.0106 42.8057 31.2154 42.7049 31.3901 42.5627C31.4043 42.5501 31.4172 42.5361 31.4284 42.5208C31.8843 41.6318 32.0844 40.6336 32.0066 39.6376C32.2907 39.5898 32.6095 39.4189 32.6691 39.2144C32.6844 39.1597 32.6813 39.1015 32.6602 39.0487C32.6391 38.996 32.6012 38.9517 32.5524 38.9227Z" fill="#242736"/>
<path d="M28.6329 72.1277V73.4814H28.2872V71.2311H28.6212V71.5827H28.6505C28.7032 71.4684 28.7833 71.3766 28.8908 71.3073C28.9982 71.2369 29.1369 71.2018 29.3069 71.2018C29.4592 71.2018 29.5925 71.233 29.7068 71.2956C29.8211 71.3571 29.91 71.4508 29.9735 71.5768C30.0369 71.7019 30.0687 71.8601 30.0687 72.0515V73.4814H29.7229V72.075C29.7229 71.8982 29.677 71.7605 29.5852 71.6618C29.4934 71.5622 29.3674 71.5124 29.2072 71.5124C29.0969 71.5124 28.9982 71.5363 28.9113 71.5842C28.8253 71.632 28.7574 71.7019 28.7076 71.7937C28.6578 71.8855 28.6329 71.9968 28.6329 72.1277ZM31.6147 73.5283C31.4116 73.5283 31.2333 73.48 31.08 73.3833C30.9276 73.2866 30.8084 73.1513 30.7225 72.9775C30.6375 72.8036 30.595 72.6004 30.595 72.368C30.595 72.1336 30.6375 71.929 30.7225 71.7541C30.8084 71.5793 30.9276 71.4435 31.08 71.3468C31.2333 71.2501 31.4116 71.2018 31.6147 71.2018C31.8179 71.2018 31.9956 71.2501 32.148 71.3468C32.3013 71.4435 32.4205 71.5793 32.5055 71.7541C32.5914 71.929 32.6344 72.1336 32.6344 72.368C32.6344 72.6004 32.5914 72.8036 32.5055 72.9775C32.4205 73.1513 32.3013 73.2866 32.148 73.3833C31.9956 73.48 31.8179 73.5283 31.6147 73.5283ZM31.6147 73.2177C31.769 73.2177 31.896 73.1782 31.9956 73.0991C32.0953 73.0199 32.169 72.9159 32.2169 72.787C32.2647 72.6581 32.2887 72.5184 32.2887 72.368C32.2887 72.2176 32.2647 72.0774 32.2169 71.9475C32.169 71.8176 32.0953 71.7126 31.9956 71.6325C31.896 71.5524 31.769 71.5124 31.6147 71.5124C31.4604 71.5124 31.3334 71.5524 31.2338 71.6325C31.1342 71.7126 31.0604 71.8176 31.0126 71.9475C30.9647 72.0774 30.9408 72.2176 30.9408 72.368C30.9408 72.5184 30.9647 72.6581 31.0126 72.787C31.0604 72.9159 31.1342 73.0199 31.2338 73.0991C31.3334 73.1782 31.4604 73.2177 31.6147 73.2177ZM33.1622 73.4814V71.2311H33.4962V71.571H33.5197C33.5607 71.4596 33.6349 71.3693 33.7424 71.2999C33.8498 71.2306 33.9709 71.1959 34.1057 71.1959C34.1311 71.1959 34.1629 71.1964 34.2009 71.1974C34.239 71.1984 34.2678 71.1998 34.2874 71.2018V71.5534C34.2757 71.5505 34.2488 71.5461 34.2068 71.5402C34.1658 71.5334 34.1223 71.53 34.0764 71.53C33.967 71.53 33.8693 71.5529 33.7834 71.5988C33.6984 71.6438 33.631 71.7063 33.5812 71.7864C33.5324 71.8655 33.508 71.9558 33.508 72.0574V73.4814H33.1622ZM35.5723 73.5283C35.3554 73.5283 35.1684 73.4805 35.0111 73.3848C34.8549 73.2881 34.7342 73.1533 34.6493 72.9804C34.5653 72.8065 34.5233 72.6044 34.5233 72.3738C34.5233 72.1433 34.5653 71.9402 34.6493 71.7644C34.7342 71.5876 34.8524 71.4499 35.0038 71.3512C35.1562 71.2516 35.3339 71.2018 35.5371 71.2018C35.6543 71.2018 35.77 71.2213 35.8843 71.2604C35.9986 71.2995 36.1026 71.3629 36.1964 71.4508C36.2901 71.5378 36.3649 71.653 36.4205 71.7966C36.4762 71.9402 36.504 72.117 36.504 72.327V72.4735H34.7694V72.1746H36.1524C36.1524 72.0476 36.127 71.9343 36.0762 71.8347C36.0264 71.7351 35.9551 71.6564 35.8623 71.5988C35.7705 71.5412 35.6621 71.5124 35.5371 71.5124C35.3994 71.5124 35.2802 71.5466 35.1796 71.6149C35.08 71.6823 35.0033 71.7702 34.9496 71.8787C34.8959 71.9871 34.869 72.1033 34.869 72.2273V72.4266C34.869 72.5965 34.8983 72.7406 34.9569 72.8588C35.0165 72.976 35.099 73.0654 35.2045 73.1269C35.31 73.1875 35.4326 73.2177 35.5723 73.2177C35.6631 73.2177 35.7451 73.205 35.8184 73.1796C35.8926 73.1533 35.9566 73.1142 36.0103 73.0624C36.064 73.0097 36.1055 72.9443 36.1348 72.8661L36.4689 72.9599C36.4337 73.0732 36.3746 73.1728 36.2916 73.2588C36.2086 73.3437 36.106 73.4101 35.9839 73.458C35.8619 73.5049 35.7246 73.5283 35.5723 73.5283ZM37.03 74.3253V71.2311H37.364V71.5886H37.4051C37.4305 71.5495 37.4656 71.4997 37.5106 71.4391C37.5565 71.3776 37.6219 71.3229 37.7069 71.275C37.7928 71.2262 37.9091 71.2018 38.0556 71.2018C38.245 71.2018 38.4121 71.2492 38.5566 71.3439C38.7012 71.4386 38.814 71.5729 38.895 71.7468C38.9761 71.9207 39.0166 72.1258 39.0166 72.3621C39.0166 72.6004 38.9761 72.807 38.895 72.9819C38.814 73.1557 38.7017 73.2905 38.5581 73.3862C38.4145 73.481 38.2489 73.5283 38.0614 73.5283C37.9169 73.5283 37.8011 73.5044 37.7142 73.4565C37.6273 73.4077 37.5604 73.3525 37.5135 73.291C37.4666 73.2285 37.4305 73.1767 37.4051 73.1357H37.3758V74.3253H37.03ZM37.3699 72.3563C37.3699 72.5262 37.3948 72.6761 37.4446 72.806C37.4944 72.935 37.5672 73.0361 37.6629 73.1093C37.7586 73.1816 37.8758 73.2177 38.0145 73.2177C38.1591 73.2177 38.2797 73.1796 38.3764 73.1035C38.4741 73.0263 38.5473 72.9228 38.5962 72.7929C38.646 72.662 38.6709 72.5164 38.6709 72.3563C38.6709 72.198 38.6465 72.0554 38.5976 71.9285C38.5498 71.8005 38.477 71.6994 38.3793 71.6252C38.2826 71.55 38.161 71.5124 38.0145 71.5124C37.8739 71.5124 37.7557 71.548 37.66 71.6193C37.5643 71.6897 37.492 71.7883 37.4432 71.9153C37.3943 72.0413 37.3699 72.1883 37.3699 72.3563ZM39.8898 70.481V73.4814H39.5441V70.481H39.8898ZM40.7458 74.3253C40.6872 74.3253 40.6349 74.3204 40.589 74.3107C40.5431 74.3019 40.5114 74.2931 40.4938 74.2843L40.5817 73.9796C40.6657 74.0011 40.7399 74.0089 40.8044 74.003C40.8689 73.9972 40.926 73.9683 40.9758 73.9166C41.0266 73.8658 41.073 73.7833 41.115 73.669L41.1795 73.4932L40.3473 71.2311H40.7224L41.3436 73.0243H41.367L41.9882 71.2311H42.3633L41.408 73.8096C41.365 73.9259 41.3118 74.0221 41.2483 74.0982C41.1848 74.1754 41.1111 74.2325 41.0271 74.2697C40.9441 74.3068 40.8503 74.3253 40.7458 74.3253ZM44.5484 74.2726C44.2495 74.2726 43.9853 74.2316 43.7558 74.1495C43.5263 74.0685 43.3334 73.9488 43.1771 73.7906C43.0208 73.6323 42.9026 73.4385 42.8226 73.2089C42.7425 72.9794 42.7024 72.7167 42.7024 72.4207C42.7024 72.1346 42.743 71.8787 42.824 71.653C42.9061 71.4274 43.0247 71.236 43.18 71.0787C43.3363 70.9205 43.5258 70.7999 43.7485 70.7168C43.9721 70.6338 44.2251 70.5923 44.5074 70.5923C44.7818 70.5923 45.0221 70.6372 45.2282 70.7271C45.4353 70.816 45.6082 70.9366 45.7468 71.089C45.8865 71.2404 45.991 71.4108 46.0604 71.6003C46.1307 71.7898 46.1659 71.9851 46.1659 72.1863C46.1659 72.3279 46.159 72.4715 46.1453 72.6171C46.1317 72.7626 46.1029 72.8964 46.0589 73.0185C46.015 73.1396 45.9471 73.2373 45.8553 73.3115C45.7644 73.3857 45.6414 73.4228 45.4861 73.4228C45.4177 73.4228 45.3425 73.4121 45.2604 73.3906C45.1784 73.3691 45.1056 73.3335 45.0421 73.2837C44.9787 73.2338 44.9411 73.1669 44.9293 73.0829H44.9118C44.8883 73.1396 44.8522 73.1933 44.8033 73.2441C44.7555 73.2949 44.6925 73.3354 44.6143 73.3657C44.5372 73.396 44.4429 73.4092 44.3316 73.4053C44.2046 73.4004 44.0928 73.3721 43.9961 73.3203C43.8994 73.2675 43.8183 73.1962 43.7529 73.1064C43.6884 73.0156 43.6396 72.9106 43.6064 72.7914C43.5741 72.6713 43.558 72.5418 43.558 72.4031C43.558 72.2713 43.5776 72.1507 43.6166 72.0413C43.6557 71.9319 43.7099 71.8362 43.7792 71.7541C43.8496 71.6721 43.9316 71.6066 44.0254 71.5578C44.1201 71.508 44.2222 71.4772 44.3316 71.4655C44.4293 71.4557 44.5181 71.4601 44.5982 71.4787C44.6783 71.4963 44.7442 71.5231 44.796 71.5593C44.8478 71.5944 44.8805 71.6335 44.8942 71.6765H44.9118V71.5124H45.2223V72.8368C45.2223 72.9189 45.2453 72.9911 45.2912 73.0536C45.3371 73.1162 45.404 73.1474 45.4919 73.1474C45.5915 73.1474 45.6677 73.1132 45.7205 73.0449C45.7742 72.9765 45.8108 72.871 45.8304 72.7284C45.8509 72.5858 45.8611 72.4031 45.8611 72.1805C45.8611 72.0496 45.8431 71.9207 45.8069 71.7937C45.7718 71.6657 45.718 71.5461 45.6458 71.4347C45.5745 71.3234 45.4841 71.2252 45.3747 71.1403C45.2653 71.0553 45.1369 70.9889 44.9894 70.941C44.8429 70.8922 44.6764 70.8677 44.4898 70.8677C44.2603 70.8677 44.0547 70.9034 43.873 70.9747C43.6923 71.045 43.5385 71.1481 43.4115 71.2838C43.2855 71.4186 43.1893 71.5827 43.1229 71.7761C43.0575 71.9685 43.0247 72.1873 43.0247 72.4325C43.0247 72.6815 43.0575 72.9027 43.1229 73.0961C43.1893 73.2895 43.287 73.4526 43.4159 73.5855C43.5458 73.7183 43.7065 73.8189 43.8979 73.8873C44.0894 73.9566 44.3101 73.9913 44.5601 73.9913C44.6676 73.9913 44.7735 73.981 44.8781 73.9605C44.9826 73.94 45.0749 73.9175 45.155 73.8931C45.235 73.8687 45.2927 73.8506 45.3278 73.8389L45.4099 74.1085C45.3493 74.1339 45.2702 74.1593 45.1725 74.1847C45.0758 74.2101 44.9723 74.2311 44.8619 74.2477C44.7525 74.2643 44.648 74.2726 44.5484 74.2726ZM44.3785 73.1064C44.5093 73.1064 44.6153 73.08 44.6964 73.0273C44.7775 72.9745 44.8365 72.8949 44.8737 72.7885C44.9108 72.682 44.9293 72.5477 44.9293 72.3856C44.9293 72.2215 44.9088 72.0935 44.8678 72.0017C44.8268 71.9099 44.7662 71.8454 44.6861 71.8083C44.606 71.7712 44.5074 71.7527 44.3902 71.7527C44.2788 71.7527 44.1836 71.782 44.1045 71.8406C44.0264 71.8982 43.9663 71.9753 43.9243 72.072C43.8833 72.1678 43.8628 72.2723 43.8628 72.3856C43.8628 72.5106 43.8794 72.6283 43.9126 72.7387C43.9458 72.848 44 72.9369 44.0752 73.0053C44.1504 73.0727 44.2515 73.1064 44.3785 73.1064ZM47.5976 73.5283C47.3866 73.5283 47.205 73.4785 47.0526 73.3789C46.9002 73.2793 46.783 73.142 46.701 72.9672C46.6189 72.7924 46.5779 72.5926 46.5779 72.368C46.5779 72.1394 46.6199 71.9377 46.7039 71.7629C46.7889 71.5871 46.9071 71.4499 47.0585 71.3512C47.2108 71.2516 47.3886 71.2018 47.5917 71.2018C47.75 71.2018 47.8926 71.2311 48.0195 71.2897C48.1465 71.3483 48.2505 71.4303 48.3316 71.5358C48.4127 71.6413 48.463 71.7644 48.4825 71.905H48.1368C48.1104 71.8025 48.0518 71.7116 47.9609 71.6325C47.8711 71.5524 47.75 71.5124 47.5976 71.5124C47.4628 71.5124 47.3446 71.5475 47.2431 71.6179C47.1425 71.6872 47.0638 71.7854 47.0072 71.9123C46.9515 72.0383 46.9237 72.1863 46.9237 72.3563C46.9237 72.5301 46.951 72.6815 47.0057 72.8104C47.0614 72.9394 47.1395 73.0395 47.2401 73.1108C47.3417 73.1821 47.4609 73.2177 47.5976 73.2177C47.6875 73.2177 47.769 73.2021 47.8423 73.1708C47.9155 73.1396 47.9775 73.0947 48.0283 73.0361C48.0791 72.9775 48.1153 72.9071 48.1368 72.8251H48.4825C48.463 72.9579 48.4146 73.0776 48.3375 73.184C48.2613 73.2895 48.1602 73.3735 48.0342 73.436C47.9092 73.4976 47.7636 73.5283 47.5976 73.5283ZM49.6502 73.5342C49.5076 73.5342 49.3782 73.5073 49.2619 73.4536C49.1457 73.3989 49.0534 73.3203 48.985 73.2177C48.9167 73.1142 48.8825 72.9892 48.8825 72.8427C48.8825 72.7137 48.9079 72.6092 48.9587 72.5291C49.0094 72.4481 49.0773 72.3846 49.1623 72.3387C49.2473 72.2928 49.341 72.2586 49.4436 72.2361C49.5471 72.2127 49.6512 72.1941 49.7557 72.1805C49.8924 72.1629 50.0033 72.1497 50.0882 72.1409C50.1742 72.1311 50.2367 72.115 50.2758 72.0926C50.3158 72.0701 50.3358 72.031 50.3358 71.9753V71.9636C50.3358 71.8191 50.2963 71.7067 50.2172 71.6267C50.139 71.5466 50.0204 71.5065 49.8611 71.5065C49.6961 71.5065 49.5667 71.5427 49.4729 71.6149C49.3791 71.6872 49.3132 71.7644 49.2751 71.8464L48.9469 71.7292C49.0055 71.5925 49.0837 71.486 49.1814 71.4098C49.28 71.3327 49.3874 71.2789 49.5037 71.2487C49.6209 71.2174 49.7361 71.2018 49.8494 71.2018C49.9217 71.2018 50.0047 71.2106 50.0985 71.2282C50.1932 71.2448 50.2846 71.2794 50.3725 71.3322C50.4613 71.3849 50.5351 71.4645 50.5937 71.571C50.6523 71.6774 50.6816 71.82 50.6816 71.9988V73.4814H50.3358V73.1767H50.3183C50.2948 73.2255 50.2557 73.2778 50.201 73.3335C50.1463 73.3891 50.0736 73.4365 49.9827 73.4756C49.8919 73.5147 49.7811 73.5342 49.6502 73.5342ZM49.7029 73.2236C49.8397 73.2236 49.9549 73.1967 50.0487 73.143C50.1434 73.0893 50.2147 73.0199 50.2626 72.935C50.3114 72.85 50.3358 72.7606 50.3358 72.6669V72.3504C50.3212 72.368 50.2889 72.3841 50.2391 72.3988C50.1903 72.4124 50.1337 72.4246 50.0692 72.4354C50.0057 72.4451 49.9437 72.4539 49.8831 72.4618C49.8235 72.4686 49.7752 72.4744 49.7381 72.4793C49.6482 72.4911 49.5642 72.5101 49.4861 72.5365C49.4089 72.5619 49.3464 72.6004 49.2986 72.6522C49.2517 72.703 49.2282 72.7723 49.2282 72.8603C49.2282 72.9804 49.2727 73.0712 49.3616 73.1328C49.4514 73.1933 49.5652 73.2236 49.7029 73.2236ZM51.6584 72.1277V73.4814H51.3127V71.2311H51.6467V71.5827H51.676C51.7288 71.4684 51.8088 71.3766 51.9163 71.3073C52.0237 71.2369 52.1624 71.2018 52.3324 71.2018C52.4847 71.2018 52.6181 71.233 52.7323 71.2956C52.8466 71.3571 52.9355 71.4508 52.999 71.5768C53.0625 71.7019 53.0942 71.8601 53.0942 72.0515V73.4814H52.7484V72.075C52.7484 71.8982 52.7025 71.7605 52.6107 71.6618C52.5189 71.5622 52.3929 71.5124 52.2327 71.5124C52.1224 71.5124 52.0237 71.5363 51.9368 71.5842C51.8508 71.632 51.783 71.7019 51.7331 71.7937C51.6833 71.8855 51.6584 71.9968 51.6584 72.1277ZM55.4856 71.2311L54.6534 73.4814H54.3018L53.4696 71.2311H53.8447L54.4659 73.0243H54.4893L55.1105 71.2311H55.4856ZM56.5357 73.5342C56.3931 73.5342 56.2637 73.5073 56.1474 73.4536C56.0312 73.3989 55.9389 73.3203 55.8705 73.2177C55.8022 73.1142 55.768 72.9892 55.768 72.8427C55.768 72.7137 55.7934 72.6092 55.8442 72.5291C55.8949 72.4481 55.9628 72.3846 56.0478 72.3387C56.1328 72.2928 56.2265 72.2586 56.3291 72.2361C56.4326 72.2127 56.5366 72.1941 56.6412 72.1805C56.7779 72.1629 56.8888 72.1497 56.9737 72.1409C57.0597 72.1311 57.1222 72.115 57.1613 72.0926C57.2013 72.0701 57.2213 72.031 57.2213 71.9753V71.9636C57.2213 71.8191 57.1818 71.7067 57.1027 71.6267C57.0245 71.5466 56.9058 71.5065 56.7466 71.5065C56.5816 71.5065 56.4522 71.5427 56.3584 71.6149C56.2646 71.6872 56.1987 71.7644 56.1606 71.8464L55.8324 71.7292C55.891 71.5925 55.9692 71.486 56.0668 71.4098C56.1655 71.3327 56.2729 71.2789 56.3892 71.2487C56.5064 71.2174 56.6216 71.2018 56.7349 71.2018C56.8072 71.2018 56.8902 71.2106 56.984 71.2282C57.0787 71.2448 57.17 71.2794 57.258 71.3322C57.3468 71.3849 57.4206 71.4645 57.4792 71.571C57.5378 71.6774 57.5671 71.82 57.5671 71.9988V73.4814H57.2213V73.1767H57.2037C57.1803 73.2255 57.1412 73.2778 57.0865 73.3335C57.0318 73.3891 56.9591 73.4365 56.8682 73.4756C56.7774 73.5147 56.6666 73.5342 56.5357 73.5342ZM56.5884 73.2236C56.7252 73.2236 56.8404 73.1967 56.9342 73.143C57.0289 73.0893 57.1002 73.0199 57.1481 72.935C57.1969 72.85 57.2213 72.7606 57.2213 72.6669V72.3504C57.2067 72.368 57.1744 72.3841 57.1246 72.3988C57.0758 72.4124 57.0191 72.4246 56.9547 72.4354C56.8912 72.4451 56.8292 72.4539 56.7686 72.4618C56.709 72.4686 56.6607 72.4744 56.6236 72.4793C56.5337 72.4911 56.4497 72.5101 56.3716 72.5365C56.2944 72.5619 56.2319 72.6004 56.1841 72.6522C56.1372 72.703 56.1137 72.7723 56.1137 72.8603C56.1137 72.9804 56.1582 73.0712 56.2471 73.1328C56.3369 73.1933 56.4507 73.2236 56.5884 73.2236ZM59.7922 71.7351L59.4816 71.823C59.462 71.7712 59.4332 71.7209 59.3951 71.6721C59.358 71.6223 59.3072 71.5812 59.2428 71.549C59.1783 71.5168 59.0958 71.5007 58.9952 71.5007C58.8575 71.5007 58.7427 71.5324 58.6509 71.5959C58.56 71.6584 58.5146 71.738 58.5146 71.8347C58.5146 71.9207 58.5459 71.9885 58.6084 72.0383C58.6709 72.0882 58.7686 72.1297 58.9014 72.1629L59.2354 72.2449C59.4366 72.2938 59.5866 72.3685 59.6852 72.4691C59.7839 72.5687 59.8332 72.6971 59.8332 72.8544C59.8332 72.9833 59.7961 73.0986 59.7218 73.2002C59.6486 73.3017 59.546 73.3818 59.4142 73.4404C59.2823 73.499 59.129 73.5283 58.9541 73.5283C58.7246 73.5283 58.5346 73.4785 58.3842 73.3789C58.2338 73.2793 58.1386 73.1337 58.0985 72.9423L58.4267 72.8603C58.458 72.9814 58.5171 73.0722 58.604 73.1328C58.6919 73.1933 58.8067 73.2236 58.9483 73.2236C59.1094 73.2236 59.2374 73.1894 59.3321 73.121C59.4279 73.0517 59.4757 72.9687 59.4757 72.872C59.4757 72.7938 59.4484 72.7284 59.3937 72.6757C59.339 72.6219 59.255 72.5819 59.1417 72.5555L58.7666 72.4676C58.5605 72.4188 58.4091 72.3431 58.3124 72.2405C58.2167 72.137 58.1689 72.0076 58.1689 71.8523C58.1689 71.7253 58.2045 71.613 58.2758 71.5153C58.3481 71.4176 58.4463 71.341 58.5703 71.2853C58.6953 71.2296 58.8369 71.2018 58.9952 71.2018C59.2179 71.2018 59.3927 71.2506 59.5197 71.3483C59.6476 71.446 59.7385 71.5749 59.7922 71.7351ZM60.6057 73.5049C60.5334 73.5049 60.4714 73.479 60.4196 73.4272C60.3678 73.3755 60.3419 73.3134 60.3419 73.2412C60.3419 73.1689 60.3678 73.1069 60.4196 73.0551C60.4714 73.0033 60.5334 72.9775 60.6057 72.9775C60.6779 72.9775 60.74 73.0033 60.7917 73.0551C60.8435 73.1069 60.8694 73.1689 60.8694 73.2412C60.8694 73.289 60.8572 73.333 60.8327 73.373C60.8093 73.4131 60.7776 73.4453 60.7375 73.4697C60.6984 73.4932 60.6545 73.5049 60.6057 73.5049ZM62.404 73.5283C62.1931 73.5283 62.0114 73.4785 61.859 73.3789C61.7067 73.2793 61.5895 73.142 61.5074 72.9672C61.4254 72.7924 61.3843 72.5926 61.3843 72.368C61.3843 72.1394 61.4263 71.9377 61.5103 71.7629C61.5953 71.5871 61.7135 71.4499 61.8649 71.3512C62.0173 71.2516 62.195 71.2018 62.3982 71.2018C62.5564 71.2018 62.699 71.2311 62.826 71.2897C62.953 71.3483 63.057 71.4303 63.138 71.5358C63.2191 71.6413 63.2694 71.7644 63.2889 71.905H62.9432C62.9168 71.8025 62.8582 71.7116 62.7674 71.6325C62.6775 71.5524 62.5564 71.5124 62.404 71.5124C62.2692 71.5124 62.1511 71.5475 62.0495 71.6179C61.9489 71.6872 61.8703 71.7854 61.8136 71.9123C61.7579 72.0383 61.7301 72.1863 61.7301 72.3563C61.7301 72.5301 61.7574 72.6815 61.8121 72.8104C61.8678 72.9394 61.946 73.0395 62.0466 73.1108C62.1481 73.1821 62.2673 73.2177 62.404 73.2177C62.4939 73.2177 62.5754 73.2021 62.6487 73.1708C62.722 73.1396 62.784 73.0947 62.8348 73.0361C62.8856 72.9775 62.9217 72.9071 62.9432 72.8251H63.2889C63.2694 72.9579 63.2211 73.0776 63.1439 73.184C63.0677 73.2895 62.9666 73.3735 62.8406 73.436C62.7156 73.4976 62.5701 73.5283 62.404 73.5283ZM64.7086 73.5283C64.5054 73.5283 64.3272 73.48 64.1738 73.3833C64.0215 73.2866 63.9023 73.1513 63.8164 72.9775C63.7314 72.8036 63.6889 72.6004 63.6889 72.368C63.6889 72.1336 63.7314 71.929 63.8164 71.7541C63.9023 71.5793 64.0215 71.4435 64.1738 71.3468C64.3272 71.2501 64.5054 71.2018 64.7086 71.2018C64.9118 71.2018 65.0895 71.2501 65.2419 71.3468C65.3952 71.4435 65.5144 71.5793 65.5994 71.7541C65.6853 71.929 65.7283 72.1336 65.7283 72.368C65.7283 72.6004 65.6853 72.8036 65.5994 72.9775C65.5144 73.1513 65.3952 73.2866 65.2419 73.3833C65.0895 73.48 64.9118 73.5283 64.7086 73.5283ZM64.7086 73.2177C64.8629 73.2177 64.9899 73.1782 65.0895 73.0991C65.1891 73.0199 65.2629 72.9159 65.3107 72.787C65.3586 72.6581 65.3825 72.5184 65.3825 72.368C65.3825 72.2176 65.3586 72.0774 65.3107 71.9475C65.2629 71.8176 65.1891 71.7126 65.0895 71.6325C64.9899 71.5524 64.8629 71.5124 64.7086 71.5124C64.5543 71.5124 64.4273 71.5524 64.3277 71.6325C64.2281 71.7126 64.1543 71.8176 64.1065 71.9475C64.0586 72.0774 64.0347 72.2176 64.0347 72.368C64.0347 72.5184 64.0586 72.6581 64.1065 72.787C64.1543 72.9159 64.2281 73.0199 64.3277 73.0991C64.4273 73.1782 64.5543 73.2177 64.7086 73.2177ZM66.2561 73.4814V71.2311H66.5901V71.5827H66.6194C66.6663 71.4626 66.742 71.3693 66.8465 71.3029C66.951 71.2355 67.0765 71.2018 67.223 71.2018C67.3715 71.2018 67.4951 71.2355 67.5937 71.3029C67.6933 71.3693 67.771 71.4626 67.8267 71.5827H67.8501C67.9077 71.4665 67.9942 71.3742 68.1094 71.3058C68.2247 71.2365 68.3629 71.2018 68.524 71.2018C68.7252 71.2018 68.8898 71.2648 69.0178 71.3908C69.1457 71.5158 69.2097 71.7107 69.2097 71.9753V73.4814H68.8639V71.9753C68.8639 71.8093 68.8185 71.6906 68.7277 71.6193C68.6368 71.548 68.5299 71.5124 68.4068 71.5124C68.2486 71.5124 68.126 71.5602 68.0391 71.656C67.9522 71.7507 67.9087 71.8708 67.9087 72.0164V73.4814H67.5571V71.9402C67.5571 71.8122 67.5156 71.7092 67.4325 71.6311C67.3495 71.5519 67.2426 71.5124 67.1117 71.5124C67.0218 71.5124 66.9378 71.5363 66.8597 71.5842C66.7825 71.632 66.72 71.6984 66.6722 71.7834C66.6253 71.8674 66.6018 71.9646 66.6018 72.075V73.4814H66.2561Z" fill="white"/>
<path d="M29.1662 83.5624V81.6285H29.4944V83.5624H29.1662ZM28.3633 82.7596V82.4314H30.2972V82.7596H28.3633ZM31.9795 84.1309C31.7588 84.1309 31.5708 84.0708 31.4155 83.9507C31.2602 83.8295 31.1415 83.6542 31.0595 83.4247C30.9774 83.1942 30.9364 82.9158 30.9364 82.5896C30.9364 82.2653 30.9774 81.9884 31.0595 81.7589C31.1425 81.5284 31.2616 81.3526 31.4169 81.2315C31.5732 81.1094 31.7607 81.0483 31.9795 81.0483C32.1983 81.0483 32.3853 81.1094 32.5406 81.2315C32.6969 81.3526 32.8161 81.5284 32.8981 81.7589C32.9811 81.9884 33.0227 82.2653 33.0227 82.5896C33.0227 82.9158 32.9816 83.1942 32.8996 83.4247C32.8175 83.6542 32.6989 83.8295 32.5436 83.9507C32.3883 84.0708 32.2003 84.1309 31.9795 84.1309ZM31.9795 83.8085C32.1983 83.8085 32.3683 83.7031 32.4894 83.4921C32.6105 83.2811 32.671 82.9803 32.671 82.5896C32.671 82.3298 32.6432 82.1086 32.5875 81.9259C32.5328 81.7433 32.4537 81.6041 32.3502 81.5084C32.2476 81.4127 32.1241 81.3648 31.9795 81.3648C31.7627 81.3648 31.5932 81.4718 31.4711 81.6857C31.349 81.8986 31.288 82.1999 31.288 82.5896C31.288 82.8494 31.3154 83.0702 31.37 83.2518C31.4247 83.4335 31.5034 83.5717 31.6059 83.6664C31.7095 83.7612 31.834 83.8085 31.9795 83.8085ZM34.6342 81.0894V84.0898H34.2709V81.4703H34.2533L33.5208 81.9567V81.5875L34.2709 81.0894H34.6342ZM36.6575 84.0898V83.8261L37.6479 82.742C37.7641 82.615 37.8598 82.5046 37.9351 82.4109C38.0103 82.3161 38.0659 82.2272 38.1021 82.1442C38.1392 82.0602 38.1577 81.9723 38.1577 81.8805C38.1577 81.775 38.1324 81.6837 38.0816 81.6065C38.0318 81.5294 37.9634 81.4698 37.8765 81.4278C37.7895 81.3858 37.6919 81.3648 37.5834 81.3648C37.4682 81.3648 37.3676 81.3887 37.2816 81.4366C37.1967 81.4835 37.1307 81.5494 37.0838 81.6344C37.0379 81.7193 37.015 81.819 37.015 81.9333H36.6692C36.6692 81.7574 36.7098 81.6031 36.7908 81.4703C36.8719 81.3375 36.9823 81.2339 37.1219 81.1597C37.2626 81.0855 37.4203 81.0483 37.5952 81.0483C37.771 81.0483 37.9268 81.0855 38.0625 81.1597C38.1983 81.2339 38.3047 81.334 38.3819 81.46C38.4591 81.586 38.4976 81.7262 38.4976 81.8805C38.4976 81.9909 38.4776 82.0988 38.4376 82.2043C38.3985 82.3088 38.3301 82.4255 38.2325 82.5544C38.1358 82.6824 38.0015 82.8387 37.8296 83.0233L37.1556 83.7441V83.7675H38.5504V84.0898H36.6575ZM40.1693 84.1309C39.9759 84.1309 39.8035 84.0977 39.6521 84.0312C39.5017 83.9648 39.3821 83.8725 39.2932 83.7543C39.2053 83.6352 39.1574 83.497 39.1496 83.3397H39.5188C39.5266 83.4364 39.5598 83.5199 39.6184 83.5903C39.677 83.6596 39.7537 83.7133 39.8484 83.7514C39.9432 83.7895 40.0482 83.8085 40.1634 83.8085C40.2924 83.8085 40.4066 83.7861 40.5063 83.7412C40.6059 83.6962 40.684 83.6337 40.7407 83.5536C40.7973 83.4735 40.8257 83.3807 40.8257 83.2753C40.8257 83.1649 40.7983 83.0677 40.7436 82.9837C40.6889 82.8987 40.6088 82.8323 40.5033 82.7845C40.3979 82.7366 40.2689 82.7127 40.1166 82.7127H39.8763V82.3904H40.1166C40.2357 82.3904 40.3402 82.3689 40.4301 82.3259C40.5209 82.2829 40.5917 82.2224 40.6425 82.1442C40.6943 82.0661 40.7202 81.9743 40.7202 81.8688C40.7202 81.7672 40.6977 81.6788 40.6528 81.6036C40.6078 81.5284 40.5444 81.4698 40.4623 81.4278C40.3812 81.3858 40.2855 81.3648 40.1752 81.3648C40.0716 81.3648 39.974 81.3838 39.8821 81.4219C39.7913 81.4591 39.7171 81.5133 39.6595 81.5846C39.6018 81.6549 39.5706 81.7399 39.5657 81.8395H39.2141C39.2199 81.6822 39.2673 81.5445 39.3562 81.4263C39.4451 81.3072 39.5613 81.2144 39.7049 81.148C39.8494 81.0816 40.0081 81.0483 40.181 81.0483C40.3666 81.0483 40.5258 81.0859 40.6586 81.1612C40.7915 81.2354 40.8935 81.3335 40.9648 81.4556C41.0361 81.5777 41.0718 81.7096 41.0718 81.8512C41.0718 82.0202 41.0273 82.1642 40.9385 82.2834C40.8506 82.4026 40.7309 82.4851 40.5795 82.531V82.5544C40.769 82.5857 40.917 82.6663 41.0234 82.7962C41.1299 82.9251 41.1831 83.0848 41.1831 83.2753C41.1831 83.4384 41.1387 83.5849 41.0498 83.7148C40.9619 83.8437 40.8418 83.9453 40.6894 84.0195C40.537 84.0938 40.3637 84.1309 40.1693 84.1309ZM41.712 83.4745V83.1756L43.0306 81.0894H43.2474V81.5523H43.1009L42.1047 83.1288V83.1522H43.8803V83.4745H41.712ZM43.1244 84.0898V83.3837V83.2445V81.0894H43.4701V84.0898H43.1244ZM46.5274 84.1309C46.3555 84.1309 46.2007 84.0967 46.0629 84.0283C45.9252 83.9599 45.8148 83.8662 45.7318 83.747C45.6488 83.6279 45.6034 83.4921 45.5956 83.3397H45.9472C45.9609 83.4755 46.0224 83.5878 46.1318 83.6767C46.2422 83.7646 46.374 83.8085 46.5274 83.8085C46.6504 83.8085 46.7598 83.7797 46.8555 83.7221C46.9522 83.6645 47.0279 83.5854 47.0826 83.4848C47.1383 83.3832 47.1661 83.2684 47.1661 83.1405C47.1661 83.0096 47.1373 82.8929 47.0797 82.7903C47.023 82.6868 46.9449 82.6052 46.8453 82.5457C46.7457 82.4861 46.6319 82.4558 46.5039 82.4548C46.4121 82.4538 46.3179 82.468 46.2212 82.4973C46.1245 82.5256 46.0449 82.5623 45.9824 82.6072L45.6425 82.5662L45.8241 81.0894H47.383V81.4117H46.1289L46.0234 82.2966H46.041C46.1025 82.2478 46.1797 82.2072 46.2724 82.175C46.3652 82.1428 46.4619 82.1266 46.5625 82.1266C46.7461 82.1266 46.9097 82.1706 47.0533 82.2585C47.1979 82.3454 47.3112 82.4646 47.3932 82.616C47.4762 82.7674 47.5178 82.9402 47.5178 83.1346C47.5178 83.3261 47.4748 83.497 47.3888 83.6474C47.3039 83.7968 47.1866 83.915 47.0372 84.0019C46.8878 84.0879 46.7178 84.1309 46.5274 84.1309ZM49.096 84.1309C48.9729 84.1289 48.8499 84.1055 48.7268 84.0605C48.6037 84.0156 48.4914 83.9399 48.3898 83.8335C48.2883 83.726 48.2067 83.581 48.1452 83.3983C48.0836 83.2147 48.0529 82.9842 48.0529 82.7068C48.0529 82.4411 48.0778 82.2058 48.1276 82.0006C48.1774 81.7946 48.2497 81.6212 48.3444 81.4805C48.4392 81.3389 48.5534 81.2315 48.6873 81.1582C48.822 81.085 48.9739 81.0483 49.1429 81.0483C49.3109 81.0483 49.4603 81.082 49.5912 81.1494C49.7231 81.2159 49.8305 81.3086 49.9135 81.4278C49.9965 81.547 50.0503 81.6842 50.0747 81.8395H49.7172C49.684 81.7047 49.6195 81.5929 49.5238 81.504C49.4281 81.4151 49.3011 81.3707 49.1429 81.3707C48.9104 81.3707 48.7273 81.4718 48.5935 81.6739C48.4607 81.8761 48.3938 82.1598 48.3928 82.5251H48.4162C48.4709 82.4421 48.5359 82.3713 48.6111 82.3127C48.6873 82.2531 48.7713 82.2072 48.8631 82.175C48.9549 82.1428 49.0521 82.1266 49.1546 82.1266C49.3265 82.1266 49.4838 82.1696 49.6264 82.2556C49.769 82.3405 49.8832 82.4582 49.9692 82.6087C50.0551 82.7581 50.0981 82.9295 50.0981 83.1229C50.0981 83.3085 50.0566 83.4784 49.9736 83.6327C49.8906 83.7861 49.7739 83.9082 49.6234 83.999C49.474 84.0889 49.2982 84.1328 49.096 84.1309ZM49.096 83.8085C49.2191 83.8085 49.3294 83.7778 49.4271 83.7162C49.5258 83.6547 49.6034 83.5722 49.6601 83.4687C49.7177 83.3651 49.7465 83.2499 49.7465 83.1229C49.7465 82.9988 49.7187 82.886 49.663 82.7845C49.6083 82.6819 49.5326 82.6003 49.4359 82.5398C49.3402 82.4792 49.2308 82.449 49.1077 82.449C49.0149 82.449 48.9285 82.4675 48.8484 82.5046C48.7683 82.5408 48.698 82.5906 48.6374 82.6541C48.5779 82.7176 48.531 82.7903 48.4968 82.8724C48.4626 82.9534 48.4455 83.0389 48.4455 83.1288C48.4455 83.2479 48.4734 83.3593 48.529 83.4628C48.5857 83.5663 48.6628 83.6498 48.7605 83.7133C48.8592 83.7768 48.971 83.8085 49.096 83.8085ZM50.768 84.0898L52.11 81.4351V81.4117H50.5629V81.0894H52.4851V81.4293L51.1489 84.0898H50.768ZM55.1702 84.1309C54.9495 84.1309 54.7615 84.0708 54.6062 83.9507C54.4509 83.8295 54.3322 83.6542 54.2502 83.4247C54.1681 83.1942 54.1271 82.9158 54.1271 82.5896C54.1271 82.2653 54.1681 81.9884 54.2502 81.7589C54.3332 81.5284 54.4523 81.3526 54.6076 81.2315C54.7639 81.1094 54.9514 81.0483 55.1702 81.0483C55.389 81.0483 55.576 81.1094 55.7313 81.2315C55.8876 81.3526 56.0068 81.5284 56.0888 81.7589C56.1718 81.9884 56.2134 82.2653 56.2134 82.5896C56.2134 82.9158 56.1723 83.1942 56.0903 83.4247C56.0082 83.6542 55.8896 83.8295 55.7343 83.9507C55.579 84.0708 55.391 84.1309 55.1702 84.1309ZM55.1702 83.8085C55.389 83.8085 55.559 83.7031 55.6801 83.4921C55.8012 83.2811 55.8617 82.9803 55.8617 82.5896C55.8617 82.3298 55.8339 82.1086 55.7782 81.9259C55.7235 81.7433 55.6444 81.6041 55.5409 81.5084C55.4383 81.4127 55.3148 81.3648 55.1702 81.3648C54.9534 81.3648 54.7839 81.4718 54.6618 81.6857C54.5397 81.8986 54.4787 82.1999 54.4787 82.5896C54.4787 82.8494 54.5061 83.0702 54.5607 83.2518C54.6154 83.4335 54.6941 83.5717 54.7966 83.6664C54.9002 83.7612 55.0247 83.8085 55.1702 83.8085ZM57.7488 84.1309C57.528 84.1309 57.34 84.0708 57.1847 83.9507C57.0294 83.8295 56.9107 83.6542 56.8287 83.4247C56.7466 83.1942 56.7056 82.9158 56.7056 82.5896C56.7056 82.2653 56.7466 81.9884 56.8287 81.7589C56.9117 81.5284 57.0309 81.3526 57.1862 81.2315C57.3424 81.1094 57.53 81.0483 57.7488 81.0483C57.9675 81.0483 58.1546 81.1094 58.3099 81.2315C58.4662 81.3526 58.5853 81.5284 58.6674 81.7589C58.7504 81.9884 58.7919 82.2653 58.7919 82.5896C58.7919 82.9158 58.7509 83.1942 58.6688 83.4247C58.5868 83.6542 58.4681 83.8295 58.3128 83.9507C58.1575 84.0708 57.9695 84.1309 57.7488 84.1309ZM57.7488 83.8085C57.9675 83.8085 58.1375 83.7031 58.2586 83.4921C58.3797 83.2811 58.4403 82.9803 58.4403 82.5896C58.4403 82.3298 58.4124 82.1086 58.3568 81.9259C58.3021 81.7433 58.223 81.6041 58.1194 81.5084C58.0169 81.4127 57.8933 81.3648 57.7488 81.3648C57.5319 81.3648 57.3625 81.4718 57.2404 81.6857C57.1183 81.8986 57.0572 82.1999 57.0572 82.5896C57.0572 82.8494 57.0846 83.0702 57.1393 83.2518C57.194 83.4335 57.2726 83.5717 57.3752 83.6664C57.4787 83.7612 57.6032 83.8085 57.7488 83.8085ZM60.3273 84.1309C60.1066 84.1309 59.9185 84.0708 59.7632 83.9507C59.6079 83.8295 59.4893 83.6542 59.4072 83.4247C59.3252 83.1942 59.2842 82.9158 59.2842 82.5896C59.2842 82.2653 59.3252 81.9884 59.4072 81.7589C59.4902 81.5284 59.6094 81.3526 59.7647 81.2315C59.921 81.1094 60.1085 81.0483 60.3273 81.0483C60.5461 81.0483 60.7331 81.1094 60.8884 81.2315C61.0447 81.3526 61.1638 81.5284 61.2459 81.7589C61.3289 81.9884 61.3704 82.2653 61.3704 82.5896C61.3704 82.9158 61.3294 83.1942 61.2474 83.4247C61.1653 83.6542 61.0466 83.8295 60.8913 83.9507C60.736 84.0708 60.548 84.1309 60.3273 84.1309ZM60.3273 83.8085C60.5461 83.8085 60.716 83.7031 60.8371 83.4921C60.9582 83.2811 61.0188 82.9803 61.0188 82.5896C61.0188 82.3298 60.991 82.1086 60.9353 81.9259C60.8806 81.7433 60.8015 81.6041 60.698 81.5084C60.5954 81.4127 60.4718 81.3648 60.3273 81.3648C60.1105 81.3648 59.941 81.4718 59.8189 81.6857C59.6968 81.8986 59.6358 82.1999 59.6358 82.5896C59.6358 82.8494 59.6631 83.0702 59.7178 83.2518C59.7725 83.4335 59.8511 83.5717 59.9537 83.6664C60.0572 83.7612 60.1818 83.8085 60.3273 83.8085Z" fill="white"/>
<path d="M28.334 91.6978H28.7677L29.7874 94.1884H29.8226L30.8423 91.6978H31.2759V94.6982H30.936V92.4186H30.9067L29.9691 94.6982H29.6409L28.7032 92.4186H28.6739V94.6982H28.334V91.6978ZM32.6198 94.751C32.4772 94.751 32.3477 94.7241 32.2315 94.6704C32.1153 94.6157 32.023 94.5371 31.9546 94.4345C31.8862 94.331 31.8521 94.206 31.8521 94.0595C31.8521 93.9305 31.8775 93.826 31.9282 93.7459C31.979 93.6649 32.0469 93.6014 32.1319 93.5555C32.2169 93.5096 32.3106 93.4754 32.4132 93.4529C32.5167 93.4295 32.6207 93.4109 32.7252 93.3973C32.862 93.3797 32.9728 93.3665 33.0578 93.3577C33.1438 93.3479 33.2063 93.3318 33.2453 93.3093C33.2854 93.2869 33.3054 93.2478 33.3054 93.1921V93.1804C33.3054 93.0359 33.2659 92.9235 33.1867 92.8435C33.1086 92.7634 32.9899 92.7233 32.8307 92.7233C32.6657 92.7233 32.5362 92.7595 32.4425 92.8317C32.3487 92.904 32.2828 92.9812 32.2447 93.0632L31.9165 92.946C31.9751 92.8093 32.0533 92.7028 32.1509 92.6266C32.2496 92.5495 32.357 92.4957 32.4733 92.4655C32.5905 92.4342 32.7057 92.4186 32.819 92.4186C32.8913 92.4186 32.9743 92.4274 33.0681 92.445C33.1628 92.4616 33.2541 92.4962 33.342 92.549C33.4309 92.6017 33.5047 92.6813 33.5633 92.7878C33.6219 92.8942 33.6512 93.0368 33.6512 93.2156V94.6982H33.3054V94.3935H33.2878C33.2644 94.4423 33.2253 94.4946 33.1706 94.5503C33.1159 94.6059 33.0432 94.6533 32.9523 94.6924C32.8615 94.7315 32.7506 94.751 32.6198 94.751ZM32.6725 94.4404C32.8092 94.4404 32.9245 94.4135 33.0183 94.3598C33.113 94.3061 33.1843 94.2367 33.2322 94.1518C33.281 94.0668 33.3054 93.9774 33.3054 93.8837V93.5672C33.2908 93.5848 33.2585 93.6009 33.2087 93.6156C33.1599 93.6292 33.1032 93.6414 33.0388 93.6522C32.9753 93.6619 32.9133 93.6707 32.8527 93.6785C32.7931 93.6854 32.7448 93.6912 32.7077 93.6961C32.6178 93.7079 32.5338 93.7269 32.4557 93.7533C32.3785 93.7787 32.316 93.8172 32.2681 93.869C32.2213 93.9198 32.1978 93.9891 32.1978 94.077C32.1978 94.1972 32.2423 94.288 32.3311 94.3496C32.421 94.4101 32.5348 94.4404 32.6725 94.4404ZM34.2823 94.6982V92.4479H34.628V94.6982H34.2823ZM34.4581 92.0728C34.3907 92.0728 34.3326 92.0499 34.2837 92.004C34.2359 91.9581 34.2119 91.9029 34.2119 91.8384C34.2119 91.7739 34.2359 91.7188 34.2837 91.6729C34.3326 91.627 34.3907 91.604 34.4581 91.604C34.5255 91.604 34.5831 91.627 34.6309 91.6729C34.6798 91.7188 34.7042 91.7739 34.7042 91.8384C34.7042 91.9029 34.6798 91.9581 34.6309 92.004C34.5831 92.0499 34.5255 92.0728 34.4581 92.0728ZM35.607 93.3445V94.6982H35.2613V92.4479H35.5953V92.7995H35.6246C35.6774 92.6852 35.7575 92.5934 35.8649 92.5241C35.9723 92.4537 36.111 92.4186 36.281 92.4186C36.4334 92.4186 36.5667 92.4498 36.681 92.5123C36.7952 92.5739 36.8841 92.6676 36.9476 92.7936C37.0111 92.9187 37.0428 93.0769 37.0428 93.2683V94.6982H36.6971V93.2918C36.6971 93.115 36.6512 92.9773 36.5593 92.8786C36.4675 92.779 36.3415 92.7292 36.1814 92.7292C36.071 92.7292 35.9723 92.7531 35.8854 92.801C35.7995 92.8488 35.7316 92.9187 35.6818 93.0105C35.632 93.1023 35.607 93.2136 35.607 93.3445ZM40.5227 92.4479C40.5052 92.2994 40.4339 92.1842 40.3088 92.1021C40.1838 92.0201 40.0305 91.9791 39.8488 91.9791C39.716 91.9791 39.5997 92.0005 39.5001 92.0435C39.4015 92.0865 39.3243 92.1456 39.2686 92.2208C39.2139 92.296 39.1866 92.3815 39.1866 92.4772C39.1866 92.5573 39.2056 92.6261 39.2437 92.6838C39.2828 92.7404 39.3326 92.7878 39.3932 92.8259C39.4537 92.863 39.5172 92.8938 39.5836 92.9182C39.6501 92.9416 39.7111 92.9607 39.7668 92.9753L40.0715 93.0574C40.1496 93.0779 40.2366 93.1062 40.3323 93.1423C40.429 93.1785 40.5213 93.2278 40.6092 93.2903C40.6981 93.3518 40.7713 93.431 40.8289 93.5276C40.8866 93.6243 40.9154 93.743 40.9154 93.8837C40.9154 94.0458 40.8729 94.1923 40.7879 94.3232C40.7039 94.4541 40.5809 94.5581 40.4187 94.6352C40.2576 94.7124 40.0617 94.751 39.8312 94.751C39.6164 94.751 39.4303 94.7163 39.273 94.647C39.1168 94.5776 38.9937 94.4809 38.9038 94.3569C38.815 94.2328 38.7647 94.0888 38.7529 93.9247H39.128C39.1378 94.038 39.1759 94.1317 39.2423 94.206C39.3097 94.2792 39.3946 94.3339 39.4972 94.3701C39.6007 94.4052 39.7121 94.4228 39.8312 94.4228C39.9699 94.4228 40.0945 94.4003 40.2048 94.3554C40.3152 94.3095 40.4026 94.246 40.4671 94.165C40.5315 94.0829 40.5638 93.9872 40.5638 93.8778C40.5638 93.7782 40.5359 93.6971 40.4803 93.6346C40.4246 93.5721 40.3513 93.5213 40.2605 93.4822C40.1697 93.4432 40.0715 93.409 39.966 93.3797L39.5968 93.2742C39.3624 93.2068 39.1768 93.1106 39.0401 92.9856C38.9034 92.8605 38.835 92.6969 38.835 92.4948C38.835 92.3268 38.8804 92.1803 38.9712 92.0552C39.063 91.9292 39.1861 91.8316 39.3404 91.7622C39.4957 91.6919 39.6691 91.6567 39.8605 91.6567C40.0539 91.6567 40.2258 91.6914 40.3762 91.7608C40.5267 91.8291 40.6458 91.9229 40.7337 92.0421C40.8226 92.1612 40.8695 92.2965 40.8744 92.4479H40.5227ZM42.4446 92.4479V92.7409H41.2784V92.4479H42.4446ZM41.6183 91.9087H41.964V94.0536C41.964 94.1513 41.9782 94.2245 42.0065 94.2734C42.0358 94.3212 42.0729 94.3535 42.1179 94.3701C42.1638 94.3857 42.2121 94.3935 42.2629 94.3935C42.301 94.3935 42.3322 94.3916 42.3567 94.3876C42.3811 94.3828 42.4006 94.3789 42.4153 94.3759L42.4856 94.6865C42.4621 94.6953 42.4294 94.7041 42.3874 94.7129C42.3454 94.7227 42.2922 94.7275 42.2277 94.7275C42.1301 94.7275 42.0343 94.7065 41.9406 94.6645C41.8478 94.6225 41.7706 94.5586 41.7091 94.4726C41.6485 94.3867 41.6183 94.2783 41.6183 94.1474V91.9087ZM42.9647 94.6982V92.4479H43.2987V92.7878H43.3221C43.3632 92.6764 43.4374 92.5861 43.5448 92.5167C43.6523 92.4474 43.7734 92.4127 43.9082 92.4127C43.9336 92.4127 43.9653 92.4132 44.0034 92.4142C44.0415 92.4152 44.0703 92.4166 44.0898 92.4186V92.7702C44.0781 92.7673 44.0513 92.7629 44.0093 92.757C43.9682 92.7502 43.9248 92.7468 43.8789 92.7468C43.7695 92.7468 43.6718 92.7697 43.5859 92.8156C43.5009 92.8605 43.4335 92.9231 43.3837 93.0031C43.3348 93.0823 43.3104 93.1726 43.3104 93.2742V94.6982H42.9647ZM45.3747 94.7451C45.1579 94.7451 44.9708 94.6973 44.8136 94.6015C44.6573 94.5049 44.5367 94.3701 44.4517 94.1972C44.3677 94.0233 44.3257 93.8211 44.3257 93.5906C44.3257 93.3601 44.3677 93.157 44.4517 92.9812C44.5367 92.8044 44.6549 92.6667 44.8063 92.568C44.9586 92.4684 45.1364 92.4186 45.3396 92.4186C45.4568 92.4186 45.5725 92.4381 45.6868 92.4772C45.8011 92.5163 45.9051 92.5797 45.9988 92.6676C46.0926 92.7546 46.1673 92.8698 46.223 93.0134C46.2787 93.157 46.3065 93.3338 46.3065 93.5438V93.6903H44.5719V93.3914H45.9549C45.9549 93.2644 45.9295 93.1511 45.8787 93.0515C45.8289 92.9519 45.7576 92.8732 45.6648 92.8156C45.573 92.758 45.4646 92.7292 45.3396 92.7292C45.2018 92.7292 45.0827 92.7634 44.9821 92.8317C44.8825 92.8991 44.8058 92.987 44.7521 93.0954C44.6983 93.2039 44.6715 93.3201 44.6715 93.4441V93.6434C44.6715 93.8133 44.7008 93.9574 44.7594 94.0756C44.819 94.1928 44.9015 94.2822 45.007 94.3437C45.1125 94.4043 45.235 94.4345 45.3747 94.4345C45.4656 94.4345 45.5476 94.4218 45.6208 94.3964C45.6951 94.3701 45.7591 94.331 45.8128 94.2792C45.8665 94.2265 45.908 94.161 45.9373 94.0829L46.2713 94.1767C46.2362 94.29 46.1771 94.3896 46.0941 94.4756C46.011 94.5605 45.9085 94.6269 45.7864 94.6748C45.6643 94.7217 45.5271 94.7451 45.3747 94.7451ZM47.776 94.7451C47.5591 94.7451 47.3721 94.6973 47.2149 94.6015C47.0586 94.5049 46.938 94.3701 46.853 94.1972C46.769 94.0233 46.727 93.8211 46.727 93.5906C46.727 93.3601 46.769 93.157 46.853 92.9812C46.938 92.8044 47.0561 92.6667 47.2075 92.568C47.3599 92.4684 47.5377 92.4186 47.7408 92.4186C47.858 92.4186 47.9738 92.4381 48.088 92.4772C48.2023 92.5163 48.3063 92.5797 48.4001 92.6676C48.4939 92.7546 48.5686 92.8698 48.6243 93.0134C48.6799 93.157 48.7078 93.3338 48.7078 93.5438V93.6903H46.9731V93.3914H48.3561C48.3561 93.2644 48.3308 93.1511 48.28 93.0515C48.2302 92.9519 48.1588 92.8732 48.0661 92.8156C47.9743 92.758 47.8658 92.7292 47.7408 92.7292C47.6031 92.7292 47.4839 92.7634 47.3833 92.8317C47.2837 92.8991 47.207 92.987 47.1533 93.0954C47.0996 93.2039 47.0727 93.3201 47.0727 93.4441V93.6434C47.0727 93.8133 47.102 93.9574 47.1606 94.0756C47.2202 94.1928 47.3028 94.2822 47.4082 94.3437C47.5137 94.4043 47.6363 94.4345 47.776 94.4345C47.8668 94.4345 47.9489 94.4218 48.0221 94.3964C48.0963 94.3701 48.1603 94.331 48.214 94.2792C48.2678 94.2265 48.3093 94.161 48.3386 94.0829L48.6726 94.1767C48.6374 94.29 48.5784 94.3896 48.4953 94.4756C48.4123 94.5605 48.3098 94.6269 48.1877 94.6748C48.0656 94.7217 47.9283 94.7451 47.776 94.7451ZM50.2124 92.4479V92.7409H49.0462V92.4479H50.2124ZM49.3861 91.9087H49.7319V94.0536C49.7319 94.1513 49.746 94.2245 49.7743 94.2734C49.8036 94.3212 49.8408 94.3535 49.8857 94.3701C49.9316 94.3857 49.9799 94.3935 50.0307 94.3935C50.0688 94.3935 50.1001 94.3916 50.1245 94.3876C50.1489 94.3828 50.1684 94.3789 50.1831 94.3759L50.2534 94.6865C50.23 94.6953 50.1973 94.7041 50.1553 94.7129C50.1133 94.7227 50.06 94.7275 49.9956 94.7275C49.8979 94.7275 49.8022 94.7065 49.7084 94.6645C49.6156 94.6225 49.5385 94.5586 49.4769 94.4726C49.4164 94.3867 49.3861 94.2783 49.3861 94.1474V91.9087ZM51.2482 94.288L51.2248 94.4462C51.2082 94.5576 51.1828 94.6768 51.1486 94.8037C51.1154 94.9307 51.0807 95.0503 51.0446 95.1627C51.0084 95.275 50.9786 95.3644 50.9552 95.4308H50.6915C50.7042 95.3683 50.7208 95.2857 50.7413 95.1832C50.7618 95.0806 50.7823 94.9659 50.8028 94.8389C50.8243 94.7129 50.8419 94.584 50.8556 94.4521L50.8732 94.288H51.2482ZM55.4753 91.6978V94.6982H55.1237L53.4887 92.3424H53.4594V94.6982H53.096V91.6978H53.4477L55.0885 94.0595H55.1178V91.6978H55.4753ZM57.0697 94.7451C56.8665 94.7451 56.6883 94.6968 56.5349 94.6001C56.3826 94.5034 56.2634 94.3681 56.1775 94.1943C56.0925 94.0204 56.05 93.8172 56.05 93.5848C56.05 93.3504 56.0925 93.1457 56.1775 92.9709C56.2634 92.7961 56.3826 92.6603 56.5349 92.5636C56.6883 92.4669 56.8665 92.4186 57.0697 92.4186C57.2728 92.4186 57.4506 92.4669 57.603 92.5636C57.7563 92.6603 57.8755 92.7961 57.9605 92.9709C58.0464 93.1457 58.0894 93.3504 58.0894 93.5848C58.0894 93.8172 58.0464 94.0204 57.9605 94.1943C57.8755 94.3681 57.7563 94.5034 57.603 94.6001C57.4506 94.6968 57.2728 94.7451 57.0697 94.7451ZM57.0697 94.4345C57.224 94.4345 57.351 94.395 57.4506 94.3159C57.5502 94.2367 57.624 94.1327 57.6718 94.0038C57.7197 93.8749 57.7436 93.7352 57.7436 93.5848C57.7436 93.4344 57.7197 93.2942 57.6718 93.1643C57.624 93.0344 57.5502 92.9294 57.4506 92.8493C57.351 92.7692 57.224 92.7292 57.0697 92.7292C56.9154 92.7292 56.7884 92.7692 56.6888 92.8493C56.5891 92.9294 56.5154 93.0344 56.4675 93.1643C56.4197 93.2942 56.3958 93.4344 56.3958 93.5848C56.3958 93.7352 56.4197 93.8749 56.4675 94.0038C56.5154 94.1327 56.5891 94.2367 56.6888 94.3159C56.7884 94.395 56.9154 94.4345 57.0697 94.4345ZM58.6172 94.6982V92.4479H58.9512V92.7878H58.9747C59.0157 92.6764 59.0899 92.5861 59.1973 92.5167C59.3048 92.4474 59.4259 92.4127 59.5607 92.4127C59.5861 92.4127 59.6178 92.4132 59.6559 92.4142C59.694 92.4152 59.7228 92.4166 59.7424 92.4186V92.7702C59.7306 92.7673 59.7038 92.7629 59.6618 92.757C59.6208 92.7502 59.5773 92.7468 59.5314 92.7468C59.422 92.7468 59.3243 92.7697 59.2384 92.8156C59.1534 92.8605 59.086 92.9231 59.0362 93.0031C58.9874 93.0823 58.9629 93.1726 58.9629 93.2742V94.6982H58.6172ZM61.2719 92.4479V92.7409H60.1057V92.4479H61.2719ZM60.4456 91.9087H60.7914V94.0536C60.7914 94.1513 60.8055 94.2245 60.8338 94.2734C60.8631 94.3212 60.9003 94.3535 60.9452 94.3701C60.9911 94.3857 61.0394 94.3935 61.0902 94.3935C61.1283 94.3935 61.1596 94.3916 61.184 94.3876C61.2084 94.3828 61.2279 94.3789 61.2426 94.3759L61.3129 94.6865C61.2895 94.6953 61.2568 94.7041 61.2148 94.7129C61.1728 94.7227 61.1195 94.7275 61.0551 94.7275C60.9574 94.7275 60.8617 94.7065 60.7679 94.6645C60.6751 94.6225 60.598 94.5586 60.5364 94.4726C60.4759 94.3867 60.4456 94.2783 60.4456 94.1474V91.9087ZM62.1861 93.3445V94.6982H61.8403V91.6978H62.1861V92.7995H62.2154C62.2682 92.6833 62.3473 92.591 62.4528 92.5226C62.5592 92.4533 62.7008 92.4186 62.8776 92.4186C63.031 92.4186 63.1653 92.4493 63.2805 92.5109C63.3958 92.5714 63.4851 92.6647 63.5486 92.7907C63.6131 92.9157 63.6453 93.0749 63.6453 93.2683V94.6982H63.2996V93.2918C63.2996 93.113 63.2532 92.9748 63.1604 92.8772C63.0686 92.7785 62.9411 92.7292 62.778 92.7292C62.6647 92.7292 62.5631 92.7531 62.4733 92.801C62.3844 92.8488 62.3141 92.9187 62.2623 93.0105C62.2115 93.1023 62.1861 93.2136 62.1861 93.3445ZM65.4851 94.6982V91.6978H66.4989C66.7343 91.6978 66.9267 91.7403 67.0762 91.8252C67.2266 91.9092 67.3379 92.023 67.4102 92.1666C67.4825 92.3102 67.5186 92.4703 67.5186 92.6471C67.5186 92.8239 67.4825 92.9846 67.4102 93.1291C67.3389 93.2737 67.2285 93.389 67.0791 93.4749C66.9297 93.5599 66.7382 93.6024 66.5048 93.6024H65.7781V93.28H66.4931C66.6542 93.28 66.7836 93.2522 66.8813 93.1965C66.979 93.1409 67.0498 93.0657 67.0937 92.9709C67.1387 92.8752 67.1611 92.7673 67.1611 92.6471C67.1611 92.527 67.1387 92.4196 67.0937 92.3248C67.0498 92.2301 66.9785 92.1558 66.8798 92.1021C66.7812 92.0474 66.6503 92.0201 66.4872 92.0201H65.8484V94.6982H65.4851ZM68.7192 94.751C68.5766 94.751 68.4472 94.7241 68.331 94.6704C68.2148 94.6157 68.1225 94.5371 68.0541 94.4345C67.9857 94.331 67.9515 94.206 67.9515 94.0595C67.9515 93.9305 67.9769 93.826 68.0277 93.7459C68.0785 93.6649 68.1464 93.6014 68.2314 93.5555C68.3164 93.5096 68.4101 93.4754 68.5127 93.4529C68.6162 93.4295 68.7202 93.4109 68.8247 93.3973C68.9615 93.3797 69.0723 93.3665 69.1573 93.3577C69.2433 93.3479 69.3058 93.3318 69.3448 93.3093C69.3849 93.2869 69.4049 93.2478 69.4049 93.1921V93.1804C69.4049 93.0359 69.3653 92.9235 69.2862 92.8435C69.2081 92.7634 69.0894 92.7233 68.9302 92.7233C68.7652 92.7233 68.6357 92.7595 68.542 92.8317C68.4482 92.904 68.3823 92.9812 68.3442 93.0632L68.016 92.946C68.0746 92.8093 68.1528 92.7028 68.2504 92.6266C68.3491 92.5495 68.4565 92.4957 68.5727 92.4655C68.6899 92.4342 68.8052 92.4186 68.9185 92.4186C68.9908 92.4186 69.0738 92.4274 69.1676 92.445C69.2623 92.4616 69.3536 92.4962 69.4415 92.549C69.5304 92.6017 69.6042 92.6813 69.6628 92.7878C69.7214 92.8942 69.7507 93.0368 69.7507 93.2156V94.6982H69.4049V94.3935H69.3873C69.3639 94.4423 69.3248 94.4946 69.2701 94.5503C69.2154 94.6059 69.1427 94.6533 69.0518 94.6924C68.961 94.7315 68.8501 94.751 68.7192 94.751ZM68.772 94.4404C68.9087 94.4404 69.024 94.4135 69.1177 94.3598C69.2125 94.3061 69.2838 94.2367 69.3317 94.1518C69.3805 94.0668 69.4049 93.9774 69.4049 93.8837V93.5672C69.3903 93.5848 69.358 93.6009 69.3082 93.6156C69.2594 93.6292 69.2027 93.6414 69.1383 93.6522C69.0748 93.6619 69.0128 93.6707 68.9522 93.6785C68.8926 93.6854 68.8443 93.6912 68.8072 93.6961C68.7173 93.7079 68.6333 93.7269 68.5552 93.7533C68.478 93.7787 68.4155 93.8172 68.3676 93.869C68.3207 93.9198 68.2973 93.9891 68.2973 94.077C68.2973 94.1972 68.3417 94.288 68.4306 94.3496C68.5205 94.4101 68.6343 94.4404 68.772 94.4404ZM70.3817 94.6982V92.4479H70.7158V92.7878H70.7392C70.7802 92.6764 70.8545 92.5861 70.9619 92.5167C71.0694 92.4474 71.1905 92.4127 71.3253 92.4127C71.3506 92.4127 71.3824 92.4132 71.4205 92.4142C71.4586 92.4152 71.4874 92.4166 71.5069 92.4186V92.7702C71.4952 92.7673 71.4683 92.7629 71.4263 92.757C71.3853 92.7502 71.3419 92.7468 71.296 92.7468C71.1866 92.7468 71.0889 92.7697 71.0029 92.8156C70.918 92.8605 70.8506 92.9231 70.8008 93.0031C70.7519 93.0823 70.7275 93.1726 70.7275 93.2742V94.6982H70.3817ZM72.2391 93.8778L72.2332 93.45H72.3036L73.2881 92.4479H73.7159L72.6669 93.5086H72.6376L72.2391 93.8778ZM71.9168 94.6982V91.6978H72.2625V94.6982H71.9168ZM73.3467 94.6982L72.4676 93.5848L72.7138 93.3445L73.7862 94.6982H73.3467ZM76.3702 91.6978V94.6982H76.0069V92.0787H75.9893L75.2568 92.5651V92.1959L76.0069 91.6978H76.3702ZM77.2332 94.6982V94.4345L78.2236 93.3504C78.3398 93.2234 78.4355 93.113 78.5107 93.0193C78.5859 92.9245 78.6416 92.8356 78.6777 92.7526C78.7149 92.6686 78.7334 92.5807 78.7334 92.4889C78.7334 92.3834 78.708 92.2921 78.6572 92.2149C78.6074 92.1378 78.539 92.0782 78.4521 92.0362C78.3652 91.9942 78.2675 91.9732 78.1591 91.9732C78.0439 91.9732 77.9433 91.9971 77.8573 92.045C77.7723 92.0919 77.7064 92.1578 77.6595 92.2428C77.6136 92.3277 77.5907 92.4274 77.5907 92.5416H77.2449C77.2449 92.3658 77.2854 92.2115 77.3665 92.0787C77.4476 91.9459 77.5579 91.8423 77.6976 91.7681C77.8383 91.6939 77.996 91.6567 78.1708 91.6567C78.3466 91.6567 78.5024 91.6939 78.6382 91.7681C78.7739 91.8423 78.8804 91.9424 78.9576 92.0684C79.0347 92.1944 79.0733 92.3346 79.0733 92.4889C79.0733 92.5993 79.0533 92.7072 79.0132 92.8127C78.9742 92.9172 78.9058 93.0339 78.8081 93.1628C78.7114 93.2908 78.5771 93.4471 78.4052 93.6317L77.7313 94.3525V94.3759H79.1261V94.6982H77.2332ZM80.745 94.7393C80.5516 94.7393 80.3792 94.7061 80.2278 94.6396C80.0774 94.5732 79.9577 94.4809 79.8688 94.3627C79.7809 94.2436 79.7331 94.1054 79.7253 93.9481H80.0945C80.1023 94.0448 80.1355 94.1283 80.1941 94.1987C80.2527 94.268 80.3294 94.3217 80.4241 94.3598C80.5189 94.3979 80.6239 94.4169 80.7391 94.4169C80.868 94.4169 80.9823 94.3945 81.0819 94.3496C81.1816 94.3046 81.2597 94.2421 81.3163 94.162C81.373 94.0819 81.4013 93.9891 81.4013 93.8837C81.4013 93.7733 81.374 93.6761 81.3193 93.5921C81.2646 93.5071 81.1845 93.4407 81.079 93.3929C80.9735 93.345 80.8446 93.3211 80.6922 93.3211H80.452V92.9988H80.6922C80.8114 92.9988 80.9159 92.9773 81.0057 92.9343C81.0966 92.8913 81.1674 92.8308 81.2182 92.7526C81.27 92.6745 81.2958 92.5827 81.2958 92.4772C81.2958 92.3756 81.2734 92.2872 81.2284 92.212C81.1835 92.1368 81.12 92.0782 81.038 92.0362C80.9569 91.9942 80.8612 91.9732 80.7508 91.9732C80.6473 91.9732 80.5496 91.9922 80.4578 92.0303C80.367 92.0675 80.2927 92.1217 80.2351 92.193C80.1775 92.2633 80.1462 92.3483 80.1414 92.4479H79.7897C79.7956 92.2906 79.843 92.1529 79.9318 92.0347C80.0207 91.9156 80.137 91.8228 80.2805 91.7564C80.4251 91.69 80.5838 91.6567 80.7567 91.6567C80.9423 91.6567 81.1015 91.6943 81.2343 91.7696C81.3671 91.8438 81.4692 91.9419 81.5405 92.064C81.6118 92.1861 81.6475 92.318 81.6475 92.4596C81.6475 92.6286 81.603 92.7726 81.5141 92.8918C81.4262 93.011 81.3066 93.0935 81.1552 93.1394V93.1628C81.3447 93.1941 81.4926 93.2747 81.5991 93.4046C81.7056 93.5335 81.7588 93.6932 81.7588 93.8837C81.7588 94.0468 81.7144 94.1933 81.6255 94.3232C81.5376 94.4521 81.4174 94.5537 81.2651 94.6279C81.1127 94.7021 80.9393 94.7393 80.745 94.7393ZM82.7869 94.288L82.7635 94.4462C82.7469 94.5576 82.7215 94.6768 82.6873 94.8037C82.6541 94.9307 82.6194 95.0503 82.5833 95.1627C82.5471 95.275 82.5173 95.3644 82.4939 95.4308H82.2302C82.2429 95.3683 82.2595 95.2857 82.28 95.1832C82.3005 95.0806 82.321 94.9659 82.3415 94.8389C82.363 94.7129 82.3806 94.584 82.3943 94.4521L82.4119 94.288H82.7869ZM85.6369 91.6978V94.6982H85.2735V92.0787H85.2559L84.5234 92.5651V92.1959L85.2735 91.6978H85.6369ZM86.4998 94.6982V94.4345L87.4902 93.3504C87.6064 93.2234 87.7021 93.113 87.7773 93.0193C87.8525 92.9245 87.9082 92.8356 87.9444 92.7526C87.9815 92.6686 88 92.5807 88 92.4889C88 92.3834 87.9746 92.2921 87.9238 92.2149C87.874 92.1378 87.8057 92.0782 87.7187 92.0362C87.6318 91.9942 87.5341 91.9732 87.4257 91.9732C87.3105 91.9732 87.2099 91.9971 87.1239 92.045C87.0389 92.0919 86.973 92.1578 86.9261 92.2428C86.8802 92.3277 86.8573 92.4274 86.8573 92.5416H86.5115C86.5115 92.3658 86.552 92.2115 86.6331 92.0787C86.7142 91.9459 86.8245 91.8423 86.9642 91.7681C87.1049 91.6939 87.2626 91.6567 87.4374 91.6567C87.6132 91.6567 87.769 91.6939 87.9048 91.7681C88.0406 91.8423 88.147 91.9424 88.2242 92.0684C88.3013 92.1944 88.3399 92.3346 88.3399 92.4889C88.3399 92.5993 88.3199 92.7072 88.2799 92.8127C88.2408 92.9172 88.1724 93.0339 88.0747 93.1628C87.978 93.2908 87.8437 93.4471 87.6718 93.6317L86.9979 94.3525V94.3759H88.3927V94.6982H86.4998ZM89.0505 94.6982V91.6978H90.8496V92.0201H89.4138V93.0339H90.7148V93.3562H89.4138V94.6982H89.0505ZM95.1639 93.198C95.1639 93.5145 95.1067 93.7879 94.9925 94.0184C94.8782 94.249 94.7214 94.4267 94.5222 94.5517C94.3229 94.6768 94.0954 94.7393 93.8395 94.7393C93.5836 94.7393 93.356 94.6768 93.1567 94.5517C92.9575 94.4267 92.8007 94.249 92.6864 94.0184C92.5722 93.7879 92.515 93.5145 92.515 93.198C92.515 92.8815 92.5722 92.6081 92.6864 92.3776C92.8007 92.1471 92.9575 91.9693 93.1567 91.8443C93.356 91.7193 93.5836 91.6567 93.8395 91.6567C94.0954 91.6567 94.3229 91.7193 94.5222 91.8443C94.7214 91.9693 94.8782 92.1471 94.9925 92.3776C95.1067 92.6081 95.1639 92.8815 95.1639 93.198ZM94.8123 93.198C94.8123 92.9382 94.7688 92.7189 94.6819 92.5402C94.5959 92.3614 94.4792 92.2262 94.3317 92.1344C94.1852 92.0425 94.0211 91.9966 93.8395 91.9966C93.6578 91.9966 93.4932 92.0425 93.3457 92.1344C93.1992 92.2262 93.0825 92.3614 92.9956 92.5402C92.9096 92.7189 92.8666 92.9382 92.8666 93.198C92.8666 93.4578 92.9096 93.6771 92.9956 93.8558C93.0825 94.0346 93.1992 94.1698 93.3457 94.2616C93.4932 94.3535 93.6578 94.3994 93.8395 94.3994C94.0211 94.3994 94.1852 94.3535 94.3317 94.2616C94.4792 94.1698 94.5959 94.0346 94.6819 93.8558C94.7688 93.6771 94.8123 93.4578 94.8123 93.198ZM95.7279 94.6982V92.4479H96.062V92.7878H96.0854C96.1264 92.6764 96.2007 92.5861 96.3081 92.5167C96.4155 92.4474 96.5367 92.4127 96.6714 92.4127C96.6968 92.4127 96.7286 92.4132 96.7667 92.4142C96.8048 92.4152 96.8336 92.4166 96.8531 92.4186V92.7702C96.8414 92.7673 96.8145 92.7629 96.7725 92.757C96.7315 92.7502 96.6881 92.7468 96.6421 92.7468C96.5328 92.7468 96.4351 92.7697 96.3491 92.8156C96.2642 92.8605 96.1968 92.9231 96.147 93.0031C96.0981 93.0823 96.0737 93.1726 96.0737 93.2742V94.6982H95.7279ZM98.1087 94.7451C97.8977 94.7451 97.716 94.6953 97.5637 94.5957C97.4113 94.4961 97.2941 94.3588 97.2121 94.184C97.13 94.0092 97.089 93.8094 97.089 93.5848C97.089 93.3562 97.131 93.1545 97.215 92.9797C97.3 92.8039 97.4181 92.6667 97.5695 92.568C97.7219 92.4684 97.8997 92.4186 98.1028 92.4186C98.2611 92.4186 98.4037 92.4479 98.5306 92.5065C98.6576 92.5651 98.7616 92.6471 98.8427 92.7526C98.9238 92.8581 98.9741 92.9812 98.9936 93.1218H98.6478C98.6215 93.0193 98.5629 92.9284 98.472 92.8493C98.3822 92.7692 98.2611 92.7292 98.1087 92.7292C97.9739 92.7292 97.8557 92.7643 97.7541 92.8347C97.6535 92.904 97.5749 93.0022 97.5183 93.1291C97.4626 93.2551 97.4348 93.4031 97.4348 93.5731C97.4348 93.7469 97.4621 93.8983 97.5168 94.0272C97.5725 94.1562 97.6506 94.2563 97.7512 94.3276C97.8528 94.3989 97.9719 94.4345 98.1087 94.4345C98.1985 94.4345 98.2801 94.4189 98.3534 94.3876C98.4266 94.3564 98.4886 94.3115 98.5394 94.2529C98.5902 94.1943 98.6263 94.1239 98.6478 94.0419H98.9936C98.9741 94.1747 98.9257 94.2944 98.8485 94.4008C98.7724 94.5063 98.6713 94.5903 98.5453 94.6528C98.4203 94.7144 98.2747 94.7451 98.1087 94.7451ZM99.8448 93.3445V94.6982H99.499V91.6978H99.8448V92.7995H99.8741C99.9268 92.6833 100.006 92.591 100.111 92.5226C100.218 92.4533 100.36 92.4186 100.536 92.4186C100.69 92.4186 100.824 92.4493 100.939 92.5109C101.054 92.5714 101.144 92.6647 101.207 92.7907C101.272 92.9157 101.304 93.0749 101.304 93.2683V94.6982H100.958V93.2918C100.958 93.113 100.912 92.9748 100.819 92.8772C100.727 92.7785 100.6 92.7292 100.437 92.7292C100.323 92.7292 100.222 92.7531 100.132 92.801C100.043 92.8488 99.9728 92.9187 99.921 93.0105C99.8702 93.1023 99.8448 93.2136 99.8448 93.3445ZM101.937 94.6982V92.4479H102.282V94.6982H101.937ZM102.112 92.0728C102.045 92.0728 101.987 92.0499 101.938 92.004C101.89 91.9581 101.866 91.9029 101.866 91.8384C101.866 91.7739 101.89 91.7188 101.938 91.6729C101.987 91.627 102.045 91.604 102.112 91.604C102.18 91.604 102.237 91.627 102.285 91.6729C102.334 91.7188 102.359 91.7739 102.359 91.8384C102.359 91.9029 102.334 91.9581 102.285 92.004C102.237 92.0499 102.18 92.0728 102.112 92.0728ZM103.765 94.7451C103.578 94.7451 103.412 94.6978 103.269 94.603C103.125 94.5073 103.013 94.3725 102.932 94.1987C102.851 94.0238 102.81 93.8172 102.81 93.5789C102.81 93.3426 102.851 93.1374 102.932 92.9636C103.013 92.7897 103.126 92.6554 103.27 92.5607C103.415 92.466 103.582 92.4186 103.771 92.4186C103.918 92.4186 104.033 92.443 104.118 92.4918C104.204 92.5397 104.27 92.5944 104.315 92.6559C104.361 92.7165 104.396 92.7663 104.422 92.8054H104.451V91.6978H104.797V94.6982H104.463V94.3525H104.422C104.396 94.3935 104.36 94.4453 104.313 94.5078C104.266 94.5693 104.2 94.6245 104.113 94.6733C104.026 94.7212 103.91 94.7451 103.765 94.7451ZM103.812 94.4345C103.951 94.4345 104.068 94.3984 104.164 94.3261C104.26 94.2529 104.332 94.1518 104.382 94.0228C104.432 93.8929 104.457 93.743 104.457 93.5731C104.457 93.4051 104.432 93.2581 104.384 93.1321C104.335 93.0051 104.263 92.9065 104.167 92.8361C104.071 92.7648 103.953 92.7292 103.812 92.7292C103.666 92.7292 103.544 92.7668 103.446 92.842C103.349 92.9162 103.277 93.0173 103.228 93.1453C103.18 93.2722 103.156 93.4148 103.156 93.5731C103.156 93.7332 103.18 93.8788 103.229 94.0097C103.279 94.1396 103.352 94.2431 103.449 94.3203C103.547 94.3964 103.668 94.4345 103.812 94.4345Z" fill="white"/>
<path d="M28.334 100.003V97.0025H29.383C29.5921 97.0025 29.7644 97.0386 29.9002 97.1109C30.036 97.1822 30.1371 97.2784 30.2035 97.3995C30.2699 97.5196 30.3031 97.6529 30.3031 97.7995C30.3031 97.9284 30.2802 98.0348 30.2342 98.1188C30.1893 98.2028 30.1297 98.2693 30.0555 98.3181C29.9823 98.3669 29.9027 98.4031 29.8167 98.4265V98.4558C29.9085 98.4617 30.0008 98.4939 30.0936 98.5525C30.1864 98.6111 30.264 98.6951 30.3265 98.8045C30.3891 98.9139 30.4203 99.0477 30.4203 99.2059C30.4203 99.3563 30.3861 99.4916 30.3178 99.6118C30.2494 99.7319 30.1415 99.8271 29.994 99.8974C29.8465 99.9678 29.6546 100.003 29.4182 100.003H28.334ZM28.6974 99.6806H29.4182C29.6555 99.6806 29.824 99.6347 29.9237 99.5429C30.0243 99.4501 30.0746 99.3378 30.0746 99.2059C30.0746 99.1043 30.0487 99.0106 29.9969 98.9246C29.9451 98.8377 29.8714 98.7684 29.7757 98.7166C29.68 98.6638 29.5667 98.6375 29.4358 98.6375H28.6974V99.6806ZM28.6974 98.321H29.3713C29.4807 98.321 29.5794 98.2995 29.6673 98.2566C29.7561 98.2136 29.8265 98.153 29.8782 98.0749C29.931 97.9968 29.9573 97.9049 29.9573 97.7995C29.9573 97.6676 29.9114 97.5558 29.8196 97.464C29.7278 97.3712 29.5823 97.3248 29.383 97.3248H28.6974V98.321ZM32.3886 99.0829V97.7526H32.7344V100.003H32.3886V99.622H32.3652C32.3125 99.7363 32.2304 99.8335 32.1191 99.9136C32.0077 99.9927 31.8671 100.032 31.6971 100.032C31.5565 100.032 31.4315 100.001 31.3221 99.9399C31.2127 99.8774 31.1267 99.7837 31.0642 99.6586C31.0017 99.5326 30.9704 99.3739 30.9704 99.1825V97.7526H31.3162V99.159C31.3162 99.3231 31.3621 99.454 31.4539 99.5517C31.5467 99.6494 31.6649 99.6982 31.8085 99.6982C31.8944 99.6982 31.9818 99.6762 32.0707 99.6323C32.1606 99.5883 32.2358 99.5209 32.2963 99.4301C32.3579 99.3392 32.3886 99.2235 32.3886 99.0829ZM33.3677 100.003V97.7526H33.7134V100.003H33.3677ZM33.5435 97.3775C33.4761 97.3775 33.418 97.3546 33.3691 97.3087C33.3213 97.2627 33.2974 97.2076 33.2974 97.1431C33.2974 97.0786 33.3213 97.0235 33.3691 96.9775C33.418 96.9316 33.4761 96.9087 33.5435 96.9087C33.6109 96.9087 33.6685 96.9316 33.7164 96.9775C33.7652 97.0235 33.7896 97.0786 33.7896 97.1431C33.7896 97.2076 33.7652 97.2627 33.7164 97.3087C33.6685 97.3546 33.6109 97.3775 33.5435 97.3775ZM34.6925 97.0025V100.003H34.3467V97.0025H34.6925ZM36.1755 100.05C35.988 100.05 35.8224 100.002 35.6788 99.9077C35.5353 99.812 35.4229 99.6772 35.3419 99.5033C35.2608 99.3285 35.2203 99.1219 35.2203 98.8836C35.2203 98.6472 35.2608 98.4421 35.3419 98.2683C35.4229 98.0944 35.5357 97.9601 35.6803 97.8654C35.8249 97.7706 35.9919 97.7233 36.1814 97.7233C36.3279 97.7233 36.4436 97.7477 36.5286 97.7965C36.6145 97.8444 36.68 97.8991 36.7249 97.9606C36.7708 98.0212 36.8065 98.071 36.8319 98.1101H36.8612V97.0025H37.2069V100.003H36.8729V99.6572H36.8319C36.8065 99.6982 36.7703 99.75 36.7234 99.8125C36.6766 99.874 36.6097 99.9292 36.5227 99.978C36.4358 100.026 36.3201 100.05 36.1755 100.05ZM36.2224 99.7392C36.3611 99.7392 36.4783 99.7031 36.574 99.6308C36.6697 99.5575 36.7425 99.4565 36.7923 99.3275C36.8421 99.1976 36.867 99.0477 36.867 98.8778C36.867 98.7098 36.8426 98.5628 36.7938 98.4368C36.7449 98.3098 36.6726 98.2111 36.5769 98.1408C36.4812 98.0695 36.363 98.0339 36.2224 98.0339C36.0759 98.0339 35.9538 98.0715 35.8561 98.1467C35.7594 98.2209 35.6867 98.322 35.6378 98.4499C35.59 98.5769 35.566 98.7195 35.566 98.8778C35.566 99.0379 35.5904 99.1835 35.6393 99.3143C35.6891 99.4442 35.7623 99.5478 35.859 99.6249C35.9567 99.7011 36.0778 99.7392 36.2224 99.7392ZM37.8882 100.003V97.7526H38.2339V100.003H37.8882ZM38.064 97.3775C37.9966 97.3775 37.9385 97.3546 37.8896 97.3087C37.8418 97.2627 37.8179 97.2076 37.8179 97.1431C37.8179 97.0786 37.8418 97.0235 37.8896 96.9775C37.9385 96.9316 37.9966 96.9087 38.064 96.9087C38.1314 96.9087 38.189 96.9316 38.2369 96.9775C38.2857 97.0235 38.3101 97.0786 38.3101 97.1431C38.3101 97.2076 38.2857 97.2627 38.2369 97.3087C38.189 97.3546 38.1314 97.3775 38.064 97.3775ZM39.213 98.6492V100.003H38.8672V97.7526H39.2012V98.1042H39.2306C39.2833 97.9899 39.3634 97.8981 39.4708 97.8288C39.5783 97.7584 39.717 97.7233 39.8869 97.7233C40.0393 97.7233 40.1726 97.7545 40.2869 97.817C40.4011 97.8786 40.49 97.9723 40.5535 98.0983C40.617 98.2233 40.6487 98.3816 40.6487 98.573V100.003H40.303V98.5965C40.303 98.4197 40.2571 98.282 40.1653 98.1833C40.0735 98.0837 39.9475 98.0339 39.7873 98.0339C39.6769 98.0339 39.5783 98.0578 39.4913 98.1057C39.4054 98.1535 39.3375 98.2233 39.2877 98.3152C39.2379 98.407 39.213 98.5183 39.213 98.6492ZM42.1889 100.894C42.0219 100.894 41.8783 100.872 41.7582 100.829C41.638 100.787 41.5379 100.732 41.4578 100.662C41.3787 100.594 41.3157 100.521 41.2688 100.442L41.5443 100.249C41.5755 100.29 41.6151 100.337 41.6629 100.39C41.7108 100.443 41.7762 100.49 41.8593 100.529C41.9433 100.569 42.0531 100.589 42.1889 100.589C42.3706 100.589 42.5205 100.545 42.6387 100.457C42.7569 100.369 42.816 100.231 42.816 100.044V99.5868H42.7867C42.7613 99.6279 42.7251 99.6787 42.6782 99.7392C42.6323 99.7988 42.5659 99.852 42.479 99.8989C42.393 99.9448 42.2768 99.9678 42.1303 99.9678C41.9486 99.9678 41.7855 99.9248 41.641 99.8388C41.4974 99.7529 41.3836 99.6279 41.2996 99.4638C41.2166 99.2997 41.1751 99.1004 41.1751 98.866C41.1751 98.6355 41.2156 98.4348 41.2967 98.2639C41.3777 98.092 41.4906 97.9591 41.6351 97.8654C41.7797 97.7706 41.9467 97.7233 42.1362 97.7233C42.2827 97.7233 42.3989 97.7477 42.4849 97.7965C42.5718 97.8444 42.6382 97.8991 42.6841 97.9606C42.731 98.0212 42.7671 98.071 42.7925 98.1101H42.8277V97.7526H43.1617V100.067C43.1617 100.261 43.1178 100.418 43.0299 100.539C42.9429 100.661 42.8257 100.751 42.6782 100.807C42.5317 100.865 42.3686 100.894 42.1889 100.894ZM42.1772 99.6572C42.3159 99.6572 42.4331 99.6254 42.5288 99.5619C42.6245 99.4985 42.6973 99.4071 42.7471 99.288C42.7969 99.1688 42.8218 99.0262 42.8218 98.8602C42.8218 98.698 42.7974 98.5549 42.7486 98.4309C42.6997 98.3069 42.6275 98.2097 42.5317 98.1394C42.436 98.069 42.3178 98.0339 42.1772 98.0339C42.0307 98.0339 41.9086 98.071 41.8109 98.1452C41.7142 98.2194 41.6415 98.3191 41.5926 98.4441C41.5448 98.5691 41.5208 98.7078 41.5208 98.8602C41.5208 99.0164 41.5452 99.1547 41.5941 99.2748C41.6439 99.3939 41.7172 99.4877 41.8138 99.5561C41.9115 99.6235 42.0326 99.6572 42.1772 99.6572ZM44.0466 100.026C43.9743 100.026 43.9123 100 43.8606 99.9487C43.8088 99.897 43.7829 99.8349 43.7829 99.7627C43.7829 99.6904 43.8088 99.6284 43.8606 99.5766C43.9123 99.5248 43.9743 99.4989 44.0466 99.4989C44.1189 99.4989 44.1809 99.5248 44.2327 99.5766C44.2845 99.6284 44.3103 99.6904 44.3103 99.7627C44.3103 99.8105 44.2981 99.8545 44.2737 99.8945C44.2503 99.9346 44.2185 99.9668 44.1785 99.9912C44.1394 100.015 44.0955 100.026 44.0466 100.026Z" fill="white"/>
<path d="M17.4448 93.4404C16.934 93.4399 16.4381 93.6127 16.0383 93.9307C15.6385 94.2487 15.3585 94.693 15.2441 95.1909C15.1297 95.6887 15.1876 96.2107 15.4085 96.6713C15.6294 97.1319 16.0002 97.5039 16.46 97.7264L17.4448 99.4285L18.4279 97.7264C18.8877 97.504 19.2583 97.1321 19.4792 96.6717C19.7001 96.2113 19.7583 95.6895 19.6441 95.1917C19.5299 94.6939 19.2502 94.2497 18.8507 93.9315C18.4512 93.6134 17.9555 93.4403 17.4448 93.4404ZM17.4448 96.4362C17.2986 96.4364 17.1557 96.3931 17.034 96.3119C16.9124 96.2308 16.8176 96.1153 16.7616 95.9803C16.7056 95.8452 16.6909 95.6965 16.7194 95.5531C16.7479 95.4097 16.8183 95.278 16.9217 95.1746C17.0251 95.0712 17.1568 95.0008 17.3002 94.9723C17.4437 94.9438 17.5923 94.9584 17.7274 95.0145C17.8625 95.0705 17.9779 95.1653 18.059 95.2869C18.1402 95.4085 18.1835 95.5515 18.1834 95.6978C18.1831 95.8935 18.1051 96.0812 17.9667 96.2196C17.8283 96.358 17.6406 96.4359 17.4448 96.4362Z" stroke="#3ED778" stroke-width="0.442035" stroke-miterlimit="10" stroke-linecap="round" stroke-linejoin="round"/>
<path d="M19.4269 81.499H15.4622V87.4871H19.4269V81.499Z" stroke="#3ED778" stroke-width="0.442035" stroke-miterlimit="10" stroke-linecap="round" stroke-linejoin="round"/>
<path d="M16.9399 86.3096H17.949" stroke="#3ED778" stroke-width="0.442035" stroke-miterlimit="10" stroke-linecap="round" stroke-linejoin="round"/>
<path d="M19.8851 71.0801H14.9998V74.5038H19.8851V71.0801Z" stroke="#3ED778" stroke-width="0.442035" stroke-miterlimit="10" stroke-linecap="round" stroke-linejoin="round"/>
<path d="M14.9998 71.0801L17.4433 72.7893L19.8857 71.0801" stroke="#3ED778" stroke-width="0.442035" stroke-miterlimit="10" stroke-linecap="round" stroke-linejoin="round"/>
<path d="M103.166 129.531C104.679 129.531 106.13 128.93 107.2 127.86C108.27 126.789 108.872 125.338 108.872 123.825C108.872 122.312 108.27 120.86 107.2 119.79C106.13 118.72 104.679 118.119 103.166 118.119H22.6435C21.1303 118.119 19.679 118.72 18.6089 119.79C17.5389 120.86 16.9377 122.312 16.9377 123.825C16.9377 125.338 17.5389 126.789 18.6089 127.86C19.679 128.93 21.1303 129.531 22.6435 129.531H103.166Z" fill="url(#paint1_linear_656_2528)"/>
<path d="M55.1549 124.934V121.076H57.6263V121.662H55.8538V122.709H57.4568V123.295H55.8538V124.934H55.1549ZM59.2825 124.99C59 124.99 58.7551 124.928 58.5479 124.804C58.3407 124.679 58.1799 124.505 58.0657 124.282C57.9526 124.058 57.8961 123.797 57.8961 123.498C57.8961 123.199 57.9526 122.938 58.0657 122.713C58.1799 122.488 58.3407 122.313 58.5479 122.189C58.7551 122.065 59 122.003 59.2825 122.003C59.5651 122.003 59.8099 122.065 60.0171 122.189C60.2243 122.313 60.3845 122.488 60.4975 122.713C60.6118 122.938 60.6689 123.199 60.6689 123.498C60.6689 123.797 60.6118 124.058 60.4975 124.282C60.3845 124.505 60.2243 124.679 60.0171 124.804C59.8099 124.928 59.5651 124.99 59.2825 124.99ZM59.2863 124.444C59.4395 124.444 59.5676 124.402 59.6705 124.318C59.7735 124.232 59.8501 124.118 59.9004 123.975C59.9518 123.832 59.9776 123.672 59.9776 123.496C59.9776 123.319 59.9518 123.159 59.9004 123.016C59.8501 122.872 59.7735 122.757 59.6705 122.671C59.5676 122.586 59.4395 122.543 59.2863 122.543C59.1293 122.543 58.9987 122.586 58.8945 122.671C58.7915 122.757 58.7143 122.872 58.6628 123.016C58.6125 123.159 58.5874 123.319 58.5874 123.496C58.5874 123.672 58.6125 123.832 58.6628 123.975C58.7143 124.118 58.7915 124.232 58.8945 124.318C58.9987 124.402 59.1293 124.444 59.2863 124.444ZM61.9295 121.076V124.934H61.2476V121.076H61.9295ZM63.3126 121.076V124.934H62.6307V121.076H63.3126ZM65.2759 124.99C64.9933 124.99 64.7484 124.928 64.5412 124.804C64.334 124.679 64.1733 124.505 64.059 124.282C63.946 124.058 63.8895 123.797 63.8895 123.498C63.8895 123.199 63.946 122.938 64.059 122.713C64.1733 122.488 64.334 122.313 64.5412 122.189C64.7484 122.065 64.9933 122.003 65.2759 122.003C65.5584 122.003 65.8033 122.065 66.0105 122.189C66.2177 122.313 66.3778 122.488 66.4908 122.713C66.6051 122.938 66.6623 123.199 66.6623 123.498C66.6623 123.797 66.6051 124.058 66.4908 124.282C66.3778 124.505 66.2177 124.679 66.0105 124.804C65.8033 124.928 65.5584 124.99 65.2759 124.99ZM65.2796 124.444C65.4328 124.444 65.5609 124.402 65.6639 124.318C65.7669 124.232 65.8435 124.118 65.8937 123.975C65.9452 123.832 65.9709 123.672 65.9709 123.496C65.9709 123.319 65.9452 123.159 65.8937 123.016C65.8435 122.872 65.7669 122.757 65.6639 122.671C65.5609 122.586 65.4328 122.543 65.2796 122.543C65.1227 122.543 64.9921 122.586 64.8878 122.671C64.7849 122.757 64.7076 122.872 64.6561 123.016C64.6059 123.159 64.5808 123.319 64.5808 123.496C64.5808 123.672 64.6059 123.832 64.6561 123.975C64.7076 124.118 64.7849 124.232 64.8878 124.318C64.9921 124.402 65.1227 124.444 65.2796 124.444ZM67.7553 124.934L66.9377 122.04H67.6328L68.1414 124.075H68.1678L68.6877 122.04H69.3752L69.8951 124.063H69.9234L70.4244 122.04H71.1214L70.302 124.934H69.5918L69.0493 122.978H69.0098L68.4673 124.934H67.7553Z" fill="white"/>
<path d="M103.165 143.75C104.679 143.75 106.13 143.149 107.2 142.079C108.27 141.009 108.871 139.558 108.871 138.044C108.871 136.531 108.27 135.08 107.2 134.01C106.13 132.94 104.679 132.339 103.165 132.339H22.6433C21.1301 132.339 19.6789 132.94 18.6089 134.01C17.5389 135.08 16.9377 136.531 16.9377 138.044C16.9377 139.558 17.5389 141.009 18.6089 142.079C19.6789 143.149 21.1301 143.75 22.6433 143.75H103.165Z" fill="white"/>
<path d="M51.8026 135.295H52.6578L53.8031 138.09H53.8483L54.9936 135.295H55.8487V139.152H55.1782V136.502H55.1424L54.0762 139.141H53.5752L52.509 136.496H52.4732V139.152H51.8026V135.295ZM57.8605 139.209C57.5704 139.209 57.3199 139.149 57.1089 139.028C56.8992 138.906 56.7378 138.734 56.6248 138.512C56.5118 138.288 56.4553 138.025 56.4553 137.723C56.4553 137.425 56.5118 137.164 56.6248 136.939C56.7391 136.713 56.8986 136.537 57.1033 136.412C57.308 136.285 57.5484 136.221 57.8247 136.221C58.003 136.221 58.1713 136.25 58.3295 136.308C58.489 136.365 58.6297 136.452 58.7515 136.572C58.8745 136.691 58.9712 136.843 59.0416 137.028C59.1119 137.211 59.1471 137.429 59.1471 137.683V137.892H56.7755V137.433H58.4934C58.4922 137.302 58.4639 137.186 58.4087 137.084C58.3534 136.981 58.2762 136.9 58.177 136.841C58.079 136.782 57.9647 136.753 57.8341 136.753C57.6947 136.753 57.5723 136.786 57.4668 136.854C57.3613 136.921 57.2791 137.009 57.2201 137.118C57.1623 137.226 57.1328 137.345 57.1315 137.474V137.875C57.1315 138.043 57.1623 138.188 57.2238 138.308C57.2854 138.428 57.3714 138.519 57.4819 138.583C57.5924 138.646 57.7217 138.678 57.8699 138.678C57.9691 138.678 58.0589 138.664 58.1393 138.636C58.2197 138.607 58.2894 138.565 58.3484 138.51C58.4074 138.455 58.452 138.386 58.4821 138.305L59.1188 138.376C59.0786 138.545 59.002 138.691 58.889 138.817C58.7772 138.941 58.6341 139.038 58.4595 139.107C58.285 139.175 58.0853 139.209 57.8605 139.209ZM62.0107 137.024L61.3891 137.092C61.3715 137.029 61.3407 136.97 61.2968 136.915C61.2541 136.859 61.1963 136.815 61.1235 136.781C61.0507 136.747 60.9615 136.73 60.856 136.73C60.7141 136.73 60.5948 136.761 60.4981 136.822C60.4027 136.884 60.3556 136.964 60.3568 137.061C60.3556 137.146 60.3863 137.214 60.4491 137.267C60.5132 137.32 60.6187 137.363 60.7656 137.397L61.2591 137.502C61.5329 137.561 61.7363 137.655 61.8694 137.783C62.0038 137.911 62.0716 138.079 62.0729 138.286C62.0716 138.468 62.0182 138.629 61.9127 138.768C61.8085 138.906 61.6635 139.014 61.4776 139.092C61.2918 139.17 61.0783 139.209 60.8372 139.209C60.483 139.209 60.198 139.135 59.982 138.987C59.766 138.837 59.6373 138.629 59.5958 138.363L60.2608 138.299C60.2909 138.43 60.355 138.528 60.4529 138.595C60.5509 138.661 60.6783 138.695 60.8353 138.695C60.9973 138.695 61.1273 138.661 61.2252 138.595C61.3244 138.528 61.374 138.446 61.374 138.348C61.374 138.265 61.342 138.197 61.278 138.143C61.2152 138.089 61.1172 138.047 60.9841 138.018L60.4906 137.915C60.2131 137.857 60.0077 137.76 59.8746 137.623C59.7415 137.485 59.6756 137.31 59.6768 137.099C59.6756 136.921 59.7239 136.766 59.8219 136.636C59.9211 136.504 60.0586 136.402 60.2344 136.331C60.4115 136.258 60.6155 136.221 60.8466 136.221C61.1857 136.221 61.4525 136.294 61.6472 136.438C61.8431 136.582 61.9642 136.778 62.0107 137.024ZM64.9219 137.024L64.3003 137.092C64.2827 137.029 64.252 136.97 64.208 136.915C64.1653 136.859 64.1075 136.815 64.0347 136.781C63.9619 136.747 63.8727 136.73 63.7672 136.73C63.6253 136.73 63.506 136.761 63.4093 136.822C63.3139 136.884 63.2668 136.964 63.268 137.061C63.2668 137.146 63.2976 137.214 63.3603 137.267C63.4244 137.32 63.5299 137.363 63.6768 137.397L64.1703 137.502C64.4441 137.561 64.6475 137.655 64.7806 137.783C64.915 137.911 64.9828 138.079 64.9841 138.286C64.9828 138.468 64.9294 138.629 64.824 138.768C64.7197 138.906 64.5747 139.014 64.3888 139.092C64.203 139.17 63.9895 139.209 63.7484 139.209C63.3943 139.209 63.1092 139.135 62.8932 138.987C62.6772 138.837 62.5485 138.629 62.507 138.363L63.172 138.299C63.2021 138.43 63.2662 138.528 63.3641 138.595C63.4621 138.661 63.5895 138.695 63.7465 138.695C63.9085 138.695 64.0385 138.661 64.1364 138.595C64.2356 138.528 64.2852 138.446 64.2852 138.348C64.2852 138.265 64.2532 138.197 64.1892 138.143C64.1264 138.089 64.0284 138.047 63.8953 138.018L63.4018 137.915C63.1243 137.857 62.9189 137.76 62.7858 137.623C62.6527 137.485 62.5868 137.31 62.588 137.099C62.5868 136.921 62.6351 136.766 62.7331 136.636C62.8323 136.504 62.9698 136.402 63.1456 136.331C63.3227 136.258 63.5267 136.221 63.7578 136.221C64.0969 136.221 64.3637 136.294 64.5584 136.438C64.7543 136.582 64.8754 136.778 64.9219 137.024ZM66.3789 139.211C66.1956 139.211 66.0305 139.178 65.8835 139.113C65.7379 139.046 65.6223 138.948 65.5369 138.819C65.4528 138.69 65.4107 138.53 65.4107 138.34C65.4107 138.177 65.4409 138.042 65.5011 137.935C65.5614 137.829 65.6437 137.743 65.7479 137.679C65.8521 137.615 65.9695 137.567 66.1001 137.534C66.232 137.5 66.3683 137.476 66.5089 137.461C66.6784 137.443 66.8159 137.428 66.9214 137.414C67.0269 137.399 67.1035 137.376 67.1512 137.346C67.2002 137.315 67.2247 137.266 67.2247 137.201V137.19C67.2247 137.048 67.1826 136.938 67.0985 136.86C67.0144 136.782 66.8932 136.743 66.7349 136.743C66.5679 136.743 66.4354 136.78 66.3375 136.852C66.2408 136.925 66.1755 137.011 66.1416 137.11L65.5049 137.02C65.5551 136.844 65.638 136.697 65.7536 136.579C65.8691 136.46 66.0104 136.371 66.1774 136.312C66.3444 136.251 66.529 136.221 66.7312 136.221C66.8706 136.221 67.0093 136.238 67.1475 136.27C67.2856 136.303 67.4118 136.357 67.5261 136.432C67.6404 136.506 67.732 136.608 67.8011 136.736C67.8714 136.864 67.9066 137.024 67.9066 137.216V139.152H67.2511V138.755H67.2285C67.187 138.835 67.1286 138.911 67.0533 138.981C66.9792 139.05 66.8856 139.106 66.7726 139.149C66.6609 139.19 66.5296 139.211 66.3789 139.211ZM66.556 138.71C66.6929 138.71 66.8115 138.683 66.912 138.629C67.0125 138.573 67.0897 138.501 67.1437 138.41C67.199 138.32 67.2266 138.221 67.2266 138.114V137.773C67.2052 137.791 67.1688 137.807 67.1173 137.822C67.0671 137.838 67.0106 137.851 66.9478 137.862C66.885 137.873 66.8228 137.883 66.7613 137.892C66.6998 137.901 66.6464 137.908 66.6012 137.915C66.4995 137.929 66.4084 137.951 66.3281 137.983C66.2477 138.014 66.1843 138.058 66.1378 138.114C66.0914 138.17 66.0681 138.241 66.0681 138.329C66.0681 138.455 66.114 138.55 66.2056 138.614C66.2973 138.678 66.4141 138.71 66.556 138.71ZM69.8505 140.298C69.6057 140.298 69.3953 140.264 69.2195 140.198C69.0437 140.132 68.9024 140.045 68.7957 139.934C68.6889 139.824 68.6148 139.701 68.5734 139.567L69.1875 139.418C69.2151 139.474 69.2553 139.53 69.308 139.586C69.3608 139.642 69.4317 139.689 69.5209 139.725C69.6113 139.763 69.725 139.781 69.8618 139.781C70.0552 139.781 70.2153 139.734 70.3422 139.64C70.469 139.547 70.5324 139.394 70.5324 139.181V138.632H70.4985C70.4634 138.703 70.4119 138.775 70.3441 138.849C70.2775 138.923 70.189 138.985 70.0785 139.036C69.9692 139.086 69.8317 139.111 69.6659 139.111C69.4437 139.111 69.2421 139.059 69.0613 138.955C68.8817 138.849 68.7385 138.692 68.6318 138.484C68.5263 138.274 68.4736 138.011 68.4736 137.696C68.4736 137.379 68.5263 137.11 68.6318 136.892C68.7385 136.672 68.8823 136.506 69.0632 136.393C69.244 136.278 69.4455 136.221 69.6678 136.221C69.8373 136.221 69.9767 136.25 70.086 136.308C70.1965 136.365 70.2844 136.433 70.3497 136.513C70.415 136.592 70.4646 136.667 70.4985 136.737H70.5362V136.259H71.2087V139.199C71.2087 139.447 71.1496 139.652 71.0316 139.814C70.9136 139.976 70.7522 140.097 70.5475 140.177C70.3428 140.257 70.1105 140.298 69.8505 140.298ZM69.8562 138.576C70.0006 138.576 70.1237 138.541 70.2254 138.47C70.3271 138.4 70.4043 138.299 70.4571 138.167C70.5098 138.035 70.5362 137.877 70.5362 137.692C70.5362 137.51 70.5098 137.351 70.4571 137.214C70.4056 137.077 70.329 136.971 70.2273 136.896C70.1268 136.819 70.0031 136.781 69.8562 136.781C69.7042 136.781 69.5774 136.82 69.4757 136.899C69.374 136.979 69.2974 137.087 69.2459 137.225C69.1944 137.362 69.1686 137.518 69.1686 137.692C69.1686 137.87 69.1944 138.025 69.2459 138.158C69.2986 138.29 69.3758 138.393 69.4776 138.467C69.5805 138.54 69.7067 138.576 69.8562 138.576ZM73.1884 139.209C72.8983 139.209 72.6478 139.149 72.4368 139.028C72.2271 138.906 72.0657 138.734 71.9527 138.512C71.8397 138.288 71.7832 138.025 71.7832 137.723C71.7832 137.425 71.8397 137.164 71.9527 136.939C72.067 136.713 72.2265 136.537 72.4312 136.412C72.6359 136.285 72.8763 136.221 73.1526 136.221C73.3309 136.221 73.4992 136.25 73.6574 136.308C73.8169 136.365 73.9576 136.452 74.0794 136.572C74.2024 136.691 74.2991 136.843 74.3695 137.028C74.4398 137.211 74.4749 137.429 74.4749 137.683V137.892H72.1034V137.433H73.8213C73.8201 137.302 73.7918 137.186 73.7365 137.084C73.6813 136.981 73.6041 136.9 73.5049 136.841C73.4069 136.782 73.2926 136.753 73.162 136.753C73.0226 136.753 72.9002 136.786 72.7947 136.854C72.6892 136.921 72.607 137.009 72.5479 137.118C72.4902 137.226 72.4607 137.345 72.4594 137.474V137.875C72.4594 138.043 72.4902 138.188 72.5517 138.308C72.6132 138.428 72.6993 138.519 72.8098 138.583C72.9203 138.646 73.0496 138.678 73.1978 138.678C73.297 138.678 73.3868 138.664 73.4672 138.636C73.5475 138.607 73.6172 138.565 73.6763 138.51C73.7353 138.455 73.7799 138.386 73.81 138.305L74.4467 138.376C74.4065 138.545 74.3299 138.691 74.2169 138.817C74.1051 138.941 73.962 139.038 73.7874 139.107C73.6129 139.175 73.4132 139.209 73.1884 139.209Z" fill="black"/>
<path d="M115.957 9.07358C115.957 9.25692 115.903 9.43614 115.801 9.58858C115.699 9.74103 115.554 9.85986 115.385 9.93005C115.216 10.0002 115.029 10.0186 114.849 9.9829C114.67 9.94718 114.504 9.85894 114.375 9.72934C114.245 9.59974 114.157 9.43461 114.121 9.25481C114.085 9.07501 114.103 8.88862 114.173 8.7192C114.244 8.54979 114.362 8.40496 114.515 8.30302C114.667 8.20107 114.846 8.1466 115.03 8.14648C115.275 8.14648 115.511 8.24414 115.685 8.41799C115.859 8.59184 115.957 8.82764 115.957 9.07358Z" fill="#3ED778"/>
<path d="M115.957 12.4603C115.957 12.6436 115.903 12.8229 115.801 12.9753C115.699 13.1277 115.554 13.2466 115.385 13.3168C115.216 13.3869 115.029 13.4053 114.849 13.3696C114.67 13.3339 114.504 13.2457 114.375 13.1161C114.245 12.9865 114.157 12.8213 114.121 12.6415C114.085 12.4617 114.103 12.2753 114.173 12.1059C114.244 11.9365 114.362 11.7917 114.515 11.6897C114.667 11.5878 114.846 11.5333 115.03 11.5332C115.275 11.5332 115.511 11.6309 115.685 11.8047C115.859 11.9786 115.957 12.2144 115.957 12.4603Z" fill="#3ED778"/>
<path d="M115.957 15.8451C115.957 16.0284 115.903 16.2076 115.801 16.3601C115.699 16.5125 115.554 16.6313 115.385 16.7015C115.216 16.7717 115.029 16.7901 114.849 16.7544C114.67 16.7187 114.504 16.6304 114.375 16.5008C114.245 16.3712 114.157 16.2061 114.121 16.0263C114.085 15.8465 114.103 15.6601 114.173 15.4907C114.244 15.3213 114.362 15.1764 114.515 15.0745C114.667 14.9726 114.846 14.9181 115.03 14.918C115.275 14.918 115.511 15.0156 115.685 15.1895C115.859 15.3633 115.957 15.5991 115.957 15.8451Z" fill="#3ED778"/>
<defs>
<linearGradient id="paint0_linear_656_2528" x1="21.1367" y1="70.1179" x2="25.6947" y2="26.0664" gradientUnits="userSpaceOnUse">
<stop stop-color="#F23457"/>
<stop offset="1" stop-color="#F6955C"/>
</linearGradient>
<linearGradient id="paint1_linear_656_2528" x1="16.9377" y1="123.825" x2="108.872" y2="123.825" gradientUnits="userSpaceOnUse">
<stop stop-color="#F6955C"/>
<stop offset="0.491" stop-color="#F4655A"/>
<stop offset="1" stop-color="#F23457"/>
</linearGradient>
</defs>
</svg>
