<svg width="197" height="33" viewBox="0 0 197 33" fill="none" xmlns="http://www.w3.org/2000/svg">
<path d="M179.888 32.8361C182.066 32.8712 184.229 32.4725 186.251 31.6632C188.274 30.8539 190.115 29.6502 191.668 28.1222C193.221 26.5943 194.454 24.7727 195.296 22.7634C196.137 20.7542 196.571 18.5976 196.571 16.4191C196.571 14.2407 196.137 12.0841 195.296 10.0748C194.454 8.06562 193.221 6.24396 191.668 4.71603C190.115 3.18809 188.274 1.98442 186.251 1.17512C184.229 0.365823 182.066 -0.0329229 179.888 0.00212531H16.6833C14.5052 -0.0329229 12.3418 0.365823 10.3193 1.17512C8.29679 1.98442 6.45555 3.18809 4.90283 4.71603C3.35011 6.24396 2.11696 8.06562 1.27523 10.0748C0.433493 12.0841 0 14.2407 0 16.4191C0 18.5976 0.433493 20.7542 1.27523 22.7634C2.11696 24.7727 3.35011 26.5943 4.90283 28.1222C6.45555 29.6502 8.29679 30.8539 10.3193 31.6632C12.3418 32.4725 14.5052 32.8712 16.6833 32.8361H179.888Z" fill="white"/>
<path d="M179.888 28.9701C186.821 28.9701 192.442 23.3498 192.442 16.4167C192.442 9.48365 186.821 3.86328 179.888 3.86328C172.955 3.86328 167.335 9.48365 167.335 16.4167C167.335 23.3498 172.955 28.9701 179.888 28.9701Z" fill="#3ED778"/>
<path d="M183.057 15.5625C183.057 16.3569 182.821 17.1335 182.38 17.794C181.938 18.4545 181.311 18.9693 180.577 19.2733C179.843 19.5773 179.036 19.6569 178.256 19.5019C177.477 19.3469 176.762 18.9644 176.2 18.4026C175.638 17.8409 175.256 17.1252 175.101 16.3461C174.946 15.5669 175.025 14.7593 175.329 14.0254C175.633 13.2915 176.148 12.6642 176.809 12.2228C177.469 11.7815 178.246 11.5459 179.04 11.5459C180.105 11.5462 181.127 11.9694 181.88 12.7226C182.633 13.4758 183.056 14.4973 183.057 15.5625Z" stroke="white" stroke-width="1.06259" stroke-miterlimit="10" stroke-linecap="round"/>
<path d="M181.877 18.3984L183.754 20.276" stroke="white" stroke-width="1.06259" stroke-miterlimit="10" stroke-linecap="round"/>
<path d="M18.5641 16.5232L17.8978 16.7118C17.8559 16.6007 17.7941 16.4928 17.7124 16.3881C17.6328 16.2812 17.5238 16.1932 17.3856 16.1241C17.2473 16.0549 17.0702 16.0204 16.8544 16.0204C16.559 16.0204 16.3128 16.0885 16.1158 16.2247C15.921 16.3587 15.8235 16.5295 15.8235 16.7369C15.8235 16.9213 15.8906 17.0669 16.0247 17.1738C16.1588 17.2807 16.3683 17.3697 16.6533 17.4409L17.3698 17.6169C17.8015 17.7217 18.1231 17.882 18.3347 18.0978C18.5463 18.3115 18.6521 18.587 18.6521 18.9244C18.6521 19.201 18.5725 19.4482 18.4133 19.6661C18.2561 19.884 18.0361 20.0558 17.7533 20.1815C17.4704 20.3072 17.1415 20.3701 16.7664 20.3701C16.274 20.3701 15.8665 20.2632 15.5438 20.0495C15.2212 19.8358 15.0169 19.5236 14.931 19.113L15.635 18.937C15.702 19.1968 15.8288 19.3916 16.0153 19.5215C16.2038 19.6514 16.45 19.7164 16.7538 19.7164C17.0996 19.7164 17.374 19.6431 17.5773 19.4964C17.7826 19.3476 17.8853 19.1695 17.8853 18.9621C17.8853 18.7945 17.8266 18.6541 17.7093 18.5409C17.5919 18.4257 17.4117 18.3398 17.1687 18.2832L16.3641 18.0947C15.922 17.9899 15.5973 17.8275 15.3898 17.6075C15.1845 17.3854 15.0818 17.1078 15.0818 16.7747C15.0818 16.5023 15.1583 16.2613 15.3113 16.0518C15.4663 15.8423 15.6769 15.6778 15.943 15.5584C16.2112 15.4389 16.515 15.3792 16.8544 15.3792C17.3321 15.3792 17.7072 15.484 17.9796 15.6935C18.254 15.903 18.4489 16.1796 18.5641 16.5232ZM21.7926 20.3701C21.3275 20.3701 20.9263 20.2674 20.5889 20.0621C20.2537 19.8547 19.9949 19.5655 19.8126 19.1947C19.6324 18.8217 19.5423 18.388 19.5423 17.8935C19.5423 17.399 19.6324 16.9632 19.8126 16.5861C19.9949 16.2068 20.2484 15.9114 20.5732 15.6998C20.9001 15.4861 21.2814 15.3792 21.7172 15.3792C21.9686 15.3792 22.2169 15.4211 22.4621 15.5049C22.7072 15.5887 22.9304 15.7249 23.1315 15.9135C23.3327 16.1 23.4929 16.3472 23.6124 16.6552C23.7318 16.9632 23.7915 17.3425 23.7915 17.7929V18.1072H20.0704V17.4661H23.0372C23.0372 17.1937 22.9828 16.9507 22.8738 16.7369C22.7669 16.5232 22.614 16.3546 22.4149 16.2309C22.218 16.1073 21.9854 16.0455 21.7172 16.0455C21.4218 16.0455 21.1662 16.1188 20.9504 16.2655C20.7366 16.4101 20.5722 16.5987 20.4569 16.8312C20.3417 17.0638 20.2841 17.3131 20.2841 17.5792V18.0067C20.2841 18.3712 20.3469 18.6803 20.4726 18.9338C20.6005 19.1852 20.7775 19.377 21.0038 19.509C21.2301 19.6389 21.493 19.7038 21.7926 19.7038C21.9875 19.7038 22.1635 19.6766 22.3207 19.6221C22.4799 19.5655 22.6171 19.4817 22.7324 19.3707C22.8476 19.2575 22.9367 19.1171 22.9995 18.9495L23.7161 19.1507C23.6407 19.3937 23.5139 19.6074 23.3358 19.7918C23.1577 19.9741 22.9377 20.1166 22.6758 20.2192C22.4139 20.3198 22.1195 20.3701 21.7926 20.3701ZM26.3404 20.3827C26.0345 20.3827 25.7569 20.3251 25.5075 20.2098C25.2582 20.0925 25.0602 19.9238 24.9135 19.7038C24.7669 19.4817 24.6935 19.2135 24.6935 18.8992C24.6935 18.6227 24.748 18.3985 24.857 18.2267C24.9659 18.0528 25.1115 17.9166 25.2938 17.8181C25.4761 17.7196 25.6772 17.6463 25.8972 17.5981C26.1193 17.5478 26.3425 17.508 26.5667 17.4787C26.86 17.4409 27.0978 17.4127 27.2801 17.3938C27.4645 17.3728 27.5986 17.3383 27.6824 17.2901C27.7683 17.2419 27.8113 17.1581 27.8113 17.0387V17.0135C27.8113 16.7034 27.7264 16.4625 27.5567 16.2907C27.3891 16.1188 27.1345 16.0329 26.793 16.0329C26.4389 16.0329 26.1612 16.1105 25.9601 16.2655C25.759 16.4206 25.6175 16.5861 25.5358 16.7621L24.8318 16.5107C24.9575 16.2173 25.1251 15.9889 25.3347 15.8255C25.5463 15.66 25.7768 15.5447 26.0261 15.4798C26.2775 15.4127 26.5248 15.3792 26.7678 15.3792C26.9229 15.3792 27.101 15.3981 27.3021 15.4358C27.5053 15.4714 27.7013 15.5458 27.8898 15.6589C28.0805 15.7721 28.2387 15.9428 28.3644 16.1712C28.4901 16.3996 28.553 16.7055 28.553 17.0889V20.2695H27.8113V19.6158H27.7735C27.7233 19.7206 27.6394 19.8327 27.5221 19.9521C27.4048 20.0715 27.2487 20.1731 27.0538 20.257C26.859 20.3408 26.6212 20.3827 26.3404 20.3827ZM26.4535 19.7164C26.7469 19.7164 26.9941 19.6588 27.1953 19.5435C27.3985 19.4283 27.5514 19.2795 27.6541 19.0972C27.7589 18.915 27.8113 18.7232 27.8113 18.5221V17.8432C27.7798 17.8809 27.7107 17.9155 27.6038 17.9469C27.4991 17.9763 27.3775 18.0025 27.2393 18.0255C27.1031 18.0465 26.97 18.0653 26.8401 18.0821C26.7123 18.0968 26.6086 18.1093 26.529 18.1198C26.3362 18.1449 26.156 18.1858 25.9884 18.2424C25.8229 18.2969 25.6888 18.3796 25.5861 18.4907C25.4855 18.5996 25.4352 18.7484 25.4352 18.937C25.4352 19.1947 25.5306 19.3895 25.7212 19.5215C25.914 19.6514 26.1581 19.7164 26.4535 19.7164ZM29.9068 20.2695V15.4421H30.6233V16.1712H30.6736C30.7616 15.9324 30.9209 15.7386 31.1513 15.5898C31.3818 15.441 31.6416 15.3666 31.9308 15.3666C31.9853 15.3666 32.0534 15.3677 32.1351 15.3698C32.2168 15.3719 32.2786 15.375 32.3205 15.3792V16.1335C32.2954 16.1272 32.2377 16.1178 32.1476 16.1052C32.0596 16.0906 31.9664 16.0832 31.8679 16.0832C31.6333 16.0832 31.4237 16.1325 31.2393 16.2309C31.0571 16.3273 30.9125 16.4614 30.8056 16.6332C30.7009 16.8029 30.6485 16.9968 30.6485 17.2147V20.2695H29.9068ZM35.0139 20.3701C34.5614 20.3701 34.1716 20.2632 33.8448 20.0495C33.5179 19.8358 33.2665 19.5414 33.0905 19.1664C32.9145 18.7913 32.8265 18.3629 32.8265 17.8809C32.8265 17.3907 32.9166 16.958 33.0968 16.5829C33.2791 16.2058 33.5326 15.9114 33.8574 15.6998C34.1842 15.4861 34.5656 15.3792 35.0014 15.3792C35.3408 15.3792 35.6467 15.4421 35.9191 15.5678C36.1915 15.6935 36.4146 15.8695 36.5885 16.0958C36.7624 16.3221 36.8703 16.5861 36.9122 16.8878H36.1705C36.1139 16.6678 35.9882 16.4729 35.7934 16.3032C35.6006 16.1314 35.3408 16.0455 35.0139 16.0455C34.7248 16.0455 34.4713 16.1209 34.2534 16.2718C34.0376 16.4206 33.8689 16.6311 33.7474 16.9035C33.6279 17.1738 33.5682 17.4912 33.5682 17.8558C33.5682 18.2288 33.6269 18.5535 33.7442 18.8301C33.8636 19.1067 34.0313 19.3214 34.2471 19.4744C34.465 19.6273 34.7206 19.7038 35.0139 19.7038C35.2067 19.7038 35.3817 19.6703 35.5388 19.6032C35.6959 19.5362 35.829 19.4398 35.9379 19.3141C36.0469 19.1884 36.1244 19.0375 36.1705 18.8615H36.9122C36.8703 19.1465 36.7666 19.4031 36.6011 19.6315C36.4377 19.8578 36.2208 20.038 35.9505 20.1721C35.6823 20.3041 35.3701 20.3701 35.0139 20.3701ZM38.7382 17.3655V20.2695H37.9965V13.8329H38.7382V16.1964H38.8011C38.9142 15.947 39.084 15.749 39.3103 15.6024C39.5386 15.4536 39.8424 15.3792 40.2217 15.3792C40.5506 15.3792 40.8387 15.4452 41.086 15.5772C41.3332 15.7071 41.5249 15.9072 41.6611 16.1775C41.7994 16.4457 41.8686 16.7872 41.8686 17.2021V20.2695H41.1268V17.2524C41.1268 16.8689 41.0273 16.5725 40.8283 16.3629C40.6313 16.1513 40.3579 16.0455 40.008 16.0455C39.7649 16.0455 39.547 16.0968 39.3543 16.1995C39.1636 16.3022 39.0127 16.452 38.9017 16.6489C38.7927 16.8459 38.7382 17.0848 38.7382 17.3655ZM49.1341 16.5232L48.4678 16.7118C48.4259 16.6007 48.3641 16.4928 48.2824 16.3881C48.2028 16.2812 48.0938 16.1932 47.9555 16.1241C47.8172 16.0549 47.6402 16.0204 47.4244 16.0204C47.1289 16.0204 46.8827 16.0885 46.6858 16.2247C46.4909 16.3587 46.3935 16.5295 46.3935 16.7369C46.3935 16.9213 46.4606 17.0669 46.5947 17.1738C46.7287 17.2807 46.9383 17.3697 47.2232 17.4409L47.9398 17.6169C48.3714 17.7217 48.693 17.882 48.9047 18.0978C49.1163 18.3115 49.2221 18.587 49.2221 18.9244C49.2221 19.201 49.1425 19.4482 48.9832 19.6661C48.8261 19.884 48.6061 20.0558 48.3232 20.1815C48.0404 20.3072 47.7114 20.3701 47.3364 20.3701C46.844 20.3701 46.4365 20.2632 46.1138 20.0495C45.7911 19.8358 45.5868 19.5236 45.5009 19.113L46.2049 18.937C46.272 19.1968 46.3987 19.3916 46.5852 19.5215C46.7738 19.6514 47.02 19.7164 47.3238 19.7164C47.6695 19.7164 47.944 19.6431 48.1472 19.4964C48.3526 19.3476 48.4552 19.1695 48.4552 18.9621C48.4552 18.7945 48.3966 18.6541 48.2792 18.5409C48.1619 18.4257 47.9817 18.3398 47.7387 18.2832L46.9341 18.0947C46.492 17.9899 46.1672 17.8275 45.9598 17.6075C45.7545 17.3854 45.6518 17.1078 45.6518 16.7747C45.6518 16.5023 45.7283 16.2613 45.8812 16.0518C46.0363 15.8423 46.2468 15.6778 46.5129 15.5584C46.7811 15.4389 47.0849 15.3792 47.4244 15.3792C47.9021 15.3792 48.2771 15.484 48.5495 15.6935C48.824 15.903 49.0189 16.1796 49.1341 16.5232ZM52.2998 20.3701C51.8639 20.3701 51.4816 20.2664 51.1526 20.059C50.8257 19.8515 50.5701 19.5613 50.3857 19.1884C50.2035 18.8154 50.1123 18.3796 50.1123 17.8809C50.1123 17.3781 50.2035 16.9391 50.3857 16.5641C50.5701 16.189 50.8257 15.8978 51.1526 15.6904C51.4816 15.4829 51.8639 15.3792 52.2998 15.3792C52.7356 15.3792 53.1169 15.4829 53.4438 15.6904C53.7727 15.8978 54.0283 16.189 54.2106 16.5641C54.395 16.9391 54.4872 17.3781 54.4872 17.8809C54.4872 18.3796 54.395 18.8154 54.2106 19.1884C54.0283 19.5613 53.7727 19.8515 53.4438 20.059C53.1169 20.2664 52.7356 20.3701 52.2998 20.3701ZM52.2998 19.7038C52.6308 19.7038 52.9032 19.619 53.1169 19.4492C53.3306 19.2795 53.4888 19.0564 53.5915 18.7798C53.6941 18.5032 53.7455 18.2036 53.7455 17.8809C53.7455 17.5583 53.6941 17.2576 53.5915 16.9789C53.4888 16.7003 53.3306 16.475 53.1169 16.3032C52.9032 16.1314 52.6308 16.0455 52.2998 16.0455C51.9687 16.0455 51.6963 16.1314 51.4826 16.3032C51.2689 16.475 51.1107 16.7003 51.008 16.9789C50.9054 17.2576 50.854 17.5583 50.854 17.8809C50.854 18.2036 50.9054 18.5032 51.008 18.7798C51.1107 19.0564 51.2689 19.2795 51.4826 19.4492C51.6963 19.619 51.9687 19.7038 52.2998 19.7038ZM55.6194 20.2695V15.4421H56.336V16.1964H56.3988C56.4994 15.9386 56.6618 15.7386 56.886 15.5961C57.1102 15.4515 57.3794 15.3792 57.6937 15.3792C58.0122 15.3792 58.2772 15.4515 58.4889 15.5961C58.7026 15.7386 58.8691 15.9386 58.9886 16.1964H59.0389C59.1625 15.947 59.3479 15.749 59.5952 15.6024C59.8424 15.4536 60.1389 15.3792 60.4846 15.3792C60.9162 15.3792 61.2693 15.5144 61.5437 15.7846C61.8182 16.0528 61.9555 16.4708 61.9555 17.0387V20.2695H61.2137V17.0387C61.2137 16.6825 61.1163 16.4279 60.9214 16.2749C60.7266 16.122 60.4972 16.0455 60.2332 16.0455C59.8937 16.0455 59.6308 16.1482 59.4443 16.3535C59.2578 16.5567 59.1646 16.8145 59.1646 17.1267V20.2695H58.4103V16.9632C58.4103 16.6887 58.3212 16.4677 58.1431 16.3001C57.965 16.1304 57.7356 16.0455 57.4549 16.0455C57.2621 16.0455 57.0819 16.0968 56.9143 16.1995C56.7488 16.3022 56.6147 16.4447 56.512 16.6269C56.4114 16.8071 56.3611 17.0156 56.3611 17.2524V20.2695H55.6194ZM65.3356 20.3701C64.8705 20.3701 64.4692 20.2674 64.1319 20.0621C63.7967 19.8547 63.5379 19.5655 63.3556 19.1947C63.1754 18.8217 63.0853 18.388 63.0853 17.8935C63.0853 17.399 63.1754 16.9632 63.3556 16.5861C63.5379 16.2068 63.7914 15.9114 64.1162 15.6998C64.443 15.4861 64.8244 15.3792 65.2602 15.3792C65.5116 15.3792 65.7599 15.4211 66.005 15.5049C66.2502 15.5887 66.4733 15.7249 66.6745 15.9135C66.8756 16.1 67.0359 16.3472 67.1553 16.6552C67.2748 16.9632 67.3345 17.3425 67.3345 17.7929V18.1072H63.6133V17.4661H66.5802C66.5802 17.1937 66.5257 16.9507 66.4168 16.7369C66.3099 16.5232 66.157 16.3546 65.9579 16.2309C65.761 16.1073 65.5284 16.0455 65.2602 16.0455C64.9648 16.0455 64.7091 16.1188 64.4933 16.2655C64.2796 16.4101 64.1151 16.5987 63.9999 16.8312C63.8847 17.0638 63.827 17.3131 63.827 17.5792V18.0067C63.827 18.3712 63.8899 18.6803 64.0156 18.9338C64.1434 19.1852 64.3205 19.377 64.5468 19.509C64.773 19.6389 65.036 19.7038 65.3356 19.7038C65.5305 19.7038 65.7065 19.6766 65.8636 19.6221C66.0229 19.5655 66.1601 19.4817 66.2753 19.3707C66.3906 19.2575 66.4796 19.1171 66.5425 18.9495L67.2591 19.1507C67.1836 19.3937 67.0569 19.6074 66.8788 19.7918C66.7007 19.9741 66.4807 20.1166 66.2188 20.2192C65.9569 20.3198 65.6625 20.3701 65.3356 20.3701ZM70.5622 15.4421V16.0706H68.0605V15.4421H70.5622ZM68.7896 14.2855H69.5314V18.8867C69.5314 19.0962 69.5617 19.2533 69.6225 19.3581C69.6854 19.4608 69.765 19.5299 69.8614 19.5655C69.9598 19.5991 70.0635 19.6158 70.1725 19.6158C70.2542 19.6158 70.3213 19.6116 70.3736 19.6032C70.426 19.5928 70.4679 19.5844 70.4994 19.5781L70.6502 20.2444C70.5999 20.2632 70.5297 20.2821 70.4396 20.301C70.3496 20.3219 70.2354 20.3324 70.0971 20.3324C69.8875 20.3324 69.6822 20.2873 69.4811 20.1972C69.282 20.1071 69.1165 19.9699 68.9845 19.7855C68.8546 19.6011 68.7896 19.3686 68.7896 19.0878V14.2855ZM72.5234 17.3655V20.2695H71.7817V13.8329H72.5234V16.1964H72.5862C72.6994 15.947 72.8691 15.749 73.0954 15.6024C73.3238 15.4536 73.6276 15.3792 74.0068 15.3792C74.3358 15.3792 74.6239 15.4452 74.8711 15.5772C75.1183 15.7071 75.3101 15.9072 75.4462 16.1775C75.5845 16.4457 75.6537 16.7872 75.6537 17.2021V20.2695H74.912V17.2524C74.912 16.8689 74.8124 16.5725 74.6134 16.3629C74.4164 16.1513 74.143 16.0455 73.7931 16.0455C73.55 16.0455 73.3321 16.0968 73.1394 16.1995C72.9487 16.3022 72.7978 16.452 72.6868 16.6489C72.5778 16.8459 72.5234 17.0848 72.5234 17.3655ZM77.0106 20.2695V15.4421H77.7523V20.2695H77.0106ZM77.3878 14.6375C77.2432 14.6375 77.1185 14.5883 77.0138 14.4898C76.9111 14.3913 76.8598 14.2729 76.8598 14.1346C76.8598 13.9964 76.9111 13.878 77.0138 13.7795C77.1185 13.681 77.2432 13.6318 77.3878 13.6318C77.5323 13.6318 77.6559 13.681 77.7586 13.7795C77.8634 13.878 77.9158 13.9964 77.9158 14.1346C77.9158 14.2729 77.8634 14.3913 77.7586 14.4898C77.6559 14.5883 77.5323 14.6375 77.3878 14.6375ZM79.8526 17.3655V20.2695H79.1108V15.4421H79.8274V16.1964H79.8903C80.0034 15.9512 80.1752 15.7543 80.4057 15.6055C80.6362 15.4546 80.9337 15.3792 81.2983 15.3792C81.6251 15.3792 81.9111 15.4463 82.1563 15.5804C82.4014 15.7124 82.5921 15.9135 82.7283 16.1838C82.8645 16.452 82.9326 16.7914 82.9326 17.2021V20.2695H82.1909V17.2524C82.1909 16.8731 82.0924 16.5777 81.8954 16.3661C81.6985 16.1524 81.4282 16.0455 81.0846 16.0455C80.8478 16.0455 80.6362 16.0968 80.4497 16.1995C80.2653 16.3022 80.1197 16.452 80.0128 16.6489C79.906 16.8459 79.8526 17.0848 79.8526 17.3655ZM86.2365 22.1804C85.8782 22.1804 85.5702 22.1343 85.3125 22.0421C85.0548 21.952 84.84 21.8326 84.6682 21.6838C84.4985 21.5372 84.3634 21.38 84.2628 21.2124L84.8537 20.7975C84.9207 20.8855 85.0056 20.9861 85.1082 21.0993C85.2109 21.2145 85.3513 21.314 85.5294 21.3978C85.7096 21.4837 85.9453 21.5267 86.2365 21.5267C86.6262 21.5267 86.9479 21.4324 87.2014 21.2438C87.4549 21.0553 87.5817 20.7598 87.5817 20.3575V19.377H87.5188C87.4643 19.465 87.3868 19.5739 87.2862 19.7038C87.1878 19.8316 87.0453 19.9458 86.8588 20.0464C86.6744 20.1449 86.4251 20.1941 86.1108 20.1941C85.7211 20.1941 85.3712 20.1019 85.0611 19.9175C84.7531 19.7331 84.509 19.465 84.3288 19.113C84.1507 18.761 84.0617 18.3335 84.0617 17.8307C84.0617 17.3362 84.1486 16.9056 84.3225 16.5389C84.4964 16.1702 84.7384 15.8852 85.0485 15.6841C85.3586 15.4808 85.7169 15.3792 86.1234 15.3792C86.4377 15.3792 86.687 15.4316 86.8714 15.5364C87.0579 15.639 87.2003 15.7564 87.2988 15.8884C87.3994 16.0183 87.4769 16.1251 87.5314 16.2089H87.6068V15.4421H88.3234V20.4078C88.3234 20.8227 88.2291 21.16 88.0405 21.4198C87.8541 21.6817 87.6026 21.8734 87.2862 21.995C86.972 22.1186 86.622 22.1804 86.2365 22.1804ZM86.2114 19.5278C86.5089 19.5278 86.7603 19.4597 86.9657 19.3235C87.171 19.1873 87.3271 18.9914 87.434 18.7358C87.5408 18.4802 87.5942 18.1743 87.5942 17.8181C87.5942 17.4703 87.5419 17.1633 87.4371 16.8972C87.3323 16.6311 87.1773 16.4227 86.972 16.2718C86.7666 16.1209 86.5131 16.0455 86.2114 16.0455C85.8971 16.0455 85.6352 16.1251 85.4257 16.2844C85.2182 16.4436 85.0621 16.6573 84.9574 16.9255C84.8547 17.1937 84.8034 17.4912 84.8034 17.8181C84.8034 18.1533 84.8558 18.4498 84.9605 18.7075C85.0674 18.9631 85.2245 19.1643 85.4319 19.311C85.6415 19.4555 85.9013 19.5278 86.2114 19.5278ZM90.2217 20.3198C90.0666 20.3198 89.9336 20.2643 89.8225 20.1532C89.7115 20.0422 89.656 19.9091 89.656 19.7541C89.656 19.5991 89.7115 19.466 89.8225 19.355C89.9336 19.2439 90.0666 19.1884 90.2217 19.1884C90.3767 19.1884 90.5098 19.2439 90.6208 19.355C90.7319 19.466 90.7874 19.5991 90.7874 19.7541C90.7874 19.8568 90.7612 19.9511 90.7088 20.037C90.6585 20.1229 90.5905 20.192 90.5045 20.2444C90.4207 20.2947 90.3264 20.3198 90.2217 20.3198ZM92.659 20.3198C92.5039 20.3198 92.3709 20.2643 92.2598 20.1532C92.1488 20.0422 92.0933 19.9091 92.0933 19.7541C92.0933 19.5991 92.1488 19.466 92.2598 19.355C92.3709 19.2439 92.5039 19.1884 92.659 19.1884C92.814 19.1884 92.9471 19.2439 93.0581 19.355C93.1692 19.466 93.2247 19.5991 93.2247 19.7541C93.2247 19.8568 93.1985 19.9511 93.1461 20.037C93.0958 20.1229 93.0278 20.192 92.9418 20.2444C92.858 20.2947 92.7638 20.3198 92.659 20.3198Z" fill="#C1C6DE"/>
</svg>
