<svg width="218" height="66" viewBox="0 0 218 66" fill="none" xmlns="http://www.w3.org/2000/svg">
<path d="M217.282 53.7759C217.282 55.312 216.979 56.833 216.391 58.2522C215.803 59.6713 214.942 60.9608 213.856 62.0469C212.769 63.1331 211.48 63.9946 210.061 64.5824C208.641 65.1701 207.12 65.4726 205.584 65.4724H11.6956C10.1597 65.4724 8.63872 65.1699 7.21968 64.5821C5.80064 63.9943 4.5113 63.1327 3.42525 62.0465C2.33919 60.9604 1.47772 59.671 0.89001 58.2519C0.302303 56.8328 -0.000120508 55.3119 3.60218e-08 53.7759V11.6956C3.60219e-08 8.59376 1.2322 5.61893 3.42555 3.42557C5.61891 1.23221 8.59377 3.60213e-08 11.6956 3.60213e-08H205.583C207.119 -0.000120507 208.64 0.3023 210.059 0.889995C211.479 1.47769 212.768 2.33915 213.854 3.42519C214.94 4.51123 215.802 5.80058 216.39 7.21963C216.978 8.63867 217.281 10.1596 217.281 11.6956L217.282 53.7759Z" fill="white"/>
<path d="M77.6912 35.1645C77.6911 37.2627 77.0687 39.3138 75.9028 41.0583C74.737 42.8028 73.08 44.1624 71.1414 44.9652C69.2028 45.768 67.0697 45.9779 65.0118 45.5684C62.9539 45.1589 61.0637 44.1483 59.5801 42.6645C58.0966 41.1807 57.0864 39.2903 56.6772 37.2323C56.268 35.1744 56.4783 33.0413 57.2814 31.1029C58.0845 29.1644 59.4444 27.5077 61.1892 26.3421C62.9339 25.1765 64.9851 24.5545 67.0833 24.5547C68.4765 24.5548 69.856 24.8293 71.1431 25.3626C72.4301 25.8958 73.5996 26.6774 74.5846 27.6626C75.5697 28.6478 76.351 29.8174 76.884 31.1046C77.4171 32.3917 77.6914 33.7713 77.6912 35.1645Z" fill="#E3E4E8"/>
<path d="M79.2974 35.1633C79.2972 37.5793 78.5806 39.9409 77.2383 41.9496C75.8959 43.9582 73.988 45.5237 71.7559 46.4481C69.5238 47.3725 67.0677 47.6142 64.6983 47.1427C62.3288 46.6712 60.1524 45.5076 58.4442 43.7992C56.736 42.0907 55.5728 39.9141 55.1016 37.5446C54.6305 35.175 54.8725 32.719 55.7972 30.487C56.7219 28.2551 58.2877 26.3474 60.2966 25.0054C62.3055 23.6633 64.6672 22.9471 67.0831 22.9473C68.6872 22.9474 70.2756 23.2635 71.7576 23.8774C73.2396 24.4914 74.5861 25.3913 75.7203 26.5257C76.8545 27.66 77.7541 29.0067 78.3679 30.4887C78.9817 31.9708 79.2975 33.5592 79.2974 35.1633Z" stroke="#3ED778" stroke-opacity="0.843137" stroke-width="0.917881" stroke-miterlimit="10"/>
<path d="M63.2284 33.7135C63.2284 33.7135 62.7172 33.5198 62.6318 33.6511C62.5033 33.9522 62.4763 34.2869 62.5547 34.6048C62.6396 34.9515 62.8217 35.2668 63.0797 35.5135C63.2844 35.5918 63.5036 35.6246 63.7222 35.6099C63.6006 34.9673 63.4356 34.3338 63.2284 33.7135Z" fill="#FA9884"/>
<path d="M71.0235 33.7135C71.0235 33.7135 71.5366 33.5198 71.6219 33.6511C71.7491 33.9526 71.7755 34.2871 71.6972 34.6048C71.613 34.9518 71.4307 35.2672 71.1722 35.5135C70.9675 35.5918 70.7483 35.6246 70.5297 35.6099C70.6517 34.9674 70.8167 34.3339 71.0235 33.7135Z" fill="#FA9884"/>
<path d="M69.526 40.0073C69.3126 39.8571 69.139 39.6572 69.0203 39.4248C68.9016 39.1924 68.8414 38.9345 68.8449 38.6736C68.8669 37.9349 68.9417 37.1987 69.0689 36.4707H65.0963C65.2234 37.1987 65.2977 37.9349 65.3184 38.6736C65.3223 38.9346 65.2623 39.1926 65.1436 39.4251C65.0248 39.6575 64.851 39.8574 64.6373 40.0073L67.0826 43.8532L69.526 40.0073Z" fill="#FFC2AB"/>
<path d="M68.8544 38.1744C68.9067 37.4713 69.0691 36.4727 69.0691 36.4727H65.0966C65.0966 36.4727 65.2489 37.3997 65.3049 38.0955C65.8013 38.6004 66.4331 38.951 67.1242 39.1051C67.7775 38.9652 68.3775 38.6424 68.8544 38.1744Z" fill="#FA9884"/>
<path d="M67.0828 45.7711C69.7798 45.7716 72.3746 44.7393 74.3341 42.8862C74.3341 42.8862 74.3341 42.8788 74.3286 42.877C74.045 42.7099 71.4749 41.1789 70.1981 40.4538C69.9613 40.3228 69.7354 40.173 69.5226 40.0059L67.0792 43.8518L64.6339 40.0059C64.4215 40.1726 64.1962 40.3224 63.9602 40.4538C62.6834 41.1789 60.1134 42.7099 59.8297 42.877L59.8224 42.8862C61.7845 44.741 64.3828 45.7734 67.0828 45.7711Z" fill="url(#paint0_linear_544_2703)"/>
<path d="M68.9415 39.2402L67.348 42.2454L67.0828 43.8535L67.9786 42.4446L69.617 42.954C69.617 42.954 69.9365 40.3692 69.9521 40.3123C69.9764 40.239 69.9764 40.1598 69.9521 40.0865C69.9181 40.0259 69.1039 39.2439 69.1039 39.2439L68.9415 39.2402Z" fill="white"/>
<path d="M65.2259 39.2402L66.8175 42.2454L67.0846 43.8535L66.1879 42.4409L64.5476 42.9503C64.5476 42.9503 64.2282 40.3656 64.2126 40.3086C64.1865 40.2357 64.1865 40.1559 64.2126 40.0829C64.2466 40.0223 65.0607 39.2402 65.0607 39.2402H65.2259Z" fill="white"/>
<path d="M67.1246 27.2998C70.5593 27.2998 71.2 30.4334 71.1872 31.6671C71.1113 33.1149 70.8573 34.5478 70.4308 35.9334C69.9811 37.5957 67.8764 38.4007 67.1264 38.4007C66.3765 38.4007 64.2709 37.5957 63.8221 35.9334C63.394 34.5481 63.1393 33.1151 63.0639 31.6671C63.0511 30.4362 63.6899 27.2998 67.1246 27.2998Z" fill="#FFC2AB"/>
<path d="M72.3175 30.9538C72.153 30.7693 72.0447 30.5416 72.0054 30.2975C71.8983 29.8515 71.6939 29.4347 71.4069 29.0768C71.5106 28.9901 71.592 28.8799 71.6444 28.7553C71.6967 28.6308 71.7185 28.4955 71.708 28.3608C71.7002 28.3119 71.6754 28.2673 71.638 28.2349C71.6005 28.2025 71.5528 28.1843 71.5033 28.1837H71.4886C70.9953 28.1129 70.5328 27.9013 70.1568 27.5742C69.3195 26.8316 68.2466 26.409 67.1278 26.381C66.5674 26.2889 65.9923 26.3642 65.4744 26.5973C64.9565 26.8304 64.5189 27.2111 64.2163 27.6917C63.9556 27.6463 63.6872 27.6825 63.4478 27.7954C63.2084 27.9082 63.0098 28.0922 62.8789 28.3223C62.5751 28.9318 62.3464 29.576 62.1979 30.2406C62.0962 30.5775 61.898 30.8771 61.6278 31.1025C61.5967 31.1317 61.5755 31.1698 61.5671 31.2116C61.5587 31.2534 61.5636 31.2968 61.581 31.3357C61.6357 31.4412 61.7164 31.531 61.8155 31.5966C61.9146 31.6621 62.0289 31.7012 62.1474 31.7102C62.1868 32.1345 62.2585 32.5552 62.3621 32.9686C62.4334 33.1851 62.5496 33.384 62.7032 33.5523C62.8568 33.7206 63.0443 33.8545 63.2534 33.9452C63.2738 33.9542 63.2961 33.9581 63.3183 33.9565C63.3406 33.9549 63.3621 33.9478 63.381 33.936C63.4 33.9247 63.416 33.9091 63.4278 33.8904C63.4396 33.8718 63.4468 33.8506 63.4489 33.8286C63.4809 33.5531 63.5361 33.2807 63.6141 33.0145C63.7419 32.8523 63.8441 32.6715 63.917 32.4784C63.9262 32.5032 63.9281 32.5087 63.9299 32.5124C63.9428 32.5365 63.962 32.5567 63.9854 32.5709C64.0088 32.5851 64.0356 32.5928 64.063 32.5932C64.2154 32.5932 64.3732 32.2994 64.4806 32.0535C64.5662 31.8267 64.6217 31.5897 64.6458 31.3485C64.6655 31.1784 64.6977 31.01 64.7422 30.8446C64.7945 30.6675 64.8698 30.561 64.9451 30.561C64.9754 30.561 65.047 30.5775 65.1617 30.6886C65.177 30.7028 65.1951 30.7137 65.2149 30.7205C65.2346 30.7273 65.2556 30.7299 65.2764 30.728C65.2969 30.7257 65.3167 30.7189 65.3343 30.7081C65.3519 30.6973 65.3669 30.6828 65.3783 30.6656C65.4298 30.5635 65.506 30.4757 65.5999 30.4104C65.6938 30.345 65.8025 30.304 65.9162 30.2911C66.2117 30.2911 66.5835 30.5665 67.0847 31.1622C67.4772 31.6269 68.0144 31.9463 68.6102 32.0691C68.6465 32.0724 68.6829 32.064 68.714 32.045C68.7451 32.0259 68.7692 31.9974 68.7827 31.9635C68.813 31.8772 68.7772 31.7845 68.6909 31.6028C69.1488 31.8791 69.6467 32.0828 70.1669 32.2067C70.1921 32.2067 70.2169 32.2005 70.2391 32.1887C70.2614 32.1768 70.2804 32.1597 70.2945 32.1388C70.3248 32.0784 70.3378 32.0107 70.3321 31.9433C70.3395 31.9488 70.3468 31.9562 70.3551 31.9617C70.4594 32.6022 70.6076 33.2349 70.7984 33.8553C70.807 33.8841 70.8248 33.9094 70.8489 33.9274C70.873 33.9454 70.9023 33.9552 70.9324 33.9553C70.9424 33.9571 70.9527 33.9571 70.9627 33.9553C71.1307 33.9163 71.2876 33.8398 71.4216 33.7313C71.4324 33.7218 71.4419 33.711 71.4501 33.6992C71.7986 33.02 71.9521 32.2575 71.8934 31.4963C72.11 31.4605 72.3524 31.3292 72.3992 31.1732C72.4112 31.1327 72.4098 31.0894 72.395 31.0499C72.3803 31.0103 72.3531 30.9766 72.3175 30.9538Z" fill="#242736"/>
<path d="M62.7132 55.959V53.0358H63.701C63.9293 53.0358 64.1168 53.0748 64.2633 53.1528C64.4099 53.2299 64.5183 53.336 64.5888 53.4711C64.6592 53.6062 64.6944 53.7599 64.6944 53.9322C64.6944 54.1044 64.6592 54.2571 64.5888 54.3903C64.5183 54.5236 64.4103 54.6282 64.2648 54.7043C64.1192 54.7795 63.9331 54.8171 63.7067 54.8171H62.9074V54.4974H63.6952C63.8513 54.4974 63.9769 54.4745 64.0721 54.4289C64.1682 54.3832 64.2376 54.3185 64.2805 54.2348C64.3242 54.1501 64.3461 54.0492 64.3461 53.9322C64.3461 53.8151 64.3242 53.7128 64.2805 53.6253C64.2367 53.5377 64.1667 53.4702 64.0706 53.4226C63.9745 53.3741 63.8475 53.3498 63.6895 53.3498H63.0672V55.959H62.7132ZM64.0892 54.6458L64.8086 55.959H64.3975L63.6895 54.6458H64.0892ZM66.1057 56.0047C65.9077 56.0047 65.7341 55.9576 65.5847 55.8634C65.4362 55.7691 65.3202 55.6374 65.2364 55.468C65.1536 55.2986 65.1122 55.1007 65.1122 54.8742C65.1122 54.6458 65.1536 54.4465 65.2364 54.2761C65.3202 54.1058 65.4362 53.9735 65.5847 53.8793C65.7341 53.7851 65.9077 53.738 66.1057 53.738C66.3036 53.738 66.4768 53.7851 66.6252 53.8793C66.7746 53.9735 66.8907 54.1058 66.9735 54.2761C67.0572 54.4465 67.0991 54.6458 67.0991 54.8742C67.0991 55.1007 67.0572 55.2986 66.9735 55.468C66.8907 55.6374 66.7746 55.7691 66.6252 55.8634C66.4768 55.9576 66.3036 56.0047 66.1057 56.0047ZM66.1057 55.7021C66.256 55.7021 66.3797 55.6635 66.4768 55.5864C66.5738 55.5094 66.6457 55.408 66.6923 55.2824C66.7389 55.1568 66.7623 55.0207 66.7623 54.8742C66.7623 54.7277 66.7389 54.5911 66.6923 54.4646C66.6457 54.338 66.5738 54.2357 66.4768 54.1577C66.3797 54.0796 66.256 54.0406 66.1057 54.0406C65.9553 54.0406 65.8316 54.0796 65.7346 54.1577C65.6375 54.2357 65.5657 54.338 65.519 54.4646C65.4724 54.5911 65.4491 54.7277 65.4491 54.8742C65.4491 55.0207 65.4724 55.1568 65.519 55.2824C65.5657 55.408 65.6375 55.5094 65.7346 55.5864C65.8316 55.6635 65.9553 55.7021 66.1057 55.7021ZM69.1663 54.2576L68.8637 54.3432C68.8446 54.2928 68.8166 54.2438 68.7794 54.1962C68.7433 54.1477 68.6938 54.1077 68.631 54.0763C68.5682 54.0449 68.4878 54.0292 68.3898 54.0292C68.2556 54.0292 68.1438 54.0601 68.0544 54.122C67.9659 54.1829 67.9216 54.2604 67.9216 54.3546C67.9216 54.4384 67.9521 54.5045 68.013 54.5531C68.0739 54.6016 68.169 54.642 68.2984 54.6744L68.6239 54.7543C68.8199 54.8019 68.966 54.8747 69.0621 54.9727C69.1582 55.0697 69.2062 55.1949 69.2062 55.3481C69.2062 55.4737 69.1701 55.586 69.0977 55.6849C69.0264 55.7839 68.9265 55.8619 68.798 55.919C68.6695 55.9761 68.5201 56.0047 68.3498 56.0047C68.1262 56.0047 67.9411 55.9561 67.7946 55.8591C67.648 55.762 67.5553 55.6202 67.5162 55.4337L67.836 55.3538C67.8664 55.4718 67.924 55.5603 68.0087 55.6193C68.0943 55.6783 68.2061 55.7078 68.3441 55.7078C68.5011 55.7078 68.6258 55.6745 68.7181 55.6079C68.8113 55.5403 68.8579 55.4594 68.8579 55.3652C68.8579 55.2891 68.8313 55.2253 68.778 55.1739C68.7247 55.1216 68.6429 55.0826 68.5325 55.0569L68.1671 54.9713C67.9663 54.9237 67.8188 54.8499 67.7246 54.75C67.6314 54.6492 67.5848 54.5231 67.5848 54.3718C67.5848 54.2481 67.6195 54.1386 67.689 54.0435C67.7594 53.9483 67.855 53.8736 67.9759 53.8194C68.0977 53.7652 68.2356 53.738 68.3898 53.738C68.6067 53.738 68.7771 53.7856 68.9008 53.8808C69.0254 53.9759 69.1139 54.1015 69.1663 54.2576ZM71.2662 54.2576L70.9636 54.3432C70.9446 54.2928 70.9165 54.2438 70.8794 54.1962C70.8433 54.1477 70.7938 54.1077 70.731 54.0763C70.6682 54.0449 70.5878 54.0292 70.4898 54.0292C70.3556 54.0292 70.2438 54.0601 70.1543 54.122C70.0658 54.1829 70.0216 54.2604 70.0216 54.3546C70.0216 54.4384 70.052 54.5045 70.1129 54.5531C70.1738 54.6016 70.269 54.642 70.3984 54.6744L70.7238 54.7543C70.9199 54.8019 71.0659 54.8747 71.162 54.9727C71.2581 55.0697 71.3062 55.1949 71.3062 55.3481C71.3062 55.4737 71.27 55.586 71.1977 55.6849C71.1264 55.7839 71.0264 55.8619 70.898 55.919C70.7695 55.9761 70.6201 56.0047 70.4498 56.0047C70.2262 56.0047 70.0411 55.9561 69.8946 55.8591C69.748 55.762 69.6552 55.6202 69.6162 55.4337L69.936 55.3538C69.9664 55.4718 70.024 55.5603 70.1087 55.6193C70.1943 55.6783 70.3061 55.7078 70.4441 55.7078C70.6011 55.7078 70.7257 55.6745 70.818 55.6079C70.9113 55.5403 70.9579 55.4594 70.9579 55.3652C70.9579 55.2891 70.9313 55.2253 70.878 55.1739C70.8247 55.1216 70.7429 55.0826 70.6325 55.0569L70.2671 54.9713C70.0663 54.9237 69.9188 54.8499 69.8246 54.75C69.7314 54.6492 69.6847 54.5231 69.6847 54.3718C69.6847 54.2481 69.7195 54.1386 69.7889 54.0435C69.8593 53.9483 69.955 53.8736 70.0758 53.8194C70.1976 53.7652 70.3356 53.738 70.4898 53.738C70.7067 53.738 70.877 53.7856 71.0007 53.8808C71.1254 53.9759 71.2139 54.1015 71.2662 54.2576ZM72.0302 56.7811C71.9731 56.7811 71.9222 56.7764 71.8775 56.7669C71.8328 56.7583 71.8018 56.7497 71.7847 56.7412L71.8704 56.4443C71.9522 56.4652 72.0245 56.4728 72.0873 56.4671C72.1501 56.4614 72.2058 56.4333 72.2543 56.3829C72.3038 56.3334 72.349 56.253 72.3899 56.1417L72.4527 55.9704L71.642 53.7666H72.0074L72.6126 55.5137H72.6354L73.2406 53.7666H73.606L72.6754 56.2787C72.6335 56.3919 72.5817 56.4857 72.5198 56.5599C72.4579 56.6351 72.3861 56.6907 72.3043 56.7269C72.2234 56.7631 72.132 56.7811 72.0302 56.7811Z" fill="#5F616E"/>
<path d="M115.553 35.1645C115.553 37.2627 114.931 39.3138 113.765 41.0583C112.599 42.8028 110.942 44.1624 109.003 44.9652C107.065 45.768 104.932 45.9779 102.874 45.5684C100.816 45.1589 98.9256 44.1483 97.4421 42.6645C95.9585 41.1807 94.9483 39.2903 94.5391 37.2323C94.13 35.1744 94.3402 33.0413 95.1434 31.1029C95.9465 29.1644 97.3064 27.5077 99.0511 26.3421C100.796 25.1765 102.847 24.5545 104.945 24.5547C106.338 24.5548 107.718 24.8293 109.005 25.3626C110.292 25.8958 111.462 26.6774 112.447 27.6626C113.432 28.6478 114.213 29.8174 114.746 31.1046C115.279 32.3917 115.553 33.7713 115.553 35.1645Z" fill="#E3E4E8"/>
<path d="M117.159 35.1633C117.159 37.5793 116.442 39.9409 115.1 41.9496C113.758 43.9582 111.85 45.5237 109.618 46.4481C107.386 47.3725 104.93 47.6142 102.56 47.1427C100.191 46.6712 98.0142 45.5076 96.306 43.7992C94.5978 42.0907 93.4346 39.9141 92.9634 37.5446C92.4923 35.175 92.7344 32.719 93.6591 30.487C94.5838 28.2551 96.1496 26.3474 98.1584 25.0054C100.167 23.6633 102.529 22.9471 104.945 22.9473C106.549 22.9474 108.137 23.2635 109.619 23.8774C111.101 24.4914 112.448 25.3913 113.582 26.5257C114.716 27.66 115.616 29.0067 116.23 30.4887C116.843 31.9708 117.159 33.5592 117.159 35.1633Z" stroke="#3ED778" stroke-width="0.917881" stroke-miterlimit="10"/>
<path d="M101.09 33.7135C101.09 33.7135 100.578 33.5198 100.493 33.6511C100.365 33.9522 100.338 34.2869 100.416 34.6048C100.501 34.9515 100.683 35.2668 100.941 35.5135C101.146 35.5918 101.365 35.6246 101.584 35.6099C101.462 34.9673 101.297 34.3338 101.09 33.7135Z" fill="#FA9884"/>
<path d="M108.885 33.7135C108.885 33.7135 109.398 33.5198 109.483 33.6511C109.61 33.9526 109.637 34.2871 109.558 34.6048C109.474 34.9518 109.292 35.2672 109.033 35.5135C108.829 35.5918 108.609 35.6246 108.391 35.6099C108.513 34.9674 108.678 34.3339 108.885 33.7135Z" fill="#FA9884"/>
<path d="M107.388 40.0073C107.174 39.8571 107.001 39.6572 106.882 39.4248C106.763 39.1924 106.703 38.9345 106.707 38.6736C106.729 37.9349 106.804 37.1987 106.931 36.4707H102.958C103.085 37.1987 103.159 37.9349 103.18 38.6736C103.184 38.9346 103.124 39.1926 103.005 39.4251C102.887 39.6575 102.713 39.8574 102.499 40.0073L104.944 43.8532L107.388 40.0073Z" fill="#FFC2AB"/>
<path d="M106.713 38.1744C106.765 37.4713 106.927 36.4727 106.927 36.4727H102.958C102.958 36.4727 103.111 37.3997 103.167 38.0955C103.663 38.6004 104.295 38.951 104.986 39.1051C105.638 38.9646 106.237 38.6418 106.713 38.1744Z" fill="#FA9884"/>
<path d="M104.944 45.7711C107.641 45.7716 110.236 44.7393 112.196 42.8862C112.196 42.8862 112.196 42.8788 112.19 42.877C111.907 42.7099 109.336 41.1789 108.06 40.4538C107.823 40.3228 107.597 40.173 107.384 40.0059L104.941 43.8518L102.495 40.0059C102.283 40.1726 102.058 40.3224 101.822 40.4538C100.545 41.1789 97.9749 42.7099 97.6913 42.877L97.684 42.8862C99.6461 44.741 102.244 45.7734 104.944 45.7711Z" fill="#3ED778"/>
<path d="M106.805 39.2402L105.211 42.2454L104.946 43.8535L105.844 42.4409L107.482 42.9503C107.482 42.9503 107.802 40.3656 107.817 40.3086C107.842 40.2354 107.842 40.1562 107.817 40.0829C107.783 40.0223 106.969 39.2402 106.969 39.2402H106.805Z" fill="white"/>
<path d="M103.087 39.2402L104.678 42.2454L104.945 43.8535L104.051 42.4446L102.411 42.954C102.411 42.954 102.092 40.3692 102.076 40.3123C102.05 40.2393 102.05 40.1595 102.076 40.0865C102.11 40.0259 102.924 39.2439 102.924 39.2439L103.087 39.2402Z" fill="white"/>
<path d="M104.986 27.2998C108.421 27.2998 109.061 30.4334 109.049 31.6671C108.973 33.1149 108.719 34.5478 108.292 35.9334C107.843 37.5957 105.738 38.4007 104.988 38.4007C104.238 38.4007 102.132 37.5957 101.684 35.9334C101.255 34.5481 101.001 33.1151 100.925 31.6671C100.913 30.4362 101.551 27.2998 104.986 27.2998Z" fill="#FFC2AB"/>
<path d="M110.179 30.9538C110.015 30.7693 109.906 30.5416 109.867 30.2975C109.76 29.8515 109.555 29.4347 109.269 29.0768C109.372 28.9901 109.454 28.8799 109.506 28.7553C109.558 28.6308 109.58 28.4955 109.57 28.3608C109.562 28.3119 109.537 28.2673 109.5 28.2349C109.462 28.2025 109.414 28.1843 109.365 28.1837H109.35C108.857 28.1129 108.394 27.9013 108.018 27.5742C107.181 26.8316 106.108 26.409 104.989 26.381C104.429 26.2889 103.854 26.3642 103.336 26.5973C102.818 26.8304 102.38 27.2111 102.078 27.6917C101.817 27.6463 101.549 27.6825 101.309 27.7954C101.07 27.9082 100.871 28.0922 100.74 28.3223C100.437 28.9318 100.208 29.576 100.059 30.2406C99.9577 30.5775 99.7596 30.8771 99.4894 31.1025C99.4583 31.1317 99.4371 31.1698 99.4287 31.2116C99.4203 31.2534 99.4252 31.2968 99.4426 31.3357C99.4972 31.4412 99.5779 31.531 99.6771 31.5966C99.7762 31.6621 99.8904 31.7012 100.009 31.7102C100.048 32.1345 100.12 32.5552 100.224 32.9686C100.295 33.1851 100.411 33.384 100.565 33.5523C100.718 33.7206 100.906 33.8545 101.115 33.9452C101.135 33.9542 101.158 33.9581 101.18 33.9565C101.202 33.9549 101.224 33.9478 101.243 33.936C101.262 33.9247 101.278 33.9091 101.289 33.8904C101.301 33.8718 101.308 33.8506 101.311 33.8286C101.342 33.5531 101.398 33.2807 101.476 33.0145C101.603 32.8523 101.706 32.6715 101.779 32.4784C101.788 32.5032 101.79 32.5087 101.791 32.5124C101.804 32.5365 101.824 32.5567 101.847 32.5709C101.87 32.5851 101.897 32.5928 101.925 32.5932C102.077 32.5932 102.235 32.2994 102.342 32.0535C102.428 31.8267 102.483 31.5897 102.507 31.3485C102.527 31.1784 102.559 31.01 102.604 30.8446C102.656 30.6675 102.731 30.561 102.807 30.561C102.837 30.561 102.909 30.5775 103.023 30.6886C103.039 30.7028 103.057 30.7137 103.076 30.7205C103.096 30.7273 103.117 30.7299 103.138 30.728C103.159 30.7257 103.178 30.7189 103.196 30.7081C103.213 30.6973 103.228 30.6828 103.24 30.6656C103.291 30.5635 103.368 30.4757 103.461 30.4104C103.555 30.345 103.664 30.304 103.778 30.2911C104.073 30.2911 104.445 30.5665 104.946 31.1622C105.339 31.6269 105.876 31.9463 106.472 32.0691C106.508 32.0724 106.544 32.064 106.576 32.045C106.607 32.0259 106.631 31.9974 106.644 31.9635C106.675 31.8772 106.639 31.7845 106.553 31.6028C107.01 31.8791 107.508 32.0828 108.028 32.2067C108.054 32.2067 108.078 32.2005 108.101 32.1887C108.123 32.1768 108.142 32.1597 108.156 32.1388C108.186 32.0784 108.199 32.0107 108.194 31.9433C108.201 31.9488 108.208 31.9562 108.217 31.9617C108.321 32.6022 108.469 33.2349 108.66 33.8553C108.669 33.8841 108.686 33.9094 108.71 33.9274C108.735 33.9454 108.764 33.9552 108.794 33.9553C108.804 33.9571 108.814 33.9571 108.824 33.9553C108.992 33.9163 109.149 33.8398 109.283 33.7313C109.294 33.7218 109.303 33.711 109.312 33.6992C109.66 33.02 109.814 32.2575 109.755 31.4963C109.972 31.4605 110.214 31.3292 110.261 31.1732C110.273 31.1327 110.271 31.0894 110.257 31.0499C110.242 31.0103 110.215 30.9766 110.179 30.9538Z" fill="#242736"/>
<path d="M98.6227 53.0358H98.9767V55.1254C98.9767 55.3119 98.9424 55.4704 98.8739 55.6007C98.8054 55.7311 98.7088 55.83 98.5841 55.8976C98.4595 55.9652 98.3125 55.999 98.1431 55.999C97.9832 55.999 97.841 55.9699 97.7163 55.9119C97.5917 55.8529 97.4936 55.7691 97.4223 55.6607C97.3509 55.5522 97.3152 55.4233 97.3152 55.2739H97.6635C97.6635 55.3566 97.684 55.429 97.7249 55.4908C97.7667 55.5517 97.8238 55.5993 97.8962 55.6335C97.9685 55.6678 98.0508 55.6849 98.1431 55.6849C98.2449 55.6849 98.3315 55.6635 98.4029 55.6207C98.4742 55.5779 98.5285 55.5151 98.5656 55.4323C98.6036 55.3486 98.6227 55.2463 98.6227 55.1254V53.0358ZM100.531 56.0047C100.333 56.0047 100.159 55.9576 100.01 55.8634C99.8616 55.7691 99.7455 55.6374 99.6618 55.468C99.579 55.2986 99.5376 55.1007 99.5376 54.8742C99.5376 54.6458 99.579 54.4465 99.6618 54.2761C99.7455 54.1058 99.8616 53.9735 100.01 53.8793C100.159 53.7851 100.333 53.738 100.531 53.738C100.729 53.738 100.902 53.7851 101.051 53.8793C101.2 53.9735 101.316 54.1058 101.399 54.2761C101.483 54.4465 101.524 54.6458 101.524 54.8742C101.524 55.1007 101.483 55.2986 101.399 55.468C101.316 55.6374 101.2 55.7691 101.051 55.8634C100.902 55.9576 100.729 56.0047 100.531 56.0047ZM100.531 55.7021C100.681 55.7021 100.805 55.6635 100.902 55.5864C100.999 55.5094 101.071 55.408 101.118 55.2824C101.164 55.1568 101.188 55.0207 101.188 54.8742C101.188 54.7277 101.164 54.5911 101.118 54.4646C101.071 54.338 100.999 54.2357 100.902 54.1577C100.805 54.0796 100.681 54.0406 100.531 54.0406C100.381 54.0406 100.257 54.0796 100.16 54.1577C100.063 54.2357 99.991 54.338 99.9444 54.4646C99.8978 54.5911 99.8745 54.7277 99.8745 54.8742C99.8745 55.0207 99.8978 55.1568 99.9444 55.2824C99.991 55.408 100.063 55.5094 100.16 55.5864C100.257 55.6635 100.381 55.7021 100.531 55.7021ZM102.376 54.6401V55.959H102.039V53.7666H102.364V54.1091H102.393C102.444 53.9978 102.522 53.9084 102.627 53.8408C102.731 53.7723 102.867 53.738 103.032 53.738C103.181 53.738 103.31 53.7685 103.422 53.8294C103.533 53.8893 103.62 53.9807 103.682 54.1034C103.743 54.2252 103.774 54.3794 103.774 54.5659V55.959H103.437V54.5887C103.437 54.4165 103.393 54.2823 103.303 54.1862C103.214 54.0892 103.091 54.0406 102.935 54.0406C102.828 54.0406 102.731 54.0639 102.647 54.1106C102.563 54.1572 102.497 54.2252 102.448 54.3147C102.4 54.4041 102.376 54.5126 102.376 54.6401ZM105.035 56.0104C104.896 56.0104 104.77 55.9842 104.657 55.9319C104.544 55.8786 104.454 55.802 104.387 55.7021C104.32 55.6012 104.287 55.4794 104.287 55.3367C104.287 55.2111 104.312 55.1092 104.361 55.0312C104.411 54.9522 104.477 54.8904 104.56 54.8457C104.642 54.8009 104.734 54.7676 104.834 54.7457C104.935 54.7229 105.036 54.7048 105.138 54.6915C105.271 54.6744 105.379 54.6615 105.462 54.653C105.546 54.6434 105.606 54.6277 105.644 54.6059C105.684 54.584 105.703 54.5459 105.703 54.4917V54.4803C105.703 54.3394 105.664 54.23 105.587 54.152C105.511 54.0739 105.396 54.0349 105.241 54.0349C105.08 54.0349 104.954 54.0701 104.862 54.1405C104.771 54.211 104.707 54.2861 104.67 54.3661L104.35 54.2519C104.407 54.1187 104.483 54.0149 104.578 53.9407C104.674 53.8655 104.779 53.8132 104.892 53.7837C105.006 53.7533 105.119 53.738 105.229 53.738C105.3 53.738 105.38 53.7466 105.472 53.7637C105.564 53.7799 105.653 53.8137 105.739 53.8651C105.825 53.9165 105.897 53.994 105.954 54.0977C106.011 54.2014 106.04 54.3404 106.04 54.5145V55.959H105.703V55.6621H105.686C105.663 55.7097 105.625 55.7606 105.572 55.8148C105.518 55.8691 105.448 55.9152 105.359 55.9533C105.271 55.9913 105.163 56.0104 105.035 56.0104ZM105.086 55.7078C105.22 55.7078 105.332 55.6816 105.423 55.6293C105.516 55.5769 105.585 55.5094 105.632 55.4266C105.679 55.3438 105.703 55.2567 105.703 55.1654V54.8571C105.689 54.8742 105.657 54.8899 105.609 54.9042C105.561 54.9175 105.506 54.9294 105.443 54.9399C105.381 54.9494 105.321 54.9579 105.262 54.9656C105.204 54.9722 105.157 54.9779 105.121 54.9827C105.033 54.9941 104.951 55.0127 104.875 55.0383C104.8 55.0631 104.739 55.1007 104.692 55.1511C104.647 55.2006 104.624 55.2681 104.624 55.3538C104.624 55.4708 104.667 55.5593 104.754 55.6193C104.841 55.6783 104.952 55.7078 105.086 55.7078ZM107.608 53.7666V54.0521H106.472V53.7666H107.608ZM106.803 53.2413H107.14V55.331C107.14 55.4261 107.154 55.4975 107.181 55.5451C107.21 55.5917 107.246 55.6231 107.29 55.6393C107.335 55.6545 107.382 55.6621 107.431 55.6621C107.468 55.6621 107.499 55.6602 107.523 55.6564C107.546 55.6516 107.565 55.6478 107.58 55.645L107.648 55.9476C107.625 55.9561 107.593 55.9647 107.552 55.9733C107.512 55.9828 107.46 55.9875 107.397 55.9875C107.302 55.9875 107.209 55.9671 107.117 55.9262C107.027 55.8852 106.952 55.8229 106.892 55.7392C106.833 55.6554 106.803 55.5498 106.803 55.4223V53.2413ZM108.499 54.6401V55.959H108.162V53.0358H108.499V54.1091H108.527C108.579 53.9959 108.656 53.906 108.759 53.8394C108.862 53.7718 109 53.738 109.173 53.738C109.322 53.738 109.453 53.768 109.565 53.828C109.677 53.887 109.764 53.9778 109.826 54.1006C109.889 54.2224 109.92 54.3775 109.92 54.5659V55.959H109.584V54.5887C109.584 54.4146 109.538 54.28 109.448 54.1848C109.359 54.0887 109.234 54.0406 109.075 54.0406C108.965 54.0406 108.866 54.0639 108.779 54.1106C108.692 54.1572 108.623 54.2252 108.573 54.3147C108.524 54.4041 108.499 54.5126 108.499 54.6401ZM111.182 56.0104C111.043 56.0104 110.917 55.9842 110.804 55.9319C110.69 55.8786 110.6 55.802 110.534 55.7021C110.467 55.6012 110.434 55.4794 110.434 55.3367C110.434 55.2111 110.459 55.1092 110.508 55.0312C110.558 54.9522 110.624 54.8904 110.707 54.8457C110.789 54.8009 110.881 54.7676 110.981 54.7457C111.081 54.7229 111.183 54.7048 111.285 54.6915C111.418 54.6744 111.526 54.6615 111.609 54.653C111.692 54.6434 111.753 54.6277 111.791 54.6059C111.83 54.584 111.85 54.5459 111.85 54.4917V54.4803C111.85 54.3394 111.811 54.23 111.734 54.152C111.658 54.0739 111.543 54.0349 111.387 54.0349C111.227 54.0349 111.101 54.0701 111.009 54.1405C110.918 54.211 110.854 54.2861 110.816 54.3661L110.497 54.2519C110.554 54.1187 110.63 54.0149 110.725 53.9407C110.821 53.8655 110.926 53.8132 111.039 53.7837C111.153 53.7533 111.266 53.738 111.376 53.738C111.446 53.738 111.527 53.7466 111.619 53.7637C111.711 53.7799 111.8 53.8137 111.886 53.8651C111.972 53.9165 112.044 53.994 112.101 54.0977C112.158 54.2014 112.187 54.3404 112.187 54.5145V55.959H111.85V55.6621H111.833C111.81 55.7097 111.772 55.7606 111.719 55.8148C111.665 55.8691 111.594 55.9152 111.506 55.9533C111.417 55.9913 111.309 56.0104 111.182 56.0104ZM111.233 55.7078C111.366 55.7078 111.479 55.6816 111.57 55.6293C111.662 55.5769 111.732 55.5094 111.779 55.4266C111.826 55.3438 111.85 55.2567 111.85 55.1654V54.8571C111.836 54.8742 111.804 54.8899 111.756 54.9042C111.708 54.9175 111.653 54.9294 111.59 54.9399C111.528 54.9494 111.468 54.9579 111.409 54.9656C111.351 54.9722 111.304 54.9779 111.268 54.9827C111.18 54.9941 111.098 55.0127 111.022 55.0383C110.947 55.0631 110.886 55.1007 110.839 55.1511C110.794 55.2006 110.771 55.2681 110.771 55.3538C110.771 55.4708 110.814 55.5593 110.901 55.6193C110.988 55.6783 111.099 55.7078 111.233 55.7078ZM113.138 54.6401V55.959H112.802V53.7666H113.127V54.1091H113.156C113.207 53.9978 113.285 53.9084 113.39 53.8408C113.494 53.7723 113.629 53.738 113.795 53.738C113.943 53.738 114.073 53.7685 114.185 53.8294C114.296 53.8893 114.383 53.9807 114.444 54.1034C114.506 54.2252 114.537 54.3794 114.537 54.5659V55.959H114.2V54.5887C114.2 54.4165 114.156 54.2823 114.066 54.1862C113.977 54.0892 113.854 54.0406 113.698 54.0406C113.59 54.0406 113.494 54.0639 113.41 54.1106C113.326 54.1572 113.26 54.2252 113.211 54.3147C113.163 54.4041 113.138 54.5126 113.138 54.6401Z" fill="#5F616E"/>
<path d="M153.415 35.1645C153.415 37.2627 152.793 39.3138 151.627 41.0583C150.461 42.8028 148.804 44.1624 146.865 44.9652C144.927 45.768 142.794 45.9779 140.736 45.5684C138.678 45.1589 136.788 44.1483 135.304 42.6645C133.821 41.1807 132.81 39.2903 132.401 37.2323C131.992 35.1744 132.202 33.0413 133.005 31.1029C133.809 29.1644 135.168 27.5077 136.913 26.3421C138.658 25.1765 140.709 24.5545 142.807 24.5547C144.2 24.5548 145.58 24.8293 146.867 25.3626C148.154 25.8958 149.324 26.6774 150.309 27.6626C151.294 28.6478 152.075 29.8174 152.608 31.1046C153.141 32.3917 153.415 33.7713 153.415 35.1645Z" fill="#E3E4E8"/>
<path d="M155.021 35.1633C155.021 37.5793 154.304 39.9409 152.962 41.9496C151.62 43.9582 149.712 45.5237 147.48 46.4481C145.248 47.3725 142.792 47.6142 140.422 47.1427C138.053 46.6712 135.876 45.5076 134.168 43.7992C132.46 42.0907 131.297 39.9141 130.825 37.5446C130.354 35.175 130.596 32.719 131.521 30.487C132.446 28.2551 134.012 26.3474 136.02 25.0054C138.029 23.6633 140.391 22.9471 142.807 22.9473C144.411 22.9474 146 23.2635 147.481 23.8774C148.963 24.4914 150.31 25.3913 151.444 26.5257C152.578 27.66 153.478 29.0067 154.092 30.4887C154.706 31.9708 155.021 33.5592 155.021 35.1633Z" stroke="#3ED778" stroke-width="0.917881" stroke-miterlimit="10"/>
<path d="M138.95 33.7135C138.95 33.7135 138.439 33.5198 138.354 33.6511C138.225 33.9522 138.198 34.2869 138.277 34.6048C138.362 34.9515 138.544 35.2668 138.802 35.5135C139.006 35.5918 139.226 35.6246 139.444 35.6099C139.323 34.9673 139.158 34.3338 138.95 33.7135Z" fill="#FA9884"/>
<path d="M146.746 33.7135C146.746 33.7135 147.259 33.5198 147.344 33.6511C147.471 33.9526 147.498 34.2871 147.419 34.6048C147.335 34.9518 147.153 35.2672 146.894 35.5135C146.69 35.5918 146.47 35.6246 146.252 35.6099C146.374 34.9674 146.539 34.3339 146.746 33.7135Z" fill="#FA9884"/>
<path d="M145.25 40.0073C145.037 39.8571 144.863 39.6572 144.744 39.4248C144.626 39.1924 144.565 38.9345 144.569 38.6736C144.591 37.9349 144.666 37.1987 144.793 36.4707H140.82C140.947 37.1987 141.022 37.9349 141.042 38.6736C141.046 38.9346 140.986 39.1926 140.868 39.4251C140.749 39.6575 140.575 39.8574 140.361 40.0073L142.807 43.8532L145.25 40.0073Z" fill="#FFC2AB"/>
<path d="M144.578 38.1744C144.631 37.4713 144.793 36.4727 144.793 36.4727H140.82C140.82 36.4727 140.973 37.3997 141.029 38.0955C141.525 38.6004 142.157 38.951 142.848 39.1051C143.501 38.9652 144.101 38.6424 144.578 38.1744Z" fill="#FA9884"/>
<path d="M142.807 45.7711C145.504 45.7716 148.098 44.7393 150.058 42.8862C150.058 42.8862 150.058 42.8788 150.052 42.877C149.769 42.7099 147.199 41.1789 145.922 40.4538C145.685 40.3228 145.459 40.173 145.246 40.0059L142.803 43.8518L140.358 40.0059C140.145 40.1726 139.92 40.3224 139.684 40.4538C138.407 41.1789 135.837 42.7099 135.554 42.877L135.546 42.8862C137.508 44.741 140.107 45.7734 142.807 45.7711Z" fill="#F9D967"/>
<path d="M144.665 39.2402L143.072 42.2454L142.807 43.8535L143.703 42.4446L145.341 42.954C145.341 42.954 145.66 40.3692 145.676 40.3123C145.7 40.239 145.7 40.1598 145.676 40.0865C145.642 40.0259 144.828 39.2439 144.828 39.2439L144.665 39.2402Z" fill="white"/>
<path d="M140.95 39.2402L142.541 42.2454L142.809 43.8535L141.912 42.4409L140.271 42.9503C140.271 42.9503 139.952 40.3656 139.936 40.3086C139.91 40.2357 139.91 40.1559 139.936 40.0829C139.97 40.0223 140.785 39.2402 140.785 39.2402H140.95Z" fill="white"/>
<path d="M142.849 27.2998C146.283 27.2998 146.924 30.4334 146.911 31.6671C146.835 33.1149 146.581 34.5478 146.155 35.9334C145.705 37.5957 143.6 38.4007 142.85 38.4007C142.1 38.4007 139.995 37.5957 139.546 35.9334C139.118 34.5481 138.863 33.1151 138.788 31.6671C138.775 30.4362 139.414 27.2998 142.849 27.2998Z" fill="#FFC2AB"/>
<path d="M148.042 30.9535C147.878 30.769 147.769 30.5413 147.73 30.2973C147.623 29.8512 147.418 29.4344 147.131 29.0765C147.235 28.9898 147.317 28.8796 147.369 28.755C147.421 28.6305 147.443 28.4952 147.433 28.3605C147.425 28.3116 147.4 28.267 147.363 28.2346C147.325 28.2022 147.277 28.1841 147.228 28.1834H147.213C146.72 28.1126 146.257 27.901 145.881 27.5739C145.044 26.8314 143.971 26.4087 142.852 26.3807C142.291 26.2889 141.716 26.3647 141.198 26.5987C140.68 26.8327 140.242 27.2144 139.94 27.696C139.679 27.6506 139.411 27.6868 139.171 27.7997C138.932 27.9125 138.733 28.0965 138.603 28.3266C138.299 28.9361 138.07 29.5803 137.921 30.2449C137.82 30.5818 137.622 30.8814 137.351 31.1068C137.32 31.136 137.299 31.1741 137.291 31.2159C137.282 31.2577 137.287 31.3011 137.305 31.34C137.359 31.4455 137.44 31.5353 137.539 31.6009C137.638 31.6664 137.753 31.7055 137.871 31.7145C137.91 32.1388 137.982 32.5595 138.086 32.9729C138.157 33.1893 138.273 33.3883 138.427 33.5566C138.58 33.7249 138.768 33.8588 138.977 33.9495C138.997 33.9585 139.02 33.9623 139.042 33.9607C139.064 33.9591 139.086 33.9521 139.105 33.9403C139.124 33.929 139.14 33.9134 139.151 33.8948C139.163 33.8761 139.17 33.8549 139.173 33.8329C139.205 33.5574 139.26 33.285 139.338 33.0188C139.466 32.8566 139.568 32.6758 139.641 32.4827C139.65 32.5075 139.652 32.513 139.654 32.5167C139.666 32.5408 139.686 32.561 139.709 32.5752C139.732 32.5894 139.759 32.5971 139.787 32.5975C139.939 32.5975 140.097 32.3037 140.204 32.0577C140.29 31.831 140.345 31.594 140.369 31.3528C140.389 31.1827 140.421 31.0143 140.466 30.8489C140.518 30.6717 140.593 30.5653 140.669 30.5653C140.699 30.5653 140.771 30.5818 140.885 30.6929C140.901 30.7071 140.919 30.718 140.938 30.7248C140.958 30.7316 140.979 30.7342 141 30.7323C141.021 30.73 141.04 30.7232 141.058 30.7124C141.076 30.7016 141.091 30.6871 141.102 30.6699C141.153 30.5678 141.23 30.48 141.324 30.4147C141.417 30.3493 141.526 30.3083 141.64 30.2954C141.935 30.2954 142.307 30.5708 142.808 31.1665C143.201 31.6312 143.738 31.9505 144.334 32.0734C144.37 32.0767 144.407 32.0683 144.438 32.0493C144.469 32.0302 144.493 32.0017 144.506 31.9678C144.537 31.8815 144.501 31.7888 144.415 31.6071C144.872 31.8834 145.37 32.0871 145.891 32.211C145.916 32.211 145.941 32.2048 145.963 32.1929C145.985 32.1811 146.004 32.164 146.018 32.1431C146.048 32.0827 146.061 32.015 146.056 31.9476C146.063 31.9531 146.07 31.9605 146.079 31.966C146.183 32.6065 146.331 33.2392 146.522 33.8595C146.531 33.8884 146.548 33.9137 146.573 33.9317C146.597 33.9497 146.626 33.9595 146.656 33.9596C146.666 33.9614 146.676 33.9614 146.686 33.9596C146.854 33.9206 147.011 33.8441 147.145 33.7356C147.156 33.7261 147.166 33.7153 147.174 33.7035C147.522 33.0243 147.676 32.2618 147.617 31.5006C147.834 31.4648 148.076 31.3335 148.123 31.1775C148.136 31.1365 148.135 31.0923 148.121 31.0517C148.106 31.0112 148.078 30.9767 148.042 30.9535Z" fill="#242736"/>
<path d="M135.076 55.959V53.0358H136.063C136.293 53.0358 136.48 53.0772 136.626 53.16C136.772 53.2418 136.881 53.3527 136.951 53.4925C137.022 53.6324 137.057 53.7885 137.057 53.9607C137.057 54.1329 137.022 54.2895 136.951 54.4303C136.882 54.5711 136.774 54.6834 136.629 54.7672C136.483 54.8499 136.297 54.8913 136.069 54.8913H135.361V54.5773H136.058C136.215 54.5773 136.341 54.5502 136.436 54.496C136.531 54.4417 136.6 54.3684 136.643 54.2761C136.687 54.1829 136.709 54.0777 136.709 53.9607C136.709 53.8437 136.687 53.739 136.643 53.6467C136.6 53.5544 136.531 53.4821 136.434 53.4297C136.338 53.3764 136.211 53.3498 136.052 53.3498H135.43V55.959H135.076ZM138.477 56.0047C138.266 56.0047 138.084 55.958 137.93 55.8648C137.778 55.7706 137.661 55.6393 137.578 55.4708C137.496 55.3015 137.455 55.1045 137.455 54.8799C137.455 54.6553 137.496 54.4574 137.578 54.2861C137.661 54.1139 137.776 53.9797 137.923 53.8836C138.072 53.7866 138.245 53.738 138.443 53.738C138.557 53.738 138.67 53.7571 138.781 53.7951C138.892 53.8332 138.994 53.895 139.085 53.9807C139.176 54.0654 139.249 54.1777 139.303 54.3175C139.358 54.4574 139.385 54.6297 139.385 54.8342V54.977H137.695V54.6858H139.042C139.042 54.5621 139.018 54.4517 138.968 54.3546C138.919 54.2576 138.85 54.181 138.76 54.1248C138.67 54.0687 138.565 54.0406 138.443 54.0406C138.309 54.0406 138.193 54.0739 138.094 54.1405C137.997 54.2062 137.923 54.2918 137.87 54.3975C137.818 54.5031 137.792 54.6163 137.792 54.7372V54.9313C137.792 55.0969 137.82 55.2372 137.878 55.3524C137.936 55.4666 138.016 55.5536 138.119 55.6136C138.222 55.6726 138.341 55.7021 138.477 55.7021C138.566 55.7021 138.645 55.6897 138.717 55.665C138.789 55.6393 138.851 55.6012 138.904 55.5508C138.956 55.4994 138.997 55.4356 139.025 55.3595L139.351 55.4508C139.316 55.5612 139.259 55.6583 139.178 55.742C139.097 55.8248 138.997 55.8895 138.878 55.9361C138.759 55.9818 138.625 56.0047 138.477 56.0047ZM140.851 53.7666V54.0521H139.715V53.7666H140.851ZM140.046 53.2413H140.383V55.331C140.383 55.4261 140.396 55.4975 140.424 55.5451C140.452 55.5917 140.489 55.6231 140.532 55.6393C140.577 55.6545 140.624 55.6621 140.674 55.6621C140.711 55.6621 140.741 55.6602 140.765 55.6564C140.789 55.6516 140.808 55.6478 140.822 55.645L140.891 55.9476C140.868 55.9561 140.836 55.9647 140.795 55.9733C140.754 55.9828 140.702 55.9875 140.639 55.9875C140.544 55.9875 140.451 55.9671 140.36 55.9262C140.269 55.8852 140.194 55.8229 140.134 55.7392C140.075 55.6554 140.046 55.5498 140.046 55.4223V53.2413ZM142.311 53.7666V54.0521H141.175V53.7666H142.311ZM141.506 53.2413H141.843V55.331C141.843 55.4261 141.856 55.4975 141.884 55.5451C141.913 55.5917 141.949 55.6231 141.993 55.6393C142.037 55.6545 142.084 55.6621 142.134 55.6621C142.171 55.6621 142.201 55.6602 142.225 55.6564C142.249 55.6516 142.268 55.6478 142.282 55.645L142.351 55.9476C142.328 55.9561 142.296 55.9647 142.255 55.9733C142.214 55.9828 142.162 55.9875 142.1 55.9875C142.004 55.9875 141.911 55.9671 141.82 55.9262C141.729 55.8852 141.654 55.8229 141.594 55.7392C141.535 55.6554 141.506 55.5498 141.506 55.4223V53.2413ZM143.713 56.0047C143.502 56.0047 143.32 55.958 143.167 55.8648C143.014 55.7706 142.897 55.6393 142.814 55.4708C142.732 55.3015 142.691 55.1045 142.691 54.8799C142.691 54.6553 142.732 54.4574 142.814 54.2861C142.897 54.1139 143.012 53.9797 143.159 53.8836C143.308 53.7866 143.481 53.738 143.679 53.738C143.793 53.738 143.906 53.7571 144.017 53.7951C144.129 53.8332 144.23 53.895 144.321 53.9807C144.413 54.0654 144.485 54.1777 144.54 54.3175C144.594 54.4574 144.621 54.6297 144.621 54.8342V54.977H142.931V54.6858H144.278C144.278 54.5621 144.254 54.4517 144.204 54.3546C144.156 54.2576 144.086 54.181 143.996 54.1248C143.906 54.0687 143.801 54.0406 143.679 54.0406C143.545 54.0406 143.429 54.0739 143.331 54.1405C143.234 54.2062 143.159 54.2918 143.107 54.3975C143.054 54.5031 143.028 54.6163 143.028 54.7372V54.9313C143.028 55.0969 143.057 55.2372 143.114 55.3524C143.172 55.4666 143.252 55.5536 143.355 55.6136C143.458 55.6726 143.577 55.7021 143.713 55.7021C143.802 55.7021 143.882 55.6897 143.953 55.665C144.025 55.6393 144.088 55.6012 144.14 55.5508C144.192 55.4994 144.233 55.4356 144.261 55.3595L144.587 55.4508C144.553 55.5612 144.495 55.6583 144.414 55.742C144.333 55.8248 144.233 55.8895 144.114 55.9361C143.995 55.9818 143.862 56.0047 143.713 56.0047ZM145.133 55.959V53.7666H145.459V54.0977H145.482C145.522 53.9892 145.594 53.9012 145.699 53.8337C145.803 53.7661 145.921 53.7323 146.053 53.7323C146.077 53.7323 146.108 53.7328 146.145 53.7338C146.183 53.7347 146.211 53.7361 146.23 53.738V54.0806C146.218 54.0777 146.192 54.0735 146.151 54.0678C146.111 54.0611 146.069 54.0578 146.024 54.0578C145.918 54.0578 145.822 54.0801 145.739 54.1248C145.656 54.1686 145.59 54.2295 145.542 54.3075C145.494 54.3846 145.47 54.4726 145.47 54.5716V55.959H145.133ZM148.182 54.2576L147.879 54.3432C147.86 54.2928 147.832 54.2438 147.795 54.1962C147.759 54.1477 147.709 54.1077 147.647 54.0763C147.584 54.0449 147.503 54.0292 147.405 54.0292C147.271 54.0292 147.159 54.0601 147.07 54.122C146.981 54.1829 146.937 54.2604 146.937 54.3546C146.937 54.4384 146.968 54.5045 147.029 54.5531C147.089 54.6016 147.185 54.642 147.314 54.6744L147.639 54.7543C147.836 54.8019 147.982 54.8747 148.078 54.9727C148.174 55.0697 148.222 55.1949 148.222 55.3481C148.222 55.4737 148.186 55.586 148.113 55.6849C148.042 55.7839 147.942 55.8619 147.814 55.919C147.685 55.9761 147.536 56.0047 147.365 56.0047C147.142 56.0047 146.957 55.9561 146.81 55.8591C146.664 55.762 146.571 55.6202 146.532 55.4337L146.852 55.3538C146.882 55.4718 146.94 55.5603 147.024 55.6193C147.11 55.6783 147.222 55.7078 147.36 55.7078C147.517 55.7078 147.641 55.6745 147.734 55.6079C147.827 55.5403 147.874 55.4594 147.874 55.3652C147.874 55.2891 147.847 55.2253 147.794 55.1739C147.74 55.1216 147.659 55.0826 147.548 55.0569L147.183 54.9713C146.982 54.9237 146.834 54.8499 146.74 54.75C146.647 54.6492 146.6 54.5231 146.6 54.3718C146.6 54.2481 146.635 54.1386 146.705 54.0435C146.775 53.9483 146.871 53.8736 146.991 53.8194C147.113 53.7652 147.251 53.738 147.405 53.738C147.622 53.738 147.793 53.7856 147.916 53.8808C148.041 53.9759 148.13 54.1015 148.182 54.2576ZM149.62 56.0047C149.422 56.0047 149.248 55.9576 149.099 55.8634C148.95 55.7691 148.834 55.6374 148.75 55.468C148.668 55.2986 148.626 55.1007 148.626 54.8742C148.626 54.6458 148.668 54.4465 148.75 54.2761C148.834 54.1058 148.95 53.9735 149.099 53.8793C149.248 53.7851 149.422 53.738 149.62 53.738C149.818 53.738 149.991 53.7851 150.139 53.8793C150.289 53.9735 150.405 54.1058 150.487 54.2761C150.571 54.4465 150.613 54.6458 150.613 54.8742C150.613 55.1007 150.571 55.2986 150.487 55.468C150.405 55.6374 150.289 55.7691 150.139 55.8634C149.991 55.9576 149.818 56.0047 149.62 56.0047ZM149.62 55.7021C149.77 55.7021 149.894 55.6635 149.991 55.5864C150.088 55.5094 150.16 55.408 150.206 55.2824C150.253 55.1568 150.276 55.0207 150.276 54.8742C150.276 54.7277 150.253 54.5911 150.206 54.4646C150.16 54.338 150.088 54.2357 149.991 54.1577C149.894 54.0796 149.77 54.0406 149.62 54.0406C149.469 54.0406 149.346 54.0796 149.248 54.1577C149.151 54.2357 149.08 54.338 149.033 54.4646C148.986 54.5911 148.963 54.7277 148.963 54.8742C148.963 55.0207 148.986 55.1568 149.033 55.2824C149.08 55.408 149.151 55.5094 149.248 55.5864C149.346 55.6635 149.469 55.7021 149.62 55.7021ZM151.464 54.6401V55.959H151.127V53.7666H151.453V54.1091H151.481C151.533 53.9978 151.611 53.9084 151.715 53.8408C151.82 53.7723 151.955 53.738 152.121 53.738C152.269 53.738 152.399 53.7685 152.51 53.8294C152.622 53.8893 152.708 53.9807 152.77 54.1034C152.832 54.2252 152.863 54.3794 152.863 54.5659V55.959H152.526V54.5887C152.526 54.4165 152.481 54.2823 152.392 54.1862C152.302 54.0892 152.18 54.0406 152.024 54.0406C151.916 54.0406 151.82 54.0639 151.735 54.1106C151.652 54.1572 151.585 54.2252 151.537 54.3147C151.488 54.4041 151.464 54.5126 151.464 54.6401Z" fill="#5F616E"/>
<path d="M191.28 35.1645C191.28 37.2627 190.657 39.3138 189.492 41.0583C188.326 42.8028 186.669 44.1624 184.73 44.9652C182.792 45.768 180.658 45.9779 178.601 45.5684C176.543 45.1589 174.652 44.1483 173.169 42.6645C171.685 41.1807 170.675 39.2903 170.266 37.2323C169.857 35.1744 170.067 33.0413 170.87 31.1029C171.673 29.1644 173.033 27.5077 174.778 26.3421C176.523 25.1765 178.574 24.5545 180.672 24.5547C182.065 24.5548 183.445 24.8293 184.732 25.3626C186.019 25.8958 187.188 26.6774 188.173 27.6626C189.158 28.6478 189.94 29.8174 190.473 31.1046C191.006 32.3917 191.28 33.7713 191.28 35.1645Z" fill="#E3E4E8"/>
<path d="M192.886 35.1633C192.886 37.5793 192.169 39.9409 190.827 41.9496C189.485 43.9582 187.577 45.5237 185.345 46.4481C183.113 47.3725 180.657 47.6142 178.287 47.1427C175.918 46.6712 173.741 45.5076 172.033 43.7992C170.325 42.0907 169.162 39.9141 168.69 37.5446C168.219 35.175 168.461 32.719 169.386 30.487C170.311 28.2551 171.877 26.3474 173.885 25.0054C175.894 23.6633 178.256 22.9471 180.672 22.9473C182.276 22.9474 183.865 23.2635 185.347 23.8774C186.828 24.4914 188.175 25.3913 189.309 26.5257C190.443 27.66 191.343 29.0067 191.957 30.4887C192.571 31.9708 192.886 33.5592 192.886 35.1633Z" stroke="#3ED778" stroke-width="0.917881" stroke-miterlimit="10"/>
<path d="M176.815 33.7135C176.815 33.7135 176.304 33.5198 176.218 33.6511C176.09 33.9522 176.063 34.2869 176.141 34.6048C176.226 34.9515 176.408 35.2668 176.666 35.5135C176.871 35.5918 177.09 35.6246 177.309 35.6099C177.187 34.9673 177.022 34.3338 176.815 33.7135Z" fill="#FA9884"/>
<path d="M184.61 33.7135C184.61 33.7135 185.123 33.5198 185.208 33.6511C185.336 33.9526 185.362 34.2871 185.283 34.6048C185.199 34.9516 185.017 35.267 184.758 35.5135C184.554 35.5918 184.335 35.6246 184.116 35.6099C184.238 34.9674 184.403 34.3339 184.61 33.7135Z" fill="#FA9884"/>
<path d="M183.115 40.0073C182.902 39.8571 182.728 39.6572 182.61 39.4248C182.491 39.1924 182.431 38.9345 182.434 38.6736C182.456 37.9349 182.531 37.1987 182.658 36.4707H178.686C178.813 37.1987 178.887 37.9349 178.908 38.6736C178.912 38.9346 178.851 39.1926 178.733 39.4251C178.614 39.6575 178.44 39.8574 178.227 40.0073L180.672 43.8532L183.115 40.0073Z" fill="#FFC2AB"/>
<path d="M182.439 38.1744C182.492 37.4713 182.654 36.4727 182.654 36.4727H178.685C178.685 36.4727 178.838 37.3997 178.893 38.0955C179.389 38.6004 180.021 38.951 180.712 39.1051C181.364 38.9648 181.963 38.642 182.439 38.1744Z" fill="#FA9884"/>
<path d="M180.671 45.7711C183.368 45.7711 185.963 44.7388 187.923 42.8862C187.923 42.8862 187.923 42.8788 187.917 42.877C187.634 42.7099 185.064 41.1789 183.787 40.4538C183.55 40.3228 183.324 40.173 183.111 40.0059L180.668 43.8518L178.223 40.0059C178.01 40.1726 177.785 40.3224 177.549 40.4538C176.272 41.1789 173.702 42.7099 173.418 42.877L173.411 42.8862C175.373 44.741 177.971 45.7734 180.671 45.7711Z" fill="#F96767"/>
<path d="M182.532 39.2402L180.938 42.2454L180.673 43.8535L181.571 42.4409L183.209 42.9503C183.209 42.9503 183.529 40.3656 183.544 40.3086C183.569 40.2353 183.569 40.1562 183.544 40.0829C183.51 40.0223 182.696 39.2402 182.696 39.2402H182.532Z" fill="white"/>
<path d="M178.813 39.2402L180.405 42.2454L180.672 43.8535L179.778 42.4446L178.138 42.954C178.138 42.954 177.818 40.3692 177.803 40.3123C177.777 40.2392 177.777 40.1596 177.803 40.0865C177.837 40.0259 178.651 39.2439 178.651 39.2439L178.813 39.2402Z" fill="white"/>
<path d="M180.713 27.2998C184.148 27.2998 184.788 30.4334 184.776 31.6671C184.7 33.1149 184.446 34.5478 184.019 35.9334C183.569 37.5957 181.465 38.4007 180.715 38.4007C179.965 38.4007 177.859 37.5957 177.41 35.9334C176.982 34.5481 176.728 33.1151 176.652 31.6671C176.639 30.4362 177.278 27.2998 180.713 27.2998Z" fill="#FFC2AB"/>
<path d="M185.906 30.9538C185.742 30.7693 185.633 30.5416 185.594 30.2975C185.487 29.8515 185.282 29.4347 184.995 29.0768C185.099 28.99 185.18 28.8798 185.233 28.7553C185.285 28.6308 185.307 28.4955 185.297 28.3608C185.289 28.3119 185.264 28.2673 185.227 28.2349C185.189 28.2025 185.141 28.1843 185.092 28.1837H185.077C184.584 28.1129 184.121 27.9013 183.745 27.5742C182.908 26.8316 181.835 26.409 180.716 26.381C180.156 26.2889 179.581 26.3642 179.063 26.5973C178.545 26.8304 178.107 27.2111 177.805 27.6917C177.544 27.6463 177.276 27.6825 177.036 27.7954C176.797 27.9082 176.598 28.0922 176.467 28.3223C176.163 28.9316 175.935 29.5759 175.786 30.2406C175.685 30.5775 175.487 30.8771 175.216 31.1025C175.185 31.1317 175.164 31.1698 175.156 31.2116C175.147 31.2534 175.152 31.2968 175.17 31.3357C175.224 31.4412 175.305 31.531 175.404 31.5966C175.503 31.6621 175.617 31.7012 175.736 31.7102C175.775 32.1345 175.847 32.5552 175.951 32.9686C176.022 33.1851 176.138 33.384 176.292 33.5523C176.445 33.7206 176.633 33.8545 176.842 33.9452C176.862 33.9542 176.885 33.9581 176.907 33.9565C176.929 33.9549 176.951 33.9478 176.97 33.936C176.988 33.9247 177.005 33.9091 177.016 33.8904C177.028 33.8718 177.035 33.8506 177.037 33.8286C177.069 33.5531 177.125 33.2807 177.203 33.0145C177.331 32.8527 177.433 32.6719 177.506 32.4784C177.515 32.5032 177.517 32.5087 177.518 32.5124C177.531 32.5366 177.55 32.5569 177.574 32.5711C177.597 32.5853 177.624 32.5929 177.651 32.5932C177.804 32.5932 177.962 32.2994 178.069 32.0535C178.155 31.8267 178.21 31.5897 178.234 31.3485C178.253 31.1785 178.283 31.0101 178.326 30.8446C178.378 30.6675 178.454 30.561 178.529 30.561C178.559 30.561 178.631 30.5775 178.746 30.6886C178.761 30.7028 178.779 30.7137 178.799 30.7205C178.819 30.7273 178.84 30.7299 178.86 30.728C178.881 30.7257 178.901 30.7189 178.918 30.7081C178.936 30.6973 178.951 30.6828 178.962 30.6656C179.014 30.5635 179.09 30.4757 179.184 30.4104C179.278 30.345 179.386 30.304 179.5 30.2911C179.796 30.2911 180.167 30.5665 180.669 31.1622C181.061 31.6271 181.598 31.9465 182.194 32.0691C182.23 32.0724 182.267 32.064 182.298 32.045C182.329 32.0259 182.353 31.9974 182.367 31.9635C182.397 31.8772 182.361 31.7845 182.275 31.6028C182.732 31.8789 183.23 32.0826 183.75 32.2067C183.775 32.2067 183.8 32.2005 183.822 32.1887C183.844 32.1768 183.863 32.1597 183.877 32.1388C183.908 32.0784 183.921 32.0107 183.915 31.9433C183.922 31.9488 183.93 31.9562 183.938 31.9617C184.043 32.6021 184.191 33.2347 184.38 33.8553C184.389 33.8841 184.407 33.9094 184.431 33.9274C184.455 33.9454 184.484 33.9552 184.514 33.9553C184.524 33.9571 184.535 33.9571 184.545 33.9553C184.713 33.9163 184.87 33.8398 185.004 33.7313C185.014 33.7218 185.024 33.711 185.032 33.6992C185.381 33.0201 185.534 32.2574 185.475 31.4963C185.691 31.4605 185.934 31.3292 185.98 31.1732C185.994 31.1336 185.994 31.0906 185.98 31.0509C185.967 31.0112 185.941 30.9771 185.906 30.9538Z" fill="#242736"/>
<path d="M175.323 55.959L174.524 53.0358H174.883L175.494 55.4166H175.523L176.145 53.0358H176.545L177.167 55.4166H177.196L177.807 53.0358H178.166L177.367 55.959H177.002L176.356 53.6296H176.334L175.688 55.959H175.323ZM178.562 55.959V53.7666H178.899V55.959H178.562ZM178.733 53.4012C178.667 53.4012 178.611 53.3788 178.563 53.3341C178.517 53.2894 178.493 53.2356 178.493 53.1728C178.493 53.11 178.517 53.0562 178.563 53.0115C178.611 52.9668 178.667 52.9444 178.733 52.9444C178.799 52.9444 178.855 52.9668 178.901 53.0115C178.949 53.0562 178.973 53.11 178.973 53.1728C178.973 53.2356 178.949 53.2894 178.901 53.3341C178.855 53.3788 178.799 53.4012 178.733 53.4012ZM179.852 53.0358V55.959H179.516V53.0358H179.852ZM180.806 53.0358V55.959H180.469V53.0358H180.806ZM181.423 55.959V53.7666H181.76V55.959H181.423ZM181.594 53.4012C181.529 53.4012 181.472 53.3788 181.425 53.3341C181.378 53.2894 181.355 53.2356 181.355 53.1728C181.355 53.11 181.378 53.0562 181.425 53.0115C181.472 52.9668 181.529 52.9444 181.594 52.9444C181.66 52.9444 181.716 52.9668 181.763 53.0115C181.81 53.0562 181.834 53.11 181.834 53.1728C181.834 53.2356 181.81 53.2894 181.763 53.3341C181.716 53.3788 181.66 53.4012 181.594 53.4012ZM183.022 56.0104C182.883 56.0104 182.757 55.9842 182.644 55.9319C182.531 55.8786 182.441 55.802 182.374 55.7021C182.308 55.6012 182.274 55.4794 182.274 55.3367C182.274 55.2111 182.299 55.1092 182.348 55.0312C182.398 54.9522 182.464 54.8904 182.547 54.8457C182.63 54.8009 182.721 54.7676 182.821 54.7457C182.922 54.7229 183.023 54.7048 183.125 54.6915C183.258 54.6744 183.366 54.6615 183.449 54.653C183.533 54.6434 183.594 54.6277 183.632 54.6059C183.671 54.584 183.69 54.5459 183.69 54.4917V54.4803C183.69 54.3394 183.652 54.23 183.575 54.152C183.498 54.0739 183.383 54.0349 183.228 54.0349C183.067 54.0349 182.941 54.0701 182.849 54.1405C182.758 54.211 182.694 54.2861 182.657 54.3661L182.337 54.2519C182.394 54.1187 182.47 54.0149 182.565 53.9407C182.662 53.8655 182.766 53.8132 182.879 53.7837C182.994 53.7533 183.106 53.738 183.216 53.738C183.287 53.738 183.368 53.7466 183.459 53.7637C183.551 53.7799 183.64 53.8137 183.726 53.8651C183.812 53.9165 183.884 53.994 183.941 54.0977C183.998 54.2014 184.027 54.3404 184.027 54.5145V55.959H183.69V55.6621H183.673C183.65 55.7097 183.612 55.7606 183.559 55.8148C183.506 55.8691 183.435 55.9152 183.346 55.9533C183.258 55.9913 183.15 56.0104 183.022 56.0104ZM183.074 55.7078C183.207 55.7078 183.319 55.6816 183.41 55.6293C183.503 55.5769 183.572 55.5094 183.619 55.4266C183.666 55.3438 183.69 55.2567 183.69 55.1654V54.8571C183.676 54.8742 183.644 54.8899 183.596 54.9042C183.548 54.9175 183.493 54.9294 183.43 54.9399C183.369 54.9494 183.308 54.9579 183.249 54.9656C183.191 54.9722 183.144 54.9779 183.108 54.9827C183.02 54.9941 182.938 55.0127 182.862 55.0383C182.787 55.0631 182.726 55.1007 182.68 55.1511C182.634 55.2006 182.611 55.2681 182.611 55.3538C182.611 55.4708 182.654 55.5593 182.741 55.6193C182.829 55.6783 182.939 55.7078 183.074 55.7078ZM184.642 55.959V53.7666H184.967V54.1091H184.996C185.041 53.9921 185.115 53.9012 185.217 53.8365C185.319 53.7709 185.441 53.738 185.584 53.738C185.729 53.738 185.849 53.7709 185.945 53.8365C186.042 53.9012 186.118 53.9921 186.172 54.1091H186.195C186.251 53.9959 186.335 53.906 186.447 53.8394C186.56 53.7718 186.694 53.738 186.851 53.738C187.047 53.738 187.208 53.7994 187.332 53.9222C187.457 54.044 187.519 54.2338 187.519 54.4917V55.959H187.183V54.4917C187.183 54.3299 187.138 54.2143 187.05 54.1448C186.961 54.0754 186.857 54.0406 186.737 54.0406C186.583 54.0406 186.464 54.0873 186.379 54.1805C186.294 54.2728 186.252 54.3899 186.252 54.5316V55.959H185.909V54.4574C185.909 54.3328 185.869 54.2324 185.788 54.1562C185.707 54.0792 185.603 54.0406 185.475 54.0406C185.388 54.0406 185.306 54.0639 185.23 54.1106C185.155 54.1572 185.094 54.2219 185.047 54.3047C185.002 54.3865 184.979 54.4812 184.979 54.5887V55.959H184.642Z" fill="#5F616E"/>
<path d="M36.0671 35.1645C36.0669 37.2627 35.4445 39.3138 34.2787 41.0583C33.1128 42.8028 31.4558 44.1624 29.5172 44.9652C27.5786 45.768 25.4455 45.9779 23.3876 45.5684C21.3298 45.1589 19.4395 44.1483 17.956 42.6645C16.4724 41.1807 15.4622 39.2903 15.053 37.2323C14.6439 35.1744 14.8541 33.0413 15.6573 31.1029C16.4604 29.1644 17.8203 27.5077 19.565 26.3421C21.3097 25.1765 23.3609 24.5545 25.4591 24.5547C26.8523 24.5548 28.2318 24.8293 29.5189 25.3626C30.806 25.8958 31.9755 26.6774 32.9605 27.6626C33.9455 28.6478 34.7269 29.8174 35.2599 31.1046C35.7929 32.3917 36.0672 33.7713 36.0671 35.1645Z" fill="#E3E4E8"/>
<path d="M21.6044 33.7135C21.6044 33.7135 21.0931 33.5198 21.0078 33.6511C20.8793 33.9522 20.8522 34.2869 20.9307 34.6048C21.0156 34.9515 21.1977 35.2668 21.4557 35.5135C21.6604 35.5918 21.8796 35.6246 22.0982 35.6099C21.9771 34.9672 21.8121 34.3336 21.6044 33.7135Z" fill="#FA9884"/>
<path d="M29.3996 33.7135C29.3996 33.7135 29.9127 33.5198 29.998 33.6511C30.1252 33.9526 30.1516 34.2871 30.0733 34.6048C29.9891 34.9518 29.8069 35.2672 29.5483 35.5135C29.3436 35.5918 29.1244 35.6246 28.9058 35.6099C29.0283 34.9675 29.1932 34.334 29.3996 33.7135Z" fill="#FA9884"/>
<path d="M27.9032 40.0073C27.6898 39.8571 27.5162 39.6572 27.3976 39.4248C27.2789 39.1924 27.2187 38.9345 27.2222 38.6736C27.2442 37.9349 27.319 37.1987 27.4461 36.4707H23.4726C23.5998 37.1987 23.674 37.9349 23.6947 38.6736C23.6986 38.9346 23.6386 39.1926 23.5199 39.4251C23.4012 39.6575 23.2274 39.8574 23.0137 40.0073L25.4589 43.8532L27.9032 40.0073Z" fill="#FFC2AB"/>
<path d="M27.231 38.1744C27.2833 37.4713 27.4458 36.4727 27.4458 36.4727H23.4723C23.4723 36.4727 23.6247 37.3997 23.6807 38.0955C24.177 38.6004 24.8088 38.951 25.4999 39.1051C26.1536 38.9656 26.7541 38.6428 27.231 38.1744Z" fill="#FA9884"/>
<path d="M25.4588 45.7711C28.1558 45.7716 30.7506 44.7393 32.7101 42.8862C32.7101 42.8862 32.7101 42.8788 32.7046 42.877C32.4209 42.7099 29.8509 41.1789 28.5741 40.4538C28.3373 40.3228 28.1114 40.173 27.8985 40.0059L25.4551 43.8518L23.0099 40.0059C22.7976 40.1728 22.5723 40.3226 22.3362 40.4538C21.0594 41.1789 18.4893 42.7099 18.2057 42.877L18.1984 42.8862C20.1605 44.741 22.7588 45.7734 25.4588 45.7711Z" fill="#3ED778"/>
<path d="M27.3176 39.2402L25.7241 42.2454L25.4589 43.8535L26.3565 42.4409L27.995 42.9503C27.995 42.9503 28.3144 40.3656 28.33 40.3086C28.3544 40.2354 28.3544 40.1562 28.33 40.0829C28.2961 40.0223 27.4819 39.2402 27.4819 39.2402H27.3176Z" fill="white"/>
<path d="M23.601 39.2402L25.1926 42.2454L25.4597 43.8535L24.5638 42.4446L22.9236 42.954C22.9236 42.954 22.6042 40.3692 22.5886 40.3123C22.5624 40.2393 22.5624 40.1595 22.5886 40.0865C22.6225 40.0259 23.4367 39.2439 23.4367 39.2439L23.601 39.2402Z" fill="white"/>
<path d="M25.5001 27.2998C28.9348 27.2998 29.5746 30.4334 29.5626 31.6671C29.4868 33.1149 29.2327 34.5478 28.8063 35.9334C28.3565 37.5957 26.2518 38.4007 25.5019 38.4007C24.752 38.4007 22.6464 37.5957 22.1975 35.9334C21.7694 34.5481 21.5147 33.1151 21.4394 31.6671C21.4274 30.4362 22.0654 27.2998 25.5001 27.2998Z" fill="#FFC2AB"/>
<path d="M30.6935 30.9538C30.5289 30.7693 30.4206 30.5416 30.3814 30.2975C30.2742 29.8515 30.0699 29.4347 29.7829 29.0768C29.8866 28.9901 29.9679 28.8799 30.0203 28.7553C30.0727 28.6308 30.0945 28.4955 30.084 28.3608C30.0762 28.3119 30.0514 28.2673 30.014 28.2349C29.9765 28.2025 29.9288 28.1843 29.8793 28.1837H29.8646C29.3712 28.1129 28.9088 27.9013 28.5328 27.5742C27.6954 26.8316 26.6226 26.409 25.5038 26.381C24.9434 26.2889 24.3682 26.3642 23.8504 26.5973C23.3325 26.8304 22.8949 27.2111 22.5923 27.6917C22.3315 27.6463 22.0631 27.6825 21.8238 27.7954C21.5844 27.9082 21.3858 28.0922 21.2549 28.3223C20.9511 28.9318 20.7224 29.576 20.5738 30.2406C20.4721 30.5775 20.274 30.8771 20.0038 31.1025C19.9727 31.1317 19.9515 31.1698 19.9431 31.2116C19.9347 31.2534 19.9396 31.2968 19.957 31.3357C20.0116 31.4412 20.0923 31.531 20.1915 31.5966C20.2906 31.6621 20.4048 31.7012 20.5233 31.7102C20.5627 32.1345 20.6345 32.5552 20.7381 32.9686C20.8093 33.1851 20.9256 33.384 21.0792 33.5523C21.2328 33.7206 21.4203 33.8545 21.6294 33.9452C21.6498 33.9542 21.6721 33.9581 21.6943 33.9565C21.7166 33.9549 21.7381 33.9478 21.757 33.936C21.7759 33.9247 21.792 33.9091 21.8038 33.8904C21.8156 33.8718 21.8228 33.8506 21.8249 33.8286C21.8568 33.5531 21.9121 33.2807 21.9901 33.0145C22.1179 32.8523 22.22 32.6715 22.293 32.4784C22.3022 32.5032 22.304 32.5087 22.3059 32.5124C22.3188 32.5365 22.338 32.5567 22.3614 32.5709C22.3848 32.5851 22.4116 32.5928 22.4389 32.5932C22.5913 32.5932 22.7492 32.2994 22.8566 32.0535C22.9422 31.8267 22.9977 31.5897 23.0218 31.3485C23.0415 31.1784 23.0737 31.01 23.1182 30.8446C23.1705 30.6675 23.2458 30.561 23.321 30.561C23.3513 30.561 23.4229 30.5775 23.5377 30.6886C23.5529 30.7028 23.571 30.7137 23.5908 30.7205C23.6106 30.7273 23.6316 30.7299 23.6524 30.728C23.6729 30.7257 23.6926 30.7189 23.7102 30.7081C23.7278 30.6973 23.7429 30.6828 23.7543 30.6656C23.8058 30.5635 23.882 30.4757 23.9759 30.4104C24.0698 30.345 24.1785 30.304 24.2922 30.2911C24.5877 30.2911 24.9595 30.5665 25.4606 31.1622C25.8531 31.6269 26.3904 31.9463 26.9861 32.0691C27.0224 32.0724 27.0589 32.064 27.09 32.045C27.1211 32.0259 27.1452 31.9974 27.1587 31.9635C27.189 31.8772 27.1532 31.7845 27.0669 31.6028C27.5246 31.8789 28.0221 32.0826 28.542 32.2067C28.5671 32.2067 28.592 32.2005 28.6142 32.1887C28.6364 32.1768 28.6554 32.1597 28.6695 32.1388C28.6998 32.0784 28.7129 32.0107 28.7072 31.9433C28.7145 31.9488 28.7218 31.9562 28.7301 31.9617C28.8348 32.6021 28.9826 33.2347 29.1725 33.8553C29.1812 33.8841 29.1989 33.9094 29.223 33.9274C29.2472 33.9454 29.2764 33.9552 29.3065 33.9553C29.3165 33.9571 29.3268 33.9571 29.3368 33.9553C29.5048 33.9163 29.6617 33.8398 29.7958 33.7313C29.8065 33.7218 29.816 33.711 29.8242 33.6992C30.1731 33.0201 30.3262 32.2574 30.2666 31.4963C30.4833 31.4605 30.7256 31.3292 30.7724 31.1732C30.7858 31.1331 30.7853 31.0896 30.771 31.0498C30.7567 31.01 30.7294 30.9762 30.6935 30.9538Z" fill="#242736"/>
<path d="M14.9422 53.0759H15.3975L16.2257 54.4615L17.0539 53.0759H17.5112L16.422 54.7971V55.959H16.0314V54.7971L14.9422 53.0759ZM18.2648 55.7313C18.4991 55.7313 18.6593 55.643 18.7457 55.4664C18.8333 55.2884 18.8772 55.0909 18.8772 54.8737C18.8772 54.6774 18.8458 54.5178 18.783 54.3948C18.6835 54.2012 18.5121 54.1043 18.2688 54.1043C18.0529 54.1043 17.8959 54.1868 17.7978 54.3516C17.6996 54.5165 17.6506 54.7154 17.6506 54.9482C17.6506 55.172 17.6996 55.3584 17.7978 55.5076C17.8959 55.6567 18.0516 55.7313 18.2648 55.7313ZM18.2786 53.7962C18.5494 53.7962 18.7784 53.8865 18.9655 54.067C19.1526 54.2476 19.2461 54.5132 19.2461 54.8639C19.2461 55.2027 19.1637 55.4827 18.9989 55.7038C18.834 55.925 18.5782 56.0355 18.2315 56.0355C17.9423 56.0355 17.7127 55.938 17.5426 55.7431C17.3725 55.5468 17.2875 55.2839 17.2875 54.9541C17.2875 54.6009 17.3771 54.3196 17.5564 54.1102C17.7356 53.9009 17.9763 53.7962 18.2786 53.7962ZM20.0214 53.857V55.2524C20.0214 55.3597 20.0384 55.4474 20.0724 55.5154C20.1352 55.641 20.2523 55.7038 20.4237 55.7038C20.6697 55.7038 20.8372 55.5939 20.9261 55.3741C20.9745 55.2564 20.9987 55.0948 20.9987 54.8894V53.857H21.352V55.959H21.0184L21.0223 55.6489C20.9765 55.7287 20.9196 55.7961 20.8516 55.851C20.7168 55.9609 20.5532 56.0159 20.3609 56.0159C20.0613 56.0159 19.8572 55.9158 19.7486 55.7156C19.6897 55.6083 19.6603 55.4651 19.6603 55.2858V53.857H20.0214ZM21.9153 53.857H22.2509V54.2201C22.2784 54.1495 22.3457 54.0638 22.453 53.963C22.5603 53.861 22.684 53.8099 22.824 53.8099C22.8305 53.8099 22.8416 53.8106 22.8573 53.8119C22.873 53.8132 22.8999 53.8158 22.9378 53.8198V54.1926C22.9169 54.1887 22.8972 54.1861 22.8789 54.1848C22.8619 54.1835 22.8429 54.1828 22.822 54.1828C22.6441 54.1828 22.5073 54.2404 22.4118 54.3555C22.3163 54.4694 22.2685 54.6009 22.2685 54.75V55.959H21.9153V53.857ZM24.8337 53.0759V54.858C24.8337 55.0673 24.8729 55.2413 24.9514 55.38C25.0679 55.5894 25.2641 55.694 25.5402 55.694C25.8712 55.694 26.0963 55.5809 26.2153 55.3545C26.2794 55.2315 26.3115 55.066 26.3115 54.858V53.0759H26.7079V54.6951C26.7079 55.0496 26.6602 55.3224 26.5647 55.5135C26.3893 55.8615 26.0583 56.0355 25.5716 56.0355C25.0849 56.0355 24.7545 55.8615 24.5805 55.5135C24.485 55.3224 24.4372 55.0496 24.4372 54.6951V53.0759H24.8337ZM28.1544 55.7215C28.3192 55.7215 28.456 55.6528 28.5646 55.5154C28.6745 55.3767 28.7294 55.17 28.7294 54.8953C28.7294 54.7278 28.7052 54.5839 28.6568 54.4635C28.5652 54.2319 28.3977 54.1161 28.1544 54.1161C27.9097 54.1161 27.7422 54.2384 27.652 54.4831C27.6035 54.614 27.5793 54.7801 27.5793 54.9816C27.5793 55.1439 27.6035 55.2819 27.652 55.3957C27.7435 55.6129 27.911 55.7215 28.1544 55.7215ZM27.2398 53.8669H27.5833V54.1455C27.6539 54.05 27.7311 53.9761 27.8148 53.9238C27.9339 53.8453 28.0739 53.806 28.2348 53.806C28.473 53.806 28.6751 53.8976 28.8413 54.0808C29.0075 54.2626 29.0905 54.523 29.0905 54.8619C29.0905 55.3198 28.9708 55.6469 28.7314 55.8432C28.5796 55.9675 28.403 56.0296 28.2015 56.0296C28.0432 56.0296 27.9104 55.995 27.8031 55.9256C27.7403 55.8864 27.6703 55.819 27.5931 55.7235V56.797H27.2398V53.8669ZM29.7284 54.9325C29.7284 55.1576 29.7761 55.346 29.8717 55.4978C29.9672 55.6495 30.1202 55.7254 30.3309 55.7254C30.4944 55.7254 30.6286 55.6554 30.7332 55.5154C30.8392 55.3741 30.8922 55.172 30.8922 54.909C30.8922 54.6434 30.8379 54.4471 30.7293 54.3202C30.6207 54.192 30.4866 54.1279 30.327 54.1279C30.149 54.1279 30.0045 54.1959 29.8932 54.332C29.7833 54.4681 29.7284 54.6682 29.7284 54.9325ZM30.2602 53.8198C30.4212 53.8198 30.5559 53.8538 30.6645 53.9218C30.7273 53.9611 30.7987 54.0298 30.8785 54.1279V53.0661H31.218V55.959H30.9001V55.6666C30.8176 55.7961 30.7201 55.8896 30.6076 55.9472C30.4951 56.0048 30.3662 56.0336 30.221 56.0336C29.9868 56.0336 29.784 55.9354 29.6126 55.7392C29.4412 55.5416 29.3555 55.2793 29.3555 54.9522C29.3555 54.646 29.4333 54.3811 29.589 54.1573C29.746 53.9323 29.9698 53.8198 30.2602 53.8198ZM32.0128 55.3996C32.0128 55.5017 32.0501 55.5822 32.1247 55.641C32.1993 55.6999 32.2876 55.7294 32.3897 55.7294C32.514 55.7294 32.6343 55.7006 32.7508 55.643C32.947 55.5475 33.0452 55.3911 33.0452 55.1739V54.8894C33.002 54.9168 32.9464 54.9397 32.8784 54.9581C32.8103 54.9764 32.7436 54.9895 32.6782 54.9973L32.4642 55.0248C32.336 55.0418 32.2399 55.0686 32.1757 55.1053C32.0671 55.1667 32.0128 55.2649 32.0128 55.3996ZM32.8685 54.6853C32.9497 54.6748 33.004 54.6408 33.0314 54.5832C33.0471 54.5518 33.055 54.5067 33.055 54.4478C33.055 54.3274 33.0118 54.2404 32.9255 54.1868C32.8404 54.1318 32.7181 54.1043 32.5584 54.1043C32.374 54.1043 32.2431 54.154 32.1659 54.2535C32.1228 54.3084 32.0946 54.3902 32.0815 54.4988H31.7518C31.7584 54.2397 31.8421 54.0598 32.003 53.9591C32.1653 53.857 32.353 53.806 32.5663 53.806C32.8136 53.806 33.0144 53.8531 33.1688 53.9473C33.3219 54.0415 33.3984 54.1881 33.3984 54.3869V55.5979C33.3984 55.6345 33.4056 55.6639 33.42 55.6862C33.4357 55.7084 33.4678 55.7195 33.5162 55.7195C33.5319 55.7195 33.5496 55.7189 33.5692 55.7176C33.5888 55.715 33.6097 55.7117 33.632 55.7078V55.9688C33.577 55.9845 33.5352 55.9943 33.5064 55.9982C33.4776 56.0022 33.4383 56.0041 33.3886 56.0041C33.2669 56.0041 33.1786 55.9609 33.1237 55.8746C33.0949 55.8288 33.0746 55.764 33.0628 55.6803C32.9909 55.7745 32.8875 55.8563 32.7527 55.9256C32.618 55.995 32.4695 56.0296 32.3072 56.0296C32.1123 56.0296 31.9527 55.9708 31.8284 55.853C31.7054 55.7339 31.6439 55.5854 31.6439 55.4075C31.6439 55.2125 31.7047 55.0614 31.8264 54.9541C31.9481 54.8468 32.1077 54.7808 32.3053 54.7559L32.8685 54.6853ZM34.05 53.2702H34.4072V53.857H34.7428V54.1455H34.4072V55.5174C34.4072 55.5907 34.4321 55.6397 34.4818 55.6646C34.5093 55.679 34.5551 55.6862 34.6192 55.6862C34.6362 55.6862 34.6545 55.6862 34.6741 55.6862C34.6938 55.6849 34.7167 55.6829 34.7428 55.6803V55.959C34.7023 55.9708 34.6597 55.9793 34.6153 55.9845C34.5721 55.9897 34.525 55.9923 34.4739 55.9923C34.3091 55.9923 34.1972 55.9505 34.1383 55.8667C34.0795 55.7817 34.05 55.6718 34.05 55.537V54.1455H33.7654V53.857H34.05V53.2702ZM35.9734 53.8099C36.1225 53.8099 36.2671 53.8453 36.4071 53.9159C36.5471 53.9853 36.6537 54.0755 36.727 54.1868C36.7977 54.2927 36.8448 54.4164 36.8683 54.5577C36.8892 54.6545 36.8997 54.8089 36.8997 55.0209H35.3591C35.3656 55.2341 35.416 55.4055 35.5102 55.5351C35.6044 55.6633 35.7503 55.7274 35.9479 55.7274C36.1323 55.7274 36.2795 55.6666 36.3894 55.5449C36.4522 55.4742 36.4967 55.3924 36.5229 55.2996H36.8703C36.8611 55.3767 36.8304 55.4631 36.778 55.5586C36.727 55.6528 36.6694 55.73 36.6053 55.7902C36.498 55.8949 36.3652 55.9655 36.2069 56.0022C36.1219 56.0231 36.0257 56.0336 35.9184 56.0336C35.6567 56.0336 35.435 55.9387 35.2531 55.749C35.0712 55.558 34.9803 55.291 34.9803 54.9482C34.9803 54.6107 35.0719 54.3366 35.2551 54.1259C35.4382 53.9153 35.6777 53.8099 35.9734 53.8099ZM36.5366 54.7402C36.5222 54.5871 36.4889 54.4648 36.4365 54.3732C36.3397 54.2031 36.1781 54.1181 35.9518 54.1181C35.7895 54.1181 35.6535 54.1769 35.5436 54.2947C35.4337 54.4111 35.3754 54.5597 35.3689 54.7402H36.5366Z" fill="#5F616E"/>
<path d="M38.3747 30.696C38.3747 31.3677 38.1755 32.0243 37.8024 32.5828C37.4292 33.1413 36.8988 33.5766 36.2782 33.8336C35.6576 34.0907 34.9748 34.1579 34.316 34.0269C33.6572 33.8958 33.0521 33.5724 32.5771 33.0974C32.1021 32.6224 31.7787 32.0173 31.6477 31.3585C31.5166 30.6997 31.5839 30.0169 31.8409 29.3963C32.098 28.7757 32.5333 28.2453 33.0918 27.8722C33.6503 27.499 34.3069 27.2998 34.9786 27.2998C35.8793 27.2998 36.7431 27.6576 37.38 28.2945C38.0169 28.9314 38.3747 29.7952 38.3747 30.696Z" fill="#3ED778"/>
<path d="M33.7716 30.6992H36.181" stroke="white" stroke-width="0.688411" stroke-miterlimit="10" stroke-linecap="round"/>
<path d="M34.9768 29.4941V31.9036" stroke="white" stroke-width="0.688411" stroke-miterlimit="10" stroke-linecap="round"/>
<path d="M17.8794 11.2886C17.8794 11.7921 17.7851 12.2233 17.5965 12.5823C17.4094 12.9397 17.1538 13.2135 16.8298 13.4037C16.5073 13.5938 16.1415 13.6889 15.7323 13.6889C15.3232 13.6889 14.9566 13.5938 14.6326 13.4037C14.3101 13.212 14.0546 12.9375 13.8659 12.58C13.6788 12.221 13.5853 11.7905 13.5853 11.2886C13.5853 10.7851 13.6788 10.3546 13.8659 9.99715C14.0546 9.63817 14.3101 9.36361 14.6326 9.17347C14.9566 8.98333 15.3232 8.88826 15.7323 8.88826C16.1415 8.88826 16.5073 8.98333 16.8298 9.17347C17.1538 9.36361 17.4094 9.63817 17.5965 9.99715C17.7851 10.3546 17.8794 10.7851 17.8794 11.2886ZM17.0283 11.2886C17.0283 10.9342 16.9728 10.6353 16.8618 10.3919C16.7522 10.147 16.6001 9.96217 16.4054 9.83744C16.2107 9.71119 15.9864 9.64806 15.7323 9.64806C15.4783 9.64806 15.2539 9.71119 15.0592 9.83744C14.8645 9.96217 14.7117 10.147 14.6006 10.3919C14.4911 10.6353 14.4364 10.9342 14.4364 11.2886C14.4364 11.643 14.4911 11.9427 14.6006 12.1876C14.7117 12.4309 14.8645 12.6157 15.0592 12.742C15.2539 12.8667 15.4783 12.9291 15.7323 12.9291C15.9864 12.9291 16.2107 12.8667 16.4054 12.742C16.6001 12.6157 16.7522 12.4309 16.8618 12.1876C16.9728 11.9427 17.0283 11.643 17.0283 11.2886ZM20.8769 12.151V10.1204H21.7029V13.625H20.902V13.0021H20.8655C20.7864 13.1983 20.6564 13.3588 20.4753 13.4835C20.2959 13.6083 20.0745 13.6706 19.8114 13.6706C19.5817 13.6706 19.3786 13.6197 19.2022 13.5178C19.0273 13.4143 18.8904 13.2645 18.7915 13.0683C18.6926 12.8705 18.6432 12.6317 18.6432 12.3518V10.1204H19.4691V12.2241C19.4691 12.4461 19.53 12.6226 19.6517 12.7534C19.7734 12.8842 19.9331 12.9496 20.1308 12.9496C20.2525 12.9496 20.3704 12.92 20.4845 12.8606C20.5986 12.8013 20.6921 12.7131 20.7651 12.596C20.8397 12.4773 20.8769 12.329 20.8769 12.151ZM22.5522 13.625V10.1204H23.3531V10.7045H23.3896C23.4535 10.5022 23.563 10.3462 23.7182 10.2367C23.8748 10.1257 24.0536 10.0702 24.2544 10.0702C24.3 10.0702 24.3509 10.0724 24.4072 10.077C24.465 10.0801 24.5129 10.0854 24.551 10.093V10.8528C24.516 10.8406 24.4605 10.83 24.3844 10.8208C24.3099 10.8102 24.2376 10.8049 24.1677 10.8049C24.0171 10.8049 23.8817 10.8376 23.7615 10.903C23.6429 10.9669 23.5493 11.0558 23.4809 11.1699C23.4124 11.284 23.3782 11.4156 23.3782 11.5647V13.625H22.5522ZM26.5246 9.66175V8.95215H30.2528V9.66175H28.8086V13.625H27.9689V9.66175H26.5246ZM31.9784 13.6934C31.627 13.6934 31.3235 13.6204 31.068 13.4744C30.8139 13.3269 30.6185 13.1185 30.4816 12.8492C30.3447 12.5785 30.2762 12.2598 30.2762 11.8932C30.2762 11.5327 30.3447 11.2163 30.4816 10.944C30.62 10.6702 30.8132 10.4573 31.0611 10.3052C31.3091 10.1515 31.6004 10.0747 31.935 10.0747C32.151 10.0747 32.3548 10.1097 32.5465 10.1797C32.7397 10.2481 32.91 10.3546 33.0576 10.4991C33.2067 10.6436 33.3238 10.8277 33.409 11.0513C33.4941 11.2734 33.5367 11.538 33.5367 11.8453V12.0986H30.6641V11.5418H32.745C32.7435 11.3836 32.7093 11.2429 32.6423 11.1197C32.5754 10.995 32.4818 10.8969 32.3617 10.8254C32.243 10.7539 32.1046 10.7182 31.9464 10.7182C31.7776 10.7182 31.6293 10.7592 31.5015 10.8414C31.3737 10.922 31.2741 11.0285 31.2026 11.1608C31.1326 11.2916 31.0969 11.4354 31.0954 11.592V12.078C31.0954 12.2819 31.1326 12.4568 31.2072 12.6028C31.2817 12.7473 31.3859 12.8584 31.5197 12.9359C31.6536 13.012 31.8103 13.05 31.9898 13.05C32.1099 13.05 32.2187 13.0333 32.316 12.9998C32.4134 12.9648 32.4978 12.9139 32.5693 12.847C32.6408 12.78 32.6948 12.6971 32.7313 12.5983L33.5025 12.685C33.4538 12.8888 33.361 13.0668 33.2241 13.2189C33.0888 13.3695 32.9154 13.4866 32.7039 13.5702C32.4925 13.6524 32.2506 13.6934 31.9784 13.6934ZM35.244 13.6957C35.0219 13.6957 34.8219 13.6562 34.6439 13.5771C34.4675 13.4965 34.3275 13.3778 34.2241 13.2211C34.1222 13.0645 34.0712 12.8713 34.0712 12.6416C34.0712 12.4439 34.1077 12.2803 34.1807 12.151C34.2537 12.0218 34.3534 11.9183 34.4796 11.8407C34.6059 11.7632 34.7481 11.7046 34.9063 11.6651C35.066 11.624 35.2311 11.5943 35.4014 11.5761C35.6068 11.5548 35.7733 11.5358 35.9011 11.519C36.0289 11.5008 36.1217 11.4734 36.1795 11.4369C36.2388 11.3989 36.2685 11.3403 36.2685 11.2612V11.2475C36.2685 11.0756 36.2175 10.9425 36.1156 10.8482C36.0137 10.7539 35.8669 10.7068 35.6752 10.7068C35.4729 10.7068 35.3124 10.7509 35.1938 10.8391C35.0767 10.9273 34.9976 11.0315 34.9565 11.1517L34.1853 11.0422C34.2461 10.8292 34.3465 10.6512 34.4865 10.5082C34.6264 10.3637 34.7975 10.2557 34.9999 10.1843C35.2022 10.1112 35.4258 10.0747 35.6707 10.0747C35.8395 10.0747 36.0076 10.0945 36.1749 10.1341C36.3422 10.1736 36.4951 10.239 36.6335 10.3303C36.7719 10.42 36.883 10.5425 36.9666 10.6976C37.0518 10.8528 37.0944 11.0467 37.0944 11.2794V13.625H36.3004V13.1436H36.273C36.2228 13.2409 36.1521 13.3322 36.0608 13.4174C35.9711 13.501 35.8578 13.5687 35.7209 13.6204C35.5855 13.6706 35.4265 13.6957 35.244 13.6957ZM35.4585 13.0888C35.6243 13.0888 35.768 13.0561 35.8897 12.9907C36.0114 12.9238 36.1049 12.8355 36.1703 12.726C36.2373 12.6165 36.2707 12.4971 36.2707 12.3678V11.9548C36.2449 11.9761 36.2008 11.9959 36.1384 12.0141C36.0776 12.0324 36.0091 12.0484 35.9331 12.0621C35.857 12.0757 35.7817 12.0879 35.7072 12.0986C35.6326 12.1092 35.568 12.1183 35.5132 12.1259C35.39 12.1427 35.2797 12.1701 35.1824 12.2081C35.085 12.2461 35.0082 12.2994 34.9519 12.3678C34.8957 12.4347 34.8675 12.5214 34.8675 12.6279C34.8675 12.78 34.923 12.8949 35.0341 12.9724C35.1451 13.05 35.2866 13.0888 35.4585 13.0888ZM37.9249 13.625V10.1204H38.7144V10.7159H38.7555C38.8285 10.5151 38.9494 10.3584 39.1183 10.2459C39.2871 10.1318 39.4886 10.0747 39.7229 10.0747C39.9602 10.0747 40.1602 10.1325 40.323 10.2481C40.4873 10.3622 40.6029 10.5181 40.6698 10.7159H40.7063C40.7839 10.5212 40.9147 10.366 41.0987 10.2504C41.2843 10.1333 41.5041 10.0747 41.7581 10.0747C42.0806 10.0747 42.3438 10.1766 42.5476 10.3805C42.7514 10.5843 42.8533 10.8817 42.8533 11.2726V13.625H42.0251V11.4004C42.0251 11.1829 41.9673 11.0239 41.8517 10.9235C41.7361 10.8216 41.5946 10.7706 41.4273 10.7706C41.228 10.7706 41.0721 10.833 40.9596 10.9577C40.8485 11.0809 40.793 11.2414 40.793 11.4392V13.625H39.983V11.3662C39.983 11.1851 39.9282 11.0406 39.8187 10.9326C39.7107 10.8246 39.5693 10.7706 39.3943 10.7706C39.2757 10.7706 39.1677 10.8011 39.0703 10.8619C38.973 10.9212 38.8954 11.0056 38.8376 11.1152C38.7798 11.2232 38.7509 11.3494 38.7509 11.4939V13.625H37.9249Z" fill="#5F616E"/>
<path d="M204.761 38.4406L208.036 35.1628L204.761 31.8896" stroke="#3ED778" stroke-width="1.37682" stroke-miterlimit="10" stroke-linecap="round" stroke-linejoin="round"/>
<defs>
<linearGradient id="paint0_linear_544_2703" x1="59.8224" y1="42.8885" x2="74.3341" y2="42.8885" gradientUnits="userSpaceOnUse">
<stop stop-color="#9D62F5"/>
<stop offset="1" stop-color="#6049CD"/>
</linearGradient>
</defs>
</svg>
