<svg width="218" height="66" viewBox="0 0 218 66" fill="none" xmlns="http://www.w3.org/2000/svg">
<path d="M217.282 53.7759C217.282 55.312 216.979 56.833 216.391 58.2522C215.803 59.6713 214.942 60.9608 213.856 62.0469C212.769 63.1331 211.48 63.9946 210.061 64.5824C208.641 65.1701 207.12 65.4726 205.584 65.4724H11.6956C10.1597 65.4724 8.63872 65.1699 7.21968 64.5821C5.80064 63.9943 4.5113 63.1327 3.42525 62.0465C2.33919 60.9604 1.47772 59.671 0.89001 58.2519C0.302303 56.8328 -0.000120508 55.3119 3.60218e-08 53.7759V11.6956C3.60219e-08 8.59376 1.2322 5.61893 3.42555 3.42557C5.61891 1.23221 8.59377 3.60213e-08 11.6956 3.60213e-08H205.583C207.119 -0.000120507 208.64 0.3023 210.059 0.889995C211.479 1.47769 212.768 2.33915 213.854 3.42519C214.94 4.51123 215.802 5.80058 216.39 7.21963C216.978 8.63867 217.281 10.1596 217.281 11.6956L217.282 53.7759Z" fill="white"/>
<path d="M77.6909 35.1645C77.6907 37.2627 77.0683 39.3138 75.9025 41.0583C74.7366 42.8028 73.0796 44.1624 71.141 44.9652C69.2024 45.768 67.0693 45.9779 65.0114 45.5684C62.9535 45.1589 61.0633 44.1483 59.5798 42.6645C58.0962 41.1807 57.086 39.2903 56.6768 37.2323C56.2676 35.1744 56.4779 33.0413 57.2811 31.1029C58.0842 29.1644 59.4441 27.5077 61.1888 26.3421C62.9335 25.1765 64.9847 24.5545 67.0829 24.5547C68.4761 24.5548 69.8556 24.8293 71.1427 25.3626C72.4298 25.8958 73.5992 26.6774 74.5843 27.6626C75.5693 28.6478 76.3506 29.8174 76.8837 31.1046C77.4167 32.3917 77.691 33.7713 77.6909 35.1645Z" fill="#E3E4E8"/>
<path d="M79.297 35.1633C79.2968 37.5793 78.5803 39.9409 77.2379 41.9496C75.8955 43.9582 73.9876 45.5237 71.7555 46.4481C69.5234 47.3725 67.0674 47.6142 64.6979 47.1427C62.3284 46.6712 60.152 45.5076 58.4438 43.7992C56.7356 42.0907 55.5724 39.9141 55.1012 37.5446C54.6301 35.175 54.8722 32.719 55.7969 30.487C56.7216 28.2551 58.2874 26.3474 60.2963 25.0054C62.3051 23.6633 64.6668 22.9471 67.0828 22.9473C68.6869 22.9474 70.2753 23.2635 71.7572 23.8774C73.2392 24.4914 74.5857 25.3913 75.7199 26.5257C76.8541 27.66 77.7538 29.0067 78.3675 30.4887C78.9813 31.9708 79.2971 33.5592 79.297 35.1633Z" stroke="#3ED778" stroke-opacity="0.843137" stroke-width="0.917881" stroke-miterlimit="10"/>
<path d="M63.2279 33.7135C63.2279 33.7135 62.7167 33.5198 62.6313 33.6511C62.5028 33.9522 62.4758 34.2869 62.5542 34.6048C62.6391 34.9515 62.8212 35.2668 63.0792 35.5135C63.2839 35.5918 63.5031 35.6246 63.7217 35.6099C63.6001 34.9673 63.4352 34.3338 63.2279 33.7135Z" fill="#FA9884"/>
<path d="M71.0231 33.7135C71.0231 33.7135 71.5362 33.5198 71.6215 33.6511C71.7488 33.9526 71.7752 34.2871 71.6968 34.6048C71.6126 34.9518 71.4304 35.2672 71.1718 35.5135C70.9671 35.5918 70.7479 35.6246 70.5293 35.6099C70.6513 34.9674 70.8163 34.3339 71.0231 33.7135Z" fill="#FA9884"/>
<path d="M69.5259 40.0073C69.3124 39.8571 69.1388 39.6572 69.0202 39.4248C68.9015 39.1924 68.8413 38.9345 68.8448 38.6736C68.8668 37.9349 68.9416 37.1987 69.0687 36.4707H65.0961C65.2233 37.1987 65.2976 37.9349 65.3183 38.6736C65.3222 38.9346 65.2621 39.1926 65.1434 39.4251C65.0247 39.6575 64.8509 39.8574 64.6372 40.0073L67.0824 43.8532L69.5259 40.0073Z" fill="#FFC2AB"/>
<path d="M68.854 38.1744C68.9063 37.4713 69.0688 36.4727 69.0688 36.4727H65.0962C65.0962 36.4727 65.2486 37.3997 65.3046 38.0955C65.8009 38.6004 66.4327 38.951 67.1238 39.1051C67.7771 38.9652 68.3772 38.6424 68.854 38.1744Z" fill="#FA9884"/>
<path d="M67.0827 45.7711C69.7797 45.7716 72.3745 44.7393 74.334 42.8862C74.334 42.8862 74.334 42.8788 74.3285 42.877C74.0448 42.7099 71.4748 41.1789 70.198 40.4538C69.9612 40.3228 69.7353 40.173 69.5225 40.0059L67.079 43.8518L64.6338 40.0059C64.4213 40.1726 64.1961 40.3224 63.9601 40.4538C62.6833 41.1789 60.1132 42.7099 59.8296 42.877L59.8223 42.8862C61.7844 44.741 64.3827 45.7734 67.0827 45.7711Z" fill="url(#paint0_linear_854_2807)"/>
<path d="M68.9412 39.2402L67.3478 42.2454L67.0825 43.8535L67.9784 42.4446L69.6168 42.954C69.6168 42.954 69.9362 40.3692 69.9518 40.3123C69.9762 40.239 69.9762 40.1598 69.9518 40.0865C69.9179 40.0259 69.1037 39.2439 69.1037 39.2439L68.9412 39.2402Z" fill="white"/>
<path d="M65.2258 39.2402L66.8174 42.2454L67.0845 43.8535L66.1878 42.4409L64.5475 42.9503C64.5475 42.9503 64.2281 40.3656 64.2125 40.3086C64.1863 40.2357 64.1863 40.1559 64.2125 40.0829C64.2464 40.0223 65.0606 39.2402 65.0606 39.2402H65.2258Z" fill="white"/>
<path d="M67.1244 27.2998C70.5591 27.2998 71.1998 30.4334 71.1869 31.6671C71.1111 33.1149 70.857 34.5478 70.4306 35.9334C69.9808 37.5957 67.8761 38.4007 67.1262 38.4007C66.3763 38.4007 64.2707 37.5957 63.8219 35.9334C63.3937 34.5481 63.139 33.1151 63.0637 31.6671C63.0508 30.4362 63.6897 27.2998 67.1244 27.2998Z" fill="#FFC2AB"/>
<path d="M72.3174 30.9538C72.1528 30.7693 72.0445 30.5416 72.0053 30.2975C71.8981 29.8515 71.6938 29.4347 71.4068 29.0768C71.5105 28.9901 71.5919 28.8799 71.6442 28.7553C71.6966 28.6308 71.7184 28.4955 71.7079 28.3608C71.7001 28.3119 71.6753 28.2673 71.6379 28.2349C71.6004 28.2025 71.5527 28.1843 71.5032 28.1837H71.4885C70.9952 28.1129 70.5327 27.9013 70.1567 27.5742C69.3193 26.8316 68.2465 26.409 67.1277 26.381C66.5673 26.2889 65.9921 26.3642 65.4743 26.5973C64.9564 26.8304 64.5188 27.2111 64.2162 27.6917C63.9554 27.6463 63.687 27.6825 63.4477 27.7954C63.2083 27.9082 63.0097 28.0922 62.8788 28.3223C62.575 28.9318 62.3463 29.576 62.1977 30.2406C62.096 30.5775 61.8979 30.8771 61.6277 31.1025C61.5966 31.1317 61.5754 31.1698 61.567 31.2116C61.5586 31.2534 61.5635 31.2968 61.5809 31.3357C61.6355 31.4412 61.7162 31.531 61.8154 31.5966C61.9145 31.6621 62.0287 31.7012 62.1473 31.7102C62.1866 32.1345 62.2584 32.5552 62.362 32.9686C62.4332 33.185 62.5495 33.384 62.7031 33.5523C62.8567 33.7206 63.0442 33.8545 63.2533 33.9452C63.2737 33.9542 63.296 33.9581 63.3182 33.9565C63.3405 33.9549 63.362 33.9478 63.3809 33.936C63.3998 33.9247 63.4159 33.9091 63.4277 33.8904C63.4395 33.8718 63.4467 33.8506 63.4488 33.8286C63.4808 33.5531 63.536 33.2807 63.614 33.0145C63.7418 32.8523 63.8439 32.6715 63.9169 32.4784C63.9261 32.5032 63.9279 32.5087 63.9298 32.5124C63.9427 32.5365 63.9619 32.5567 63.9853 32.5709C64.0087 32.5851 64.0355 32.5928 64.0629 32.5932C64.2152 32.5932 64.3731 32.2994 64.4805 32.0535C64.5661 31.8267 64.6216 31.5897 64.6457 31.3485C64.6654 31.1784 64.6976 31.01 64.7421 30.8446C64.7944 30.6675 64.8697 30.561 64.945 30.561C64.9752 30.561 65.0468 30.5775 65.1616 30.6886C65.1768 30.7028 65.195 30.7137 65.2147 30.7205C65.2345 30.7273 65.2555 30.7299 65.2763 30.728C65.2968 30.7257 65.3165 30.7189 65.3341 30.7081C65.3518 30.6973 65.3668 30.6828 65.3782 30.6656C65.4297 30.5635 65.5059 30.4757 65.5998 30.4104C65.6937 30.345 65.8024 30.304 65.9161 30.2911C66.2116 30.2911 66.5834 30.5665 67.0845 31.1622C67.477 31.6269 68.0143 31.9463 68.61 32.0691C68.6463 32.0724 68.6828 32.064 68.7139 32.045C68.745 32.0259 68.7691 31.9974 68.7826 31.9635C68.8129 31.8772 68.7771 31.7845 68.6908 31.6028C69.1487 31.8791 69.6466 32.0828 70.1668 32.2067C70.192 32.2067 70.2168 32.2005 70.239 32.1887C70.2613 32.1768 70.2802 32.1597 70.2943 32.1388C70.3247 32.0784 70.3377 32.0107 70.332 31.9433C70.3393 31.9488 70.3467 31.9562 70.3549 31.9617C70.4593 32.6022 70.6074 33.2349 70.7983 33.8553C70.8069 33.8841 70.8246 33.9094 70.8488 33.9274C70.8729 33.9454 70.9022 33.9552 70.9323 33.9553C70.9423 33.9571 70.9526 33.9571 70.9626 33.9553C71.1305 33.9163 71.2875 33.8398 71.4215 33.7313C71.4322 33.7218 71.4418 33.711 71.45 33.6992C71.7985 33.02 71.9519 32.2575 71.8933 31.4963C72.1099 31.4605 72.3522 31.3292 72.399 31.1732C72.4111 31.1327 72.4096 31.0894 72.3949 31.0499C72.3802 31.0103 72.3529 30.9766 72.3174 30.9538Z" fill="#242736"/>
<path d="M62.7129 55.959V53.0358H63.7006C63.929 53.0358 64.1164 53.0748 64.263 53.1528C64.4095 53.2299 64.518 53.336 64.5884 53.4711C64.6588 53.6062 64.694 53.7599 64.694 53.9322C64.694 54.1044 64.6588 54.2571 64.5884 54.3903C64.518 54.5236 64.41 54.6282 64.2644 54.7043C64.1188 54.7795 63.9328 54.8171 63.7063 54.8171H62.907V54.4974H63.6949C63.8509 54.4974 63.9765 54.4745 64.0717 54.4289C64.1678 54.3832 64.2373 54.3185 64.2801 54.2348C64.3239 54.1501 64.3457 54.0492 64.3457 53.9322C64.3457 53.8151 64.3239 53.7128 64.2801 53.6253C64.2363 53.5377 64.1664 53.4702 64.0703 53.4226C63.9742 53.3741 63.8471 53.3498 63.6892 53.3498H63.0668V55.959H62.7129ZM64.0888 54.6458L64.8082 55.959H64.3971L63.6892 54.6458H64.0888ZM66.1053 56.0047C65.9074 56.0047 65.7337 55.9576 65.5843 55.8634C65.4359 55.7691 65.3198 55.6374 65.2361 55.468C65.1533 55.2986 65.1119 55.1007 65.1119 54.8742C65.1119 54.6458 65.1533 54.4465 65.2361 54.2761C65.3198 54.1058 65.4359 53.9735 65.5843 53.8793C65.7337 53.7851 65.9074 53.738 66.1053 53.738C66.3032 53.738 66.4764 53.7851 66.6249 53.8793C66.7743 53.9735 66.8903 54.1058 66.9731 54.2761C67.0569 54.4465 67.0987 54.6458 67.0987 54.8742C67.0987 55.1007 67.0569 55.2986 66.9731 55.468C66.8903 55.6374 66.7743 55.7691 66.6249 55.8634C66.4764 55.9576 66.3032 56.0047 66.1053 56.0047ZM66.1053 55.7021C66.2557 55.7021 66.3794 55.6635 66.4764 55.5864C66.5735 55.5094 66.6453 55.408 66.6919 55.2824C66.7386 55.1568 66.7619 55.0207 66.7619 54.8742C66.7619 54.7277 66.7386 54.5911 66.6919 54.4646C66.6453 54.338 66.5735 54.2357 66.4764 54.1577C66.3794 54.0796 66.2557 54.0406 66.1053 54.0406C65.955 54.0406 65.8313 54.0796 65.7342 54.1577C65.6371 54.2357 65.5653 54.338 65.5187 54.4646C65.472 54.5911 65.4487 54.7277 65.4487 54.8742C65.4487 55.0207 65.472 55.1568 65.5187 55.2824C65.5653 55.408 65.6371 55.5094 65.7342 55.5864C65.8313 55.6635 65.955 55.7021 66.1053 55.7021ZM69.1659 54.2576L68.8633 54.3432C68.8443 54.2928 68.8162 54.2438 68.7791 54.1962C68.7429 54.1477 68.6934 54.1077 68.6306 54.0763C68.5678 54.0449 68.4874 54.0292 68.3894 54.0292C68.2552 54.0292 68.1434 54.0601 68.054 54.122C67.9655 54.1829 67.9212 54.2604 67.9212 54.3546C67.9212 54.4384 67.9517 54.5045 68.0126 54.5531C68.0735 54.6016 68.1687 54.642 68.2981 54.6744L68.6235 54.7543C68.8195 54.8019 68.9656 54.8747 69.0617 54.9727C69.1578 55.0697 69.2059 55.1949 69.2059 55.3481C69.2059 55.4737 69.1697 55.586 69.0974 55.6849C69.026 55.7839 68.9261 55.8619 68.7976 55.919C68.6692 55.9761 68.5198 56.0047 68.3494 56.0047C68.1258 56.0047 67.9408 55.9561 67.7942 55.8591C67.6477 55.762 67.5549 55.6202 67.5159 55.4337L67.8356 55.3538C67.8661 55.4718 67.9236 55.5603 68.0083 55.6193C68.094 55.6783 68.2058 55.7078 68.3437 55.7078C68.5007 55.7078 68.6254 55.6745 68.7177 55.6079C68.811 55.5403 68.8576 55.4594 68.8576 55.3652C68.8576 55.2891 68.8309 55.2253 68.7777 55.1739C68.7244 55.1216 68.6425 55.0826 68.5321 55.0569L68.1667 54.9713C67.966 54.9237 67.8185 54.8499 67.7243 54.75C67.631 54.6492 67.5844 54.5231 67.5844 54.3718C67.5844 54.2481 67.6191 54.1386 67.6886 54.0435C67.759 53.9483 67.8546 53.8736 67.9755 53.8194C68.0973 53.7652 68.2353 53.738 68.3894 53.738C68.6064 53.738 68.7767 53.7856 68.9004 53.8808C69.0251 53.9759 69.1136 54.1015 69.1659 54.2576ZM71.2659 54.2576L70.9633 54.3432C70.9442 54.2928 70.9162 54.2438 70.8791 54.1962C70.8429 54.1477 70.7934 54.1077 70.7306 54.0763C70.6678 54.0449 70.5874 54.0292 70.4894 54.0292C70.3552 54.0292 70.2434 54.0601 70.154 54.122C70.0655 54.1829 70.0212 54.2604 70.0212 54.3546C70.0212 54.4384 70.0517 54.5045 70.1126 54.5531C70.1735 54.6016 70.2686 54.642 70.398 54.6744L70.7235 54.7543C70.9195 54.8019 71.0656 54.8747 71.1617 54.9727C71.2578 55.0697 71.3058 55.1949 71.3058 55.3481C71.3058 55.4737 71.2697 55.586 71.1974 55.6849C71.126 55.7839 71.0261 55.8619 70.8976 55.919C70.7692 55.9761 70.6198 56.0047 70.4494 56.0047C70.2258 56.0047 70.0407 55.9561 69.8942 55.8591C69.7477 55.762 69.6549 55.6202 69.6159 55.4337L69.9356 55.3538C69.966 55.4718 70.0236 55.5603 70.1083 55.6193C70.1939 55.6783 70.3057 55.7078 70.4437 55.7078C70.6007 55.7078 70.7254 55.6745 70.8177 55.6079C70.9109 55.5403 70.9576 55.4594 70.9576 55.3652C70.9576 55.2891 70.9309 55.2253 70.8776 55.1739C70.8243 55.1216 70.7425 55.0826 70.6321 55.0569L70.2667 54.9713C70.0659 54.9237 69.9185 54.8499 69.8243 54.75C69.731 54.6492 69.6844 54.5231 69.6844 54.3718C69.6844 54.2481 69.7191 54.1386 69.7886 54.0435C69.859 53.9483 69.9546 53.8736 70.0755 53.8194C70.1973 53.7652 70.3352 53.738 70.4894 53.738C70.7064 53.738 70.8767 53.7856 71.0004 53.8808C71.125 53.9759 71.2135 54.1015 71.2659 54.2576ZM72.0299 56.7811C71.9728 56.7811 71.9219 56.7764 71.8771 56.7669C71.8324 56.7583 71.8015 56.7497 71.7844 56.7412L71.87 56.4443C71.9518 56.4652 72.0241 56.4728 72.0869 56.4671C72.1498 56.4614 72.2054 56.4333 72.2539 56.3829C72.3034 56.3334 72.3486 56.253 72.3895 56.1417L72.4523 55.9704L71.6416 53.7666H72.007L72.6122 55.5137H72.635L73.2402 53.7666H73.6056L72.675 56.2787C72.6331 56.3919 72.5813 56.4857 72.5194 56.5599C72.4576 56.6351 72.3857 56.6907 72.3039 56.7269C72.223 56.7631 72.1317 56.7811 72.0299 56.7811Z" fill="#5F616E"/>
<path d="M115.553 35.1645C115.553 37.2627 114.93 39.3138 113.764 41.0583C112.598 42.8028 110.941 44.1624 109.003 44.9652C107.064 45.768 104.931 45.9779 102.873 45.5684C100.815 45.1589 98.9251 44.1483 97.4416 42.6645C95.958 41.1807 94.9478 39.2903 94.5386 37.2323C94.1295 35.1744 94.3397 33.0413 95.1429 31.1029C95.946 29.1644 97.3059 27.5077 99.0506 26.3421C100.795 25.1765 102.847 24.5545 104.945 24.5547C106.338 24.5548 107.717 24.8293 109.005 25.3626C110.292 25.8958 111.461 26.6774 112.446 27.6626C113.431 28.6478 114.212 29.8174 114.745 31.1046C115.279 32.3917 115.553 33.7713 115.553 35.1645Z" fill="#E3E4E8"/>
<path d="M117.159 35.1633C117.159 37.5793 116.442 39.9409 115.1 41.9496C113.757 43.9582 111.849 45.5237 109.617 46.4481C107.385 47.3725 104.929 47.6142 102.56 47.1427C100.19 46.6712 98.0138 45.5076 96.3056 43.7992C94.5974 42.0907 93.4342 39.9141 92.9631 37.5446C92.4919 35.175 92.734 32.719 93.6587 30.487C94.5834 28.2551 96.1492 26.3474 98.1581 25.0054C100.167 23.6633 102.529 22.9471 104.945 22.9473C106.549 22.9474 108.137 23.2635 109.619 23.8774C111.101 24.4914 112.448 25.3913 113.582 26.5257C114.716 27.66 115.616 29.0067 116.229 30.4887C116.843 31.9708 117.159 33.5592 117.159 35.1633Z" stroke="#8B3F9A" stroke-width="0.917881" stroke-miterlimit="10"/>
<path d="M101.089 33.7135C101.089 33.7135 100.578 33.5198 100.493 33.6511C100.364 33.9522 100.337 34.2869 100.416 34.6048C100.5 34.9515 100.683 35.2668 100.941 35.5135C101.145 35.5918 101.364 35.6246 101.583 35.6099C101.461 34.9673 101.296 34.3338 101.089 33.7135Z" fill="#FA9884"/>
<path d="M108.884 33.7135C108.884 33.7135 109.397 33.5198 109.482 33.6511C109.61 33.9526 109.636 34.2871 109.558 34.6048C109.473 34.9518 109.291 35.2672 109.033 35.5135C108.828 35.5918 108.609 35.6246 108.39 35.6099C108.512 34.9674 108.677 34.3339 108.884 33.7135Z" fill="#FA9884"/>
<path d="M107.387 40.0073C107.174 39.8571 107 39.6572 106.881 39.4248C106.763 39.1924 106.703 38.9345 106.706 38.6736C106.728 37.9349 106.803 37.1987 106.93 36.4707H102.957C103.085 37.1987 103.159 37.9349 103.18 38.6736C103.183 38.9346 103.123 39.1926 103.005 39.4251C102.886 39.6575 102.712 39.8574 102.499 40.0073L104.944 43.8532L107.387 40.0073Z" fill="#FFC2AB"/>
<path d="M106.712 38.1744C106.764 37.4713 106.927 36.4727 106.927 36.4727H102.958C102.958 36.4727 103.11 37.3997 103.166 38.0955C103.663 38.6004 104.295 38.951 104.986 39.1051C105.638 38.9646 106.236 38.6418 106.712 38.1744Z" fill="#FA9884"/>
<path d="M104.944 45.7711C107.641 45.7716 110.236 44.7393 112.195 42.8862C112.195 42.8862 112.195 42.8788 112.19 42.877C111.906 42.7099 109.336 41.1789 108.059 40.4538C107.823 40.3228 107.597 40.173 107.384 40.0059L104.94 43.8518L102.495 40.0059C102.283 40.1726 102.057 40.3224 101.821 40.4538C100.545 41.1789 97.9746 42.7099 97.6909 42.877L97.6836 42.8862C99.6457 44.741 102.244 45.7734 104.944 45.7711Z" fill="#8B3F9A"/>
<path d="M106.805 39.2402L105.211 42.2454L104.946 43.8535L105.843 42.4409L107.482 42.9503C107.482 42.9503 107.801 40.3656 107.817 40.3086C107.841 40.2354 107.841 40.1562 107.817 40.0829C107.783 40.0223 106.969 39.2402 106.969 39.2402H106.805Z" fill="white"/>
<path d="M103.086 39.2402L104.678 42.2454L104.945 43.8535L104.051 42.4446L102.411 42.954C102.411 42.954 102.091 40.3692 102.076 40.3123C102.05 40.2393 102.05 40.1595 102.076 40.0865C102.11 40.0259 102.924 39.2439 102.924 39.2439L103.086 39.2402Z" fill="white"/>
<path d="M104.986 27.2998C108.42 27.2998 109.061 30.4334 109.048 31.6671C108.972 33.1149 108.718 34.5478 108.292 35.9334C107.842 37.5957 105.737 38.4007 104.988 38.4007C104.238 38.4007 102.132 37.5957 101.683 35.9334C101.255 34.5481 101 33.1151 100.925 31.6671C100.912 30.4362 101.551 27.2998 104.986 27.2998Z" fill="#FFC2AB"/>
<path d="M110.179 30.9538C110.014 30.7693 109.906 30.5416 109.867 30.2975C109.759 29.8515 109.555 29.4347 109.268 29.0768C109.372 28.9901 109.453 28.8799 109.506 28.7553C109.558 28.6308 109.58 28.4955 109.569 28.3608C109.561 28.3119 109.537 28.2673 109.499 28.2349C109.462 28.2025 109.414 28.1843 109.365 28.1837H109.35C108.857 28.1129 108.394 27.9013 108.018 27.5742C107.181 26.8316 106.108 26.409 104.989 26.381C104.429 26.2889 103.853 26.3642 103.336 26.5973C102.818 26.8304 102.38 27.2111 102.077 27.6917C101.817 27.6463 101.548 27.6825 101.309 27.7954C101.07 27.9082 100.871 28.0922 100.74 28.3223C100.436 28.9318 100.208 29.576 100.059 30.2406C99.9574 30.5775 99.7592 30.8771 99.4891 31.1025C99.4579 31.1317 99.4367 31.1698 99.4283 31.2116C99.4199 31.2534 99.4248 31.2968 99.4422 31.3357C99.4969 31.4412 99.5776 31.531 99.6767 31.5966C99.7758 31.6621 99.8901 31.7012 100.009 31.7102C100.048 32.1345 100.12 32.5552 100.223 32.9686C100.295 33.185 100.411 33.384 100.564 33.5523C100.718 33.7206 100.906 33.8545 101.115 33.9452C101.135 33.9542 101.157 33.9581 101.18 33.9565C101.202 33.9549 101.223 33.9478 101.242 33.936C101.261 33.9247 101.277 33.9091 101.289 33.8904C101.301 33.8718 101.308 33.8506 101.31 33.8286C101.342 33.5531 101.397 33.2807 101.475 33.0145C101.603 32.8523 101.705 32.6715 101.778 32.4784C101.787 32.5032 101.789 32.5087 101.791 32.5124C101.804 32.5365 101.823 32.5567 101.847 32.5709C101.87 32.5851 101.897 32.5928 101.924 32.5932C102.077 32.5932 102.234 32.2994 102.342 32.0535C102.427 31.8267 102.483 31.5897 102.507 31.3485C102.527 31.1784 102.559 31.01 102.603 30.8446C102.656 30.6675 102.731 30.561 102.806 30.561C102.837 30.561 102.908 30.5775 103.023 30.6886C103.038 30.7028 103.056 30.7137 103.076 30.7205C103.096 30.7273 103.117 30.7299 103.138 30.728C103.158 30.7257 103.178 30.7189 103.195 30.7081C103.213 30.6973 103.228 30.6828 103.24 30.6656C103.291 30.5635 103.367 30.4757 103.461 30.4104C103.555 30.345 103.664 30.304 103.777 30.2911C104.073 30.2911 104.445 30.5665 104.946 31.1622C105.338 31.6269 105.876 31.9463 106.471 32.0691C106.508 32.0724 106.544 32.064 106.575 32.045C106.606 32.0259 106.63 31.9974 106.644 31.9635C106.674 31.8772 106.638 31.7845 106.552 31.6028C107.01 31.8791 107.508 32.0828 108.028 32.2067C108.053 32.2067 108.078 32.2005 108.1 32.1887C108.123 32.1768 108.142 32.1597 108.156 32.1388C108.186 32.0784 108.199 32.0107 108.193 31.9433C108.201 31.9488 108.208 31.9562 108.216 31.9617C108.321 32.6022 108.469 33.2349 108.66 33.8553C108.668 33.8841 108.686 33.9094 108.71 33.9274C108.734 33.9454 108.763 33.9552 108.794 33.9553C108.804 33.9571 108.814 33.9571 108.824 33.9553C108.992 33.9163 109.149 33.8398 109.283 33.7313C109.294 33.7218 109.303 33.711 109.311 33.6992C109.66 33.02 109.813 32.2575 109.755 31.4963C109.971 31.4605 110.214 31.3292 110.26 31.1732C110.272 31.1327 110.271 31.0894 110.256 31.0499C110.241 31.0103 110.214 30.9766 110.179 30.9538Z" fill="#242736"/>
<path d="M98.6224 53.0358H98.9764V55.1254C98.9764 55.3119 98.9422 55.4704 98.8736 55.6007C98.8051 55.7311 98.7085 55.83 98.5839 55.8976C98.4592 55.9652 98.3122 55.999 98.1428 55.999C97.983 55.999 97.8407 55.9699 97.7161 55.9119C97.5914 55.8529 97.4934 55.7691 97.422 55.6607C97.3507 55.5522 97.315 55.4233 97.315 55.2739H97.6633C97.6633 55.3566 97.6837 55.429 97.7246 55.4908C97.7665 55.5517 97.8236 55.5993 97.8959 55.6335C97.9682 55.6678 98.0505 55.6849 98.1428 55.6849C98.2447 55.6849 98.3313 55.6635 98.4026 55.6207C98.474 55.5779 98.5282 55.5151 98.5653 55.4323C98.6034 55.3486 98.6224 55.2463 98.6224 55.1254V53.0358ZM100.531 56.0047C100.333 56.0047 100.159 55.9576 100.01 55.8634C99.8614 55.7691 99.7453 55.6374 99.6615 55.468C99.5788 55.2986 99.5374 55.1007 99.5374 54.8742C99.5374 54.6458 99.5788 54.4465 99.6615 54.2761C99.7453 54.1058 99.8614 53.9735 100.01 53.8793C100.159 53.7851 100.333 53.738 100.531 53.738C100.729 53.738 100.902 53.7851 101.05 53.8793C101.2 53.9735 101.316 54.1058 101.399 54.2761C101.482 54.4465 101.524 54.6458 101.524 54.8742C101.524 55.1007 101.482 55.2986 101.399 55.468C101.316 55.6374 101.2 55.7691 101.05 55.8634C100.902 55.9576 100.729 56.0047 100.531 56.0047ZM100.531 55.7021C100.681 55.7021 100.805 55.6635 100.902 55.5864C100.999 55.5094 101.071 55.408 101.117 55.2824C101.164 55.1568 101.187 55.0207 101.187 54.8742C101.187 54.7277 101.164 54.5911 101.117 54.4646C101.071 54.338 100.999 54.2357 100.902 54.1577C100.805 54.0796 100.681 54.0406 100.531 54.0406C100.38 54.0406 100.257 54.0796 100.16 54.1577C100.063 54.2357 99.9908 54.338 99.9442 54.4646C99.8975 54.5911 99.8742 54.7277 99.8742 54.8742C99.8742 55.0207 99.8975 55.1568 99.9442 55.2824C99.9908 55.408 100.063 55.5094 100.16 55.5864C100.257 55.6635 100.38 55.7021 100.531 55.7021ZM102.375 54.6401V55.959H102.038V53.7666H102.364V54.1091H102.392C102.444 53.9978 102.522 53.9084 102.626 53.8408C102.731 53.7723 102.866 53.738 103.032 53.738C103.18 53.738 103.31 53.7685 103.422 53.8294C103.533 53.8893 103.619 53.9807 103.681 54.1034C103.743 54.2252 103.774 54.3794 103.774 54.5659V55.959H103.437V54.5887C103.437 54.4165 103.392 54.2823 103.303 54.1862C103.214 54.0892 103.091 54.0406 102.935 54.0406C102.827 54.0406 102.731 54.0639 102.646 54.1106C102.563 54.1572 102.497 54.2252 102.448 54.3147C102.4 54.4041 102.375 54.5126 102.375 54.6401ZM105.035 56.0104C104.896 56.0104 104.77 55.9842 104.657 55.9319C104.543 55.8786 104.453 55.802 104.387 55.7021C104.32 55.6012 104.287 55.4794 104.287 55.3367C104.287 55.2111 104.312 55.1092 104.361 55.0312C104.411 54.9522 104.477 54.8904 104.559 54.8457C104.642 54.8009 104.734 54.7676 104.834 54.7457C104.934 54.7229 105.036 54.7048 105.138 54.6915C105.271 54.6744 105.379 54.6615 105.462 54.653C105.545 54.6434 105.606 54.6277 105.644 54.6059C105.683 54.584 105.703 54.5459 105.703 54.4917V54.4803C105.703 54.3394 105.664 54.23 105.587 54.152C105.511 54.0739 105.395 54.0349 105.24 54.0349C105.079 54.0349 104.953 54.0701 104.862 54.1405C104.771 54.211 104.706 54.2861 104.669 54.3661L104.35 54.2519C104.407 54.1187 104.483 54.0149 104.578 53.9407C104.674 53.8655 104.779 53.8132 104.892 53.7837C105.006 53.7533 105.119 53.738 105.229 53.738C105.299 53.738 105.38 53.7466 105.472 53.7637C105.564 53.7799 105.653 53.8137 105.738 53.8651C105.825 53.9165 105.897 53.994 105.954 54.0977C106.011 54.2014 106.04 54.3404 106.04 54.5145V55.959H105.703V55.6621H105.686C105.663 55.7097 105.625 55.7606 105.571 55.8148C105.518 55.8691 105.447 55.9152 105.359 55.9533C105.27 55.9913 105.162 56.0104 105.035 56.0104ZM105.086 55.7078C105.219 55.7078 105.332 55.6816 105.423 55.6293C105.515 55.5769 105.585 55.5094 105.631 55.4266C105.679 55.3438 105.703 55.2567 105.703 55.1654V54.8571C105.688 54.8742 105.657 54.8899 105.609 54.9042C105.561 54.9175 105.506 54.9294 105.443 54.9399C105.381 54.9494 105.321 54.9579 105.262 54.9656C105.204 54.9722 105.157 54.9779 105.12 54.9827C105.033 54.9941 104.951 55.0127 104.875 55.0383C104.8 55.0631 104.739 55.1007 104.692 55.1511C104.647 55.2006 104.624 55.2681 104.624 55.3538C104.624 55.4708 104.667 55.5593 104.754 55.6193C104.841 55.6783 104.952 55.7078 105.086 55.7078ZM107.608 53.7666V54.0521H106.472V53.7666H107.608ZM106.803 53.2413H107.14V55.331C107.14 55.4261 107.154 55.4975 107.181 55.5451C107.21 55.5917 107.246 55.6231 107.29 55.6393C107.334 55.6545 107.381 55.6621 107.431 55.6621C107.468 55.6621 107.498 55.6602 107.522 55.6564C107.546 55.6516 107.565 55.6478 107.579 55.645L107.648 55.9476C107.625 55.9561 107.593 55.9647 107.552 55.9733C107.511 55.9828 107.459 55.9875 107.397 55.9875C107.302 55.9875 107.208 55.9671 107.117 55.9262C107.027 55.8852 106.951 55.8229 106.891 55.7392C106.832 55.6554 106.803 55.5498 106.803 55.4223V53.2413ZM108.499 54.6401V55.959H108.162V53.0358H108.499V54.1091H108.527C108.579 53.9959 108.656 53.906 108.758 53.8394C108.862 53.7718 109 53.738 109.172 53.738C109.322 53.738 109.453 53.768 109.565 53.828C109.677 53.887 109.764 53.9778 109.826 54.1006C109.889 54.2224 109.92 54.3775 109.92 54.5659V55.959H109.583V54.5887C109.583 54.4146 109.538 54.28 109.448 54.1848C109.358 54.0887 109.234 54.0406 109.075 54.0406C108.965 54.0406 108.866 54.0639 108.778 54.1106C108.692 54.1572 108.623 54.2252 108.573 54.3147C108.523 54.4041 108.499 54.5126 108.499 54.6401ZM111.182 56.0104C111.043 56.0104 110.917 55.9842 110.803 55.9319C110.69 55.8786 110.6 55.802 110.534 55.7021C110.467 55.6012 110.434 55.4794 110.434 55.3367C110.434 55.2111 110.458 55.1092 110.508 55.0312C110.557 54.9522 110.624 54.8904 110.706 54.8457C110.789 54.8009 110.88 54.7676 110.98 54.7457C111.081 54.7229 111.183 54.7048 111.284 54.6915C111.418 54.6744 111.526 54.6615 111.608 54.653C111.692 54.6434 111.753 54.6277 111.791 54.6059C111.83 54.584 111.85 54.5459 111.85 54.4917V54.4803C111.85 54.3394 111.811 54.23 111.734 54.152C111.658 54.0739 111.542 54.0349 111.387 54.0349C111.226 54.0349 111.1 54.0701 111.009 54.1405C110.918 54.211 110.853 54.2861 110.816 54.3661L110.497 54.2519C110.554 54.1187 110.63 54.0149 110.725 53.9407C110.821 53.8655 110.926 53.8132 111.039 53.7837C111.153 53.7533 111.265 53.738 111.376 53.738C111.446 53.738 111.527 53.7466 111.618 53.7637C111.711 53.7799 111.8 53.8137 111.885 53.8651C111.972 53.9165 112.044 53.994 112.101 54.0977C112.158 54.2014 112.186 54.3404 112.186 54.5145V55.959H111.85V55.6621H111.832C111.81 55.7097 111.772 55.7606 111.718 55.8148C111.665 55.8691 111.594 55.9152 111.506 55.9533C111.417 55.9913 111.309 56.0104 111.182 56.0104ZM111.233 55.7078C111.366 55.7078 111.479 55.6816 111.57 55.6293C111.662 55.5769 111.732 55.5094 111.778 55.4266C111.826 55.3438 111.85 55.2567 111.85 55.1654V54.8571C111.835 54.8742 111.804 54.8899 111.755 54.9042C111.708 54.9175 111.653 54.9294 111.59 54.9399C111.528 54.9494 111.468 54.9579 111.409 54.9656C111.351 54.9722 111.303 54.9779 111.267 54.9827C111.18 54.9941 111.098 55.0127 111.022 55.0383C110.947 55.0631 110.886 55.1007 110.839 55.1511C110.793 55.2006 110.771 55.2681 110.771 55.3538C110.771 55.4708 110.814 55.5593 110.9 55.6193C110.988 55.6783 111.099 55.7078 111.233 55.7078ZM113.138 54.6401V55.959H112.801V53.7666H113.127V54.1091H113.155C113.207 53.9978 113.285 53.9084 113.389 53.8408C113.494 53.7723 113.629 53.738 113.795 53.738C113.943 53.738 114.073 53.7685 114.184 53.8294C114.296 53.8893 114.382 53.9807 114.444 54.1034C114.506 54.2252 114.537 54.3794 114.537 54.5659V55.959H114.2V54.5887C114.2 54.4165 114.155 54.2823 114.066 54.1862C113.976 54.0892 113.854 54.0406 113.698 54.0406C113.59 54.0406 113.494 54.0639 113.409 54.1106C113.326 54.1572 113.259 54.2252 113.211 54.3147C113.162 54.4041 113.138 54.5126 113.138 54.6401Z" fill="#5F616E"/>
<path d="M153.415 35.1645C153.415 37.2627 152.792 39.3138 151.627 41.0583C150.461 42.8028 148.804 44.1624 146.865 44.9652C144.927 45.768 142.793 45.9779 140.736 45.5684C138.678 45.1589 136.787 44.1483 135.304 42.6645C133.82 41.1807 132.81 39.2903 132.401 37.2323C131.992 35.1744 132.202 33.0413 133.005 31.1029C133.808 29.1644 135.168 27.5077 136.913 26.3421C138.658 25.1765 140.709 24.5545 142.807 24.5547C144.2 24.5548 145.58 24.8293 146.867 25.3626C148.154 25.8958 149.323 26.6774 150.308 27.6626C151.293 28.6478 152.075 29.8174 152.608 31.1046C153.141 32.3917 153.415 33.7713 153.415 35.1645Z" fill="#E3E4E8"/>
<path d="M155.021 35.1633C155.021 37.5793 154.304 39.9409 152.962 41.9496C151.62 43.9582 149.712 45.5237 147.48 46.4481C145.248 47.3725 142.791 47.6142 140.422 47.1427C138.053 46.6712 135.876 45.5076 134.168 43.7992C132.46 42.0907 131.297 39.9141 130.825 37.5446C130.354 35.175 130.596 32.719 131.521 30.487C132.446 28.2551 134.011 26.3474 136.02 25.0054C138.029 23.6633 140.391 22.9471 142.807 22.9473C144.411 22.9474 145.999 23.2635 147.481 23.8774C148.963 24.4914 150.31 25.3913 151.444 26.5257C152.578 27.66 153.478 29.0067 154.092 30.4887C154.705 31.9708 155.021 33.5592 155.021 35.1633Z" stroke="#8B3F9A" stroke-width="0.917881" stroke-miterlimit="10"/>
<path d="M138.951 33.7135C138.951 33.7135 138.439 33.5198 138.354 33.6511C138.225 33.9522 138.198 34.2869 138.277 34.6048C138.362 34.9515 138.544 35.2668 138.802 35.5135C139.007 35.5918 139.226 35.6246 139.444 35.6099C139.323 34.9673 139.158 34.3338 138.951 33.7135Z" fill="#FA9884"/>
<path d="M146.746 33.7135C146.746 33.7135 147.259 33.5198 147.344 33.6511C147.471 33.9526 147.498 34.2871 147.419 34.6048C147.335 34.9518 147.153 35.2672 146.894 35.5135C146.69 35.5918 146.471 35.6246 146.252 35.6099C146.374 34.9674 146.539 34.3339 146.746 33.7135Z" fill="#FA9884"/>
<path d="M145.249 40.0073C145.036 39.8571 144.862 39.6572 144.744 39.4248C144.625 39.1924 144.565 38.9345 144.568 38.6736C144.59 37.9349 144.665 37.1987 144.792 36.4707H140.82C140.947 37.1987 141.021 37.9349 141.042 38.6736C141.046 38.9346 140.986 39.1926 140.867 39.4251C140.748 39.6575 140.575 39.8574 140.361 40.0073L142.806 43.8532L145.249 40.0073Z" fill="#FFC2AB"/>
<path d="M144.578 38.1744C144.63 37.4713 144.793 36.4727 144.793 36.4727H140.82C140.82 36.4727 140.973 37.3997 141.029 38.0955C141.525 38.6004 142.157 38.951 142.848 39.1051C143.501 38.9652 144.101 38.6424 144.578 38.1744Z" fill="#FA9884"/>
<path d="M142.806 45.7711C145.503 45.7716 148.098 44.7393 150.058 42.8862C150.058 42.8862 150.058 42.8788 150.052 42.877C149.768 42.7099 147.198 41.1789 145.922 40.4538C145.685 40.3228 145.459 40.173 145.246 40.0059L142.803 43.8518L140.357 40.0059C140.145 40.1726 139.92 40.3224 139.684 40.4538C138.407 41.1789 135.837 42.7099 135.553 42.877L135.546 42.8862C137.508 44.741 140.106 45.7734 142.806 45.7711Z" fill="#F9D967"/>
<path d="M144.665 39.2402L143.071 42.2454L142.806 43.8535L143.702 42.4446L145.34 42.954C145.34 42.954 145.66 40.3692 145.675 40.3123C145.7 40.239 145.7 40.1598 145.675 40.0865C145.641 40.0259 144.827 39.2439 144.827 39.2439L144.665 39.2402Z" fill="white"/>
<path d="M140.949 39.2402L142.541 42.2454L142.808 43.8535L141.911 42.4409L140.271 42.9503C140.271 42.9503 139.952 40.3656 139.936 40.3086C139.91 40.2357 139.91 40.1559 139.936 40.0829C139.97 40.0223 140.784 39.2402 140.784 39.2402H140.949Z" fill="white"/>
<path d="M142.849 27.2998C146.283 27.2998 146.924 30.4334 146.911 31.6671C146.835 33.1149 146.581 34.5478 146.155 35.9334C145.705 37.5957 143.6 38.4007 142.85 38.4007C142.1 38.4007 139.995 37.5957 139.546 35.9334C139.118 34.5481 138.863 33.1151 138.788 31.6671C138.775 30.4362 139.414 27.2998 142.849 27.2998Z" fill="#FFC2AB"/>
<path d="M148.042 30.9535C147.877 30.769 147.769 30.5413 147.73 30.2973C147.623 29.8512 147.418 29.4344 147.131 29.0765C147.235 28.9898 147.316 28.8796 147.369 28.755C147.421 28.6305 147.443 28.4952 147.432 28.3605C147.425 28.3116 147.4 28.267 147.362 28.2346C147.325 28.2022 147.277 28.1841 147.228 28.1834H147.213C146.72 28.1126 146.257 27.901 145.881 27.5739C145.044 26.8314 143.971 26.4087 142.852 26.3807C142.291 26.2889 141.716 26.3647 141.197 26.5987C140.679 26.8327 140.242 27.2144 139.94 27.696C139.679 27.6506 139.411 27.6868 139.171 27.7997C138.932 27.9125 138.733 28.0965 138.602 28.3266C138.299 28.9361 138.07 29.5803 137.921 30.2449C137.82 30.5818 137.622 30.8814 137.351 31.1068C137.32 31.136 137.299 31.1741 137.291 31.2159C137.282 31.2577 137.287 31.3011 137.305 31.34C137.359 31.4455 137.44 31.5353 137.539 31.6009C137.638 31.6664 137.752 31.7055 137.871 31.7145C137.91 32.1388 137.982 32.5595 138.086 32.9729C138.157 33.1893 138.273 33.3883 138.427 33.5566C138.58 33.7249 138.768 33.8588 138.977 33.9495C138.997 33.9585 139.02 33.9623 139.042 33.9607C139.064 33.9591 139.086 33.9521 139.105 33.9403C139.123 33.929 139.14 33.9134 139.151 33.8948C139.163 33.8761 139.17 33.8549 139.172 33.8329C139.204 33.5574 139.26 33.285 139.338 33.0188C139.465 32.8566 139.568 32.6758 139.641 32.4827C139.65 32.5075 139.652 32.513 139.653 32.5167C139.666 32.5408 139.686 32.561 139.709 32.5752C139.732 32.5894 139.759 32.5971 139.787 32.5975C139.939 32.5975 140.097 32.3037 140.204 32.0577C140.29 31.831 140.345 31.594 140.369 31.3528C140.389 31.1827 140.421 31.0143 140.466 30.8489C140.518 30.6717 140.593 30.5653 140.669 30.5653C140.699 30.5653 140.77 30.5818 140.885 30.6929C140.9 30.7071 140.919 30.718 140.938 30.7248C140.958 30.7316 140.979 30.7342 141 30.7323C141.02 30.73 141.04 30.7232 141.058 30.7124C141.075 30.7016 141.09 30.6871 141.102 30.6699C141.153 30.5678 141.23 30.48 141.323 30.4147C141.417 30.3493 141.526 30.3083 141.64 30.2954C141.935 30.2954 142.307 30.5708 142.808 31.1665C143.201 31.6312 143.738 31.9505 144.334 32.0734C144.37 32.0767 144.406 32.0683 144.438 32.0493C144.469 32.0302 144.493 32.0017 144.506 31.9678C144.537 31.8815 144.501 31.7888 144.414 31.6071C144.872 31.8834 145.37 32.0871 145.89 32.211C145.916 32.211 145.94 32.2048 145.963 32.1929C145.985 32.1811 146.004 32.164 146.018 32.1431C146.048 32.0827 146.061 32.015 146.056 31.9476C146.063 31.9531 146.07 31.9605 146.079 31.966C146.183 32.6065 146.331 33.2392 146.522 33.8595C146.531 33.8884 146.548 33.9137 146.572 33.9317C146.597 33.9497 146.626 33.9595 146.656 33.9596C146.666 33.9614 146.676 33.9614 146.686 33.9596C146.854 33.9206 147.011 33.8441 147.145 33.7356C147.156 33.7261 147.165 33.7153 147.174 33.7035C147.522 33.0243 147.676 32.2618 147.617 31.5006C147.834 31.4648 148.076 31.3335 148.123 31.1775C148.136 31.1365 148.135 31.0923 148.121 31.0517C148.106 31.0112 148.078 30.9767 148.042 30.9535Z" fill="#242736"/>
<path d="M135.075 55.959V53.0358H136.063C136.292 53.0358 136.48 53.0772 136.625 53.16C136.772 53.2418 136.88 53.3527 136.951 53.4925C137.021 53.6324 137.056 53.7885 137.056 53.9607C137.056 54.1329 137.021 54.2895 136.951 54.4303C136.881 54.5711 136.774 54.6834 136.628 54.7672C136.483 54.8499 136.296 54.8913 136.069 54.8913H135.361V54.5773H136.057C136.214 54.5773 136.34 54.5502 136.435 54.496C136.531 54.4417 136.6 54.3684 136.642 54.2761C136.686 54.1829 136.708 54.0777 136.708 53.9607C136.708 53.8437 136.686 53.739 136.642 53.6467C136.6 53.5544 136.53 53.4821 136.434 53.4297C136.338 53.3764 136.21 53.3498 136.051 53.3498H135.429V55.959H135.075ZM138.477 56.0047C138.265 56.0047 138.083 55.958 137.93 55.8648C137.778 55.7706 137.66 55.6393 137.577 55.4708C137.495 55.3015 137.455 55.1045 137.455 54.8799C137.455 54.6553 137.495 54.4574 137.577 54.2861C137.66 54.1139 137.775 53.9797 137.923 53.8836C138.071 53.7866 138.244 53.738 138.442 53.738C138.556 53.738 138.669 53.7571 138.781 53.7951C138.892 53.8332 138.993 53.895 139.085 53.9807C139.176 54.0654 139.249 54.1777 139.303 54.3175C139.357 54.4574 139.384 54.6297 139.384 54.8342V54.977H137.694V54.6858H139.042C139.042 54.5621 139.017 54.4517 138.968 54.3546C138.919 54.2576 138.85 54.181 138.759 54.1248C138.67 54.0687 138.564 54.0406 138.442 54.0406C138.308 54.0406 138.192 54.0739 138.094 54.1405C137.997 54.2062 137.922 54.2918 137.87 54.3975C137.818 54.5031 137.791 54.6163 137.791 54.7372V54.9313C137.791 55.0969 137.82 55.2372 137.877 55.3524C137.935 55.4666 138.016 55.5536 138.118 55.6136C138.221 55.6726 138.34 55.7021 138.477 55.7021C138.565 55.7021 138.645 55.6897 138.716 55.665C138.789 55.6393 138.851 55.6012 138.903 55.5508C138.956 55.4994 138.996 55.4356 139.025 55.3595L139.35 55.4508C139.316 55.5612 139.258 55.6583 139.177 55.742C139.096 55.8248 138.997 55.8895 138.878 55.9361C138.759 55.9818 138.625 56.0047 138.477 56.0047ZM140.85 53.7666V54.0521H139.714V53.7666H140.85ZM140.045 53.2413H140.382V55.331C140.382 55.4261 140.396 55.4975 140.423 55.5451C140.452 55.5917 140.488 55.6231 140.532 55.6393C140.577 55.6545 140.624 55.6621 140.673 55.6621C140.71 55.6621 140.741 55.6602 140.765 55.6564C140.788 55.6516 140.807 55.6478 140.822 55.645L140.89 55.9476C140.867 55.9561 140.835 55.9647 140.795 55.9733C140.754 55.9828 140.702 55.9875 140.639 55.9875C140.544 55.9875 140.451 55.9671 140.359 55.9262C140.269 55.8852 140.194 55.8229 140.134 55.7392C140.075 55.6554 140.045 55.5498 140.045 55.4223V53.2413ZM142.31 53.7666V54.0521H141.174V53.7666H142.31ZM141.505 53.2413H141.842V55.331C141.842 55.4261 141.856 55.4975 141.884 55.5451C141.912 55.5917 141.948 55.6231 141.992 55.6393C142.037 55.6545 142.084 55.6621 142.133 55.6621C142.17 55.6621 142.201 55.6602 142.225 55.6564C142.249 55.6516 142.268 55.6478 142.282 55.645L142.35 55.9476C142.328 55.9561 142.296 55.9647 142.255 55.9733C142.214 55.9828 142.162 55.9875 142.099 55.9875C142.004 55.9875 141.911 55.9671 141.819 55.9262C141.729 55.8852 141.654 55.8229 141.594 55.7392C141.535 55.6554 141.505 55.5498 141.505 55.4223V53.2413ZM143.713 56.0047C143.501 56.0047 143.319 55.958 143.166 55.8648C143.014 55.7706 142.896 55.6393 142.814 55.4708C142.732 55.3015 142.691 55.1045 142.691 54.8799C142.691 54.6553 142.732 54.4574 142.814 54.2861C142.896 54.1139 143.011 53.9797 143.159 53.8836C143.307 53.7866 143.481 53.738 143.678 53.738C143.793 53.738 143.905 53.7571 144.017 53.7951C144.128 53.8332 144.229 53.895 144.321 53.9807C144.412 54.0654 144.485 54.1777 144.539 54.3175C144.593 54.4574 144.621 54.6297 144.621 54.8342V54.977H142.931V54.6858H144.278C144.278 54.5621 144.253 54.4517 144.204 54.3546C144.155 54.2576 144.086 54.181 143.995 54.1248C143.906 54.0687 143.8 54.0406 143.678 54.0406C143.544 54.0406 143.428 54.0739 143.33 54.1405C143.233 54.2062 143.158 54.2918 143.106 54.3975C143.054 54.5031 143.028 54.6163 143.028 54.7372V54.9313C143.028 55.0969 143.056 55.2372 143.113 55.3524C143.171 55.4666 143.252 55.5536 143.354 55.6136C143.457 55.6726 143.577 55.7021 143.713 55.7021C143.801 55.7021 143.881 55.6897 143.953 55.665C144.025 55.6393 144.087 55.6012 144.14 55.5508C144.192 55.4994 144.232 55.4356 144.261 55.3595L144.586 55.4508C144.552 55.5612 144.494 55.6583 144.414 55.742C144.333 55.8248 144.233 55.8895 144.114 55.9361C143.995 55.9818 143.861 56.0047 143.713 56.0047ZM145.133 55.959V53.7666H145.458V54.0977H145.481C145.521 53.9892 145.594 53.9012 145.698 53.8337C145.803 53.7661 145.921 53.7323 146.052 53.7323C146.077 53.7323 146.108 53.7328 146.145 53.7338C146.182 53.7347 146.21 53.7361 146.229 53.738V54.0806C146.218 54.0777 146.192 54.0735 146.151 54.0678C146.111 54.0611 146.068 54.0578 146.024 54.0578C145.917 54.0578 145.822 54.0801 145.738 54.1248C145.655 54.1686 145.59 54.2295 145.541 54.3075C145.494 54.3846 145.47 54.4726 145.47 54.5716V55.959H145.133ZM148.181 54.2576L147.879 54.3432C147.86 54.2928 147.832 54.2438 147.795 54.1962C147.758 54.1477 147.709 54.1077 147.646 54.0763C147.583 54.0449 147.503 54.0292 147.405 54.0292C147.271 54.0292 147.159 54.0601 147.069 54.122C146.981 54.1829 146.937 54.2604 146.937 54.3546C146.937 54.4384 146.967 54.5045 147.028 54.5531C147.089 54.6016 147.184 54.642 147.314 54.6744L147.639 54.7543C147.835 54.8019 147.981 54.8747 148.077 54.9727C148.173 55.0697 148.221 55.1949 148.221 55.3481C148.221 55.4737 148.185 55.586 148.113 55.6849C148.042 55.7839 147.942 55.8619 147.813 55.919C147.685 55.9761 147.535 56.0047 147.365 56.0047C147.141 56.0047 146.956 55.9561 146.81 55.8591C146.663 55.762 146.57 55.6202 146.531 55.4337L146.851 55.3538C146.882 55.4718 146.939 55.5603 147.024 55.6193C147.109 55.6783 147.221 55.7078 147.359 55.7078C147.516 55.7078 147.641 55.6745 147.733 55.6079C147.826 55.5403 147.873 55.4594 147.873 55.3652C147.873 55.2891 147.846 55.2253 147.793 55.1739C147.74 55.1216 147.658 55.0826 147.548 55.0569L147.182 54.9713C146.981 54.9237 146.834 54.8499 146.74 54.75C146.647 54.6492 146.6 54.5231 146.6 54.3718C146.6 54.2481 146.635 54.1386 146.704 54.0435C146.775 53.9483 146.87 53.8736 146.991 53.8194C147.113 53.7652 147.251 53.738 147.405 53.738C147.622 53.738 147.792 53.7856 147.916 53.8808C148.041 53.9759 148.129 54.1015 148.181 54.2576ZM149.619 56.0047C149.421 56.0047 149.248 55.9576 149.098 55.8634C148.95 55.7691 148.834 55.6374 148.75 55.468C148.667 55.2986 148.626 55.1007 148.626 54.8742C148.626 54.6458 148.667 54.4465 148.75 54.2761C148.834 54.1058 148.95 53.9735 149.098 53.8793C149.248 53.7851 149.421 53.738 149.619 53.738C149.817 53.738 149.99 53.7851 150.139 53.8793C150.288 53.9735 150.404 54.1058 150.487 54.2761C150.571 54.4465 150.613 54.6458 150.613 54.8742C150.613 55.1007 150.571 55.2986 150.487 55.468C150.404 55.6374 150.288 55.7691 150.139 55.8634C149.99 55.9576 149.817 56.0047 149.619 56.0047ZM149.619 55.7021C149.769 55.7021 149.893 55.6635 149.99 55.5864C150.087 55.5094 150.159 55.408 150.206 55.2824C150.252 55.1568 150.276 55.0207 150.276 54.8742C150.276 54.7277 150.252 54.5911 150.206 54.4646C150.159 54.338 150.087 54.2357 149.99 54.1577C149.893 54.0796 149.769 54.0406 149.619 54.0406C149.469 54.0406 149.345 54.0796 149.248 54.1577C149.151 54.2357 149.079 54.338 149.032 54.4646C148.986 54.5911 148.963 54.7277 148.963 54.8742C148.963 55.0207 148.986 55.1568 149.032 55.2824C149.079 55.408 149.151 55.5094 149.248 55.5864C149.345 55.6635 149.469 55.7021 149.619 55.7021ZM151.464 54.6401V55.959H151.127V53.7666H151.452V54.1091H151.481C151.532 53.9978 151.61 53.9084 151.715 53.8408C151.819 53.7723 151.955 53.738 152.12 53.738C152.269 53.738 152.398 53.7685 152.51 53.8294C152.621 53.8893 152.708 53.9807 152.77 54.1034C152.831 54.2252 152.862 54.3794 152.862 54.5659V55.959H152.526V54.5887C152.526 54.4165 152.481 54.2823 152.391 54.1862C152.302 54.0892 152.179 54.0406 152.023 54.0406C151.916 54.0406 151.819 54.0639 151.735 54.1106C151.651 54.1572 151.585 54.2252 151.536 54.3147C151.488 54.4041 151.464 54.5126 151.464 54.6401Z" fill="#5F616E"/>
<path d="M191.28 35.1645C191.28 37.2627 190.657 39.3138 189.491 41.0583C188.325 42.8028 186.668 44.1624 184.73 44.9652C182.791 45.768 180.658 45.9779 178.6 45.5684C176.542 45.1589 174.652 44.1483 173.169 42.6645C171.685 41.1807 170.675 39.2903 170.266 37.2323C169.857 35.1744 170.067 33.0413 170.87 31.1029C171.673 29.1644 173.033 27.5077 174.778 26.3421C176.522 25.1765 178.574 24.5545 180.672 24.5547C182.065 24.5548 183.445 24.8293 184.732 25.3626C186.019 25.8958 187.188 26.6774 188.173 27.6626C189.158 28.6478 189.94 29.8174 190.473 31.1046C191.006 32.3917 191.28 33.7713 191.28 35.1645Z" fill="#E3E4E8"/>
<path d="M192.886 35.1633C192.886 37.5793 192.169 39.9409 190.827 41.9496C189.484 43.9582 187.577 45.5237 185.344 46.4481C183.112 47.3725 180.656 47.6142 178.287 47.1427C175.917 46.6712 173.741 45.5076 172.033 43.7992C170.324 42.0907 169.161 39.9141 168.69 37.5446C168.219 35.175 168.461 32.719 169.386 30.487C170.31 28.2551 171.876 26.3474 173.885 25.0054C175.894 23.6633 178.256 22.9471 180.672 22.9473C182.276 22.9474 183.864 23.2635 185.346 23.8774C186.828 24.4914 188.175 25.3913 189.309 26.5257C190.443 27.66 191.343 29.0067 191.956 30.4887C192.57 31.9708 192.886 33.5592 192.886 35.1633Z" stroke="#8B3F9A" stroke-width="0.917881" stroke-miterlimit="10"/>
<path d="M176.814 33.7135C176.814 33.7135 176.303 33.5198 176.218 33.6511C176.089 33.9522 176.062 34.2869 176.141 34.6048C176.226 34.9515 176.408 35.2668 176.666 35.5135C176.87 35.5918 177.09 35.6246 177.308 35.6099C177.187 34.9673 177.022 34.3338 176.814 33.7135Z" fill="#FA9884"/>
<path d="M184.61 33.7135C184.61 33.7135 185.123 33.5198 185.208 33.6511C185.335 33.9526 185.362 34.2871 185.283 34.6048C185.199 34.9516 185.017 35.267 184.758 35.5135C184.554 35.5918 184.334 35.6246 184.116 35.6099C184.238 34.9674 184.403 34.3339 184.61 33.7135Z" fill="#FA9884"/>
<path d="M183.115 40.0073C182.901 39.8571 182.728 39.6572 182.609 39.4248C182.49 39.1924 182.43 38.9345 182.434 38.6736C182.456 37.9349 182.53 37.1987 182.658 36.4707H178.685C178.812 37.1987 178.886 37.9349 178.907 38.6736C178.911 38.9346 178.851 39.1926 178.732 39.4251C178.614 39.6575 178.44 39.8574 178.226 40.0073L180.671 43.8532L183.115 40.0073Z" fill="#FFC2AB"/>
<path d="M182.439 38.1744C182.491 37.4713 182.654 36.4727 182.654 36.4727H178.685C178.685 36.4727 178.837 37.3997 178.892 38.0955C179.389 38.6004 180.021 38.951 180.712 39.1051C181.364 38.9648 181.963 38.642 182.439 38.1744Z" fill="#FA9884"/>
<path d="M180.671 45.7711C183.368 45.7711 185.963 44.7388 187.922 42.8862C187.922 42.8862 187.922 42.8788 187.917 42.877C187.633 42.7099 185.063 41.1789 183.786 40.4538C183.55 40.3228 183.324 40.173 183.111 40.0059L180.667 43.8518L178.222 40.0059C178.01 40.1726 177.784 40.3224 177.548 40.4538C176.272 41.1789 173.702 42.7099 173.418 42.877L173.411 42.8862C175.373 44.741 177.971 45.7734 180.671 45.7711Z" fill="#F96767"/>
<path d="M182.532 39.2402L180.938 42.2454L180.673 43.8535L181.571 42.4409L183.209 42.9503C183.209 42.9503 183.528 40.3656 183.544 40.3086C183.568 40.2353 183.568 40.1562 183.544 40.0829C183.51 40.0223 182.696 39.2402 182.696 39.2402H182.532Z" fill="white"/>
<path d="M178.813 39.2402L180.405 42.2454L180.672 43.8535L179.778 42.4446L178.137 42.954C178.137 42.954 177.818 40.3692 177.802 40.3123C177.777 40.2392 177.777 40.1596 177.802 40.0865C177.836 40.0259 178.651 39.2439 178.651 39.2439L178.813 39.2402Z" fill="white"/>
<path d="M180.713 27.2998C184.147 27.2998 184.788 30.4334 184.775 31.6671C184.699 33.1149 184.445 34.5478 184.019 35.9334C183.569 37.5957 181.465 38.4007 180.715 38.4007C179.965 38.4007 177.859 37.5957 177.41 35.9334C176.982 34.5481 176.727 33.1151 176.652 31.6671C176.639 30.4362 177.278 27.2998 180.713 27.2998Z" fill="#FFC2AB"/>
<path d="M185.906 30.9538C185.741 30.7693 185.633 30.5416 185.594 30.2975C185.487 29.8515 185.282 29.4347 184.995 29.0768C185.099 28.99 185.18 28.8798 185.233 28.7553C185.285 28.6308 185.307 28.4955 185.296 28.3608C185.289 28.3119 185.264 28.2673 185.226 28.2349C185.189 28.2025 185.141 28.1843 185.092 28.1837H185.077C184.584 28.1129 184.121 27.9013 183.745 27.5742C182.908 26.8316 181.835 26.409 180.716 26.381C180.156 26.2889 179.581 26.3642 179.063 26.5973C178.545 26.8304 178.107 27.2111 177.805 27.6917C177.544 27.6463 177.275 27.6825 177.036 27.7954C176.797 27.9082 176.598 28.0922 176.467 28.3223C176.163 28.9316 175.934 29.5759 175.786 30.2406C175.684 30.5775 175.486 30.8771 175.216 31.1025C175.185 31.1317 175.164 31.1698 175.155 31.2116C175.147 31.2534 175.152 31.2968 175.169 31.3357C175.224 31.4412 175.305 31.531 175.404 31.5966C175.503 31.6621 175.617 31.7012 175.736 31.7102C175.775 32.1345 175.847 32.5552 175.95 32.9686C176.022 33.185 176.138 33.384 176.292 33.5523C176.445 33.7206 176.633 33.8545 176.842 33.9452C176.862 33.9542 176.884 33.9581 176.907 33.9565C176.929 33.9549 176.95 33.9478 176.969 33.936C176.988 33.9247 177.004 33.9091 177.016 33.8904C177.028 33.8718 177.035 33.8506 177.037 33.8286C177.069 33.5531 177.124 33.2807 177.202 33.0145C177.331 32.8527 177.433 32.6719 177.505 32.4784C177.514 32.5032 177.516 32.5087 177.518 32.5124C177.531 32.5366 177.55 32.5569 177.574 32.5711C177.597 32.5853 177.624 32.5929 177.651 32.5932C177.804 32.5932 177.962 32.2994 178.069 32.0535C178.154 31.8267 178.21 31.5897 178.234 31.3485C178.252 31.1785 178.283 31.0101 178.326 30.8446C178.378 30.6675 178.453 30.561 178.529 30.561C178.559 30.561 178.631 30.5775 178.745 30.6886C178.761 30.7028 178.779 30.7137 178.799 30.7205C178.818 30.7273 178.839 30.7299 178.86 30.728C178.881 30.7257 178.9 30.7189 178.918 30.7081C178.936 30.6973 178.951 30.6828 178.962 30.6656C179.014 30.5635 179.09 30.4757 179.184 30.4104C179.277 30.345 179.386 30.304 179.5 30.2911C179.795 30.2911 180.167 30.5665 180.668 31.1622C181.061 31.6271 181.598 31.9465 182.194 32.0691C182.23 32.0724 182.267 32.064 182.298 32.045C182.329 32.0259 182.353 31.9974 182.366 31.9635C182.397 31.8772 182.361 31.7845 182.275 31.6028C182.732 31.8789 183.23 32.0826 183.75 32.2067C183.775 32.2067 183.8 32.2005 183.822 32.1887C183.844 32.1768 183.863 32.1597 183.877 32.1388C183.908 32.0784 183.921 32.0107 183.915 31.9433C183.922 31.9488 183.93 31.9562 183.938 31.9617C184.043 32.6021 184.19 33.2347 184.38 33.8553C184.389 33.8841 184.407 33.9094 184.431 33.9274C184.455 33.9454 184.484 33.9552 184.514 33.9553C184.524 33.9571 184.535 33.9571 184.545 33.9553C184.712 33.9163 184.869 33.8398 185.003 33.7313C185.014 33.7218 185.024 33.711 185.032 33.6992C185.381 33.0201 185.534 32.2574 185.474 31.4963C185.691 31.4605 185.933 31.3292 185.98 31.1732C185.994 31.1336 185.994 31.0906 185.98 31.0509C185.967 31.0112 185.941 30.9771 185.906 30.9538Z" fill="#242736"/>
<path d="M175.323 55.959L174.524 53.0358H174.883L175.494 55.4166H175.523L176.145 53.0358H176.545L177.167 55.4166H177.196L177.807 53.0358H178.166L177.367 55.959H177.001L176.356 53.6296H176.334L175.688 55.959H175.323ZM178.562 55.959V53.7666H178.898V55.959H178.562ZM178.733 53.4012C178.667 53.4012 178.611 53.3788 178.563 53.3341C178.516 53.2894 178.493 53.2356 178.493 53.1728C178.493 53.11 178.516 53.0562 178.563 53.0115C178.611 52.9668 178.667 52.9444 178.733 52.9444C178.799 52.9444 178.855 52.9668 178.901 53.0115C178.949 53.0562 178.973 53.11 178.973 53.1728C178.973 53.2356 178.949 53.2894 178.901 53.3341C178.855 53.3788 178.799 53.4012 178.733 53.4012ZM179.852 53.0358V55.959H179.515V53.0358H179.852ZM180.806 53.0358V55.959H180.469V53.0358H180.806ZM181.423 55.959V53.7666H181.76V55.959H181.423ZM181.594 53.4012C181.529 53.4012 181.472 53.3788 181.424 53.3341C181.378 53.2894 181.355 53.2356 181.355 53.1728C181.355 53.11 181.378 53.0562 181.424 53.0115C181.472 52.9668 181.529 52.9444 181.594 52.9444C181.66 52.9444 181.716 52.9668 181.763 53.0115C181.81 53.0562 181.834 53.11 181.834 53.1728C181.834 53.2356 181.81 53.2894 181.763 53.3341C181.716 53.3788 181.66 53.4012 181.594 53.4012ZM183.022 56.0104C182.883 56.0104 182.757 55.9842 182.644 55.9319C182.531 55.8786 182.441 55.802 182.374 55.7021C182.307 55.6012 182.274 55.4794 182.274 55.3367C182.274 55.2111 182.299 55.1092 182.348 55.0312C182.398 54.9522 182.464 54.8904 182.547 54.8457C182.63 54.8009 182.721 54.7676 182.821 54.7457C182.922 54.7229 183.023 54.7048 183.125 54.6915C183.258 54.6744 183.366 54.6615 183.449 54.653C183.533 54.6434 183.593 54.6277 183.632 54.6059C183.671 54.584 183.69 54.5459 183.69 54.4917V54.4803C183.69 54.3394 183.651 54.23 183.574 54.152C183.498 54.0739 183.383 54.0349 183.228 54.0349C183.067 54.0349 182.941 54.0701 182.849 54.1405C182.758 54.211 182.694 54.2861 182.657 54.3661L182.337 54.2519C182.394 54.1187 182.47 54.0149 182.565 53.9407C182.661 53.8655 182.766 53.8132 182.879 53.7837C182.993 53.7533 183.106 53.738 183.216 53.738C183.287 53.738 183.367 53.7466 183.459 53.7637C183.551 53.7799 183.64 53.8137 183.726 53.8651C183.812 53.9165 183.884 53.994 183.941 54.0977C183.998 54.2014 184.027 54.3404 184.027 54.5145V55.959H183.69V55.6621H183.673C183.65 55.7097 183.612 55.7606 183.559 55.8148C183.505 55.8691 183.435 55.9152 183.346 55.9533C183.258 55.9913 183.15 56.0104 183.022 56.0104ZM183.073 55.7078C183.207 55.7078 183.319 55.6816 183.41 55.6293C183.503 55.5769 183.572 55.5094 183.619 55.4266C183.666 55.3438 183.69 55.2567 183.69 55.1654V54.8571C183.676 54.8742 183.644 54.8899 183.596 54.9042C183.548 54.9175 183.493 54.9294 183.43 54.9399C183.368 54.9494 183.308 54.9579 183.249 54.9656C183.191 54.9722 183.144 54.9779 183.108 54.9827C183.02 54.9941 182.938 55.0127 182.862 55.0383C182.787 55.0631 182.726 55.1007 182.679 55.1511C182.634 55.2006 182.611 55.2681 182.611 55.3538C182.611 55.4708 182.654 55.5593 182.741 55.6193C182.828 55.6783 182.939 55.7078 183.073 55.7078ZM184.642 55.959V53.7666H184.967V54.1091H184.996C185.041 53.9921 185.115 53.9012 185.217 53.8365C185.319 53.7709 185.441 53.738 185.584 53.738C185.728 53.738 185.849 53.7709 185.945 53.8365C186.042 53.9012 186.118 53.9921 186.172 54.1091H186.195C186.251 53.9959 186.335 53.906 186.447 53.8394C186.56 53.7718 186.694 53.738 186.851 53.738C187.047 53.738 187.208 53.7994 187.332 53.9222C187.457 54.044 187.519 54.2338 187.519 54.4917V55.959H187.182V54.4917C187.182 54.3299 187.138 54.2143 187.05 54.1448C186.961 54.0754 186.857 54.0406 186.737 54.0406C186.583 54.0406 186.463 54.0873 186.379 54.1805C186.294 54.2728 186.252 54.3899 186.252 54.5316V55.959H185.909V54.4574C185.909 54.3328 185.869 54.2324 185.788 54.1562C185.707 54.0792 185.603 54.0406 185.475 54.0406C185.388 54.0406 185.306 54.0639 185.23 54.1106C185.155 54.1572 185.094 54.2219 185.047 54.3047C185.001 54.3865 184.979 54.4812 184.979 54.5887V55.959H184.642Z" fill="#5F616E"/>
<path d="M36.0669 35.1645C36.0667 37.2627 35.4443 39.3138 34.2784 41.0583C33.1126 42.8028 31.4556 44.1624 29.517 44.9652C27.5784 45.768 25.4453 45.9779 23.3874 45.5684C21.3295 45.1589 19.4393 44.1483 17.9557 42.6645C16.4722 41.1807 15.462 39.2903 15.0528 37.2323C14.6436 35.1744 14.8539 33.0413 15.657 31.1029C16.4601 29.1644 17.8201 27.5077 19.5648 26.3421C21.3095 25.1765 23.3607 24.5545 25.4589 24.5547C26.8521 24.5548 28.2316 24.8293 29.5187 25.3626C30.8057 25.8958 31.9752 26.6774 32.9602 27.6626C33.9453 28.6478 34.7266 29.8174 35.2597 31.1046C35.7927 32.3917 36.067 33.7713 36.0669 35.1645Z" fill="#E3E4E8"/>
<path d="M21.6039 33.7135C21.6039 33.7135 21.0926 33.5198 21.0073 33.6511C20.8788 33.9522 20.8518 34.2869 20.9302 34.6048C21.0151 34.9515 21.1972 35.2668 21.4552 35.5135C21.6599 35.5918 21.8791 35.6246 22.0977 35.6099C21.9766 34.9672 21.8116 34.3336 21.6039 33.7135Z" fill="#FA9884"/>
<path d="M29.3991 33.7135C29.3991 33.7135 29.9122 33.5198 29.9976 33.6511C30.1248 33.9526 30.1512 34.2871 30.0728 34.6048C29.9886 34.9518 29.8064 35.2672 29.5478 35.5135C29.3431 35.5918 29.1239 35.6246 28.9053 35.6099C29.0278 34.9675 29.1927 34.334 29.3991 33.7135Z" fill="#FA9884"/>
<path d="M27.9027 40.0073C27.6893 39.8571 27.5157 39.6572 27.3971 39.4248C27.2784 39.1924 27.2182 38.9345 27.2217 38.6736C27.2437 37.9349 27.3185 37.1987 27.4456 36.4707H23.4721C23.5993 37.1987 23.6735 37.9349 23.6943 38.6736C23.6981 38.9346 23.6381 39.1926 23.5194 39.4251C23.4007 39.6575 23.2269 39.8574 23.0132 40.0073L25.4584 43.8532L27.9027 40.0073Z" fill="#FFC2AB"/>
<path d="M27.2309 38.1744C27.2832 37.4713 27.4457 36.4727 27.4457 36.4727H23.4722C23.4722 36.4727 23.6246 37.3997 23.6805 38.0955C24.1769 38.6004 24.8087 38.951 25.4998 39.1051C26.1535 38.9656 26.754 38.6428 27.2309 38.1744Z" fill="#FA9884"/>
<path d="M25.4582 45.7711C28.1552 45.7716 30.75 44.7393 32.7094 42.8862C32.7094 42.8862 32.7095 42.8788 32.704 42.877C32.4203 42.7099 29.8503 41.1789 28.5735 40.4538C28.3367 40.3228 28.1107 40.173 27.8979 40.0059L25.4545 43.8518L23.0093 40.0059C22.797 40.1728 22.5717 40.3226 22.3356 40.4538C21.0588 41.1789 18.4887 42.7099 18.2051 42.877L18.1978 42.8862C20.1599 44.741 22.7582 45.7734 25.4582 45.7711Z" fill="#8B3F9A"/>
<path d="M27.3172 39.2402L25.7238 42.2454L25.4585 43.8535L26.3562 42.4409L27.9946 42.9503C27.9946 42.9503 28.314 40.3656 28.3296 40.3086C28.354 40.2354 28.354 40.1562 28.3296 40.0829C28.2957 40.0223 27.4815 39.2402 27.4815 39.2402H27.3172Z" fill="white"/>
<path d="M23.6004 39.2402L25.192 42.2454L25.4591 43.8535L24.5632 42.4446L22.923 42.954C22.923 42.954 22.6036 40.3692 22.588 40.3123C22.5618 40.2393 22.5618 40.1595 22.588 40.0865C22.6219 40.0259 23.4361 39.2439 23.4361 39.2439L23.6004 39.2402Z" fill="white"/>
<path d="M25.4998 27.2998C28.9346 27.2998 29.5743 30.4334 29.5624 31.6671C29.4865 33.1149 29.2325 34.5478 28.806 35.9334C28.3563 37.5957 26.2516 38.4007 25.5017 38.4007C24.7518 38.4007 22.6461 37.5957 22.1973 35.9334C21.7692 34.5481 21.5145 33.1151 21.4391 31.6671C21.4272 30.4362 22.0651 27.2998 25.4998 27.2998Z" fill="#FFC2AB"/>
<path d="M30.6933 30.9538C30.5288 30.7693 30.4205 30.5416 30.3813 30.2975C30.2741 29.8515 30.0698 29.4347 29.7828 29.0768C29.8864 28.9901 29.9678 28.8799 30.0202 28.7553C30.0726 28.6308 30.0944 28.4955 30.0839 28.3608C30.0761 28.3119 30.0513 28.2673 30.0138 28.2349C29.9764 28.2025 29.9287 28.1843 29.8792 28.1837H29.8645C29.3711 28.1129 28.9087 27.9013 28.5326 27.5742C27.6953 26.8316 26.6224 26.409 25.5036 26.381C24.9432 26.2889 24.3681 26.3642 23.8502 26.5973C23.3324 26.8304 22.8948 27.2111 22.5921 27.6917C22.3314 27.6463 22.063 27.6825 21.8237 27.7954C21.5843 27.9082 21.3856 28.0922 21.2548 28.3223C20.9509 28.9318 20.7222 29.576 20.5737 30.2406C20.472 30.5775 20.2739 30.8771 20.0037 31.1025C19.9726 31.1317 19.9514 31.1698 19.943 31.2116C19.9346 31.2534 19.9394 31.2968 19.9569 31.3357C20.0115 31.4412 20.0922 31.531 20.1913 31.5966C20.2905 31.6621 20.4047 31.7012 20.5232 31.7102C20.5626 32.1345 20.6344 32.5552 20.738 32.9686C20.8092 33.185 20.9254 33.384 21.0791 33.5523C21.2327 33.7206 21.4202 33.8545 21.6293 33.9452C21.6497 33.9542 21.672 33.9581 21.6942 33.9565C21.7164 33.9549 21.7379 33.9478 21.7569 33.936C21.7758 33.9247 21.7918 33.9091 21.8036 33.8904C21.8154 33.8718 21.8227 33.8506 21.8248 33.8286C21.8567 33.5531 21.912 33.2807 21.99 33.0145C22.1178 32.8523 22.2199 32.6715 22.2929 32.4784C22.3021 32.5032 22.3039 32.5087 22.3057 32.5124C22.3187 32.5365 22.3379 32.5567 22.3613 32.5709C22.3847 32.5851 22.4114 32.5928 22.4388 32.5932C22.5912 32.5932 22.7491 32.2994 22.8565 32.0535C22.942 31.8267 22.9976 31.5897 23.0217 31.3485C23.0413 31.1784 23.0736 31.01 23.1181 30.8446C23.1704 30.6675 23.2456 30.561 23.3209 30.561C23.3512 30.561 23.4228 30.5775 23.5375 30.6886C23.5528 30.7028 23.5709 30.7137 23.5907 30.7205C23.6105 30.7273 23.6315 30.7299 23.6523 30.728C23.6728 30.7257 23.6925 30.7189 23.7101 30.7081C23.7277 30.6973 23.7428 30.6828 23.7542 30.6656C23.8057 30.5635 23.8818 30.4757 23.9757 30.4104C24.0696 30.345 24.1783 30.304 24.292 30.2911C24.5876 30.2911 24.9593 30.5665 25.4605 31.1622C25.853 31.6269 26.3903 31.9463 26.986 32.0691C27.0223 32.0724 27.0587 32.064 27.0899 32.045C27.121 32.0259 27.1451 31.9974 27.1586 31.9635C27.1889 31.8772 27.1531 31.7845 27.0668 31.6028C27.5244 31.8789 28.022 32.0826 28.5418 32.2067C28.567 32.2067 28.5918 32.2005 28.6141 32.1887C28.6363 32.1768 28.6553 32.1597 28.6694 32.1388C28.6997 32.0784 28.7127 32.0107 28.707 31.9433C28.7144 31.9488 28.7217 31.9562 28.73 31.9617C28.8347 32.6021 28.9825 33.2347 29.1724 33.8553C29.1811 33.8841 29.1988 33.9094 29.2229 33.9274C29.247 33.9454 29.2763 33.9552 29.3064 33.9553C29.3164 33.9571 29.3267 33.9571 29.3367 33.9553C29.5047 33.9163 29.6616 33.8398 29.7957 33.7313C29.8064 33.7218 29.8159 33.711 29.8241 33.6992C30.173 33.0201 30.3261 32.2574 30.2665 31.4963C30.4831 31.4605 30.7255 31.3292 30.7723 31.1732C30.7857 31.1331 30.7852 31.0896 30.7709 31.0498C30.7566 31.01 30.7292 30.9762 30.6933 30.9538Z" fill="#242736"/>
<path d="M14.9418 53.0759H15.3971L16.2253 54.4615L17.0536 53.0759H17.5108L16.4216 54.7971V55.959H16.031V54.7971L14.9418 53.0759ZM18.2645 55.7313C18.4987 55.7313 18.659 55.643 18.7453 55.4664C18.833 55.2884 18.8768 55.0909 18.8768 54.8737C18.8768 54.6774 18.8454 54.5178 18.7826 54.3948C18.6832 54.2012 18.5118 54.1043 18.2684 54.1043C18.0525 54.1043 17.8955 54.1868 17.7974 54.3516C17.6993 54.5165 17.6502 54.7154 17.6502 54.9482C17.6502 55.172 17.6993 55.3584 17.7974 55.5076C17.8955 55.6567 18.0512 55.7313 18.2645 55.7313ZM18.2782 53.7962C18.5491 53.7962 18.778 53.8865 18.9651 54.067C19.1522 54.2476 19.2458 54.5132 19.2458 54.8639C19.2458 55.2027 19.1634 55.4827 18.9985 55.7038C18.8336 55.925 18.5778 56.0355 18.2311 56.0355C17.942 56.0355 17.7123 55.938 17.5422 55.7431C17.3722 55.5468 17.2871 55.2839 17.2871 54.9541C17.2871 54.6009 17.3767 54.3196 17.556 54.1102C17.7352 53.9009 17.976 53.7962 18.2782 53.7962ZM20.021 53.857V55.2524C20.021 55.3597 20.038 55.4474 20.072 55.5154C20.1348 55.641 20.2519 55.7038 20.4233 55.7038C20.6693 55.7038 20.8368 55.5939 20.9258 55.3741C20.9742 55.2564 20.9984 55.0948 20.9984 54.8894V53.857H21.3516V55.959H21.018L21.0219 55.6489C20.9761 55.7287 20.9192 55.7961 20.8512 55.851C20.7164 55.9609 20.5529 56.0159 20.3605 56.0159C20.0609 56.0159 19.8568 55.9158 19.7482 55.7156C19.6893 55.6083 19.6599 55.4651 19.6599 55.2858V53.857H20.021ZM21.9149 53.857H22.2505V54.2201C22.278 54.1495 22.3454 54.0638 22.4527 53.963C22.56 53.861 22.6836 53.8099 22.8236 53.8099C22.8301 53.8099 22.8413 53.8106 22.857 53.8119C22.8727 53.8132 22.8995 53.8158 22.9374 53.8198V54.1926C22.9165 54.1887 22.8969 54.1861 22.8785 54.1848C22.8615 54.1835 22.8426 54.1828 22.8216 54.1828C22.6437 54.1828 22.507 54.2404 22.4115 54.3555C22.3159 54.4694 22.2682 54.6009 22.2682 54.75V55.959H21.9149V53.857ZM24.8333 53.0759V54.858C24.8333 55.0673 24.8725 55.2413 24.9511 55.38C25.0675 55.5894 25.2638 55.694 25.5398 55.694C25.8709 55.694 26.0959 55.5809 26.215 55.3545C26.2791 55.2315 26.3111 55.066 26.3111 54.858V53.0759H26.7076V54.6951C26.7076 55.0496 26.6598 55.3224 26.5643 55.5135C26.389 55.8615 26.058 56.0355 25.5712 56.0355C25.0845 56.0355 24.7541 55.8615 24.5801 55.5135C24.4846 55.3224 24.4369 55.0496 24.4369 54.6951V53.0759H24.8333ZM28.154 55.7215C28.3189 55.7215 28.4556 55.6528 28.5642 55.5154C28.6741 55.3767 28.7291 55.17 28.7291 54.8953C28.7291 54.7278 28.7048 54.5839 28.6564 54.4635C28.5648 54.2319 28.3974 54.1161 28.154 54.1161C27.9093 54.1161 27.7419 54.2384 27.6516 54.4831C27.6032 54.614 27.579 54.7801 27.579 54.9816C27.579 55.1439 27.6032 55.2819 27.6516 55.3957C27.7432 55.6129 27.9107 55.7215 28.154 55.7215ZM27.2394 53.8669H27.5829V54.1455C27.6536 54.05 27.7307 53.9761 27.8145 53.9238C27.9335 53.8453 28.0735 53.806 28.2345 53.806C28.4726 53.806 28.6748 53.8976 28.8409 54.0808C29.0071 54.2626 29.0902 54.523 29.0902 54.8619C29.0902 55.3198 28.9705 55.6469 28.731 55.8432C28.5792 55.9675 28.4026 56.0296 28.2011 56.0296C28.0428 56.0296 27.91 55.995 27.8027 55.9256C27.7399 55.8864 27.6699 55.819 27.5927 55.7235V56.797H27.2394V53.8669ZM29.728 54.9325C29.728 55.1576 29.7758 55.346 29.8713 55.4978C29.9668 55.6495 30.1199 55.7254 30.3305 55.7254C30.4941 55.7254 30.6282 55.6554 30.7329 55.5154C30.8388 55.3741 30.8918 55.172 30.8918 54.909C30.8918 54.6434 30.8375 54.4471 30.7289 54.3202C30.6203 54.192 30.4862 54.1279 30.3266 54.1279C30.1487 54.1279 30.0041 54.1959 29.8929 54.332C29.783 54.4681 29.728 54.6682 29.728 54.9325ZM30.2599 53.8198C30.4208 53.8198 30.5556 53.8538 30.6642 53.9218C30.727 53.9611 30.7983 54.0298 30.8781 54.1279V53.0661H31.2176V55.959H30.8997V55.6666C30.8173 55.7961 30.7198 55.8896 30.6073 55.9472C30.4947 56.0048 30.3659 56.0336 30.2206 56.0336C29.9864 56.0336 29.7836 55.9354 29.6122 55.7392C29.4408 55.5416 29.3551 55.2793 29.3551 54.9522C29.3551 54.646 29.433 54.3811 29.5887 54.1573C29.7457 53.9323 29.9694 53.8198 30.2599 53.8198ZM32.0125 55.3996C32.0125 55.5017 32.0498 55.5822 32.1243 55.641C32.1989 55.6999 32.2872 55.7294 32.3893 55.7294C32.5136 55.7294 32.634 55.7006 32.7504 55.643C32.9467 55.5475 33.0448 55.3911 33.0448 55.1739V54.8894C33.0016 54.9168 32.946 54.9397 32.878 54.9581C32.8099 54.9764 32.7432 54.9895 32.6778 54.9973L32.4639 55.0248C32.3357 55.0418 32.2395 55.0686 32.1754 55.1053C32.0668 55.1667 32.0125 55.2649 32.0125 55.3996ZM32.8682 54.6853C32.9493 54.6748 33.0036 54.6408 33.0311 54.5832C33.0468 54.5518 33.0546 54.5067 33.0546 54.4478C33.0546 54.3274 33.0114 54.2404 32.9251 54.1868C32.84 54.1318 32.7177 54.1043 32.5581 54.1043C32.3736 54.1043 32.2428 54.154 32.1656 54.2535C32.1224 54.3084 32.0943 54.3902 32.0812 54.4988H31.7515C31.758 54.2397 31.8417 54.0598 32.0027 53.9591C32.1649 53.857 32.3527 53.806 32.5659 53.806C32.8132 53.806 33.0141 53.8531 33.1684 53.9473C33.3215 54.0415 33.3981 54.1881 33.3981 54.3869V55.5979C33.3981 55.6345 33.4053 55.6639 33.4197 55.6862C33.4354 55.7084 33.4674 55.7195 33.5158 55.7195C33.5315 55.7195 33.5492 55.7189 33.5688 55.7176C33.5884 55.715 33.6094 55.7117 33.6316 55.7078V55.9688C33.5767 55.9845 33.5348 55.9943 33.506 55.9982C33.4772 56.0022 33.438 56.0041 33.3883 56.0041C33.2666 56.0041 33.1783 55.9609 33.1233 55.8746C33.0945 55.8288 33.0742 55.764 33.0625 55.6803C32.9905 55.7745 32.8871 55.8563 32.7524 55.9256C32.6176 55.995 32.4691 56.0296 32.3069 56.0296C32.1119 56.0296 31.9523 55.9708 31.828 55.853C31.705 55.7339 31.6435 55.5854 31.6435 55.4075C31.6435 55.2125 31.7044 55.0614 31.826 54.9541C31.9477 54.8468 32.1073 54.7808 32.3049 54.7559L32.8682 54.6853ZM34.0497 53.2702H34.4068V53.857H34.7425V54.1455H34.4068V55.5174C34.4068 55.5907 34.4317 55.6397 34.4814 55.6646C34.5089 55.679 34.5547 55.6862 34.6188 55.6862C34.6358 55.6862 34.6541 55.6862 34.6738 55.6862C34.6934 55.6849 34.7163 55.6829 34.7425 55.6803V55.959C34.7019 55.9708 34.6594 55.9793 34.6149 55.9845C34.5717 55.9897 34.5246 55.9923 34.4736 55.9923C34.3087 55.9923 34.1969 55.9505 34.138 55.8667C34.0791 55.7817 34.0497 55.6718 34.0497 55.537V54.1455H33.7651V53.857H34.0497V53.2702ZM35.973 53.8099C36.1222 53.8099 36.2667 53.8453 36.4067 53.9159C36.5467 53.9853 36.6534 54.0755 36.7266 54.1868C36.7973 54.2927 36.8444 54.4164 36.8679 54.5577C36.8889 54.6545 36.8993 54.8089 36.8993 55.0209H35.3587C35.3653 55.2341 35.4156 55.4055 35.5098 55.5351C35.604 55.6633 35.7499 55.7274 35.9475 55.7274C36.132 55.7274 36.2792 55.6666 36.3891 55.5449C36.4519 55.4742 36.4964 55.3924 36.5225 55.2996H36.8699C36.8608 55.3767 36.83 55.4631 36.7777 55.5586C36.7266 55.6528 36.6691 55.73 36.605 55.7902C36.4977 55.8949 36.3649 55.9655 36.2066 56.0022C36.1215 56.0231 36.0253 56.0336 35.918 56.0336C35.6564 56.0336 35.4346 55.9387 35.2527 55.749C35.0709 55.558 34.9799 55.291 34.9799 54.9482C34.9799 54.6107 35.0715 54.3366 35.2547 54.1259C35.4379 53.9153 35.6773 53.8099 35.973 53.8099ZM36.5363 54.7402C36.5219 54.5871 36.4885 54.4648 36.4362 54.3732C36.3394 54.2031 36.1778 54.1181 35.9514 54.1181C35.7892 54.1181 35.6531 54.1769 35.5432 54.2947C35.4333 54.4111 35.3751 54.5597 35.3685 54.7402H36.5363Z" fill="#5F616E"/>
<path d="M38.3743 30.696C38.3743 31.3677 38.1752 32.0243 37.802 32.5828C37.4288 33.1413 36.8984 33.5766 36.2778 33.8336C35.6573 34.0907 34.9744 34.1579 34.3156 34.0269C33.6568 33.8958 33.0517 33.5724 32.5767 33.0974C32.1018 32.6224 31.7783 32.0173 31.6473 31.3585C31.5162 30.6997 31.5835 30.0169 31.8405 29.3963C32.0976 28.7757 32.5329 28.2453 33.0914 27.8722C33.6499 27.499 34.3065 27.2998 34.9782 27.2998C35.8789 27.2998 36.7427 27.6576 37.3796 28.2945C38.0166 28.9314 38.3743 29.7952 38.3743 30.696Z" fill="#8B3F9A"/>
<path d="M33.7715 30.6992H36.1809" stroke="white" stroke-width="0.688411" stroke-miterlimit="10" stroke-linecap="round"/>
<path d="M34.9766 29.4941V31.9036" stroke="white" stroke-width="0.688411" stroke-miterlimit="10" stroke-linecap="round"/>
<path d="M17.8795 11.2886C17.8795 11.7921 17.7852 12.2233 17.5966 12.5823C17.4095 12.9397 17.1539 13.2135 16.8299 13.4037C16.5075 13.5938 16.1416 13.6889 15.7325 13.6889C15.3233 13.6889 14.9567 13.5938 14.6327 13.4037C14.3102 13.212 14.0547 12.9375 13.8661 12.58C13.679 12.221 13.5854 11.7905 13.5854 11.2886C13.5854 10.7851 13.679 10.3546 13.8661 9.99715C14.0547 9.63817 14.3102 9.36361 14.6327 9.17347C14.9567 8.98333 15.3233 8.88826 15.7325 8.88826C16.1416 8.88826 16.5075 8.98333 16.8299 9.17347C17.1539 9.36361 17.4095 9.63817 17.5966 9.99715C17.7852 10.3546 17.8795 10.7851 17.8795 11.2886ZM17.0284 11.2886C17.0284 10.9342 16.9729 10.6353 16.8619 10.3919C16.7524 10.147 16.6003 9.96217 16.4056 9.83744C16.2108 9.71119 15.9865 9.64806 15.7325 9.64806C15.4784 9.64806 15.2541 9.71119 15.0594 9.83744C14.8647 9.96217 14.7118 10.147 14.6008 10.3919C14.4912 10.6353 14.4365 10.9342 14.4365 11.2886C14.4365 11.643 14.4912 11.9427 14.6008 12.1876C14.7118 12.4309 14.8647 12.6157 15.0594 12.742C15.2541 12.8667 15.4784 12.9291 15.7325 12.9291C15.9865 12.9291 16.2108 12.8667 16.4056 12.742C16.6003 12.6157 16.7524 12.4309 16.8619 12.1876C16.9729 11.9427 17.0284 11.643 17.0284 11.2886ZM20.877 12.151V10.1204H21.703V13.625H20.9021V13.0021H20.8656C20.7865 13.1983 20.6565 13.3588 20.4755 13.4835C20.296 13.6083 20.0747 13.6706 19.8115 13.6706C19.5818 13.6706 19.3787 13.6197 19.2023 13.5178C19.0274 13.4143 18.8905 13.2645 18.7916 13.0683C18.6927 12.8705 18.6433 12.6317 18.6433 12.3518V10.1204H19.4693V12.2241C19.4693 12.4461 19.5301 12.6226 19.6518 12.7534C19.7735 12.8842 19.9332 12.9496 20.1309 12.9496C20.2526 12.9496 20.3705 12.92 20.4846 12.8606C20.5987 12.8013 20.6922 12.7131 20.7652 12.596C20.8398 12.4773 20.877 12.329 20.877 12.151ZM22.5524 13.625V10.1204H23.3532V10.7045H23.3897C23.4536 10.5022 23.5631 10.3462 23.7183 10.2367C23.875 10.1257 24.0537 10.0702 24.2545 10.0702C24.3001 10.0702 24.3511 10.0724 24.4073 10.077C24.4651 10.0801 24.5131 10.0854 24.5511 10.093V10.8528C24.5161 10.8406 24.4606 10.83 24.3845 10.8208C24.31 10.8102 24.2377 10.8049 24.1678 10.8049C24.0172 10.8049 23.8818 10.8376 23.7616 10.903C23.643 10.9669 23.5494 11.0558 23.481 11.1699C23.4125 11.284 23.3783 11.4156 23.3783 11.5647V13.625H22.5524ZM26.5247 9.66175V8.95215H30.253V9.66175H28.8087V13.625H27.969V9.66175H26.5247ZM31.9785 13.6934C31.6271 13.6934 31.3236 13.6204 31.0681 13.4744C30.8141 13.3269 30.6186 13.1185 30.4817 12.8492C30.3448 12.5785 30.2764 12.2598 30.2764 11.8932C30.2764 11.5327 30.3448 11.2163 30.4817 10.944C30.6201 10.6702 30.8133 10.4573 31.0613 10.3052C31.3092 10.1515 31.6005 10.0747 31.9351 10.0747C32.1511 10.0747 32.355 10.1097 32.5466 10.1797C32.7398 10.2481 32.9102 10.3546 33.0577 10.4991C33.2068 10.6436 33.3239 10.8277 33.4091 11.0513C33.4943 11.2734 33.5369 11.538 33.5369 11.8453V12.0986H30.6642V11.5418H32.7451C32.7436 11.3836 32.7094 11.2429 32.6424 11.1197C32.5755 10.995 32.482 10.8969 32.3618 10.8254C32.2432 10.7539 32.1047 10.7182 31.9465 10.7182C31.7777 10.7182 31.6294 10.7592 31.5016 10.8414C31.3738 10.922 31.2742 11.0285 31.2027 11.1608C31.1327 11.2916 31.097 11.4354 31.0955 11.592V12.078C31.0955 12.2819 31.1327 12.4568 31.2073 12.6028C31.2818 12.7473 31.386 12.8584 31.5199 12.9359C31.6537 13.012 31.8104 13.05 31.9899 13.05C32.1101 13.05 32.2188 13.0333 32.3162 12.9998C32.4135 12.9648 32.4979 12.9139 32.5694 12.847C32.6409 12.78 32.6949 12.6971 32.7314 12.5983L33.5026 12.685C33.454 12.8888 33.3612 13.0668 33.2243 13.2189C33.0889 13.3695 32.9155 13.4866 32.7041 13.5702C32.4926 13.6524 32.2508 13.6934 31.9785 13.6934ZM35.2441 13.6957C35.022 13.6957 34.822 13.6562 34.644 13.5771C34.4676 13.4965 34.3276 13.3778 34.2242 13.2211C34.1223 13.0645 34.0713 12.8713 34.0713 12.6416C34.0713 12.4439 34.1078 12.2803 34.1809 12.151C34.2539 12.0218 34.3535 11.9183 34.4798 11.8407C34.606 11.7632 34.7482 11.7046 34.9064 11.6651C35.0661 11.624 35.2312 11.5943 35.4015 11.5761C35.6069 11.5548 35.7735 11.5358 35.9012 11.519C36.029 11.5008 36.1218 11.4734 36.1796 11.4369C36.2389 11.3989 36.2686 11.3403 36.2686 11.2612V11.2475C36.2686 11.0756 36.2176 10.9425 36.1157 10.8482C36.0138 10.7539 35.867 10.7068 35.6753 10.7068C35.473 10.7068 35.3126 10.7509 35.1939 10.8391C35.0768 10.9273 34.9977 11.0315 34.9566 11.1517L34.1854 11.0422C34.2463 10.8292 34.3467 10.6512 34.4866 10.5082C34.6265 10.3637 34.7977 10.2557 35 10.1843C35.2023 10.1112 35.4259 10.0747 35.6708 10.0747C35.8396 10.0747 36.0077 10.0945 36.175 10.1341C36.3424 10.1736 36.4952 10.239 36.6336 10.3303C36.7721 10.42 36.8831 10.5425 36.9668 10.6976C37.052 10.8528 37.0945 11.0467 37.0945 11.2794V13.625H36.3005V13.1436H36.2731C36.2229 13.2409 36.1522 13.3322 36.0609 13.4174C35.9712 13.501 35.8579 13.5687 35.721 13.6204C35.5856 13.6706 35.4266 13.6957 35.2441 13.6957ZM35.4586 13.0888C35.6244 13.0888 35.7681 13.0561 35.8898 12.9907C36.0115 12.9238 36.1051 12.8355 36.1705 12.726C36.2374 12.6165 36.2709 12.4971 36.2709 12.3678V11.9548C36.245 11.9761 36.2009 11.9959 36.1385 12.0141C36.0777 12.0324 36.0092 12.0484 35.9332 12.0621C35.8571 12.0757 35.7818 12.0879 35.7073 12.0986C35.6328 12.1092 35.5681 12.1183 35.5133 12.1259C35.3901 12.1427 35.2799 12.1701 35.1825 12.2081C35.0852 12.2461 35.0083 12.2994 34.9521 12.3678C34.8958 12.4347 34.8676 12.5214 34.8676 12.6279C34.8676 12.78 34.9232 12.8949 35.0342 12.9724C35.1452 13.05 35.2867 13.0888 35.4586 13.0888ZM37.9251 13.625V10.1204H38.7145V10.7159H38.7556C38.8286 10.5151 38.9495 10.3584 39.1184 10.2459C39.2872 10.1318 39.4888 10.0747 39.723 10.0747C39.9603 10.0747 40.1603 10.1325 40.3231 10.2481C40.4874 10.3622 40.603 10.5181 40.6699 10.7159H40.7064C40.784 10.5212 40.9148 10.366 41.0989 10.2504C41.2844 10.1333 41.5042 10.0747 41.7583 10.0747C42.0807 10.0747 42.3439 10.1766 42.5477 10.3805C42.7515 10.5843 42.8535 10.8817 42.8535 11.2726V13.625H42.0252V11.4004C42.0252 11.1829 41.9674 11.0239 41.8518 10.9235C41.7362 10.8216 41.5947 10.7706 41.4274 10.7706C41.2282 10.7706 41.0722 10.833 40.9597 10.9577C40.8486 11.0809 40.7931 11.2414 40.7931 11.4392V13.625H39.9831V11.3662C39.9831 11.1851 39.9284 11.0406 39.8189 10.9326C39.7109 10.8246 39.5694 10.7706 39.3945 10.7706C39.2758 10.7706 39.1678 10.8011 39.0705 10.8619C38.9731 10.9212 38.8955 11.0056 38.8377 11.1152C38.7799 11.2232 38.751 11.3494 38.751 11.4939V13.625H37.9251Z" fill="#5F616E"/>
<path d="M204.761 38.4406L208.036 35.1628L204.761 31.8896" stroke="#8B3F9A" stroke-width="1.37682" stroke-miterlimit="10" stroke-linecap="round" stroke-linejoin="round"/>
<defs>
<linearGradient id="paint0_linear_854_2807" x1="59.8223" y1="42.8885" x2="74.334" y2="42.8885" gradientUnits="userSpaceOnUse">
<stop stop-color="#9D62F5"/>
<stop offset="1" stop-color="#6049CD"/>
</linearGradient>
</defs>
</svg>
